# Blender v2.90.1 OBJ File: ''
# www.blender.org
o universe_chevron
v 4.279016 0.270489 0.242163
v 4.233957 0.289926 0.251274
v 4.233957 0.289926 0.242163
v 4.244522 0.305236 0.251274
v 4.244522 0.305236 0.242163
v 4.270925 0.352486 0.251274
v 4.270925 0.352486 0.242163
v 4.237082 -0.321549 0.242163
v 4.230236 -0.311125 0.251274
v 4.230236 -0.311125 0.242163
v 4.279016 0.270489 0.251274
v 4.267449 -0.374286 0.242163
v 4.237082 -0.321549 0.251274
v 4.274916 -0.291610 0.251274
v 4.267449 -0.374286 0.251274
v 4.274916 -0.291610 0.242163
v 4.097439 0.133299 0.219977
v 4.048707 0.101106 0.179547
v 4.048707 0.101106 0.219977
v 4.270925 0.352486 0.219891
v 4.244522 0.305236 0.179547
v 4.244522 0.305236 0.219891
v 3.946547 0.055008 0.242163
v 4.000057 0.075645 0.219759
v 3.946547 0.055008 0.219759
v 4.141924 -0.192020 0.242163
v 4.189590 -0.249238 0.242163
v 4.283352 -0.198212 0.242163
v 4.048707 0.101106 0.242163
v 4.048707 0.101106 0.219759
v 4.244522 0.305236 0.219897
v 4.195328 0.233947 0.179547
v 4.195328 0.233947 0.219897
v 3.946547 0.055008 0.220084
v 3.898966 0.041119 0.179547
v 3.898966 0.041119 0.220084
v 4.290292 0.088127 0.242163
v 4.287852 0.180951 0.179547
v 4.287852 0.180951 0.242163
v 4.146313 0.177754 0.179547
v 4.120125 0.154396 0.219977
v 4.146313 0.177754 0.219977
v 4.097439 0.133299 0.242163
v 4.258423 0.473641 0.179547
v 4.119061 0.467289 0.179547
v 4.117979 0.522648 0.179547
v 4.117793 -0.459980 0.179548
v 4.262787 -0.414375 0.179547
v 4.113173 -0.408250 0.179548
v 4.283352 -0.198212 0.179547
v 4.189590 -0.249238 0.179547
v 4.141924 -0.192020 0.179547
v 4.097439 0.133299 0.179547
v 4.290292 0.088127 0.179547
v 3.996022 0.221145 0.179547
v 3.940238 0.184748 0.220084
v 3.996022 0.221145 0.220084
v 4.119061 0.467289 0.220084
v 4.117979 0.522648 0.220084
v 4.108799 0.603353 0.179547
v 4.108799 0.603353 0.220084
v 4.140274 0.632494 0.179547
v 4.140274 0.632494 0.220084
v 4.183735 0.737958 0.179547
v 4.166017 0.676755 0.220084
v 4.183735 0.737958 0.220084
v 4.237389 0.687512 0.179547
v 4.232737 0.799838 0.220084
v 4.237389 0.687512 0.220084
v 4.270925 0.352487 0.179547
v 4.266325 0.416450 0.220084
v 4.270925 0.352486 0.220084
v 3.935923 -0.197800 0.220085
v 3.991298 -0.231317 0.179548
v 3.991298 -0.231317 0.220085
v 4.115283 0.413860 0.220084
v 4.166017 0.676755 0.179547
v 4.117793 -0.459980 0.220085
v 4.115834 -0.514008 0.179548
v 4.115834 -0.514008 0.220085
v 4.105027 0.377584 0.179547
v 4.089894 0.346678 0.220084
v 4.105027 0.377584 0.220084
v 4.188607 0.794009 0.179547
v 4.188607 0.794009 0.220084
v 4.104745 -0.616390 0.179548
v 4.104745 -0.616390 0.220085
v 4.232737 0.799838 0.179547
v 4.132353 -0.645859 0.179548
v 4.132353 -0.645859 0.220085
v 4.270925 0.352487 0.179547
v 4.161946 -0.686058 0.220085
v 4.172920 -0.730885 0.179548
v 4.172920 -0.730885 0.220085
v 4.229177 -0.810110 0.220085
v 4.236107 -0.679293 0.179548
v 4.236107 -0.679293 0.220085
v 4.262787 -0.414375 0.220084
v 4.267449 -0.374286 0.179547
v 4.267449 -0.374286 0.220084
v 4.113173 -0.408250 0.220085
v 4.161946 -0.686058 0.179548
v 4.266325 0.416450 0.179547
v 4.258423 0.473641 0.220084
v 4.083830 -0.343799 0.220085
v 4.098412 -0.374235 0.179548
v 4.098412 -0.374235 0.220085
v 4.179993 -0.807566 0.179548
v 4.179993 -0.807566 0.220085
v 4.252105 0.538694 0.220084
v 4.229177 -0.810110 0.179548
v 4.252105 0.538694 0.179547
v 3.940238 0.184748 0.179547
v 4.042824 0.269437 0.179547
v 4.042824 0.269437 0.220084
v 4.089894 0.346678 0.179547
v 4.254829 -0.488668 0.179548
v 4.115283 0.413860 0.179547
v 4.245469 -0.552994 0.220085
v 4.254829 -0.488668 0.220085
v 3.898438 -0.000524 0.179547
v 3.898829 0.029868 0.188511
v 4.245469 -0.552994 0.179548
v 3.945120 -0.065081 0.220084
v 3.935923 -0.197800 0.179548
v 4.037717 -0.272523 0.179548
v 4.037717 -0.272523 0.220085
v 4.083830 -0.343799 0.179548
v 4.237082 -0.321549 0.220116
v 4.141924 -0.192020 0.220116
v 4.189590 -0.249238 0.179547
v 4.189590 -0.249238 0.220116
v 4.116297 -0.168116 0.220116
v 4.141924 -0.192020 0.179547
v 4.094115 -0.146545 0.220116
v 4.116297 -0.168116 0.179547
v 4.046162 -0.113329 0.220116
v 4.094115 -0.146545 0.179547
v 3.998129 -0.086845 0.220116
v 4.046162 -0.113329 0.179547
v 3.945120 -0.065081 0.220116
v 3.998129 -0.086845 0.179547
v 3.897883 -0.050189 0.242163
v 3.945120 -0.065081 0.179547
v 3.945120 -0.065081 0.242163
v 4.289191 -0.004658 0.242163
v 4.289096 -0.012678 0.179547
v 4.289096 -0.012678 0.242163
v 4.287994 -0.105464 0.179547
v 4.287994 -0.105464 0.242163
v 4.048707 0.101106 0.219759
v 3.996022 0.221145 0.220084
v 3.940238 0.184748 0.220084
v 4.098412 -0.374235 0.220085
v 4.113173 -0.408250 0.220085
v 4.267449 -0.374286 0.220084
v 4.120125 0.154397 0.179547
v 4.097439 0.133299 0.179547
v 4.120125 0.154396 0.242163
v 4.146313 0.177753 0.242163
v 4.000057 0.075645 0.179547
v 4.048707 0.101106 0.179547
v 3.946547 0.055008 0.179547
v 4.195328 0.233947 0.219977
v 4.244522 0.305236 0.219891
v 4.042824 0.269437 0.220084
v 3.998129 -0.086845 0.242163
v 4.046162 -0.113329 0.242163
v 4.094115 -0.146545 0.242163
v 4.116297 -0.168116 0.242163
v 4.237082 -0.321549 0.179547
v 4.237082 -0.321549 0.179547
v 3.898379 -0.006026 0.188511
v 3.728473 -0.032790 0.188512
v 3.728805 -0.002691 0.188512
v 3.898344 -0.008545 0.242163
v 3.898045 -0.036126 0.233768
v 3.898447 -0.000230 0.188511
v 3.898438 -0.000524 0.242163
v 3.898379 -0.006026 0.233768
v 3.898829 0.029868 0.233768
v 3.898447 -0.000230 0.233768
v 3.898966 0.041119 0.242163
v 3.898045 -0.036126 0.188511
v 3.897883 -0.050189 0.179547
v 3.898344 -0.008545 0.179547
v 3.898829 0.029868 0.217810
v 3.728873 0.003106 0.233768
v 3.729254 0.033204 0.217811
v 3.728873 0.003106 0.188512
v 3.728805 -0.002691 0.233768
v 3.729254 0.033204 0.188512
v 3.729254 0.033204 0.233768
v 3.728473 -0.032790 0.233768
v 3.765434 -0.041473 -0.000559
v 3.564941 -0.071205 0.207210
v 3.564941 -0.071205 -0.000559
v 3.564938 0.071916 -0.000559
v 3.564938 0.071916 0.207210
v 3.765431 0.042194 -0.000560
v 3.765431 0.042194 0.245515
v 3.648098 0.129982 0.202508
v 3.600098 -0.162812 0.202508
v 3.648105 -0.143619 0.202508
v 3.951265 0.174374 0.202508
v 3.913374 -0.173128 0.202508
v 3.951274 -0.193644 0.202508
v 3.860834 0.136009 0.202508
v 3.860842 -0.155244 0.202508
v 3.814541 -0.140411 0.202508
v 3.814535 0.122496 0.202508
v 3.762869 -0.133953 0.202508
v 3.762862 0.116573 0.202508
v 3.702120 -0.132673 0.202508
v 3.702114 0.114820 0.202508
v 3.600098 -0.162812 0.144802
v 3.648098 0.129982 0.144802
v 3.648105 -0.143619 0.144802
v 3.913374 -0.173128 0.144802
v 3.951265 0.174374 0.144801
v 3.951274 -0.193644 0.144802
v 3.860834 0.136009 0.144801
v 3.913366 0.157085 0.144801
v 3.814541 -0.140411 0.144802
v 3.860842 -0.155244 0.144802
v 3.762869 -0.133953 0.144802
v 3.814535 0.122496 0.144801
v 3.702120 -0.132673 0.144802
v 3.762862 0.116573 0.144801
v 3.702114 0.114820 0.144801
v 3.913366 0.157085 0.202508
v 3.600090 0.151564 0.144802
v 3.600090 0.151564 0.202508
v 3.623280 -0.177774 0.174573
v 3.623730 0.172125 0.179418
v 3.623739 -0.177774 0.179419
v 3.621919 -0.177774 0.169912
v 3.623271 0.172125 0.174572
v 3.619711 -0.177775 0.165618
v 3.621911 0.172126 0.169912
v 3.616738 -0.177776 0.161854
v 3.619702 0.172125 0.165618
v 3.613116 -0.177774 0.158764
v 3.616729 0.172125 0.161854
v 3.608984 -0.177775 0.156469
v 3.613107 0.172126 0.158764
v 3.604498 -0.177775 0.155056
v 3.608975 0.172124 0.156469
v 3.599836 -0.177775 0.154578
v 3.604490 0.172125 0.155056
v 3.595173 -0.177775 0.155056
v 3.599828 0.172124 0.154578
v 3.590689 -0.177776 0.156469
v 3.595164 0.172124 0.155056
v 3.586556 -0.177776 0.158764
v 3.590680 0.172125 0.156469
v 3.582934 -0.177776 0.161854
v 3.586548 0.172124 0.158764
v 3.579962 -0.177776 0.165618
v 3.582926 0.172124 0.161854
v 3.577753 -0.177776 0.169912
v 3.579954 0.172124 0.165618
v 3.576392 -0.177776 0.174573
v 3.577743 0.172124 0.169912
v 3.575933 -0.177776 0.179419
v 3.576383 0.172124 0.174573
v 3.576383 0.172124 0.184265
v 3.575923 0.172124 0.179419
v 3.576392 -0.177776 0.184265
v 3.577743 0.172124 0.188925
v 3.577753 -0.177776 0.188925
v 3.579954 0.172124 0.193219
v 3.579962 -0.177776 0.193219
v 3.582926 0.172124 0.196984
v 3.582934 -0.177776 0.196984
v 3.586548 0.172124 0.200073
v 3.586556 -0.177776 0.200073
v 3.590680 0.172125 0.202368
v 3.590689 -0.177776 0.202368
v 3.595164 0.172124 0.203782
v 3.595173 -0.177775 0.203782
v 3.599828 0.172124 0.204259
v 3.599836 -0.177775 0.204259
v 3.604490 0.172125 0.203782
v 3.604498 -0.177775 0.203782
v 3.608975 0.172124 0.202368
v 3.608984 -0.177775 0.202368
v 3.613107 0.172126 0.200073
v 3.613116 -0.177774 0.200073
v 3.616729 0.172125 0.196984
v 3.616738 -0.177776 0.196984
v 3.619702 0.172125 0.193219
v 3.619711 -0.177775 0.193219
v 3.621911 0.172126 0.188924
v 3.623271 0.172125 0.184264
v 3.621919 -0.177774 0.188924
v 3.623280 -0.177774 0.184264
v 4.244522 0.305236 0.179547
v 4.195328 0.233947 0.219977
v 4.195328 0.233947 0.242163
v 3.945120 -0.065081 0.179547
v 3.998129 -0.086845 0.179547
v 3.998129 -0.086845 0.179547
v 4.233974 -0.289180 -0.294254
v 4.279031 -0.269741 -0.285143
v 4.233974 -0.289180 -0.285143
v 4.244539 -0.304490 -0.294254
v 4.244539 -0.304490 -0.285143
v 4.270944 -0.351740 -0.294254
v 4.270944 -0.351740 -0.285143
v 4.230221 0.311871 -0.294254
v 4.237068 0.322295 -0.285144
v 4.230221 0.311871 -0.285144
v 4.279031 -0.269741 -0.294254
v 4.267430 0.375033 -0.285144
v 4.237068 0.322295 -0.294254
v 4.274901 0.292357 -0.294254
v 4.267430 0.375033 -0.294254
v 4.274901 0.292357 -0.285144
v 4.097446 -0.132562 -0.262958
v 4.048714 -0.100370 -0.222528
v 4.048714 -0.100370 -0.262958
v 4.270944 -0.351740 -0.262872
v 4.244539 -0.304490 -0.222528
v 4.244539 -0.304490 -0.262872
v 3.946551 -0.054279 -0.262740
v 4.000062 -0.074912 -0.285143
v 4.000062 -0.074912 -0.262740
v 4.141915 0.192761 -0.285144
v 4.189579 0.249982 -0.285144
v 4.283343 0.198960 -0.285144
v 4.048714 -0.100370 -0.285143
v 4.048714 -0.100370 -0.262740
v 4.195343 -0.233204 -0.222528
v 4.244539 -0.304490 -0.262877
v 4.195343 -0.233204 -0.262877
v 3.946551 -0.054279 -0.263065
v 3.898970 -0.040391 -0.222528
v 3.898970 -0.040391 -0.263065
v 4.290298 -0.087379 -0.285143
v 4.287862 -0.180203 -0.222528
v 4.287862 -0.180203 -0.285143
v 4.146325 -0.177013 -0.222528
v 4.120133 -0.153657 -0.262958
v 4.146325 -0.177013 -0.262958
v 4.097446 -0.132562 -0.285143
v 4.119086 -0.466549 -0.222528
v 4.258448 -0.472895 -0.222528
v 4.118007 -0.521909 -0.222528
v 4.113154 0.408989 -0.222528
v 4.098393 0.374974 -0.222528
v 4.267430 0.375033 -0.222528
v 4.141915 0.192761 -0.222528
v 4.189579 0.249982 -0.222528
v 4.283343 0.198960 -0.222528
v 4.000062 -0.074912 -0.222528
v 4.289191 0.005406 -0.222528
v 3.996036 -0.220412 -0.222528
v 3.940249 -0.184017 -0.263065
v 3.996036 -0.220412 -0.263065
v 4.119086 -0.466549 -0.263065
v 4.118007 -0.521909 -0.263065
v 4.108831 -0.602614 -0.263065
v 4.140307 -0.631754 -0.222528
v 4.140307 -0.631754 -0.263065
v 4.183774 -0.737215 -0.222528
v 4.166053 -0.676013 -0.263065
v 4.183774 -0.737215 -0.263065
v 4.237426 -0.686766 -0.222528
v 4.232780 -0.799093 -0.263065
v 4.237426 -0.686766 -0.263065
v 4.270944 -0.351740 -0.222528
v 4.266346 -0.415703 -0.263065
v 4.270944 -0.351740 -0.263065
v 3.935916 0.198530 -0.263065
v 3.991287 0.232049 -0.222528
v 3.991287 0.232049 -0.263065
v 4.115306 -0.413121 -0.263065
v 4.166053 -0.676013 -0.222528
v 4.117772 0.460719 -0.263065
v 4.115810 0.514748 -0.222528
v 4.115810 0.514748 -0.263065
v 4.105048 -0.376845 -0.222528
v 4.089913 -0.345940 -0.263065
v 4.105048 -0.376845 -0.263065
v 4.188651 -0.793266 -0.222528
v 4.188651 -0.793266 -0.263065
v 4.104716 0.617128 -0.222528
v 4.104716 0.617128 -0.263065
v 4.232780 -0.799093 -0.222528
v 4.132323 0.646599 -0.222528
v 4.132323 0.646599 -0.263065
v 4.270944 -0.351740 -0.222528
v 4.161912 0.686799 -0.263065
v 4.172883 0.731628 -0.222528
v 4.172883 0.731628 -0.263065
v 4.229137 0.810855 -0.263065
v 4.236073 0.680039 -0.222528
v 4.236073 0.680039 -0.263065
v 4.262767 0.415122 -0.263065
v 4.267430 0.375033 -0.263065
v 4.113154 0.408989 -0.263065
v 4.117772 0.460719 -0.222528
v 4.161912 0.686799 -0.222528
v 4.266346 -0.415703 -0.222528
v 4.258448 -0.472895 -0.263065
v 4.083814 0.344537 -0.263065
v 4.098393 0.374974 -0.263065
v 4.179955 0.808308 -0.222528
v 4.179955 0.808308 -0.263065
v 4.252134 -0.537948 -0.263065
v 4.229137 0.810855 -0.222528
v 4.252134 -0.537948 -0.222528
v 3.946551 -0.054279 -0.222528
v 4.042840 -0.268702 -0.222528
v 4.042840 -0.268702 -0.263065
v 4.089913 -0.345940 -0.222528
v 4.254807 0.489414 -0.222528
v 4.262767 0.415122 -0.222528
v 4.115306 -0.413121 -0.222528
v 4.254807 0.489414 -0.263065
v 4.245441 0.553740 -0.222528
v 3.898440 0.001252 -0.222528
v 3.898832 -0.029140 -0.231492
v 4.245441 0.553740 -0.263065
v 3.945118 0.065812 -0.263065
v 3.935916 0.198530 -0.222528
v 4.037705 0.273258 -0.222528
v 4.037705 0.273258 -0.263065
v 4.083814 0.344537 -0.222528
v 4.237068 0.322295 -0.263097
v 4.189579 0.249982 -0.222528
v 4.141915 0.192761 -0.263097
v 4.189579 0.249982 -0.263097
v 4.141915 0.192761 -0.222528
v 4.116289 0.168855 -0.263097
v 4.116289 0.168855 -0.222528
v 4.094109 0.147284 -0.263097
v 4.094109 0.147284 -0.222528
v 4.046158 0.114064 -0.263097
v 4.046158 0.114064 -0.222528
v 3.998125 0.087578 -0.263097
v 3.998125 0.087578 -0.222528
v 3.945118 0.065812 -0.263097
v 3.897881 0.050917 -0.285144
v 3.945118 0.065812 -0.222528
v 3.945118 0.065812 -0.285144
v 4.290298 -0.087379 -0.222528
v 4.289096 0.013426 -0.222528
v 4.289191 0.005406 -0.285144
v 4.289096 0.013426 -0.285144
v 4.287990 0.106212 -0.222528
v 4.287990 0.106212 -0.285144
v 4.048714 -0.100370 -0.262740
v 3.996036 -0.220412 -0.263065
v 3.940249 -0.184017 -0.263065
v 4.098393 0.374974 -0.263065
v 4.113154 0.408989 -0.263065
v 4.267430 0.375033 -0.263065
v 4.120133 -0.153657 -0.222528
v 4.097446 -0.132562 -0.222528
v 4.120133 -0.153657 -0.285143
v 4.146325 -0.177013 -0.285143
v 4.000062 -0.074912 -0.222528
v 4.048714 -0.100370 -0.222528
v 4.146325 -0.177013 -0.262958
v 4.195343 -0.233204 -0.262877
v 3.998125 0.087578 -0.285144
v 4.046158 0.114064 -0.285144
v 4.094109 0.147284 -0.285144
v 4.116289 0.168855 -0.285144
v 4.237068 0.322295 -0.222528
v 4.237068 0.322295 -0.222528
v 3.898378 0.006755 -0.231492
v 3.728473 0.033510 -0.231492
v 3.728807 0.003410 -0.231492
v 3.898345 0.009273 -0.285144
v 3.898046 0.036854 -0.276748
v 3.898448 0.000957 -0.231492
v 3.898440 0.001252 -0.285144
v 3.898378 0.006755 -0.276748
v 3.898832 -0.029140 -0.276748
v 3.898448 0.000957 -0.276748
v 3.898970 -0.040391 -0.285144
v 3.898046 0.036854 -0.231492
v 3.897881 0.050917 -0.222528
v 3.898345 0.009273 -0.222528
v 3.728875 -0.002387 -0.231492
v 3.729258 -0.032485 -0.260792
v 3.728875 -0.002387 -0.276749
v 3.728807 0.003410 -0.276749
v 3.898832 -0.029140 -0.260791
v 3.729258 -0.032485 -0.231492
v 3.729258 -0.032485 -0.276749
v 3.728473 0.033510 -0.276749
v 3.765433 0.042195 -0.042421
v 3.564939 0.071916 -0.250191
v 3.564939 0.071916 -0.042421
v 3.564942 -0.071206 -0.042421
v 3.564942 -0.071206 -0.250191
v 3.765436 -0.041473 -0.042421
v 3.765436 -0.041473 -0.288496
v 3.765433 0.042195 -0.288496
v 3.648106 -0.129267 -0.245489
v 3.600091 0.163525 -0.245489
v 3.648099 0.144334 -0.245489
v 3.951275 -0.173643 -0.245489
v 3.913368 0.173856 -0.245489
v 3.951267 0.194374 -0.245489
v 3.860842 -0.135282 -0.245489
v 3.860836 0.155969 -0.245489
v 3.814536 0.141135 -0.245489
v 3.762870 -0.115851 -0.245489
v 3.762864 0.134673 -0.245489
v 3.702121 -0.114102 -0.245489
v 3.702115 0.133391 -0.245489
v 3.600091 0.163525 -0.187782
v 3.648106 -0.129267 -0.187782
v 3.648099 0.144334 -0.187782
v 3.913368 0.173856 -0.187782
v 3.951275 -0.173643 -0.187782
v 3.951267 0.194374 -0.187782
v 3.860842 -0.135282 -0.187782
v 3.913375 -0.156357 -0.187782
v 3.814536 0.141135 -0.187782
v 3.860836 0.155969 -0.187782
v 3.762870 -0.115851 -0.187782
v 3.814543 -0.121772 -0.187782
v 3.762864 0.134673 -0.187782
v 3.702121 -0.114102 -0.187782
v 3.702115 0.133391 -0.187782
v 3.913375 -0.156357 -0.245489
v 3.600098 -0.150852 -0.245489
v 3.814543 -0.121772 -0.245489
v 3.623732 0.178488 -0.222399
v 3.623280 -0.171411 -0.217553
v 3.623739 -0.171411 -0.222399
v 3.623273 0.178488 -0.217553
v 3.621921 -0.171412 -0.212892
v 3.621913 0.178488 -0.212893
v 3.619712 -0.171411 -0.208599
v 3.619703 0.178489 -0.208599
v 3.616740 -0.171412 -0.204834
v 3.616729 0.178488 -0.204834
v 3.613117 -0.171412 -0.201745
v 3.613108 0.178488 -0.201745
v 3.608985 -0.171411 -0.199450
v 3.608976 0.178489 -0.199450
v 3.604500 -0.171412 -0.198036
v 3.604491 0.178488 -0.198036
v 3.599837 -0.171412 -0.197559
v 3.599829 0.178487 -0.197559
v 3.595174 -0.171413 -0.198036
v 3.595164 0.178488 -0.198036
v 3.590690 -0.171413 -0.199449
v 3.590682 0.178488 -0.199449
v 3.586558 -0.171413 -0.201745
v 3.586549 0.178488 -0.201745
v 3.582936 -0.171412 -0.204834
v 3.582927 0.178487 -0.204834
v 3.579964 -0.171412 -0.208599
v 3.579954 0.178487 -0.208599
v 3.577754 -0.171413 -0.212893
v 3.577744 0.178488 -0.212893
v 3.576394 -0.171413 -0.217553
v 3.576385 0.178487 -0.217553
v 3.575934 -0.171413 -0.222399
v 3.576385 0.178487 -0.227246
v 3.575925 0.178488 -0.222399
v 3.577744 0.178488 -0.231905
v 3.576394 -0.171413 -0.227246
v 3.579954 0.178487 -0.236200
v 3.577754 -0.171413 -0.231905
v 3.582927 0.178487 -0.239964
v 3.579964 -0.171412 -0.236200
v 3.586549 0.178488 -0.243054
v 3.582936 -0.171412 -0.239964
v 3.590682 0.178488 -0.245349
v 3.586558 -0.171413 -0.243054
v 3.595164 0.178488 -0.246762
v 3.590690 -0.171413 -0.245349
v 3.599829 0.178487 -0.247240
v 3.595174 -0.171413 -0.246762
v 3.604491 0.178488 -0.246762
v 3.599837 -0.171412 -0.247240
v 3.608976 0.178489 -0.245349
v 3.604500 -0.171412 -0.246762
v 3.613108 0.178488 -0.243054
v 3.608985 -0.171411 -0.245349
v 3.616729 0.178488 -0.239964
v 3.613117 -0.171412 -0.243054
v 3.619703 0.178489 -0.236200
v 3.616740 -0.171412 -0.239964
v 3.621913 0.178488 -0.231905
v 3.619712 -0.171411 -0.236200
v 3.621921 -0.171412 -0.231905
v 3.623280 -0.171411 -0.227245
v 3.623273 0.178488 -0.227245
v 4.244539 -0.304490 -0.222528
v 4.195343 -0.233204 -0.285143
v 3.945118 0.065812 -0.222528
v 3.998125 0.087578 -0.222528
v 3.998125 0.087578 -0.222528
v 4.000057 0.075645 0.242163
v 4.195328 0.233947 0.179547
v 3.945120 -0.065081 0.179547
v 4.116297 -0.168116 0.179547
v 4.267449 -0.374286 0.179547
v 4.046162 -0.113329 0.179547
v 4.046162 -0.113329 0.179547
v 4.094115 -0.146545 0.179547
v 4.094115 -0.146545 0.179547
v 4.120125 0.154397 0.179547
v 4.289191 -0.004658 0.179547
v 4.146313 0.177754 0.179547
v 3.946547 0.055008 0.179547
v 4.000057 0.075645 0.179547
v 4.146313 0.177754 0.179547
v 4.120125 0.154397 0.179547
v 3.946547 0.055008 0.219759
v 4.000057 0.075645 0.219759
v 4.115834 -0.514008 0.220085
v 4.104745 -0.616390 0.220085
v 4.245469 -0.552994 0.220085
v 4.132353 -0.645859 0.220085
v 4.161946 -0.686058 0.220085
v 4.236107 -0.679293 0.220085
v 4.117793 -0.459980 0.220085
v 4.254829 -0.488668 0.220085
v 4.172920 -0.730885 0.220085
v 4.179993 -0.807566 0.220085
v 4.229177 -0.810110 0.220085
v 4.262787 -0.414375 0.220084
v 4.237082 -0.321549 0.220116
v 4.189590 -0.249238 0.220116
v 4.083830 -0.343799 0.220085
v 4.141924 -0.192020 0.220116
v 4.037717 -0.272523 0.220085
v 4.116297 -0.168116 0.220116
v 3.991298 -0.231317 0.220085
v 4.094115 -0.146545 0.220116
v 3.935923 -0.197800 0.220085
v 4.046162 -0.113329 0.220116
v 3.998129 -0.086845 0.220116
v 3.945120 -0.065081 0.220116
v 4.140274 0.632494 0.220084
v 4.108799 0.603353 0.220084
v 4.252105 0.538694 0.220084
v 4.117979 0.522648 0.220084
v 4.119061 0.467289 0.220084
v 4.258423 0.473641 0.220084
v 4.166017 0.676755 0.220084
v 4.237389 0.687512 0.220084
v 4.115283 0.413860 0.220084
v 4.266325 0.416450 0.220084
v 4.232737 0.799838 0.220084
v 4.188607 0.794009 0.220084
v 4.183735 0.737958 0.220084
v 4.105027 0.377584 0.220084
v 4.270925 0.352486 0.220084
v 4.089894 0.346678 0.220084
v 4.195328 0.233947 0.219897
v 4.120125 0.154396 0.219977
v 4.146313 0.177754 0.219977
v 4.048707 0.101106 0.219977
v 4.097439 0.133299 0.219977
v 3.765434 -0.041474 0.245516
v 3.946551 -0.054279 -0.285144
v 4.195343 -0.233204 -0.222528
v 3.940249 -0.184017 -0.222528
v 4.108831 -0.602614 -0.222528
v 3.945118 0.065812 -0.222528
v 4.094109 0.147284 -0.222528
v 4.094109 0.147284 -0.222528
v 4.116289 0.168855 -0.222528
v 4.046158 0.114064 -0.222528
v 4.046158 0.114064 -0.222528
v 4.267430 0.375033 -0.222528
v 4.146325 -0.177013 -0.222528
v 4.146325 -0.177013 -0.222528
v 4.120133 -0.153657 -0.222528
v 4.120133 -0.153657 -0.222528
v 4.097446 -0.132562 -0.222528
v 3.946551 -0.054279 -0.222528
v 3.946551 -0.054279 -0.262740
v 4.000062 -0.074912 -0.262740
v 4.115810 0.514748 -0.263065
v 4.104716 0.617128 -0.263065
v 4.245441 0.553740 -0.263065
v 4.132323 0.646599 -0.263065
v 4.161912 0.686799 -0.263065
v 4.236073 0.680039 -0.263065
v 4.117772 0.460719 -0.263065
v 4.254807 0.489414 -0.263065
v 4.172883 0.731628 -0.263065
v 4.179955 0.808308 -0.263065
v 4.229137 0.810855 -0.263065
v 4.262767 0.415122 -0.263065
v 4.237068 0.322295 -0.263097
v 4.189579 0.249982 -0.263097
v 4.037705 0.273258 -0.263065
v 4.083814 0.344537 -0.263065
v 4.141915 0.192761 -0.263097
v 4.116289 0.168855 -0.263097
v 3.991287 0.232049 -0.263065
v 4.094109 0.147284 -0.263097
v 3.935916 0.198530 -0.263065
v 4.046158 0.114064 -0.263097
v 3.998125 0.087578 -0.263097
v 3.945118 0.065812 -0.263097
v 4.140307 -0.631754 -0.263065
v 4.108831 -0.602614 -0.263065
v 4.252134 -0.537948 -0.263065
v 4.118007 -0.521909 -0.263065
v 4.119086 -0.466549 -0.263065
v 4.258448 -0.472895 -0.263065
v 4.166053 -0.676013 -0.263065
v 4.237426 -0.686766 -0.263065
v 4.115306 -0.413121 -0.263065
v 4.266346 -0.415703 -0.263065
v 4.232780 -0.799093 -0.263065
v 4.188651 -0.793266 -0.263065
v 4.183774 -0.737215 -0.263065
v 4.105048 -0.376845 -0.263065
v 4.270944 -0.351740 -0.263065
v 4.089913 -0.345940 -0.263065
v 4.244539 -0.304490 -0.262872
v 4.195343 -0.233204 -0.262958
v 4.042840 -0.268702 -0.263065
v 4.048714 -0.100370 -0.262958
v 4.097446 -0.132562 -0.262958
v 4.120133 -0.153657 -0.262958
v 3.600098 -0.150852 -0.187782
v 4.195343 -0.233204 -0.262958
v 3.897883 -0.050189 0.220084
v 3.897883 -0.050189 0.220084
v 3.897883 -0.050189 0.220084
v 3.897883 -0.050189 0.220084
v 3.897881 0.050917 -0.263065
v 3.897881 0.050917 -0.263065
v 3.897881 0.050917 -0.263065
v 3.897881 0.050917 -0.263065
vt 0.663589 0.245953
vt 0.594370 0.266174
vt 0.594399 0.252576
vt 0.610063 0.271936
vt 0.610086 0.258565
vt 0.646598 0.288446
vt 0.646607 0.275725
vt 0.614084 0.258768
vt 0.606725 0.276087
vt 0.606751 0.266699
vt 0.663586 0.259802
vt 0.654149 0.209190
vt 0.614065 0.268446
vt 0.716726 0.269157
vt 0.764305 0.223295
vt 0.829856 0.272503
vt 0.651440 0.282449
vt 0.654181 0.220663
vt 0.651461 0.291262
vt 0.680599 0.275050
vt 0.636952 0.235304
vt 0.655252 0.221535
vt 0.638785 0.128932
vt 0.642949 0.154239
vt 0.638186 0.129793
vt 0.642786 0.125877
vt 0.642949 0.154239
vt 0.641929 0.126340
vt 0.543926 0.115633
vt 0.567081 0.121603
vt 0.541859 0.124217
vt 0.472373 0.247575
vt 0.518136 0.286658
vt 0.474298 0.362632
vt 0.592540 0.113433
vt 0.589841 0.121255
vt 0.865431 0.065833
vt 0.529829 0.058009
vt 0.855980 0.049634
vt 0.541888 0.124095
vt 0.515143 0.143600
vt 0.518079 0.128122
vt 0.795019 0.150370
vt 0.850428 0.134442
vt 0.853179 0.151517
vt 0.721558 0.152205
vt 0.540636 0.127787
vt 0.534274 0.141686
vt 0.616102 0.115131
vt 0.625571 0.124836
vt 0.613130 0.122606
vt 0.595511 0.141232
vt 0.595435 0.142814
vt 0.596101 0.142826
vt 0.705374 0.137208
vt 0.698781 0.156998
vt 0.697895 0.136578
vt 0.587378 0.141255
vt 0.586757 0.142333
vt 0.587453 0.142881
vt 0.591416 0.143393
vt 0.590866 0.141175
vt 0.591024 0.143953
vt 0.828963 0.141313
vt 0.845759 0.152353
vt 0.828786 0.152771
vt 0.670570 0.143048
vt 0.702426 0.153495
vt 0.670251 0.153468
vt 0.621032 0.142830
vt 0.620658 0.153381
vt 0.613383 0.143282
vt 0.613011 0.153562
vt 0.567178 0.143814
vt 0.595543 0.153697
vt 0.566773 0.153776
vt 0.610618 0.144568
vt 0.548784 0.154019
vt 0.610271 0.154079
vt 0.789811 0.145225
vt 0.756822 0.154302
vt 0.789636 0.154342
vt 0.564394 0.149399
vt 0.573525 0.136790
vt 0.573528 0.148198
vt 0.702712 0.143116
vt 0.732315 0.153492
vt 0.595925 0.143617
vt 0.632506 0.145592
vt 0.646840 0.134921
vt 0.646739 0.145588
vt 0.751501 0.142985
vt 0.766558 0.153360
vt 0.751262 0.153443
vt 0.537521 0.143834
vt 0.537088 0.153784
vt 0.674270 0.135011
vt 0.674130 0.145714
vt 0.549191 0.144421
vt 0.680314 0.134644
vt 0.680168 0.145200
vt 0.904635 0.153709
vt 0.947357 0.139246
vt 0.688651 0.144660
vt 0.699472 0.134102
vt 0.699302 0.144443
vt 0.715078 0.143467
vt 0.682596 0.133384
vt 0.682454 0.143440
vt 0.616179 0.143185
vt 0.606259 0.133167
vt 0.606218 0.143137
vt 0.619080 0.145712
vt 0.632587 0.134924
vt 0.688807 0.134257
vt 0.757027 0.145125
vt 0.726446 0.154248
vt 0.602792 0.146299
vt 0.610577 0.135220
vt 0.610527 0.146006
vt 0.718312 0.133980
vt 0.718118 0.144272
vt 0.726680 0.144989
vt 0.691783 0.154198
vt 0.715264 0.133403
vt 0.692050 0.144864
vt 0.845926 0.140273
vt 0.930863 0.152469
vt 0.805341 0.142089
vt 0.805146 0.153083
vt 0.766784 0.142780
vt 0.634764 0.133258
vt 0.616233 0.133201
vt 0.732571 0.143108
vt 0.650885 0.143371
vt 0.634686 0.143264
vt 0.589786 0.145681
vt 0.590293 0.145675
vt 0.590293 0.145675
vt 0.650986 0.133334
vt 0.525903 0.149315
vt 0.564376 0.137650
vt 0.584399 0.136100
vt 0.584386 0.147234
vt 0.602831 0.135430
vt 0.619142 0.135010
vt 0.893864 0.132767
vt 0.894243 0.139531
vt 0.885529 0.140054
vt 0.758541 0.135772
vt 0.521688 0.146748
vt 0.622800 0.130586
vt 0.754638 0.137910
vt 0.800597 0.151625
vt 0.751230 0.139870
vt 0.796584 0.153783
vt 0.744310 0.142425
vt 0.793077 0.155764
vt 0.737607 0.144134
vt 0.786003 0.158323
vt 0.730459 0.145084
vt 0.779173 0.160013
vt 0.522231 0.140390
vt 0.577056 0.118823
vt 0.575082 0.143169
vt 0.735304 0.149874
vt 0.793332 0.133131
vt 0.729646 0.132514
vt 0.730115 0.149831
vt 0.670453 0.131941
vt 0.669780 0.149329
vt 0.611242 0.132140
vt 0.609425 0.149503
vt 0.550258 0.150381
vt 0.501753 0.134032
vt 0.928210 0.447120
vt 0.820563 0.404658
vt 0.852782 0.357642
vt 0.576768 0.847533
vt 0.608053 0.861462
vt 0.571996 0.992203
vt 0.546508 0.115625
vt 0.727584 0.138034
vt 0.733171 0.125621
vt 0.639337 0.127105
vt 0.628725 0.117456
vt 0.642683 0.119836
vt 0.589866 0.121180
vt 0.701695 0.136605
vt 0.705178 0.146173
vt 0.669162 0.134580
vt 0.733956 0.148184
vt 0.705177 0.146175
vt 0.709639 0.139141
vt 0.603422 0.096670
vt 0.618848 0.100116
vt 0.604271 0.094885
vt 0.617221 0.103791
vt 0.602765 0.098617
vt 0.810278 0.571143
vt 0.746845 0.613097
vt 0.777658 0.444326
vt 0.631005 0.137199
vt 0.630539 0.145332
vt 0.679690 0.138578
vt 0.679409 0.146327
vt 0.727822 0.139086
vt 0.727706 0.146507
vt 0.752336 0.138636
vt 0.752300 0.145931
vt 0.779066 0.138242
vt 0.779112 0.145395
vt 0.833585 0.136227
vt 0.833793 0.143161
vt 0.576260 0.144495
vt 0.593839 0.133537
vt 0.576261 0.134133
vt 0.593839 0.133537
vt 0.935409 0.136644
vt 0.934916 0.129959
vt 0.162629 0.538562
vt 0.184547 0.425333
vt 0.163958 0.424778
vt 0.327640 0.048465
vt 0.361729 0.048319
vt 0.361729 0.048319
vt 0.589689 0.145682
vt 0.589786 0.145681
vt 0.321075 0.048499
vt 0.327640 0.048465
vt 0.286985 0.048700
vt 0.321075 0.048499
vt 1.053302 0.089458
vt 1.055100 0.098833
vt 1.055100 0.098833
vt 0.524910 0.114595
vt 0.524910 0.114595
vt 0.589689 0.145682
vt 0.589181 0.145687
vt 1.050092 0.072718
vt 1.053302 0.089458
vt 0.825179 0.068490
vt 0.767972 0.054738
vt 0.828057 0.034537
vt 0.157422 0.544648
vt 0.162793 0.426478
vt 0.161442 0.544750
vt 0.158764 0.538463
vt 0.159992 0.424674
vt 0.137321 0.541905
vt 0.139395 0.424152
vt 0.138010 0.425221
vt 0.136547 0.544134
vt 0.158664 0.426370
vt 0.137225 0.425828
vt 0.138689 0.537969
vt 0.184224 0.427056
vt 0.182309 0.545296
vt 0.182697 0.539087
vt 0.148929 0.157777
vt 0.176932 0.028599
vt 0.169235 0.035604
vt 0.082695 0.034696
vt 0.083144 0.027618
vt 0.098949 0.157229
vt 0.101098 0.161003
vt 0.176179 0.026249
vt 0.096695 0.167063
vt 0.076784 0.025831
vt 0.586972 0.151935
vt 0.579695 0.100052
vt 0.588295 0.103952
vt 0.637263 0.158655
vt 0.632966 0.101603
vt 0.638979 0.098629
vt 0.623133 0.152571
vt 0.624506 0.104052
vt 0.616879 0.106105
vt 0.615632 0.150385
vt 0.608215 0.106728
vt 0.607020 0.149447
vt 0.597779 0.106386
vt 0.596590 0.149217
vt 0.579795 0.101396
vt 0.586667 0.150391
vt 0.587917 0.105065
vt 0.630280 0.102773
vt 0.634380 0.156867
vt 0.636004 0.099943
vt 0.620936 0.151066
vt 0.628817 0.154276
vt 0.614991 0.107062
vt 0.622235 0.105107
vt 0.606772 0.107662
vt 0.613813 0.148981
vt 0.596887 0.107352
vt 0.605643 0.148078
vt 0.595764 0.147841
vt 0.631419 0.155938
vt 0.578351 0.154070
vt 0.578166 0.155850
vt 0.733659 0.150279
vt 0.506435 0.152359
vt 0.733790 0.151191
vt 0.733539 0.148832
vt 0.507785 0.151441
vt 0.733435 0.146910
vt 0.508985 0.149988
vt 0.733348 0.144589
vt 0.509994 0.148062
vt 0.733284 0.141954
vt 0.510780 0.145738
vt 0.733243 0.139099
vt 0.511317 0.143102
vt 0.733227 0.136123
vt 0.511590 0.140248
vt 0.733236 0.133128
vt 0.511589 0.137274
vt 0.733271 0.130218
vt 0.511315 0.134282
vt 0.733329 0.127496
vt 0.510776 0.131378
vt 0.733410 0.125059
vt 0.509989 0.128662
vt 0.733511 0.122999
vt 0.508979 0.126233
vt 0.733628 0.121397
vt 0.507779 0.124181
vt 0.733757 0.120321
vt 0.506429 0.122587
vt 0.733895 0.119825
vt 0.504978 0.121521
vt 0.734035 0.119938
vt 0.503476 0.121034
vt 0.500556 0.121895
vt 0.501983 0.121155
vt 0.734172 0.120670
vt 0.499256 0.123235
vt 0.734300 0.122004
vt 0.498138 0.125131
vt 0.734415 0.123895
vt 0.497251 0.127514
vt 0.734511 0.126274
vt 0.496636 0.130287
vt 0.734583 0.129045
vt 0.496320 0.133336
vt 0.734630 0.132096
vt 0.496320 0.136533
vt 0.734647 0.135295
vt 0.496635 0.139742
vt 0.734635 0.138508
vt 0.497251 0.142825
vt 0.734594 0.141597
vt 0.498138 0.145654
vt 0.734527 0.144433
vt 0.499256 0.148113
vt 0.734437 0.146900
vt 0.500558 0.150106
vt 0.734326 0.148903
vt 0.501985 0.151563
vt 0.734201 0.150368
vt 0.503480 0.152434
vt 0.504982 0.152699
vt 0.734066 0.151249
vt 0.733927 0.151522
vt 0.593487 0.141390
vt 0.592642 0.142267
vt 0.669176 0.134555
vt 0.672987 0.127442
vt 0.642949 0.154239
vt 0.589000 0.145144
vt 0.588735 0.144535
vt 0.588735 0.144535
vt 0.594370 0.266174
vt 0.663589 0.245953
vt 0.594399 0.252576
vt 0.610063 0.271936
vt 0.610086 0.258565
vt 0.646598 0.288446
vt 0.646607 0.275725
vt 0.606725 0.276087
vt 0.614084 0.258768
vt 0.606751 0.266699
vt 0.663586 0.259802
vt 0.654149 0.209190
vt 0.614065 0.268446
vt 0.716726 0.269157
vt 0.764305 0.223295
vt 0.829856 0.272503
vt 0.651440 0.282449
vt 0.654181 0.220663
vt 0.651461 0.291262
vt 0.680599 0.275050
vt 0.636952 0.235304
vt 0.655252 0.221535
vt 0.638785 0.128932
vt 0.642949 0.154239
vt 0.638186 0.129793
vt 0.642786 0.125877
vt 0.642949 0.154239
vt 0.641929 0.126340
vt 0.541859 0.124217
vt 0.569486 0.113453
vt 0.567081 0.121603
vt 0.472373 0.247575
vt 0.518136 0.286658
vt 0.474298 0.362632
vt 0.592540 0.113433
vt 0.589841 0.121255
vt 0.529829 0.058009
vt 0.865431 0.065833
vt 0.855980 0.049634
vt 0.541888 0.124095
vt 0.515143 0.143600
vt 0.518079 0.128122
vt 0.795019 0.150370
vt 0.850428 0.134442
vt 0.853179 0.151517
vt 0.721558 0.152205
vt 0.540636 0.127787
vt 0.534274 0.141686
vt 0.616102 0.115131
vt 0.625571 0.124836
vt 0.613130 0.122606
vt 0.595435 0.142814
vt 0.595511 0.141232
vt 0.596101 0.142826
vt 0.697895 0.136578
vt 0.692977 0.134563
vt 0.692985 0.157635
vt 0.587453 0.142881
vt 0.586757 0.142333
vt 0.587378 0.141255
vt 0.591024 0.143953
vt 0.590714 0.144512
vt 0.589736 0.141187
vt 0.828963 0.141313
vt 0.845759 0.152353
vt 0.828786 0.152771
vt 0.670570 0.143048
vt 0.702426 0.153495
vt 0.670251 0.153468
vt 0.620658 0.153381
vt 0.613383 0.143282
vt 0.613011 0.153562
vt 0.567178 0.143814
vt 0.595543 0.153697
vt 0.566773 0.153776
vt 0.610618 0.144568
vt 0.548784 0.154019
vt 0.610271 0.154079
vt 0.789811 0.145225
vt 0.756822 0.154302
vt 0.789636 0.154342
vt 0.564394 0.149399
vt 0.573525 0.136790
vt 0.573528 0.148198
vt 0.702712 0.143116
vt 0.732315 0.153492
vt 0.595925 0.143617
vt 0.632506 0.145592
vt 0.646840 0.134921
vt 0.646739 0.145588
vt 0.751501 0.142985
vt 0.766558 0.153360
vt 0.751262 0.153443
vt 0.537521 0.143834
vt 0.537088 0.153784
vt 0.674270 0.135011
vt 0.674130 0.145714
vt 0.549191 0.144421
vt 0.680314 0.134644
vt 0.680168 0.145200
vt 0.904635 0.153709
vt 0.947357 0.139246
vt 0.688651 0.144660
vt 0.699472 0.134102
vt 0.699302 0.144443
vt 0.715078 0.143467
vt 0.682596 0.133384
vt 0.682454 0.143440
vt 0.616179 0.143185
vt 0.606259 0.133167
vt 0.606218 0.143137
vt 0.619080 0.145712
vt 0.632587 0.134924
vt 0.688807 0.134257
vt 0.757027 0.145125
vt 0.726446 0.154248
vt 0.602792 0.146299
vt 0.610577 0.135220
vt 0.610527 0.146006
vt 0.718312 0.133980
vt 0.718118 0.144272
vt 0.726680 0.144989
vt 0.691783 0.154198
vt 0.715264 0.133403
vt 0.692050 0.144864
vt 0.930929 0.140560
vt 0.930863 0.152469
vt 0.805341 0.142089
vt 0.805146 0.153083
vt 0.766784 0.142780
vt 0.634764 0.133258
vt 0.616233 0.133201
vt 0.732571 0.143108
vt 0.634686 0.143264
vt 0.650986 0.133334
vt 0.589786 0.145681
vt 0.590293 0.145675
vt 0.590293 0.145675
vt 0.650885 0.143371
vt 0.525903 0.149315
vt 0.564376 0.137650
vt 0.584399 0.136100
vt 0.584386 0.147234
vt 0.602831 0.135430
vt 0.619142 0.135010
vt 0.893864 0.132767
vt 0.894243 0.139531
vt 0.885529 0.140054
vt 0.521688 0.146748
vt 0.758541 0.135772
vt 0.622800 0.130586
vt 0.800597 0.151625
vt 0.754638 0.137910
vt 0.796584 0.153783
vt 0.751230 0.139870
vt 0.793077 0.155764
vt 0.744310 0.142425
vt 0.786003 0.158323
vt 0.737607 0.144134
vt 0.779173 0.160013
vt 0.730459 0.145084
vt 0.522231 0.140390
vt 0.577056 0.118823
vt 0.575082 0.143169
vt 0.734736 0.132564
vt 0.793332 0.133131
vt 0.729646 0.132514
vt 0.735304 0.149874
vt 0.730115 0.149831
vt 0.670453 0.131941
vt 0.669780 0.149329
vt 0.611242 0.132140
vt 0.609425 0.149503
vt 0.550258 0.150381
vt 0.501753 0.134032
vt 0.928210 0.447120
vt 0.820563 0.404658
vt 0.852782 0.357642
vt 0.576768 0.847533
vt 0.608053 0.861462
vt 0.571996 0.992203
vt 0.546508 0.115625
vt 0.727584 0.138034
vt 0.733171 0.125621
vt 0.639337 0.127105
vt 0.628725 0.117456
vt 0.642683 0.119836
vt 0.589866 0.121180
vt 0.701695 0.136605
vt 0.705178 0.146173
vt 0.669162 0.134580
vt 0.733956 0.148184
vt 0.705177 0.146175
vt 0.709639 0.139141
vt 0.603422 0.096670
vt 0.618848 0.100116
vt 0.604271 0.094885
vt 0.602765 0.098617
vt 0.617944 0.101870
vt 0.860233 0.529528
vt 0.810289 0.571143
vt 0.631005 0.137199
vt 0.630539 0.145332
vt 0.679690 0.138578
vt 0.679409 0.146327
vt 0.727822 0.139086
vt 0.727706 0.146507
vt 0.752336 0.138636
vt 0.752300 0.145931
vt 0.779066 0.138242
vt 0.779112 0.145395
vt 0.833585 0.136227
vt 0.833793 0.143161
vt 0.576260 0.144495
vt 0.593839 0.133537
vt 0.576261 0.134133
vt 0.593839 0.133537
vt 0.935409 0.136644
vt 0.934916 0.129959
vt 0.162629 0.538562
vt 0.184547 0.425333
vt 0.163958 0.424778
vt 0.327640 0.048465
vt 0.361729 0.048319
vt 0.361729 0.048319
vt 0.589689 0.145682
vt 0.589786 0.145681
vt 0.321075 0.048499
vt 0.327640 0.048465
vt 0.286985 0.048700
vt 0.321075 0.048499
vt 1.053302 0.089458
vt 1.055100 0.098833
vt 1.055100 0.098833
vt 0.524910 0.114595
vt 0.524910 0.114595
vt 0.589689 0.145682
vt 0.589181 0.145687
vt 1.050092 0.072718
vt 1.050092 0.072718
vt 0.828057 0.034537
vt 0.767972 0.054738
vt 0.825179 0.068490
vt 0.157422 0.544648
vt 0.162793 0.426478
vt 0.161442 0.544750
vt 0.158764 0.538463
vt 0.159992 0.424674
vt 0.137321 0.541905
vt 0.139395 0.424152
vt 0.138689 0.537969
vt 0.136547 0.544134
vt 0.158664 0.426370
vt 0.138010 0.425221
vt 0.137225 0.425828
vt 0.184224 0.427056
vt 0.182309 0.545296
vt 0.182697 0.539087
vt 0.148929 0.157777
vt 0.176932 0.028599
vt 0.169235 0.035604
vt 0.082695 0.034696
vt 0.083144 0.027618
vt 0.098949 0.157229
vt 0.101098 0.161003
vt 0.076784 0.025831
vt 0.154929 0.167338
vt 0.096695 0.167063
vt 0.586972 0.151935
vt 0.579695 0.100052
vt 0.588295 0.103952
vt 0.637263 0.158655
vt 0.632966 0.101603
vt 0.638979 0.098629
vt 0.623133 0.152571
vt 0.624506 0.104052
vt 0.616879 0.106105
vt 0.607020 0.149447
vt 0.608215 0.106728
vt 0.596590 0.149217
vt 0.597779 0.106386
vt 0.579795 0.101396
vt 0.586667 0.150391
vt 0.587917 0.105065
vt 0.630280 0.102773
vt 0.634380 0.156867
vt 0.636004 0.099943
vt 0.620936 0.151066
vt 0.628817 0.154276
vt 0.614991 0.107062
vt 0.622235 0.105107
vt 0.605643 0.148078
vt 0.613813 0.148981
vt 0.606772 0.107662
vt 0.595764 0.147841
vt 0.596887 0.107352
vt 0.631419 0.155938
vt 0.578166 0.155850
vt 0.615632 0.150385
vt 0.733790 0.151191
vt 0.507785 0.151441
vt 0.506435 0.152359
vt 0.733659 0.150279
vt 0.508985 0.149988
vt 0.733539 0.148832
vt 0.509994 0.148062
vt 0.733435 0.146910
vt 0.510780 0.145738
vt 0.733348 0.144589
vt 0.511317 0.143102
vt 0.733284 0.141954
vt 0.511590 0.140248
vt 0.733243 0.139099
vt 0.511589 0.137274
vt 0.733227 0.136123
vt 0.511315 0.134282
vt 0.733236 0.133128
vt 0.510776 0.131378
vt 0.733271 0.130218
vt 0.509989 0.128662
vt 0.733329 0.127496
vt 0.508979 0.126233
vt 0.733410 0.125059
vt 0.507779 0.124181
vt 0.733511 0.122999
vt 0.506429 0.122587
vt 0.733628 0.121397
vt 0.504978 0.121521
vt 0.733757 0.120321
vt 0.503476 0.121034
vt 0.733895 0.119825
vt 0.501983 0.121155
vt 0.734172 0.120670
vt 0.734035 0.119938
vt 0.734300 0.122004
vt 0.500556 0.121895
vt 0.734415 0.123895
vt 0.499256 0.123235
vt 0.734511 0.126274
vt 0.498138 0.125131
vt 0.734583 0.129045
vt 0.497251 0.127514
vt 0.734630 0.132096
vt 0.496636 0.130287
vt 0.734647 0.135295
vt 0.496320 0.133336
vt 0.734635 0.138508
vt 0.496320 0.136533
vt 0.734594 0.141597
vt 0.496635 0.139742
vt 0.734527 0.144433
vt 0.497251 0.142825
vt 0.734437 0.146900
vt 0.498138 0.145654
vt 0.734326 0.148903
vt 0.499256 0.148113
vt 0.734201 0.150368
vt 0.500558 0.150106
vt 0.734066 0.151249
vt 0.501985 0.151563
vt 0.503480 0.152434
vt 0.504982 0.152699
vt 0.733927 0.151522
vt 0.593487 0.141390
vt 0.594055 0.141090
vt 0.672987 0.127442
vt 0.589000 0.145144
vt 0.588735 0.144535
vt 0.588735 0.144535
vt 0.751507 0.212439
vt 0.580247 0.270266
vt 0.642949 0.154239
vt 0.569486 0.113453
vt 0.274563 0.087320
vt 0.286985 0.048700
vt 0.372866 0.086819
vt 0.256487 0.130728
vt 0.234571 0.170155
vt 0.315780 0.366320
vt 0.389499 0.130050
vt 0.410104 0.169261
vt 0.322345 0.366286
vt 0.207144 0.209610
vt 0.239827 0.366706
vt 0.169682 0.249117
vt 0.189376 0.227947
vt 0.163922 0.364213
vt 0.090847 0.356536
vt 0.075942 0.319782
vt 0.122608 0.288672
vt 0.398298 0.365900
vt 0.436221 0.208444
vt 0.453380 0.226602
vt 0.567877 0.320053
vt 0.550915 0.356284
vt 0.529829 0.058009
vt 0.519769 0.119215
vt 0.538336 0.138844
vt 0.598083 0.141470
vt 0.596294 0.141303
vt 0.597421 0.142573
vt 0.597071 0.142930
vt 0.594824 0.141142
vt 0.594055 0.141090
vt 0.594356 0.142973
vt 0.594793 0.142857
vt 0.593985 0.143145
vt 0.592629 0.141948
vt 0.593056 0.143679
vt 0.591954 0.142504
vt 0.592476 0.144210
vt 0.591673 0.142802
vt 0.591419 0.143059
vt 0.592038 0.144844
vt 0.591032 0.143612
vt 0.590726 0.144165
vt 0.590478 0.144772
vt 0.597954 0.142281
vt 0.599363 0.142024
vt 0.599433 0.141523
vt 0.598689 0.142079
vt 0.718822 0.154634
vt 0.709522 0.155912
vt 0.713185 0.136941
vt 0.692985 0.157635
vt 0.685361 0.153490
vt 0.692977 0.134563
vt 0.674906 0.147009
vt 0.688577 0.132573
vt 0.666634 0.140503
vt 0.678272 0.126279
vt 0.663178 0.137005
vt 0.660059 0.133978
vt 0.667469 0.112386
vt 0.655257 0.127432
vt 0.672315 0.119944
vt 0.755626 0.145697
vt 0.755994 0.152410
vt 0.744540 0.144731
vt 0.737081 0.153356
vt 0.732247 0.139195
vt 0.738059 0.143234
vt 0.651428 0.120877
vt 0.648281 0.113641
vt 0.727987 0.135427
vt 0.588508 0.141201
vt 0.587745 0.143176
vt 0.585233 0.141438
vt 0.585876 0.141787
vt 0.588412 0.143982
vt 0.588412 0.143982
vt 0.588007 0.143431
vt 0.588007 0.143431
vt 0.593511 0.141701
vt 0.594086 0.141397
vt 0.591997 0.141203
vt 0.591673 0.143132
vt 0.589736 0.141187
vt 0.591958 0.142830
vt 0.589638 0.141189
vt 0.589000 0.145144
vt 0.589181 0.145687
vt 0.590463 0.145128
vt 0.590714 0.144512
vt 0.591958 0.142830
vt 0.591673 0.143132
vt 0.951759 0.155715
vt 0.930929 0.140560
vt 0.525825 0.137589
vt 0.771918 0.160919
vt 0.734736 0.132564
vt 0.497882 0.151159
vt 0.968828 0.361293
vt 0.950689 0.406204
vt 0.706552 0.867768
vt 0.785580 0.867746
vt 0.739193 0.980197
vt 0.812260 0.892497
vt 0.848886 0.919354
vt 0.857688 0.980539
vt 0.656137 0.867385
vt 0.678969 0.985759
vt 0.890356 0.930451
vt 0.961627 0.939426
vt 0.962595 0.981615
vt 0.609495 0.989739
vt 0.523710 0.964206
vt 0.457663 0.920809
vt 0.548815 0.833896
vt 0.405690 0.877833
vt 0.483694 0.791716
vt 0.384139 0.854991
vt 0.446611 0.750421
vt 0.364666 0.835186
vt 0.416950 0.701753
vt 0.335072 0.792880
vt 0.311756 0.750762
vt 0.292982 0.704566
vt 0.729021 0.155186
vt 0.617944 0.101870
vt 0.443986 0.535084
vt 0.479507 0.503623
vt 0.535725 0.630434
vt 0.551712 0.510260
vt 0.601211 0.510459
vt 0.593117 0.632469
vt 0.405367 0.564366
vt 0.404202 0.628083
vt 0.648956 0.506628
vt 0.647510 0.632706
vt 0.301341 0.629648
vt 0.306298 0.592747
vt 0.356381 0.587970
vt 0.681329 0.497608
vt 0.704721 0.635733
vt 0.708873 0.484588
vt 0.810289 0.571143
vt 0.880963 0.507379
vt 0.860233 0.529528
vt 0.928193 0.447106
vt 0.899692 0.488178
vt 0.575782 0.134538
vt 0.593814 0.143662
vt 0.522231 0.140390
vt 1.050092 0.072718
vt 0.838533 0.034999
vt 0.890341 0.037296
vt 0.889051 0.069660
vt 0.835933 0.068685
vt 0.766371 0.067427
vt 0.770838 0.032021
vt 0.156046 0.161606
vt 0.154929 0.167338
vt 0.662533 0.146951
vt 0.633508 0.139770
vt 0.576146 0.148352
vt 0.751507 0.212439
vt 0.580247 0.270266
vt 0.642949 0.154239
vt 0.642949 0.154239
vt 0.543926 0.115633
vt 0.274563 0.087320
vt 0.286985 0.048700
vt 0.372866 0.086819
vt 0.256487 0.130728
vt 0.315780 0.366320
vt 0.322345 0.366286
vt 0.234571 0.170155
vt 0.389499 0.130050
vt 0.410104 0.169261
vt 0.207144 0.209610
vt 0.239827 0.366706
vt 0.169682 0.249117
vt 0.189376 0.227947
vt 0.163922 0.364213
vt 0.090847 0.356536
vt 0.075942 0.319782
vt 0.122608 0.288672
vt 0.398298 0.365900
vt 0.436221 0.208444
vt 0.453380 0.226602
vt 0.567877 0.320053
vt 0.550915 0.356284
vt 0.529829 0.058009
vt 0.519769 0.119215
vt 0.538336 0.138844
vt 0.598083 0.141470
vt 0.599433 0.141523
vt 0.598689 0.142079
vt 0.599363 0.142024
vt 0.596294 0.141303
vt 0.597421 0.142573
vt 0.594824 0.141142
vt 0.594356 0.142973
vt 0.592629 0.141948
vt 0.593056 0.143679
vt 0.593985 0.143145
vt 0.591673 0.142802
vt 0.591954 0.142504
vt 0.592476 0.144210
vt 0.591032 0.143612
vt 0.591419 0.143059
vt 0.592038 0.144844
vt 0.590478 0.144772
vt 0.590726 0.144165
vt 0.597071 0.142930
vt 0.597954 0.142281
vt 0.594793 0.142857
vt 0.737081 0.153356
vt 0.755994 0.152410
vt 0.744540 0.144731
vt 0.755626 0.145697
vt 0.698781 0.156998
vt 0.709522 0.155912
vt 0.705374 0.137208
vt 0.718822 0.154634
vt 0.713185 0.136941
vt 0.732247 0.139195
vt 0.738059 0.143234
vt 0.674906 0.147009
vt 0.685361 0.153490
vt 0.678272 0.126279
vt 0.688577 0.132573
vt 0.663178 0.137005
vt 0.666634 0.140503
vt 0.672315 0.119944
vt 0.655257 0.127432
vt 0.660059 0.133978
vt 0.667469 0.112386
vt 0.648281 0.113641
vt 0.651428 0.120877
vt 0.727987 0.135427
vt 0.588007 0.143431
vt 0.588007 0.143431
vt 0.587745 0.143176
vt 0.588508 0.141201
vt 0.588412 0.143982
vt 0.588412 0.143982
vt 0.585876 0.141787
vt 0.585233 0.141438
vt 0.592642 0.142267
vt 0.591958 0.142830
vt 0.591958 0.142830
vt 0.591673 0.143132
vt 0.591673 0.143132
vt 0.591416 0.143393
vt 0.591997 0.141203
vt 0.590866 0.141175
vt 0.594086 0.141397
vt 0.593511 0.141701
vt 0.589638 0.141189
vt 0.590463 0.145128
vt 0.589000 0.145144
vt 0.589181 0.145687
vt 0.845926 0.140273
vt 0.621032 0.142830
vt 0.951759 0.155715
vt 0.525825 0.137589
vt 0.771918 0.160919
vt 0.497882 0.151159
vt 0.968828 0.361293
vt 0.950689 0.406204
vt 0.706552 0.867768
vt 0.785580 0.867746
vt 0.739193 0.980197
vt 0.812260 0.892497
vt 0.848886 0.919354
vt 0.857688 0.980539
vt 0.656137 0.867385
vt 0.678969 0.985759
vt 0.890356 0.930451
vt 0.961627 0.939426
vt 0.962595 0.981615
vt 0.609495 0.989739
vt 0.523710 0.964206
vt 0.457663 0.920809
vt 0.483694 0.791716
vt 0.548815 0.833896
vt 0.405690 0.877833
vt 0.384139 0.854991
vt 0.446611 0.750421
vt 0.364666 0.835186
vt 0.416950 0.701753
vt 0.335072 0.792880
vt 0.311756 0.750762
vt 0.292982 0.704566
vt 0.729021 0.155186
vt 0.617221 0.103791
vt 0.443986 0.535084
vt 0.479507 0.503623
vt 0.535725 0.630434
vt 0.551712 0.510260
vt 0.601211 0.510459
vt 0.593117 0.632469
vt 0.405367 0.564366
vt 0.404202 0.628083
vt 0.648956 0.506628
vt 0.647510 0.632706
vt 0.301341 0.629648
vt 0.306298 0.592747
vt 0.356381 0.587970
vt 0.681329 0.497608
vt 0.704721 0.635733
vt 0.708873 0.484588
vt 0.746845 0.613097
vt 0.810278 0.571143
vt 0.777658 0.444326
vt 0.928193 0.447106
vt 0.899692 0.488178
vt 0.880963 0.507379
vt 0.575782 0.134538
vt 0.593814 0.143662
vt 1.053302 0.089458
vt 0.522231 0.140390
vt 0.889051 0.069660
vt 0.890341 0.037296
vt 0.838533 0.034999
vt 0.770838 0.032021
vt 0.835933 0.068685
vt 0.766371 0.067427
vt 0.156046 0.161606
vt 0.176179 0.026249
vt 0.578351 0.154070
vt 0.669176 0.134555
vt 0.662533 0.146951
vt 0.633508 0.139770
vt 0.576146 0.148352
vn -0.3961 -0.9182 0.0000
vn -0.8230 0.5680 -0.0000
vn -0.8730 0.4878 0.0000
vn -0.8359 -0.5489 0.0000
vn 0.9952 0.0982 0.0000
vn -0.8666 -0.4990 -0.0000
vn -0.0000 -0.0000 1.0000
vn 0.9959 -0.0900 0.0000
vn 0.9959 -0.0899 0.0000
vn -0.4003 0.9164 0.0000
vn -0.5512 0.8344 0.0000
vn -0.3598 0.9330 0.0000
vn -0.4637 0.8860 0.0000
vn -0.8231 0.5680 0.0000
vn -0.2802 0.9599 0.0000
vn 0.9997 0.0263 0.0000
vn -0.6656 0.7463 0.0000
vn -0.6810 0.7323 0.0000
vn 0.0000 0.0000 -1.0000
vn -0.5464 0.8375 0.0000
vn -0.9998 -0.0196 0.0000
vn -0.9998 -0.0195 0.0000
vn -0.9936 -0.1130 0.0000
vn -0.6794 0.7338 0.0000
vn -0.9606 0.2781 0.0000
vn 0.9991 0.0414 0.0000
vn 0.9974 0.0717 0.0000
vn -0.5178 -0.8555 -0.0000
vn -0.9975 0.0705 0.0000
vn -0.8644 0.5028 0.0000
vn -0.9993 0.0362 0.0000
vn -0.8981 0.4398 0.0000
vn -0.9962 0.0866 0.0000
vn -0.9942 0.1077 0.0000
vn -0.1309 0.9914 0.0000
vn -0.7298 -0.6837 0.0000
vn -0.9713 -0.2378 0.0000
vn 0.9986 -0.0529 0.0000
vn 0.9933 -0.1155 -0.0000
vn -0.9960 -0.0889 0.0000
vn -0.8053 -0.5929 0.0000
vn 0.9906 0.1369 0.0000
vn 0.9906 0.1368 0.0000
vn -0.9018 -0.4321 0.0000
vn -0.9958 -0.0919 0.0000
vn 0.9953 0.0967 0.0000
vn 0.9953 0.0968 -0.0000
vn -0.0517 -0.9987 0.0000
vn 0.9951 0.0984 0.0000
vn -0.9988 -0.0486 -0.0000
vn -0.7181 0.6959 0.0000
vn -0.8539 0.5204 0.0000
vn 0.9940 -0.1095 -0.0000
vn 0.9943 -0.1065 -0.0000
vn 0.9938 -0.1110 0.0000
vn -0.9623 0.2720 0.0000
vn 0.9896 -0.1440 0.0000
vn -0.9999 0.0122 0.0006
vn -0.9999 0.0124 0.0003
vn 0.9973 -0.0739 0.0000
vn -0.9976 0.0691 0.0000
vn -0.6639 -0.7479 0.0000
vn -0.8396 -0.5432 0.0000
vn -0.9173 -0.3981 0.0000
vn -0.7683 -0.6401 -0.0000
vn -0.6821 -0.7313 -0.0000
vn -0.6972 -0.7169 -0.0000
vn -0.5694 -0.8220 -0.0000
vn -0.4828 -0.8757 -0.0000
vn -0.3798 -0.9251 -0.0000
vn -0.3007 -0.9537 -0.0000
vn 0.9999 -0.0118 -0.0000
vn 0.9999 -0.0119 -0.0000
vn 0.9987 -0.0500 -0.0000
vn 0.0013 -0.0023 1.0000
vn 0.0014 -0.0021 1.0000
vn 0.0013 -0.0022 1.0000
vn -0.0001 -0.0001 1.0000
vn 0.0000 -0.0003 1.0000
vn 0.0007 -0.0003 1.0000
vn 0.0010 -0.0002 1.0000
vn 0.0010 0.0000 1.0000
vn 0.8358 0.5490 0.0000
vn 0.8666 0.4990 0.0000
vn -0.9999 0.0114 -0.0008
vn -0.9999 0.0112 -0.0004
vn -0.9999 0.0113 -0.0003
vn -0.9999 0.0115 0.0007
vn -0.9999 0.0122 -0.0006
vn -0.9999 0.0115 -0.0007
vn -0.9999 0.0124 -0.0003
vn -0.9999 0.0122 0.0000
vn -0.9999 0.0113 0.0004
vn -0.9999 0.0114 0.0002
vn -0.9999 0.0114 0.0007
vn -0.9999 0.0127 0.0000
vn 0.0197 0.9998 0.0000
vn -0.0197 -0.9998 -0.0000
vn 0.1467 -0.9892 -0.0000
vn -1.0000 -0.0000 -0.0000
vn 0.1466 0.9892 0.0000
vn 1.0000 0.0000 0.0000
vn -0.1877 -0.0000 0.9822
vn -0.4150 0.9098 0.0000
vn -0.3724 0.9281 0.0000
vn 0.3712 -0.9285 -0.0000
vn 0.1986 -0.9801 -0.0000
vn -0.1139 0.9935 0.0000
vn -0.0211 -0.9998 -0.0000
vn -0.0288 0.9996 0.0000
vn -0.1240 -0.9923 -0.0000
vn -0.4760 -0.8794 -0.0000
vn 0.2702 0.9628 0.0000
vn -0.3051 -0.9523 -0.0000
vn -0.3223 -0.9466 -0.0000
vn 0.4100 0.9121 0.0000
vn 0.9955 0.0000 -0.0943
vn 0.9955 0.0000 -0.0942
vn 0.9599 0.0000 -0.2803
vn 0.9599 0.0000 -0.2802
vn 0.8893 0.0000 -0.4573
vn 0.8892 0.0000 -0.4575
vn 0.7847 0.0000 -0.6198
vn 0.6490 0.0000 -0.7608
vn 0.6491 0.0000 -0.7607
vn 0.6488 0.0001 -0.7610
vn 0.4855 0.0000 -0.8742
vn 0.3005 0.0000 -0.9538
vn 0.1020 0.0000 -0.9948
vn -0.1017 -0.0000 -0.9948
vn -0.1019 -0.0000 -0.9948
vn -0.3006 -0.0000 -0.9537
vn -0.3006 -0.0000 -0.9538
vn -0.4854 -0.0000 -0.8743
vn -0.4855 -0.0000 -0.8742
vn -0.6490 -0.0000 -0.7608
vn -0.7846 -0.0001 -0.6200
vn -0.7849 -0.0000 -0.6197
vn -0.8892 -0.0000 -0.4575
vn -0.8894 0.0000 -0.4572
vn -0.8891 0.0000 -0.4578
vn -0.9599 -0.0000 -0.2802
vn -0.9600 -0.0000 -0.2801
vn -0.9955 -0.0000 -0.0944
vn -0.9955 -0.0000 0.0944
vn -0.9956 -0.0001 0.0941
vn -0.9599 -0.0000 0.2802
vn -0.8892 -0.0000 0.4575
vn -0.8893 -0.0000 0.4574
vn -0.8894 0.0000 0.4572
vn -0.7847 -0.0000 0.6199
vn -0.7849 -0.0000 0.6196
vn -0.7847 -0.0001 0.6198
vn -0.6489 -0.0000 0.7609
vn -0.4854 -0.0000 0.8743
vn -0.4855 -0.0000 0.8742
vn -0.3008 -0.0000 0.9537
vn -0.1018 -0.0000 0.9948
vn -0.1017 -0.0000 0.9948
vn 0.1018 0.0000 0.9948
vn 0.3006 0.0000 0.9537
vn 0.3007 0.0000 0.9537
vn 0.4855 0.0000 0.8742
vn 0.6489 0.0000 0.7609
vn 0.6490 0.0000 0.7608
vn 0.7848 0.0000 0.6197
vn 0.7846 0.0001 0.6200
vn 0.8893 0.0000 0.4572
vn 0.8892 0.0000 0.4574
vn -0.0000 1.0000 -0.0001
vn -0.0000 1.0000 -0.0000
vn 0.9599 0.0000 0.2804
vn 0.9599 0.0000 0.2802
vn 0.9955 0.0000 0.0943
vn 0.9955 0.0000 0.0942
vn 0.0000 -1.0000 0.0001
vn 0.0000 -1.0000 0.0000
vn -0.7536 0.6573 0.0000
vn 0.5512 -0.8344 -0.0000
vn 0.0000 0.0000 0.0000
vn 0.3961 -0.9182 -0.0000
vn 0.3962 -0.9182 -0.0000
vn -0.8230 -0.5680 -0.0000
vn -0.8729 -0.4878 -0.0000
vn 0.8358 -0.5490 0.0000
vn 0.9952 -0.0982 0.0000
vn 0.9952 -0.0981 0.0000
vn -0.8666 0.4989 0.0000
vn 0.9959 0.0900 -0.0000
vn -0.4002 -0.9164 0.0000
vn -0.5512 -0.8344 -0.0000
vn -0.3598 -0.9330 -0.0000
vn -0.4636 -0.8860 -0.0000
vn 0.8230 0.5680 0.0000
vn -0.2802 -0.9599 -0.0000
vn 0.9997 -0.0262 0.0000
vn -0.6655 -0.7464 -0.0000
vn -0.6656 -0.7463 -0.0000
vn -0.6809 -0.7323 -0.0000
vn -0.5464 -0.8375 0.0000
vn -0.9998 0.0195 0.0000
vn -0.9936 0.1130 0.0000
vn -0.6794 -0.7338 -0.0000
vn -0.6793 -0.7338 -0.0000
vn -0.9605 -0.2781 -0.0000
vn 0.9991 -0.0413 0.0000
vn 0.9974 -0.0717 0.0000
vn -0.5179 0.8555 0.0000
vn -0.9975 -0.0706 0.0000
vn -0.8644 -0.5028 -0.0000
vn -0.9993 -0.0363 0.0000
vn -0.8981 -0.4398 -0.0000
vn -0.9962 -0.0867 -0.0000
vn -0.9942 -0.1077 0.0000
vn -0.1309 -0.9914 0.0000
vn -0.7298 0.6836 0.0000
vn -0.9713 0.2377 0.0000
vn 0.9986 0.0529 0.0000
vn 0.9938 0.1110 0.0000
vn 0.9933 0.1155 0.0000
vn -0.9960 0.0889 0.0000
vn -0.8054 0.5928 0.0000
vn 0.9906 -0.1368 -0.0000
vn -0.9019 0.4320 0.0000
vn -0.9958 0.0918 0.0000
vn 0.9953 -0.0966 -0.0000
vn 0.9953 -0.0969 -0.0000
vn -0.0517 0.9987 0.0000
vn 0.9952 -0.0984 0.0000
vn -0.9988 0.0485 0.0000
vn -0.7181 -0.6960 -0.0000
vn -0.8539 -0.5204 -0.0000
vn 0.9943 0.1065 0.0000
vn -0.9623 -0.2721 -0.0000
vn 0.9896 0.1441 0.0000
vn -0.9999 -0.0123 -0.0005
vn -0.9999 -0.0127 -0.0006
vn 0.9973 0.0740 0.0000
vn -0.9976 -0.0692 -0.0000
vn -0.6639 0.7478 0.0000
vn -0.8396 0.5431 0.0000
vn -0.9174 0.3981 0.0000
vn -0.8358 0.5490 0.0000
vn 0.7683 -0.6400 -0.0000
vn 0.6821 -0.7312 0.0000
vn 0.6972 -0.7169 -0.0000
vn 0.5695 -0.8220 -0.0000
vn 0.4829 -0.8757 -0.0000
vn 0.3799 -0.9250 -0.0000
vn -0.3007 0.9537 0.0000
vn 0.9999 0.0119 0.0000
vn 0.9987 0.0500 0.0000
vn 0.0013 0.0023 -1.0000
vn 0.0014 0.0021 -1.0000
vn 0.0012 0.0022 -1.0000
vn -0.0001 0.0001 -1.0000
vn -0.0000 0.0003 -1.0000
vn -0.6810 -0.7323 -0.0000
vn -0.6656 -0.7464 0.0000
vn 0.0009 -0.0007 -1.0000
vn 0.0010 0.0004 -1.0000
vn 0.0009 -0.0004 -1.0000
vn -0.3799 0.9250 0.0000
vn -0.4829 0.8757 0.0000
vn -0.5695 0.8220 0.0000
vn -0.6972 0.7169 0.0000
vn -0.6821 0.7312 0.0000
vn -0.7683 0.6400 0.0000
vn 0.8359 -0.5489 -0.0000
vn 0.8666 -0.4989 -0.0000
vn -0.9999 -0.0113 0.0005
vn -0.9999 -0.0111 0.0007
vn -0.9999 -0.0115 0.0003
vn -0.9999 -0.0116 -0.0005
vn -0.9999 -0.0124 -0.0005
vn -0.9999 -0.0123 0.0005
vn -0.9999 -0.0116 0.0005
vn -0.9999 -0.0125 0.0003
vn -0.9999 -0.0124 0.0006
vn -0.9999 -0.0123 -0.0000
vn -0.9999 -0.0124 0.0003
vn -0.9999 -0.0117 -0.0000
vn -0.9999 -0.0114 -0.0005
vn -0.9999 -0.0112 -0.0009
vn 0.9999 0.0123 0.0000
vn 0.9999 0.0122 0.0000
vn 0.9999 0.0127 0.0000
vn 0.9999 0.0126 0.0000
vn -0.0197 0.9998 0.0000
vn 0.0197 -0.9998 -0.0000
vn -0.1877 -0.0000 -0.9822
vn -0.4150 -0.9098 -0.0000
vn -0.3723 -0.9281 -0.0000
vn 0.3712 0.9286 0.0000
vn -0.2801 -0.9600 -0.0000
vn 0.1986 0.9801 0.0000
vn -0.1138 -0.9935 -0.0000
vn -0.0211 0.9998 0.0000
vn -0.0288 -0.9996 -0.0000
vn -0.1241 0.9923 0.0000
vn -0.4761 0.8794 0.0000
vn 0.2703 -0.9628 -0.0000
vn -0.3051 0.9523 0.0000
vn -0.3223 0.9466 0.0000
vn 0.4101 -0.9121 -0.0000
vn 0.9600 0.0000 0.2800
vn 0.8891 0.0000 0.4577
vn 0.8892 0.0000 0.4576
vn 0.7849 0.0000 0.6196
vn 0.3003 0.0000 0.9538
vn 0.1017 0.0000 0.9948
vn -0.3007 -0.0000 0.9537
vn -0.3006 -0.0000 0.9538
vn -0.4856 -0.0000 0.8742
vn -0.4857 -0.0000 0.8741
vn -0.8891 -0.0000 0.4577
vn -0.8891 -0.0000 0.4576
vn -0.9601 0.0001 0.2797
vn -0.9600 -0.0000 0.2801
vn -0.9955 -0.0002 0.0947
vn -0.9956 -0.0002 0.0940
vn -0.9955 -0.0001 -0.0947
vn -0.9600 -0.0000 -0.2800
vn -0.8892 -0.0000 -0.4576
vn -0.7848 -0.0000 -0.6197
vn -0.3007 -0.0000 -0.9537
vn -0.1020 -0.0000 -0.9948
vn 0.3008 0.0000 -0.9537
vn 0.4856 0.0000 -0.8742
vn 0.4858 0.0001 -0.8741
vn 0.7848 0.0000 -0.6197
vn 0.8893 0.0000 -0.4574
vn 0.9600 0.0000 -0.2800
vn -0.0001 1.0000 -0.0001
vn -0.0000 1.0000 0.0001
vn -0.7536 -0.6574 -0.0000
vn -0.9975 0.0706 0.0000
vn -0.9960 -0.0890 0.0000
vn -0.8053 -0.5928 0.0000
vn -0.9958 -0.0918 0.0000
vn -0.9623 0.2721 0.0000
vn -0.8358 -0.5490 0.0000
vn -0.8359 -0.5490 0.0000
vn 0.9988 -0.0500 -0.0000
vn 0.0009 -0.0025 1.0000
vn 0.0011 -0.0024 1.0000
vn -0.0001 -0.0004 1.0000
vn -0.0002 -0.0001 1.0000
vn -0.0002 -0.0002 1.0000
vn -0.0001 -0.0002 1.0000
vn 0.0000 0.0003 1.0000
vn 0.0001 -0.0028 1.0000
vn 0.8231 -0.5680 0.0000
vn 0.0005 -0.0006 1.0000
vn 0.0006 -0.0005 1.0000
vn 0.0005 -0.0007 1.0000
vn 0.0006 -0.0006 1.0000
vn -0.9999 0.0114 0.0000
vn -0.9999 0.0110 0.0000
vn -0.9999 0.0111 0.0000
vn -0.2802 0.9600 0.0000
vn -0.8893 0.0000 -0.4574
vn -0.0000 1.0000 0.0002
vn -0.0001 1.0000 -0.0004
vn 0.0000 1.0000 0.0003
vn -0.0000 1.0000 -0.0003
vn -0.0001 1.0000 -0.0000
vn -0.0001 1.0000 -0.0003
vn 0.0000 1.0000 0.0005
vn 0.0000 -1.0000 -0.0001
vn 0.0001 -1.0000 -0.0001
vn 0.0000 -1.0000 0.0004
vn 0.0000 -1.0000 0.0002
vn -0.0000 -1.0000 0.0011
vn 0.0001 -1.0000 0.0001
vn 0.0000 -1.0000 -0.0003
vn 0.0000 -1.0000 -0.0002
vn -0.0000 -1.0000 -0.0010
vn 0.0000 -1.0000 -0.0006
vn 0.0017 1.0000 0.0000
vn 0.9952 -0.0983 0.0000
vn -0.9173 0.3981 0.0000
vn -0.8359 0.5489 0.0000
vn -0.8359 0.5489 0.0001
vn 0.7684 -0.6400 -0.0000
vn 0.0009 0.0025 -1.0000
vn 0.0011 0.0024 -1.0000
vn -0.0002 0.0001 -1.0000
vn -0.0002 0.0002 -1.0000
vn -0.0001 0.0002 -1.0000
vn 0.0000 -0.0003 -1.0000
vn 0.0001 0.0028 -1.0000
vn 0.0011 0.0009 -1.0000
vn -0.7532 -0.6578 0.0000
vn 0.0010 0.0009 -1.0000
vn 0.0005 0.0006 -1.0000
vn 0.0005 0.0007 -1.0000
vn 0.9999 0.0111 0.0000
vn 0.9999 0.0115 0.0000
vn 0.9999 0.0128 0.0000
vn 0.9999 0.0114 0.0000
vn 0.4101 -0.9120 -0.0000
vn 0.4858 0.0001 0.8741
vn -0.9600 -0.0000 0.2800
vn -0.9955 -0.0001 0.0949
vn -0.9956 -0.0001 -0.0941
vn -0.4858 -0.0001 -0.8741
vn 0.0001 -1.0000 -0.0000
vn 0.0001 -1.0000 -0.0003
vn 0.0001 -1.0000 0.0008
vn 0.0001 -1.0000 0.0005
vn 0.0001 -1.0000 -0.0004
vn 0.0001 -1.0000 -0.0007
vn 0.9956 -0.0001 -0.0939
vn 0.0000 1.0000 -0.0011
vn 0.0000 1.0000 -0.0017
vn 0.0003 1.0000 -0.0016
vn -0.0001 1.0000 -0.0002
vn -0.0001 1.0000 0.0001
vn -0.0000 1.0000 0.0006
vn -0.0000 1.0000 -0.0002
vn 0.0000 1.0000 0.0016
vn 0.0000 1.0000 0.0013
s 1
f 1/1/1 2/2/1 3/3/1
f 3/3/2 4/4/2 5/5/2
f 5/5/3 6/6/3 7/7/3
f 8/8/4 9/9/4 10/10/4
f 7/7/5 11/11/5 1/1/5
f 12/12/6 13/13/6 8/8/6
f 14/14/7 13/15/7 15/16/7
f 16/17/8 15/18/9 12/12/8
f 10/10/10 14/19/10 16/17/10
f 11/20/7 4/21/7 2/22/7
f 17/23/11 18/24/11 19/25/11
f 20/26/3 21/27/3 22/28/3
f 23/29/12 24/30/12 25/31/12
f 26/32/7 27/33/7 28/34/7
f 24/30/13 29/35/13 30/36/13
f 31/37/2 32/38/14 33/39/14
f 34/40/15 35/41/15 36/42/15
f 37/43/16 38/44/16 39/45/16
f 40/46/17 41/47/17 42/48/17
f 43/49/18 41/50/18 17/51/18
f 44/52/19 45/53/19 46/54/19
f 47/55/7 48/56/7 49/57/7
f 50/58/19 51/59/19 52/60/19
f 53/61/19 54/62/19 18/63/19
f 55/64/20 56/65/20 57/66/20
f 46/67/21 58/68/21 59/69/22
f 60/70/23 59/69/23 61/71/23
f 62/72/24 61/71/24 63/73/24
f 64/74/25 65/75/25 66/76/25
f 67/77/26 68/78/26 69/79/26
f 70/80/27 71/81/27 72/82/27
f 73/83/28 74/84/28 75/85/28
f 45/86/29 76/87/29 58/68/29
f 77/88/30 63/73/30 65/75/30
f 78/89/31 79/90/31 80/91/31
f 81/92/32 82/93/32 83/94/32
f 84/95/33 66/76/33 85/96/33
f 80/91/34 86/97/34 87/98/34
f 88/99/35 85/96/35 68/78/35
f 87/98/36 89/100/36 90/101/36
f 1/102/5 38/44/5 91/103/5
f 92/104/37 93/105/37 94/106/37
f 95/107/38 96/108/38 97/109/38
f 98/110/39 99/111/39 100/112/39
f 101/113/40 47/114/40 78/89/40
f 90/101/41 102/115/41 92/104/41
f 103/116/42 104/117/43 71/81/42
f 105/118/44 106/119/44 107/120/44
f 94/106/45 108/121/45 109/122/45
f 44/123/46 110/124/47 104/117/46
f 109/122/48 111/125/48 95/107/48
f 112/126/49 69/79/49 110/124/47
f 113/127/50 34/128/50 56/65/50
f 114/129/51 57/66/51 115/130/51
f 116/131/52 115/130/52 82/93/52
f 98/110/53 117/132/54 48/133/55
f 118/134/56 83/94/56 76/87/56
f 119/135/57 117/132/57 120/136/57
f 121/137/58 122/138/59 35/139/59
f 97/109/60 123/140/60 119/135/60
f 124/141/61 125/142/61 73/83/61
f 75/85/62 126/143/62 127/144/62
f 127/144/63 128/145/63 105/118/63
f 107/120/64 49/146/64 101/113/64
f 129/147/4 8/148/4 10/149/4
f 130/150/65 131/151/65 132/152/65
f 133/153/66 134/154/66 130/150/66
f 135/155/67 136/156/67 133/153/67
f 137/157/68 138/158/68 135/155/68
f 139/159/69 140/160/69 137/157/69
f 141/161/70 142/162/70 139/159/70
f 143/163/71 144/164/71 145/165/71
f 146/166/72 54/167/73 37/43/73
f 147/168/73 146/166/72 148/169/72
f 149/170/73 148/169/72 150/171/73
f 50/172/74 150/171/74 28/173/74
f 16/174/8 99/175/8 50/172/8
f 151/176/75 152/177/76 153/178/77
f 154/179/78 155/180/7 156/181/79
f 17/182/18 157/183/18 158/184/18
f 42/185/17 159/186/17 160/187/17
f 43/49/11 19/188/11 29/35/11
f 3/189/2 31/190/2 33/191/14
f 7/192/3 22/193/3 5/194/3
f 161/195/13 30/196/13 162/197/13
f 25/198/12 161/195/12 163/199/12
f 164/200/80 165/201/81 166/202/82
f 145/165/70 139/203/70 167/204/70
f 167/204/69 137/205/69 168/206/69
f 168/206/68 135/207/68 169/208/68
f 169/208/67 133/209/67 170/210/67
f 170/210/66 130/211/66 26/212/66
f 26/212/65 132/213/65 27/214/65
f 132/215/83 171/216/83 131/217/83
f 172/218/84 100/112/84 99/111/84
f 12/219/6 129/147/6 100/220/6
f 173/221/19 174/222/19 175/223/19
f 176/224/85 177/225/86 143/226/87
f 121/137/58 173/227/88 178/228/58
f 179/229/89 180/230/90 176/224/85
f 179/229/89 181/231/91 182/232/89
f 36/233/92 181/234/91 183/235/91
f 143/163/87 184/236/93 185/237/94
f 186/238/95 184/239/93 173/227/88
f 36/233/92 122/240/59 187/241/92
f 188/242/96 189/243/96 190/244/92
f 182/245/7 191/246/7 180/247/7
f 178/248/19 175/223/19 190/249/19
f 187/250/97 192/251/97 189/252/97
f 181/253/7 188/254/7 182/245/7
f 181/253/97 189/252/97 193/255/97
f 122/256/19 190/249/19 192/251/19
f 180/247/7 194/257/7 177/258/7
f 177/258/98 174/222/98 184/259/98
f 195/260/99 196/261/99 197/262/99
f 196/261/100 198/263/100 197/262/100
f 199/264/101 200/265/101 198/263/101
f 201/266/102 195/260/102 200/265/102
f 197/262/19 200/265/19 195/260/19
f 196/267/103 201/268/103 199/269/103
f 202/270/7 203/271/7 204/272/7
f 205/273/7 206/274/7 207/275/7
f 206/274/7 208/276/7 209/277/7
f 208/276/7 210/278/7 209/277/7
f 211/279/7 212/280/7 210/278/7
f 213/281/7 214/282/7 212/280/7
f 215/283/7 204/272/7 214/282/7
f 216/284/19 217/285/19 218/286/19
f 219/287/19 220/288/19 221/289/19
f 219/287/19 222/290/19 223/291/19
f 224/292/19 222/290/19 225/293/19
f 226/294/19 227/295/19 224/292/19
f 228/296/19 229/297/19 226/294/19
f 218/286/19 230/298/19 228/296/19
f 220/288/104 231/299/104 205/273/104
f 232/300/100 203/271/100 233/301/100
f 223/291/105 208/276/105 231/299/105
f 216/284/106 204/272/106 203/271/106
f 222/290/15 211/279/15 208/276/15
f 218/286/107 214/282/107 204/272/107
f 227/295/108 213/281/108 211/279/108
f 228/296/109 212/280/109 214/282/109
f 229/297/110 215/283/110 213/281/110
f 226/294/111 210/278/111 212/280/111
f 219/287/112 207/275/112 206/274/112
f 215/283/113 217/285/113 202/270/113
f 224/292/114 209/277/114 210/278/114
f 221/289/102 205/273/102 207/275/102
f 225/293/115 206/274/115 209/277/115
f 217/285/116 233/301/116 202/270/116
f 234/302/117 235/303/118 236/304/117
f 237/305/119 238/306/120 234/302/119
f 239/307/121 240/308/122 237/305/121
f 241/309/123 242/310/123 239/307/123
f 243/311/124 244/312/125 241/309/126
f 245/313/127 246/314/127 243/311/127
f 247/315/128 248/316/128 245/313/128
f 249/317/129 250/318/129 247/315/129
f 251/319/130 252/320/131 249/317/130
f 253/321/132 254/322/133 251/319/132
f 255/323/134 256/324/135 253/321/134
f 257/325/136 258/326/136 255/323/136
f 259/327/137 260/328/138 257/325/137
f 261/329/139 262/330/140 259/327/141
f 263/331/142 264/332/143 261/329/142
f 265/333/144 266/334/144 263/331/144
f 265/333/145 267/335/146 268/336/145
f 269/337/147 270/338/147 267/335/147
f 271/339/148 272/340/149 270/338/150
f 273/341/151 274/342/152 272/340/153
f 275/343/154 276/344/154 274/342/154
f 277/345/155 278/346/156 276/344/156
f 279/347/157 280/348/157 278/346/157
f 281/349/158 282/350/159 280/348/159
f 283/351/160 284/352/160 282/350/160
f 285/353/161 286/354/162 284/352/162
f 287/355/163 288/356/163 286/354/163
f 289/357/164 290/358/165 288/356/165
f 291/359/166 292/360/166 290/358/167
f 293/361/168 294/362/169 292/360/169
f 294/362/170 295/363/170 270/338/171
f 296/364/172 295/363/173 294/362/173
f 297/365/174 235/303/175 295/363/175
f 239/307/176 237/305/177 259/327/177
f 298/366/7 21/27/7 32/367/7
f 299/368/178 42/185/178 300/369/178
f 18/24/179 158/370/179 30/196/179
f 171/216/180 172/218/180 131/217/7
f 301/371/7 302/372/7 303/373/7
f 304/374/181 305/375/182 306/376/181
f 306/376/183 307/377/183 308/378/183
f 308/378/184 309/379/184 310/380/184
f 311/381/185 312/382/185 313/383/185
f 310/380/186 314/384/187 305/375/187
f 315/385/188 316/386/188 312/382/188
f 317/387/19 316/388/19 318/389/19
f 319/390/189 318/391/189 315/385/189
f 313/383/190 317/392/190 319/390/190
f 314/393/19 307/394/19 304/395/19
f 320/396/191 321/397/191 322/398/191
f 323/399/184 324/400/184 325/401/184
f 326/402/192 327/403/192 328/404/192
f 329/405/19 330/406/19 331/407/19
f 328/404/193 332/408/193 333/409/193
f 334/410/194 335/411/194 336/412/194
f 337/413/195 338/414/195 339/415/195
f 340/416/196 341/417/196 342/418/196
f 343/419/197 344/420/197 345/421/198
f 346/422/199 344/423/199 320/424/199
f 347/425/19 348/426/19 349/427/19
f 350/428/7 351/429/7 352/430/7
f 353/431/19 354/432/19 355/433/19
f 321/434/19 356/435/19 357/436/19
f 358/437/200 359/438/200 360/439/200
f 349/440/201 361/441/201 362/442/201
f 363/443/202 349/440/202 362/442/202
f 364/444/203 363/443/203 365/445/204
f 366/446/205 367/447/205 368/448/205
f 369/449/206 370/450/206 371/451/206
f 372/452/207 373/453/207 374/454/207
f 375/455/208 376/456/208 377/457/208
f 347/458/209 378/459/209 361/441/209
f 379/460/210 365/445/210 367/447/210
f 380/461/211 381/462/211 382/463/211
f 383/464/212 384/465/212 385/466/212
f 386/467/213 368/448/213 387/468/213
f 382/463/214 388/469/214 389/470/214
f 390/471/215 387/468/215 370/450/215
f 389/470/216 391/472/216 392/473/216
f 305/474/186 341/417/186 393/475/187
f 394/476/217 395/477/217 396/478/217
f 397/479/218 398/480/218 399/481/218
f 400/482/219 352/483/220 401/484/220
f 402/485/221 403/486/221 380/461/221
f 392/473/222 404/487/222 394/476/222
f 405/488/223 406/489/223 373/453/223
f 407/490/224 351/491/224 408/492/224
f 396/478/225 409/493/225 410/494/225
f 348/495/226 411/496/227 406/489/226
f 410/494/228 412/497/228 397/479/228
f 413/498/186 371/451/229 411/496/227
f 359/438/230 414/499/230 337/500/230
f 415/501/231 360/439/231 416/502/231
f 417/503/232 416/502/232 384/465/232
f 400/482/219 418/504/233 419/505/219
f 420/506/234 385/466/234 378/459/234
f 421/507/235 422/508/235 418/504/235
f 423/509/236 424/510/237 338/511/237
f 399/481/238 422/508/238 425/512/238
f 426/513/239 427/514/239 375/455/239
f 377/457/240 428/515/240 429/516/240
f 429/516/241 430/517/241 407/490/241
f 408/492/242 350/518/242 402/485/242
f 431/519/243 312/520/243 313/521/243
f 432/522/244 433/523/244 434/524/244
f 435/525/245 436/526/245 433/523/245
f 437/527/246 438/528/246 436/526/246
f 439/529/247 440/530/247 438/528/247
f 441/531/248 442/532/248 440/530/248
f 443/533/249 444/534/249 442/532/249
f 445/535/250 446/536/250 447/537/250
f 340/416/251 357/538/251 448/539/251
f 449/540/251 450/541/251 451/542/251
f 452/543/251 451/542/251 453/544/251
f 355/545/252 453/544/252 331/546/252
f 319/547/189 352/548/189 355/545/189
f 454/549/253 455/550/254 456/551/255
f 457/552/256 458/553/19 459/554/257
f 320/555/199 460/556/258 461/557/258
f 345/558/198 462/559/259 463/560/198
f 346/422/191 322/561/191 332/408/191
f 306/562/183 335/563/183 336/564/183
f 310/565/184 325/566/184 308/567/184
f 464/568/193 333/569/193 465/570/193
f 414/571/192 328/572/192 464/568/192
f 466/573/260 467/574/261 455/550/262
f 447/537/263 442/575/263 468/576/263
f 468/576/264 440/577/264 469/578/264
f 469/578/265 438/579/265 470/580/265
f 470/580/266 436/581/266 471/582/266
f 471/582/267 433/583/267 329/584/267
f 329/584/268 434/585/268 330/586/268
f 434/587/269 472/588/269 432/589/269
f 473/590/270 401/484/270 352/483/270
f 315/591/188 431/519/188 401/592/188
f 474/593/7 475/594/7 476/595/7
f 477/596/271 478/597/272 445/598/273
f 423/509/236 474/599/274 479/600/275
f 480/601/276 481/602/277 477/596/271
f 480/601/276 482/603/278 483/604/279
f 339/605/280 482/606/278 484/607/281
f 445/535/273 485/608/282 486/609/282
f 487/610/283 485/611/284 474/599/274
f 339/605/285 424/612/286 338/613/286
f 488/614/285 489/615/287 490/616/288
f 483/617/19 491/618/19 481/619/19
f 479/620/7 476/595/7 488/621/7
f 492/622/289 493/623/289 424/624/289
f 482/625/19 490/626/19 483/617/19
f 482/625/290 489/627/290 494/628/290
f 424/624/7 488/621/7 493/623/7
f 481/619/19 495/629/19 478/630/19
f 478/630/289 475/594/289 485/631/289
f 496/632/101 497/633/101 498/634/101
f 497/633/100 499/635/100 498/634/100
f 500/636/99 501/637/99 499/635/99
f 502/638/102 496/632/102 501/637/102
f 499/635/7 496/632/7 498/634/7
f 500/639/291 503/640/291 502/641/291
f 504/642/19 505/643/19 506/644/19
f 507/645/19 508/646/19 509/647/19
f 508/646/19 510/648/19 511/649/19
f 510/648/19 512/650/19 511/649/19
f 512/650/19 513/651/19 514/652/19
f 514/652/19 515/653/19 516/654/19
f 515/653/19 506/644/19 516/654/19
f 517/655/7 518/656/7 519/657/7
f 520/658/7 521/659/7 522/660/7
f 520/658/7 523/661/7 524/662/7
f 525/663/7 523/661/7 526/664/7
f 525/663/7 527/665/7 528/666/7
f 529/667/7 530/668/7 527/665/7
f 519/657/7 530/668/7 531/669/7
f 521/659/292 532/670/292 507/645/292
f 533/671/100 517/655/100 505/643/100
f 524/662/293 510/648/293 532/670/293
f 517/655/294 506/644/294 505/643/294
f 523/661/295 534/672/295 510/648/295
f 519/657/296 516/654/296 506/644/296
f 528/666/297 513/651/297 534/672/297
f 531/669/298 514/652/298 516/654/298
f 527/665/299 515/653/299 513/651/299
f 529/667/300 512/650/300 514/652/300
f 520/658/301 509/647/301 508/646/301
f 515/653/302 518/656/302 504/642/302
f 525/663/303 511/649/303 512/650/303
f 522/660/102 507/645/102 509/647/102
f 526/664/304 508/646/304 511/649/304
f 518/656/305 533/671/305 504/642/305
f 535/673/175 536/674/175 537/675/175
f 538/676/173 539/677/306 536/674/306
f 540/678/307 541/679/308 539/677/308
f 542/680/166 543/681/309 541/679/309
f 544/682/165 545/683/164 543/681/164
f 546/684/163 547/685/163 545/683/163
f 548/686/310 549/687/162 547/685/162
f 550/688/160 551/689/311 549/687/311
f 552/690/159 553/691/158 551/689/158
f 554/692/312 555/693/313 553/691/313
f 556/694/314 557/695/315 555/693/315
f 558/696/154 559/697/154 557/695/154
f 560/698/152 561/699/152 559/697/152
f 562/700/316 563/701/317 561/699/317
f 564/702/318 565/703/319 563/701/319
f 566/704/320 567/705/145 565/703/321
f 568/706/144 567/705/144 569/707/322
f 570/708/323 571/709/143 568/706/323
f 572/710/324 573/711/324 570/708/324
f 574/712/325 575/713/325 572/710/325
f 576/714/136 577/715/136 574/712/136
f 578/716/134 579/717/135 576/714/134
f 580/718/326 581/719/133 578/716/326
f 582/720/131 583/721/327 580/718/131
f 584/722/129 585/723/129 582/720/129
f 586/724/128 587/725/128 584/722/328
f 588/726/127 589/727/329 586/724/330
f 590/728/125 591/729/124 588/726/125
f 592/730/123 593/731/331 590/728/123
f 594/732/121 595/733/332 592/730/121
f 596/734/176 597/735/176 573/711/177
f 598/736/120 596/734/333 594/732/120
f 535/673/118 597/735/118 598/736/118
f 542/680/334 540/678/170 562/700/335
f 599/737/7 324/400/7 372/738/7
f 345/558/336 463/560/336 600/739/336
f 322/398/177 321/397/177 333/569/177
f 472/588/180 473/590/180 432/589/7
f 601/740/7 602/741/7 603/742/7
f 1/1/1 11/11/1 2/2/1
f 3/3/2 2/2/2 4/4/2
f 5/5/3 4/4/3 6/6/3
f 8/8/4 13/13/4 9/9/4
f 7/7/5 6/6/5 11/11/5
f 12/12/6 15/18/6 13/13/6
f 14/14/7 9/743/7 13/15/7
f 16/17/8 14/19/8 15/18/9
f 10/10/10 9/9/10 14/19/10
f 11/20/7 6/744/7 4/21/7
f 17/23/11 158/370/11 18/24/11
f 20/26/3 70/745/3 21/27/3
f 23/29/12 604/746/12 24/30/12
f 23/747/7 183/748/7 179/229/7
f 179/229/7 176/224/7 23/747/7
f 176/224/7 143/226/7 145/749/7
f 176/224/7 145/749/7 23/747/7
f 23/747/7 145/749/7 604/750/7
f 29/751/7 604/750/7 146/752/7
f 146/752/7 604/750/7 145/749/7
f 145/749/7 167/753/7 146/752/7
f 167/753/7 168/754/7 148/755/7
f 146/752/7 167/753/7 148/755/7
f 43/756/7 29/751/7 37/757/7
f 160/758/7 159/759/7 39/760/7
f 159/759/7 43/756/7 37/757/7
f 39/760/7 159/759/7 37/757/7
f 1/761/7 3/762/7 300/763/7
f 1/761/7 300/763/7 39/760/7
f 300/763/7 160/758/7 39/760/7
f 150/764/7 148/755/7 168/754/7
f 146/752/7 37/757/7 29/751/7
f 169/765/7 170/766/7 150/764/7
f 170/766/7 26/32/7 28/34/7
f 150/764/7 170/766/7 28/34/7
f 168/754/7 169/765/7 150/764/7
f 10/767/7 16/768/7 27/33/7
f 16/768/7 28/34/7 27/33/7
f 24/30/13 604/746/13 29/35/13
f 31/37/2 298/769/14 32/38/14
f 36/42/15 183/770/15 23/29/15
f 34/40/15 163/771/15 35/41/15
f 36/42/15 23/29/15 34/40/15
f 37/43/16 54/167/16 38/44/16
f 40/46/17 157/183/17 41/47/17
f 43/49/18 159/186/18 41/50/18
f 67/772/19 112/773/19 62/774/19
f 112/773/19 44/52/19 46/54/19
f 62/774/19 112/773/19 60/775/19
f 44/52/19 103/776/19 45/53/19
f 103/776/19 70/777/19 81/778/19
f 45/53/19 103/776/19 118/779/19
f 70/777/19 298/366/19 116/780/19
f 298/366/19 605/781/19 114/782/19
f 70/777/19 116/780/19 81/778/19
f 605/781/19 40/783/19 55/784/19
f 40/783/19 157/785/19 55/784/19
f 157/785/19 158/786/19 113/787/19
f 158/786/19 162/788/19 113/787/19
f 162/788/19 161/789/19 113/787/19
f 161/789/19 163/790/19 113/787/19
f 113/787/19 55/784/19 157/785/19
f 55/784/19 114/782/19 605/781/19
f 116/780/19 298/366/19 114/782/19
f 118/779/19 103/776/19 81/778/19
f 67/772/19 62/774/19 77/791/19
f 84/792/19 88/793/19 64/794/19
f 88/793/19 67/772/19 64/794/19
f 64/794/19 67/772/19 77/791/19
f 46/54/19 60/775/19 112/773/19
f 123/795/7 117/796/7 79/797/7
f 117/796/7 48/56/7 47/55/7
f 79/797/7 117/796/7 47/55/7
f 48/56/7 99/798/7 49/57/7
f 99/798/7 172/799/7 106/800/7
f 49/57/7 99/798/7 106/800/7
f 172/799/7 131/801/7 128/802/7
f 131/801/7 134/803/7 126/804/7
f 136/805/7 138/806/7 125/807/7
f 138/806/7 140/808/7 125/807/7
f 131/801/7 126/804/7 128/802/7
f 134/803/7 136/805/7 74/809/7
f 126/804/7 134/803/7 74/809/7
f 108/810/7 111/811/7 93/812/7
f 111/811/7 96/813/7 93/812/7
f 96/813/7 123/795/7 89/814/7
f 96/813/7 89/814/7 102/815/7
f 140/808/7 142/816/7 125/807/7
f 142/816/7 606/817/7 125/807/7
f 125/807/7 74/809/7 136/805/7
f 93/812/7 96/813/7 102/815/7
f 89/814/7 123/795/7 86/818/7
f 79/797/7 86/818/7 123/795/7
f 172/799/7 128/802/7 106/800/7
f 303/373/7 302/372/7 149/819/7
f 149/819/19 50/58/19 607/820/19
f 50/58/19 608/821/19 171/822/19
f 50/58/19 171/822/19 51/59/19
f 609/823/7 610/824/7 303/373/7
f 607/820/7 611/825/7 612/826/7
f 609/823/19 303/373/19 149/819/19
f 52/60/19 607/820/19 50/58/19
f 607/820/19 612/826/19 149/819/19
f 612/826/19 609/823/19 149/819/19
f 21/827/19 91/828/19 38/829/19
f 38/829/19 54/62/19 613/830/19
f 54/62/19 614/831/19 18/63/19
f 38/829/19 613/830/19 615/832/19
f 614/831/19 147/833/19 302/372/19
f 147/833/19 149/819/19 302/372/19
f 301/371/7 303/373/7 144/834/7
f 185/835/19 186/238/19 301/371/19
f 186/238/19 121/137/19 616/836/19
f 301/371/19 186/238/19 616/836/19
f 121/137/19 35/139/19 616/836/19
f 616/836/19 617/837/19 301/371/19
f 301/371/7 144/834/7 185/835/7
f 302/372/19 301/371/19 614/831/19
f 32/367/19 21/827/19 38/829/19
f 615/832/7 618/838/7 32/367/7
f 32/367/19 38/829/19 615/832/19
f 613/830/19 54/62/19 53/61/19
f 614/831/19 617/837/19 18/63/19
f 301/371/19 617/837/19 614/831/19
f 53/61/7 619/839/7 613/830/7
f 55/64/20 113/127/20 56/65/20
f 46/67/21 45/86/21 58/68/21
f 60/70/23 46/67/23 59/69/23
f 62/72/24 60/70/24 61/71/24
f 64/74/25 77/88/25 65/75/25
f 67/77/26 88/99/26 68/78/26
f 70/80/27 103/116/27 71/81/27
f 73/83/28 125/142/28 74/84/28
f 45/86/29 118/134/337 76/87/29
f 77/88/30 62/72/30 63/73/30
f 78/89/31 47/114/31 79/90/31
f 81/92/32 116/131/32 82/93/32
f 84/95/33 64/74/33 66/76/33
f 80/91/34 79/90/34 86/97/34
f 88/99/35 84/95/35 85/96/35
f 87/98/36 86/97/36 89/100/36
f 91/103/5 7/840/5 1/102/5
f 1/102/5 39/45/5 38/44/5
f 92/104/37 102/115/37 93/105/37
f 95/107/38 111/125/38 96/108/38
f 98/110/53 48/133/55 99/111/39
f 101/113/338 49/146/338 47/114/338
f 90/101/339 89/100/339 102/115/339
f 103/116/42 44/123/43 104/117/43
f 105/118/44 128/145/44 106/119/44
f 94/106/340 93/105/340 108/121/340
f 44/123/46 112/126/49 110/124/47
f 109/122/48 108/121/48 111/125/48
f 112/126/49 67/77/49 69/79/49
f 113/127/50 163/841/50 34/128/50
f 114/129/51 55/64/51 57/66/51
f 116/131/52 114/129/52 115/130/52
f 98/110/53 120/136/54 117/132/54
f 118/134/56 81/92/341 83/94/56
f 119/135/57 123/140/57 117/132/57
f 121/137/58 178/228/58 122/138/59
f 97/109/60 96/108/60 123/140/60
f 124/141/61 606/842/61 125/142/61
f 75/85/62 74/84/62 126/143/62
f 127/144/63 126/143/63 128/145/63
f 107/120/64 106/119/64 49/146/64
f 27/214/342 132/213/342 10/149/343
f 132/213/342 129/147/343 10/149/343
f 130/150/65 134/154/65 131/151/65
f 133/153/66 136/156/66 134/154/66
f 135/155/67 138/158/67 136/156/67
f 137/157/68 140/160/68 138/158/68
f 139/159/69 142/162/69 140/160/69
f 141/161/70 606/843/70 142/162/70
f 143/163/71 185/237/71 144/164/71
f 146/166/72 614/844/73 54/167/73
f 147/168/73 614/844/73 146/166/72
f 149/170/73 147/168/73 148/169/72
f 50/172/74 149/170/344 150/171/74
f 50/172/8 28/173/8 16/174/8
f 16/174/8 12/845/8 99/175/8
f 153/178/77 620/846/345 621/847/346
f 621/847/346 151/176/75 153/178/77
f 622/848/7 623/849/7 624/850/7
f 623/849/7 625/851/7 624/850/7
f 625/851/7 626/852/7 627/853/7
f 624/850/7 625/851/7 627/853/7
f 628/854/7 622/848/7 629/855/7
f 630/856/7 631/857/7 632/858/7
f 622/848/7 624/850/7 629/855/7
f 626/852/7 630/856/7 627/853/7
f 155/180/7 628/854/7 633/859/7
f 630/856/7 632/858/7 627/853/7
f 629/855/7 633/859/7 628/854/7
f 633/859/7 156/181/79 155/180/7
f 156/181/79 634/860/347 154/179/78
f 634/860/347 635/861/348 636/862/348
f 635/861/348 637/863/349 638/864/349
f 637/863/349 639/865/349 640/866/350
f 638/864/349 637/863/349 640/866/350
f 639/865/349 641/867/350 642/868/350
f 641/867/350 643/869/350 642/868/350
f 643/869/350 644/870/350 642/868/350
f 644/870/350 645/871/350 642/868/350
f 642/868/350 640/866/350 639/865/349
f 634/860/347 636/862/348 154/179/78
f 636/862/348 635/861/348 638/864/349
f 17/182/18 41/47/18 157/183/18
f 42/185/17 41/50/17 159/186/17
f 43/49/11 17/51/11 19/188/11
f 33/191/14 300/369/14 3/189/2
f 3/189/2 5/194/2 31/190/2
f 7/192/3 20/872/3 22/193/3
f 161/195/13 24/873/13 30/196/13
f 25/198/12 24/873/12 161/195/12
f 646/874/7 647/875/7 648/876/7
f 647/875/7 649/877/7 648/876/7
f 649/877/7 650/878/7 651/879/7
f 648/876/7 649/877/7 651/879/7
f 652/880/7 646/874/7 653/881/7
f 646/874/7 648/876/7 653/881/7
f 650/878/7 654/882/7 655/883/7
f 656/884/7 657/885/7 658/886/7
f 658/886/7 652/880/7 653/881/7
f 656/884/7 658/886/7 653/881/7
f 651/879/7 650/878/7 655/883/7
f 654/882/7 659/887/7 655/883/7
f 660/888/351 655/883/7 659/887/7
f 660/888/351 659/887/7 661/889/352
f 165/201/81 660/888/351 661/889/352
f 164/200/353 662/890/353 165/201/353
f 663/891/354 664/892/355 152/177/354
f 664/892/355 164/200/355 152/177/354
f 665/893/356 666/894/354 152/177/354
f 666/894/354 663/891/354 152/177/354
f 166/202/82 152/177/357 164/200/80
f 661/889/352 166/202/82 165/201/81
f 145/165/70 141/895/70 139/203/70
f 167/204/69 139/203/69 137/205/69
f 168/206/68 137/205/68 135/207/68
f 169/208/67 135/207/67 133/209/67
f 170/210/66 133/209/66 130/211/66
f 26/212/65 130/211/65 132/213/65
f 132/215/83 129/896/83 171/216/83
f 172/218/84 129/896/84 100/112/84
f 12/219/6 8/148/6 129/147/6
f 173/221/19 184/259/19 174/222/19
f 176/224/85 180/230/90 177/225/86
f 121/137/58 186/238/95 173/227/88
f 179/229/89 182/232/89 180/230/90
f 179/229/89 183/748/91 181/231/91
f 36/233/92 187/241/92 181/234/91
f 143/163/87 177/897/86 184/236/93
f 186/238/95 185/835/94 184/239/93
f 36/233/92 35/898/59 122/240/59
f 175/899/358 174/900/359 194/901/360
f 191/902/358 188/242/96 190/244/92
f 188/242/96 193/903/96 189/243/96
f 175/899/358 194/901/360 191/902/358
f 189/243/96 192/904/96 190/244/92
f 190/244/92 175/899/358 191/902/358
f 182/245/7 188/254/7 191/246/7
f 178/248/19 173/221/19 175/223/19
f 187/250/97 122/256/97 192/251/97
f 181/253/7 193/255/7 188/254/7
f 181/253/97 187/250/97 189/252/97
f 122/256/19 178/248/19 190/249/19
f 180/247/7 191/246/7 194/257/7
f 177/258/98 194/257/98 174/222/98
f 195/260/99 667/905/99 196/261/99
f 196/261/100 199/264/100 198/263/100
f 199/264/101 201/266/101 200/265/101
f 201/266/102 667/905/102 195/260/102
f 197/262/19 198/263/19 200/265/19
f 196/267/103 667/906/103 201/268/103
f 202/270/7 233/301/7 203/271/7
f 205/273/7 231/299/7 206/274/7
f 206/274/7 231/299/7 208/276/7
f 208/276/7 211/279/7 210/278/7
f 211/279/7 213/281/7 212/280/7
f 213/281/7 215/283/7 214/282/7
f 215/283/7 202/270/7 204/272/7
f 216/284/19 232/300/19 217/285/19
f 219/287/19 223/291/19 220/288/19
f 219/287/19 225/293/19 222/290/19
f 224/292/19 227/295/19 222/290/19
f 226/294/19 229/297/19 227/295/19
f 228/296/19 230/298/19 229/297/19
f 218/286/19 217/285/19 230/298/19
f 220/288/104 223/291/104 231/299/104
f 232/300/100 216/284/100 203/271/100
f 223/291/105 222/290/105 208/276/105
f 216/284/106 218/286/106 204/272/106
f 222/290/15 227/295/361 211/279/15
f 218/286/107 228/296/107 214/282/107
f 227/295/108 229/297/108 213/281/108
f 228/296/109 226/294/109 212/280/109
f 229/297/110 230/298/110 215/283/110
f 226/294/111 224/292/111 210/278/111
f 219/287/112 221/289/112 207/275/112
f 215/283/113 230/298/113 217/285/113
f 224/292/114 225/293/114 209/277/114
f 221/289/102 220/288/102 205/273/102
f 225/293/115 219/287/115 206/274/115
f 217/285/116 232/300/116 233/301/116
f 234/302/117 238/306/118 235/303/118
f 237/305/119 240/308/120 238/306/120
f 239/307/121 242/310/122 240/308/122
f 241/309/123 244/312/123 242/310/123
f 243/311/124 246/314/125 244/312/125
f 245/313/127 248/316/127 246/314/127
f 247/315/128 250/318/128 248/316/128
f 249/317/129 252/320/129 250/318/129
f 251/319/130 254/322/131 252/320/131
f 253/321/132 256/324/133 254/322/133
f 255/323/134 258/326/135 256/324/135
f 257/325/136 260/328/136 258/326/136
f 259/327/137 262/330/138 260/328/138
f 261/329/139 264/332/362 262/330/140
f 263/331/142 266/334/143 264/332/143
f 265/333/144 268/336/144 266/334/144
f 265/333/145 269/337/145 267/335/146
f 269/337/147 271/339/147 270/338/147
f 271/339/148 273/341/148 272/340/149
f 273/341/151 275/343/152 274/342/152
f 275/343/154 277/345/154 276/344/154
f 277/345/155 279/347/155 278/346/156
f 279/347/157 281/349/157 280/348/157
f 281/349/158 283/351/158 282/350/159
f 283/351/160 285/353/160 284/352/160
f 285/353/161 287/355/161 286/354/162
f 287/355/163 289/357/163 288/356/163
f 289/357/164 291/359/164 290/358/165
f 291/359/166 293/361/166 292/360/166
f 293/361/168 296/364/168 294/362/169
f 235/303/171 238/306/335 266/334/171
f 238/306/335 240/308/335 264/332/171
f 240/308/335 242/310/170 262/330/171
f 242/310/170 244/312/170 260/328/170
f 244/312/170 246/314/363 260/328/170
f 246/314/363 248/316/364 258/326/334
f 260/328/170 246/314/363 258/326/334
f 248/316/364 250/318/365 256/324/363
f 250/318/365 252/320/366 254/322/170
f 256/324/363 250/318/365 254/322/170
f 256/324/363 258/326/334 248/316/364
f 260/328/170 262/330/171 242/310/170
f 262/330/171 264/332/171 240/308/335
f 264/332/171 266/334/171 238/306/335
f 266/334/171 268/336/171 235/303/171
f 268/336/171 267/335/171 235/303/171
f 267/335/171 270/338/171 295/363/170
f 235/303/171 267/335/171 295/363/170
f 270/338/171 272/340/171 294/362/170
f 272/340/171 274/342/335 292/360/335
f 294/362/170 272/340/171 292/360/335
f 274/342/335 276/344/171 290/358/335
f 276/344/171 278/346/367 288/356/368
f 290/358/335 276/344/171 288/356/368
f 278/346/367 280/348/363 284/352/366
f 280/348/363 282/350/369 284/352/366
f 284/352/366 286/354/335 278/346/367
f 286/354/335 288/356/368 278/346/367
f 290/358/335 292/360/335 274/342/335
f 296/364/172 297/365/172 295/363/173
f 297/365/174 236/304/174 235/303/175
f 234/302/177 236/304/177 265/333/177
f 236/304/177 297/365/177 269/337/177
f 297/365/177 296/364/177 269/337/177
f 296/364/177 293/361/370 271/339/177
f 269/337/177 296/364/177 271/339/177
f 293/361/370 291/359/370 275/343/370
f 291/359/370 289/357/177 277/345/177
f 289/357/177 287/355/371 277/345/177
f 287/355/371 285/353/372 279/347/373
f 277/345/177 287/355/371 279/347/373
f 285/353/372 283/351/374 281/349/372
f 281/349/372 279/347/373 285/353/372
f 277/345/177 275/343/370 291/359/370
f 275/343/370 273/341/177 293/361/370
f 273/341/177 271/339/177 293/361/370
f 269/337/177 265/333/177 236/304/177
f 265/333/177 263/331/177 234/302/177
f 263/331/177 261/329/177 234/302/177
f 261/329/177 259/327/177 237/305/177
f 234/302/177 261/329/177 237/305/177
f 259/327/177 257/325/176 241/309/177
f 257/325/176 255/323/375 243/311/376
f 255/323/375 253/321/371 243/311/376
f 253/321/371 251/319/377 245/313/373
f 243/311/376 253/321/371 245/313/373
f 251/319/377 249/317/378 247/315/379
f 247/315/379 245/313/373 251/319/377
f 243/311/376 241/309/177 257/325/176
f 241/309/177 239/307/176 259/327/177
f 298/366/7 70/777/7 21/27/7
f 299/368/178 605/907/178 40/908/178
f 42/185/178 160/187/178 300/369/178
f 299/368/178 40/908/178 42/185/178
f 29/909/171 19/25/171 18/24/171
f 158/370/11 162/788/11 30/196/11
f 30/196/380 29/909/380 18/24/380
f 171/216/180 129/896/180 172/218/180
f 304/374/181 314/384/182 305/375/182
f 306/376/183 304/374/183 307/377/183
f 308/378/184 307/377/184 309/379/184
f 311/381/185 316/386/185 312/382/185
f 310/380/186 309/379/186 314/384/187
f 315/385/188 318/391/188 316/386/188
f 317/387/19 311/910/19 316/388/19
f 319/390/189 317/392/189 318/391/189
f 313/383/190 311/381/190 317/392/190
f 314/393/19 309/911/19 307/394/19
f 320/396/191 461/912/191 321/397/191
f 323/399/184 372/913/184 324/400/184
f 326/402/192 668/914/192 327/403/192
f 668/915/19 484/916/19 480/601/19
f 480/601/19 477/596/19 447/917/19
f 477/596/19 445/598/19 447/917/19
f 327/918/19 668/915/19 450/919/19
f 668/915/19 480/601/19 447/917/19
f 450/919/19 668/915/19 451/920/19
f 332/921/19 327/918/19 450/919/19
f 447/917/19 468/922/19 451/920/19
f 451/920/19 668/915/19 447/917/19
f 468/922/19 469/923/19 451/920/19
f 346/924/19 332/921/19 340/925/19
f 463/926/19 462/927/19 342/928/19
f 462/927/19 346/924/19 340/925/19
f 342/928/19 462/927/19 340/925/19
f 305/929/19 306/930/19 600/931/19
f 305/929/19 600/931/19 342/928/19
f 600/931/19 463/926/19 342/928/19
f 453/932/19 451/920/19 469/923/19
f 450/919/19 340/925/19 332/921/19
f 470/933/19 471/934/19 453/932/19
f 471/934/19 329/405/19 331/407/19
f 453/932/19 471/934/19 331/407/19
f 469/923/19 470/933/19 453/932/19
f 313/935/19 319/936/19 330/406/19
f 319/936/19 331/407/19 330/406/19
f 328/404/193 327/403/193 332/408/193
f 334/410/194 599/937/194 335/411/194
f 339/415/195 484/938/195 668/914/195
f 337/413/195 414/939/195 338/414/195
f 339/415/195 668/914/195 337/413/195
f 340/416/196 448/539/196 341/417/196
f 343/419/197 460/556/197 344/420/197
f 346/422/199 462/559/199 344/423/199
f 369/940/19 390/941/19 366/942/19
f 390/941/19 386/943/19 366/942/19
f 348/426/19 413/944/19 349/427/19
f 413/944/19 369/940/19 364/945/19
f 372/738/19 405/946/19 383/947/19
f 405/946/19 348/426/19 347/425/19
f 669/948/19 599/737/19 415/949/19
f 599/737/19 372/738/19 417/950/19
f 417/950/19 372/738/19 383/947/19
f 460/951/19 343/952/19 358/953/19
f 343/952/19 669/948/19 358/953/19
f 358/953/19 669/948/19 415/949/19
f 465/954/19 461/955/19 670/956/19
f 461/955/19 460/951/19 670/956/19
f 414/957/19 464/958/19 670/956/19
f 464/958/19 465/954/19 670/956/19
f 358/953/19 670/956/19 460/951/19
f 413/944/19 364/945/19 671/959/19
f 369/940/19 366/942/19 379/960/19
f 599/737/19 417/950/19 415/949/19
f 405/946/19 347/425/19 420/961/19
f 405/946/19 420/961/19 383/947/19
f 369/940/19 379/960/19 364/945/19
f 349/427/19 413/944/19 671/959/19
f 398/962/7 412/963/7 395/964/7
f 412/963/7 409/965/7 395/964/7
f 419/966/7 418/967/7 403/968/7
f 418/967/7 422/969/7 381/970/7
f 422/969/7 398/962/7 391/971/7
f 398/962/7 395/964/7 404/972/7
f 398/962/7 404/972/7 391/971/7
f 352/430/7 419/966/7 350/428/7
f 418/967/7 381/970/7 403/968/7
f 432/973/7 473/974/7 428/975/7
f 473/974/7 352/430/7 351/429/7
f 430/976/7 473/974/7 351/429/7
f 437/977/7 435/978/7 376/979/7
f 435/978/7 432/973/7 428/975/7
f 441/980/7 439/981/7 427/982/7
f 439/981/7 437/977/7 427/982/7
f 672/983/7 443/984/7 427/982/7
f 443/984/7 441/980/7 427/982/7
f 376/979/7 427/982/7 437/977/7
f 428/975/7 376/979/7 435/978/7
f 473/974/7 430/976/7 428/975/7
f 391/971/7 388/985/7 422/969/7
f 388/985/7 381/970/7 422/969/7
f 419/966/7 403/968/7 350/428/7
f 673/986/7 674/987/7 675/988/7
f 673/986/19 675/988/19 452/989/19
f 675/988/19 353/431/19 355/433/19
f 676/990/7 677/991/7 673/986/7
f 603/742/7 602/741/7 676/990/7
f 355/433/19 452/989/19 675/988/19
f 452/989/19 603/742/19 676/990/19
f 472/992/19 678/993/19 355/433/19
f 354/432/19 472/992/19 355/433/19
f 452/989/19 676/990/19 673/986/19
f 334/994/7 679/995/7 680/996/7
f 681/997/7 682/998/7 683/999/7
f 680/996/19 681/997/19 341/1000/19
f 681/997/19 683/999/19 448/1001/19
f 341/1000/19 681/997/19 448/1001/19
f 341/1000/19 393/1002/19 324/1003/19
f 357/436/19 448/1001/19 321/434/19
f 452/989/19 449/1004/19 603/742/19
f 449/1004/19 357/436/19 684/1005/19
f 603/742/19 449/1004/19 601/740/19
f 446/1006/7 602/741/7 601/740/7
f 423/509/19 487/610/19 601/740/19
f 487/610/19 486/1007/19 601/740/19
f 684/1005/19 338/511/19 423/509/19
f 356/435/19 684/1005/19 357/436/19
f 684/1005/19 423/509/19 601/740/19
f 486/1007/7 446/1006/7 601/740/7
f 601/740/19 449/1004/19 684/1005/19
f 448/1001/19 683/999/19 321/434/19
f 341/1000/19 324/1003/19 334/994/19
f 341/1000/19 334/994/19 680/996/19
f 358/437/200 670/1008/200 359/438/200
f 349/440/201 347/458/201 361/441/201
f 363/443/202 671/1009/202 349/440/202
f 364/444/203 671/1009/203 363/443/203
f 366/446/205 379/460/205 367/447/205
f 369/449/206 390/471/206 370/450/206
f 372/452/207 405/488/207 373/453/207
f 375/455/208 427/514/208 376/456/208
f 347/458/209 420/506/209 378/459/209
f 379/460/210 364/444/210 365/445/210
f 380/461/211 403/486/211 381/462/211
f 383/464/212 417/503/212 384/465/212
f 386/467/213 366/446/213 368/448/213
f 382/463/214 381/462/214 388/469/214
f 390/471/215 386/467/215 387/468/215
f 389/470/216 388/469/216 391/472/216
f 393/475/187 310/1010/187 305/474/186
f 305/474/186 342/418/186 341/417/186
f 394/476/217 404/487/217 395/477/217
f 397/479/218 412/497/218 398/480/218
f 400/482/219 419/505/219 352/483/220
f 402/485/221 350/518/221 403/486/221
f 392/473/222 391/472/222 404/487/222
f 405/488/223 348/495/223 406/489/223
f 407/490/224 430/517/224 351/491/224
f 396/478/225 395/477/225 409/493/225
f 348/495/226 413/498/186 411/496/227
f 410/494/228 409/493/228 412/497/228
f 413/498/186 369/449/381 371/451/229
f 359/438/230 670/1008/230 414/499/230
f 415/501/231 358/437/231 360/439/231
f 417/503/232 415/501/232 416/502/232
f 400/482/219 421/507/233 418/504/233
f 420/506/234 383/464/234 385/466/234
f 421/507/235 425/512/235 422/508/235
f 423/509/236 479/600/275 424/510/237
f 399/481/238 398/480/238 422/508/238
f 426/513/239 672/1011/239 427/514/239
f 377/457/240 376/456/240 428/515/240
f 429/516/241 428/515/241 430/517/241
f 408/492/382 351/491/382 350/518/382
f 330/586/383 434/585/383 313/521/383
f 434/585/383 431/519/384 313/521/383
f 432/522/244 435/525/385 433/523/244
f 435/525/245 437/527/245 436/526/245
f 437/527/246 439/529/246 438/528/246
f 439/529/247 441/531/247 440/530/247
f 441/531/248 443/533/248 442/532/248
f 443/533/249 672/1012/249 444/534/249
f 445/535/250 486/609/250 446/536/250
f 340/416/251 450/541/251 357/538/251
f 449/540/251 357/538/251 450/541/251
f 452/543/251 449/540/251 451/542/251
f 355/545/252 452/543/252 453/544/252
f 355/545/189 331/546/189 319/547/189
f 319/547/189 315/1013/189 352/548/189
f 456/551/255 685/1014/386 686/1015/387
f 686/1015/387 454/549/253 456/551/255
f 687/1016/19 688/1017/19 689/1018/19
f 688/1017/19 690/1019/19 689/1018/19
f 690/1019/19 691/1020/19 692/1021/19
f 689/1018/19 690/1019/19 692/1021/19
f 693/1022/19 687/1016/19 694/1023/19
f 695/1024/19 696/1025/19 697/1026/19
f 687/1016/19 689/1018/19 694/1023/19
f 691/1020/19 695/1024/19 692/1021/19
f 458/553/19 693/1022/19 698/1027/19
f 695/1024/19 697/1026/19 692/1021/19
f 694/1023/19 698/1027/19 693/1022/19
f 698/1027/19 459/554/257 458/553/19
f 459/554/257 699/1028/388 457/552/256
f 699/1028/388 700/1029/388 701/1030/389
f 702/1031/388 699/1028/388 701/1030/389
f 700/1029/388 703/1032/389 701/1030/389
f 703/1032/389 704/1033/389 705/1034/390
f 701/1030/389 703/1032/389 705/1034/390
f 704/1033/389 706/1035/390 707/1036/390
f 706/1035/390 708/1037/390 707/1036/390
f 708/1037/390 709/1038/390 707/1036/390
f 709/1038/390 710/1039/390 707/1036/390
f 707/1036/390 705/1034/390 704/1033/389
f 699/1028/388 702/1031/388 457/552/256
f 320/555/199 344/420/199 460/556/258
f 345/558/198 344/423/197 462/559/259
f 346/422/191 320/424/191 322/561/191
f 336/564/183 600/739/183 306/562/183
f 306/562/183 308/567/183 335/563/183
f 310/565/184 323/1040/184 325/566/184
f 464/568/193 328/572/193 333/569/193
f 414/571/192 326/1041/192 328/572/192
f 711/1042/19 712/1043/19 713/1044/19
f 712/1043/19 714/1045/19 713/1044/19
f 714/1045/19 715/1046/19 716/1047/19
f 713/1044/19 714/1045/19 716/1047/19
f 717/1048/19 711/1042/19 718/1049/19
f 711/1042/19 713/1044/19 718/1049/19
f 715/1046/19 719/1050/19 720/1051/19
f 721/1052/19 722/1053/19 723/1054/19
f 723/1054/19 717/1048/19 718/1049/19
f 721/1052/19 723/1054/19 718/1049/19
f 716/1047/19 715/1046/19 720/1051/19
f 719/1050/19 724/1055/19 720/1051/19
f 725/1056/391 720/1051/19 724/1055/19
f 724/1055/19 726/1057/392 725/1056/391
f 727/1058/393 725/1056/391 726/1057/392
f 466/573/394 728/1059/394 467/574/394
f 467/574/261 727/1058/393 729/1060/395
f 729/1060/395 727/1058/393 726/1057/392
f 729/1060/395 455/550/262 467/574/261
f 455/550/396 730/1061/397 731/1062/396
f 732/1063/396 455/550/396 731/1062/396
f 732/1063/396 466/573/396 455/550/396
f 447/537/263 444/1064/263 442/575/263
f 468/576/264 442/575/264 440/577/264
f 469/578/265 440/577/265 438/579/265
f 470/580/266 438/579/266 436/581/266
f 471/582/267 436/581/267 433/583/267
f 329/584/268 433/583/268 434/585/268
f 434/587/269 431/1065/269 472/588/269
f 473/590/270 431/1065/270 401/484/270
f 315/591/188 312/520/188 431/519/188
f 474/593/7 485/631/7 475/594/7
f 477/596/271 481/602/277 478/597/272
f 423/509/236 487/610/283 474/599/274
f 480/601/276 483/604/279 481/602/277
f 480/601/276 484/916/281 482/603/278
f 339/605/280 492/1066/280 482/606/278
f 445/535/273 478/1067/272 485/608/282
f 487/610/283 486/1007/284 485/611/284
f 339/605/285 492/1066/285 424/612/286
f 495/1068/398 475/1069/398 476/1070/399
f 488/614/285 493/1071/400 489/615/287
f 495/1068/398 476/1070/399 491/1072/401
f 476/1070/399 488/614/285 491/1072/401
f 494/1073/400 490/616/288 489/615/287
f 490/616/288 491/1072/401 488/614/285
f 483/617/19 490/626/19 491/618/19
f 479/620/7 474/593/7 476/595/7
f 492/622/289 489/627/289 493/623/289
f 482/625/19 494/628/19 490/626/19
f 482/625/290 492/622/290 489/627/290
f 424/624/7 479/620/7 488/621/7
f 481/619/19 491/618/19 495/629/19
f 478/630/289 495/629/289 475/594/289
f 496/632/101 503/1074/101 497/633/101
f 497/633/100 500/636/100 499/635/100
f 500/636/99 502/638/99 501/637/99
f 502/638/102 503/1074/102 496/632/102
f 499/635/7 501/637/7 496/632/7
f 500/639/291 497/1075/291 503/640/291
f 504/642/19 533/671/19 505/643/19
f 507/645/19 532/670/19 508/646/19
f 508/646/19 532/670/19 510/648/19
f 510/648/19 534/672/19 512/650/19
f 512/650/19 534/672/19 513/651/19
f 514/652/19 513/651/19 515/653/19
f 515/653/19 504/642/19 506/644/19
f 517/655/7 733/1076/7 518/656/7
f 520/658/7 524/662/7 521/659/7
f 520/658/7 526/664/7 523/661/7
f 525/663/7 528/666/7 523/661/7
f 525/663/7 529/667/7 527/665/7
f 529/667/7 531/669/7 530/668/7
f 519/657/7 518/656/7 530/668/7
f 521/659/292 524/662/292 532/670/292
f 533/671/100 733/1076/100 517/655/100
f 524/662/293 523/661/293 510/648/293
f 517/655/294 519/657/294 506/644/294
f 523/661/295 528/666/295 534/672/295
f 519/657/296 531/669/296 516/654/296
f 528/666/297 527/665/297 513/651/297
f 531/669/298 529/667/298 514/652/298
f 527/665/299 530/668/299 515/653/299
f 529/667/300 525/663/300 512/650/300
f 520/658/301 522/660/301 509/647/301
f 515/653/302 530/668/302 518/656/302
f 525/663/303 526/664/303 511/649/303
f 522/660/102 521/659/102 507/645/102
f 526/664/304 520/658/304 508/646/304
f 518/656/305 733/1076/402 533/671/305
f 535/673/175 538/676/175 536/674/175
f 538/676/173 540/678/173 539/677/306
f 540/678/307 542/680/307 541/679/308
f 542/680/166 544/682/166 543/681/309
f 544/682/165 546/684/165 545/683/164
f 546/684/163 548/686/403 547/685/163
f 548/686/310 550/688/162 549/687/162
f 550/688/160 552/690/160 551/689/311
f 552/690/159 554/692/159 553/691/158
f 554/692/312 556/694/312 555/693/313
f 556/694/314 558/696/314 557/695/315
f 558/696/154 560/698/154 559/697/154
f 560/698/152 562/700/152 561/699/152
f 562/700/316 564/702/316 563/701/317
f 564/702/318 566/704/404 565/703/319
f 566/704/320 569/707/405 567/705/145
f 568/706/144 571/709/406 567/705/144
f 570/708/323 573/711/143 571/709/143
f 572/710/324 575/713/324 573/711/324
f 574/712/325 577/715/325 575/713/325
f 576/714/136 579/717/136 577/715/136
f 578/716/134 581/719/407 579/717/135
f 580/718/326 583/721/133 581/719/133
f 582/720/131 585/723/327 583/721/327
f 584/722/129 587/725/129 585/723/129
f 586/724/128 589/727/128 587/725/128
f 588/726/127 591/729/329 589/727/329
f 590/728/125 593/731/124 591/729/124
f 592/730/123 595/733/331 593/731/331
f 594/732/121 596/734/332 595/733/332
f 537/675/177 536/674/370 565/703/177
f 536/674/370 539/677/370 563/701/177
f 539/677/370 541/679/176 561/699/177
f 541/679/176 543/681/370 559/697/370
f 543/681/370 545/683/176 559/697/370
f 545/683/176 547/685/373 557/695/370
f 559/697/370 545/683/176 557/695/370
f 547/685/373 549/687/408 555/693/409
f 549/687/408 551/689/410 553/691/411
f 555/693/409 549/687/408 553/691/411
f 555/693/409 557/695/370 547/685/373
f 559/697/370 561/699/177 541/679/176
f 561/699/177 563/701/177 539/677/370
f 563/701/177 565/703/177 536/674/370
f 565/703/177 567/705/177 537/675/177
f 567/705/177 571/709/177 537/675/177
f 571/709/177 573/711/177 597/735/176
f 537/675/177 571/709/177 597/735/176
f 573/711/177 575/713/177 596/734/176
f 575/713/177 577/715/176 595/733/370
f 596/734/176 575/713/177 595/733/370
f 577/715/176 579/717/176 593/731/176
f 579/717/176 581/719/373 591/729/370
f 593/731/176 579/717/176 591/729/370
f 581/719/373 583/721/412 587/725/408
f 583/721/412 585/723/413 587/725/408
f 587/725/408 589/727/409 581/719/373
f 589/727/409 591/729/370 581/719/373
f 593/731/176 595/733/370 577/715/176
f 598/736/120 597/735/333 596/734/333
f 535/673/118 537/675/414 597/735/118
f 538/676/171 535/673/171 569/707/171
f 535/673/171 598/736/171 568/706/171
f 598/736/171 594/732/335 568/706/171
f 594/732/335 592/730/335 570/708/335
f 568/706/171 594/732/335 570/708/335
f 592/730/335 590/728/170 574/712/367
f 590/728/170 588/726/335 576/714/363
f 588/726/335 586/724/363 576/714/363
f 586/724/363 584/722/415 578/716/335
f 576/714/363 586/724/363 578/716/335
f 584/722/415 582/720/416 580/718/417
f 580/718/417 578/716/335 584/722/415
f 576/714/363 574/712/367 590/728/170
f 574/712/367 572/710/418 592/730/335
f 572/710/418 570/708/335 592/730/335
f 568/706/171 569/707/171 535/673/171
f 569/707/171 566/704/171 538/676/171
f 566/704/171 564/702/170 538/676/171
f 564/702/170 562/700/335 540/678/170
f 538/676/171 564/702/170 540/678/170
f 562/700/335 560/698/171 544/682/419
f 560/698/171 558/696/366 546/684/170
f 558/696/366 556/694/170 546/684/170
f 556/694/170 554/692/420 548/686/421
f 546/684/170 556/694/170 548/686/421
f 554/692/420 552/690/422 550/688/423
f 550/688/423 548/686/421 554/692/420
f 546/684/170 544/682/419 560/698/171
f 544/682/419 542/680/334 562/700/335
f 599/737/7 334/994/7 324/400/7
f 600/739/336 734/1077/336 345/558/336
f 734/1077/336 669/1078/336 345/558/336
f 669/1078/336 343/1079/336 345/558/336
f 321/397/180 461/912/7 465/954/180
f 333/569/100 332/1080/100 322/398/100
f 321/397/180 465/954/180 333/569/180
f 472/588/180 431/1065/180 473/590/180
l 486 742
l 742 739
l 741 445
l 741 740
l 739 740
l 185 738
l 738 735
l 737 143
l 737 736
l 735 736
