# Blender v3.0.0 OBJ File: ''
# www.blender.org
o buttons_goauld_Cube.009
v 0.068730 -0.160196 0.016574
v 0.183072 -0.098788 0.016574
v 0.068767 -0.098718 0.016574
v 0.172587 -0.154308 0.006677
v 0.172617 -0.104683 0.006677
v 0.080349 -0.104627 0.006677
v 0.080319 -0.154252 0.006677
v 0.183035 -0.160266 0.016574
v -0.183639 -0.160196 0.016574
v -0.069297 -0.098788 0.016574
v -0.183602 -0.098718 0.016574
v -0.079782 -0.154308 0.006677
v -0.079752 -0.104683 0.006677
v -0.172050 -0.154252 0.006677
v -0.172020 -0.104627 0.006677
v -0.069334 -0.160266 0.016574
v 0.068730 -0.259498 0.016574
v 0.183072 -0.198091 0.016574
v 0.068767 -0.198021 0.016574
v 0.172587 -0.253611 0.006677
v 0.172617 -0.203985 0.006677
v 0.080319 -0.253554 0.006677
v 0.080349 -0.203929 0.006677
v 0.183035 -0.259568 0.016574
v -0.183639 -0.259498 0.016574
v -0.069297 -0.198091 0.016574
v -0.183602 -0.198021 0.016574
v -0.079782 -0.253611 0.006677
v -0.079752 -0.203985 0.006677
v -0.172050 -0.253554 0.006677
v -0.172020 -0.203929 0.006677
v -0.069334 -0.259568 0.016574
v 0.068730 -0.363822 0.016574
v 0.183072 -0.302414 0.016574
v 0.068767 -0.302344 0.016574
v 0.172587 -0.357934 0.006677
v 0.172617 -0.308309 0.006677
v 0.080349 -0.308253 0.006677
v 0.080319 -0.357878 0.006677
v 0.183035 -0.363892 0.016574
v -0.183639 -0.363822 0.016574
v -0.069297 -0.302414 0.016574
v -0.183602 -0.302344 0.016574
v -0.079782 -0.357934 0.006677
v -0.079752 -0.308309 0.006677
v -0.172050 -0.357878 0.006677
v -0.172020 -0.308253 0.006677
v -0.069334 -0.363892 0.016574
vt 0.000000 0.650264
vt 0.357716 0.000000
vt 0.357716 0.650264
vt 0.459265 0.720953
vt 0.418279 0.919162
vt 0.419519 0.742264
vt 0.043137 0.738105
vt 0.418077 0.919997
vt 0.043179 0.920215
vt 0.041926 0.919340
vt 0.000833 0.717723
vt 0.042370 0.739221
vt 0.437988 0.700465
vt 0.045036 0.736422
vt 0.023531 0.698735
vt 0.439872 0.958591
vt 0.041078 0.922045
vt 0.417417 0.918570
vt 0.000000 0.650264
vt 0.357716 0.000000
vt 0.357716 0.650264
vt 0.978015 0.720953
vt 0.937029 0.919162
vt 0.938268 0.742264
vt 0.563492 0.920215
vt 0.939129 0.738668
vt 0.938389 0.919997
vt 0.560676 0.919340
vt 0.519583 0.717723
vt 0.561120 0.739221
vt 0.956738 0.700465
vt 0.563785 0.736422
vt 0.542281 0.698735
vt 0.958622 0.958591
vt 0.559828 0.922045
vt 0.936167 0.918570
vt 0.000000 0.650264
vt 0.357716 0.000000
vt 0.357716 0.650264
vt 0.476452 0.385015
vt 0.435466 0.583224
vt 0.436706 0.406327
vt 0.058804 0.581153
vt 0.434441 0.399606
vt 0.433702 0.580935
vt 0.059113 0.583402
vt 0.018020 0.381785
vt 0.059558 0.403283
vt 0.455175 0.364528
vt 0.062223 0.400485
vt 0.040719 0.362797
vt 0.457059 0.622654
vt 0.058265 0.586107
vt 0.434605 0.582632
vt 0.000000 0.650264
vt 0.357716 0.000000
vt 0.357716 0.650264
vt 0.967077 0.381890
vt 0.926091 0.580099
vt 0.927331 0.403202
vt 0.550992 0.582716
vt 0.926629 0.401168
vt 0.925889 0.582497
vt 0.549738 0.580277
vt 0.508645 0.378660
vt 0.550182 0.400158
vt 0.945800 0.361403
vt 0.552848 0.397360
vt 0.531344 0.359672
vt 0.947684 0.619529
vt 0.548890 0.582982
vt 0.925229 0.579507
vt 0.000000 0.650264
vt 0.357716 0.000000
vt 0.357716 0.650264
vt 0.471765 0.058453
vt 0.430779 0.256662
vt 0.432018 0.079764
vt 0.052512 0.075605
vt 0.427452 0.257497
vt 0.052554 0.257716
vt 0.054426 0.256840
vt 0.013333 0.055223
vt 0.054870 0.076721
vt 0.450488 0.037965
vt 0.057536 0.073922
vt 0.036031 0.036235
vt 0.452372 0.296091
vt 0.053578 0.259545
vt 0.429917 0.256070
vt 0.000000 0.650264
vt 0.357716 0.000000
vt 0.357716 0.650264
vt 0.973327 0.053765
vt 0.932341 0.251974
vt 0.933581 0.075077
vt 0.558804 0.253028
vt 0.934441 0.071481
vt 0.933702 0.252810
vt 0.555988 0.252152
vt 0.514895 0.050535
vt 0.556432 0.072033
vt 0.952050 0.033278
vt 0.559098 0.069235
vt 0.537594 0.031547
vt 0.953934 0.291404
vt 0.555140 0.254857
vt 0.931479 0.251382
vt 0.000000 0.000000
vt 0.460505 0.940472
vt 0.418816 0.738668
vt 0.001113 0.938616
vt 0.415012 0.737124
vt 0.023702 0.959494
vt 0.000000 0.000000
vt 0.979255 0.940472
vt 0.563450 0.738105
vt 0.519863 0.938616
vt 0.933762 0.737124
vt 0.542452 0.959494
vt 0.000000 0.000000
vt 0.477693 0.604535
vt 0.058762 0.399043
vt 0.018301 0.602678
vt 0.432199 0.401187
vt 0.040890 0.623557
vt 0.000000 0.000000
vt 0.968318 0.601410
vt 0.550950 0.400605
vt 0.508925 0.599553
vt 0.922824 0.398062
vt 0.531514 0.620432
vt 0.000000 0.000000
vt 0.473005 0.277973
vt 0.428191 0.076168
vt 0.013613 0.276116
vt 0.427512 0.074624
vt 0.036202 0.296994
vt 0.000000 0.000000
vt 0.974567 0.273285
vt 0.558762 0.070918
vt 0.515175 0.271428
vt 0.929074 0.069937
vt 0.537764 0.292307
vn -0.0000 -0.0000 1.0000
vn 0.6876 -0.0004 -0.7261
vn -0.0000 0.0000 -1.0000
vn -0.6495 0.0004 -0.7603
vn 0.0005 0.8589 -0.5121
vn 0.0005 0.8589 -0.5122
vn -0.0005 -0.8570 -0.5153
vn -0.0005 -0.8570 -0.5154
s 1
f 1/1/1 2/2/1 3/3/1
f 2/4/2 4/5/2 5/6/2
f 4/7/3 6/8/3 5/9/3
f 7/10/4 3/11/4 6/12/4
f 2/13/5 6/14/6 3/15/6
f 8/16/7 7/17/7 4/18/8
f 9/19/1 10/20/1 11/21/1
f 10/22/2 12/23/2 13/24/2
f 13/25/3 14/26/3 15/27/3
f 14/28/4 11/29/4 15/30/4
f 10/31/5 15/32/6 11/33/6
f 16/34/7 14/35/7 12/36/8
f 17/37/1 18/38/1 19/39/1
f 18/40/2 20/41/2 21/42/2
f 21/43/3 22/44/3 23/45/3
f 22/46/4 19/47/4 23/48/4
f 18/49/5 23/50/5 19/51/5
f 24/52/7 22/53/7 20/54/7
f 25/55/1 26/56/1 27/57/1
f 26/58/2 28/59/2 29/60/2
f 29/61/3 30/62/3 31/63/3
f 30/64/4 27/65/4 31/66/4
f 26/67/5 31/68/5 27/69/5
f 32/70/7 30/71/7 28/72/7
f 33/73/1 34/74/1 35/75/1
f 34/76/2 36/77/2 37/78/2
f 36/79/3 38/80/3 37/81/3
f 39/82/4 35/83/4 38/84/4
f 34/85/5 38/86/6 35/87/6
f 40/88/7 39/89/7 36/90/7
f 41/91/1 42/92/1 43/93/1
f 42/94/2 44/95/2 45/96/2
f 45/97/3 46/98/3 47/99/3
f 46/100/4 43/101/4 47/102/4
f 42/103/5 47/104/6 43/105/6
f 48/106/7 46/107/7 44/108/8
f 1/1/1 8/109/1 2/2/1
f 2/4/2 8/110/2 4/5/2
f 4/7/3 7/111/3 6/8/3
f 7/10/4 1/112/4 3/11/4
f 2/13/5 5/113/5 6/14/6
f 8/16/7 1/114/7 7/17/7
f 9/19/1 16/115/1 10/20/1
f 10/22/2 16/116/2 12/23/2
f 13/25/3 12/117/3 14/26/3
f 14/28/4 9/118/4 11/29/4
f 10/31/5 13/119/5 15/32/6
f 16/34/7 9/120/7 14/35/7
f 17/37/1 24/121/1 18/38/1
f 18/40/2 24/122/2 20/41/2
f 21/43/3 20/123/3 22/44/3
f 22/46/4 17/124/4 19/47/4
f 18/49/5 21/125/5 23/50/5
f 24/52/7 17/126/7 22/53/7
f 25/55/1 32/127/1 26/56/1
f 26/58/2 32/128/2 28/59/2
f 29/61/3 28/129/3 30/62/3
f 30/64/4 25/130/4 27/65/4
f 26/67/5 29/131/5 31/68/5
f 32/70/7 25/132/7 30/71/7
f 33/73/1 40/133/1 34/74/1
f 34/76/2 40/134/2 36/77/2
f 36/79/3 39/135/3 38/80/3
f 39/82/4 33/136/4 35/83/4
f 34/85/5 37/137/5 38/86/6
f 40/88/7 33/138/7 39/89/7
f 41/91/1 48/139/1 42/92/1
f 42/94/2 48/140/2 44/95/2
f 45/97/3 44/141/3 46/98/3
f 46/100/4 41/142/4 43/101/4
f 42/103/5 45/143/5 47/104/6
f 48/106/7 41/144/7 46/107/7
