# Blender v2.92.0 OBJ File: ''
# www.blender.org
o Iris_blade
v 0.209125 0.394924 0.058139
v 0.206829 0.431316 0.058139
v 0.000001 0.399994 0.058139
v 0.209125 0.394924 -0.019025
v 0.206829 0.431316 -0.019025
v 0.000001 0.399994 -0.019025
v 0.205068 0.358687 0.058139
v 0.205068 0.358687 -0.019025
v 0.194780 0.323705 0.058139
v 0.194780 0.323705 -0.019025
v 0.178573 0.291041 0.058139
v 0.178573 0.291041 -0.019025
v 0.156941 0.261688 0.058139
v 0.156941 0.261688 -0.019025
v 0.130540 0.236537 0.058139
v 0.130540 0.236537 -0.019025
v 0.100173 0.216352 0.058139
v 0.100173 0.216352 -0.019025
v 0.066762 0.201747 0.058139
v 0.066762 0.201747 -0.019025
v 0.031322 0.193166 0.058139
v 0.031322 0.193166 -0.019025
v -0.005069 0.190869 0.058139
v -0.005069 0.190869 -0.019025
v -0.041306 0.194927 0.058139
v -0.041306 0.194927 -0.019025
v -0.076288 0.205215 0.058139
v -0.076288 0.205215 -0.019025
v -0.108952 0.221421 0.058139
v -0.108952 0.221421 -0.019025
v -0.138306 0.243054 0.058139
v -0.138306 0.243054 -0.019025
v -0.163456 0.269455 0.058139
v -0.163456 0.269455 -0.019025
v -0.183641 0.299822 0.058139
v -0.183641 0.299822 -0.019025
v -0.198246 0.333233 0.058139
v -0.198246 0.333233 -0.019025
v -0.206827 0.368672 0.058139
v -0.206827 0.368672 -0.019025
v -0.209124 0.405064 0.058139
v -0.209124 0.405064 -0.019025
v -0.205067 0.441301 0.058139
v -0.205067 0.441301 -0.019025
v -0.194779 0.476283 0.058139
v -0.194779 0.476283 -0.019025
v -0.178572 0.508947 0.058139
v -0.178572 0.508947 -0.019025
v -0.156940 0.538300 0.058139
v -0.156940 0.538300 -0.019025
v -0.130539 0.563451 0.058139
v -0.130539 0.563451 -0.019025
v -0.100171 0.583636 0.058139
v -0.100171 0.583636 -0.019025
v -0.066760 0.598241 0.058139
v -0.066760 0.598241 -0.019025
v -0.031321 0.606822 0.058139
v -0.031321 0.606822 -0.019025
v 0.005070 0.609119 0.058139
v 0.005070 0.609119 -0.019025
v 0.041307 0.605061 0.058139
v 0.041307 0.605061 -0.019025
v 0.076290 0.594773 0.058139
v 0.076290 0.594773 -0.019025
v 0.108953 0.578567 0.058139
v 0.108953 0.578567 -0.019025
v 0.138307 0.556934 0.058139
v 0.138307 0.556934 -0.019025
v 0.163458 0.530533 0.058139
v 0.163458 0.530533 -0.019025
v 0.183643 0.500166 0.058139
v 0.183643 0.500166 -0.019025
v 0.198247 0.466755 0.058139
v 0.198247 0.466755 -0.019025
v -0.637441 0.596158 0.005752
v -0.370130 0.636637 0.005752
v -0.427081 1.012720 0.009044
v -0.694392 0.972241 0.009044
v -0.532871 1.381398 0.013315
v -0.800910 1.340808 0.013315
v -0.674685 1.744609 0.018565
v -0.952864 1.702484 0.018565
v -0.870677 2.099601 0.024794
v -1.163093 2.055320 0.024794
v -1.102048 2.452555 0.032068
v -1.391661 2.395628 0.031807
v -1.447507 2.811320 0.040862
v -1.721843 2.740000 0.040187
v -1.825408 3.127995 0.049832
v -2.093608 3.068318 0.049352
v -2.347683 3.427772 0.059865
v -2.680902 3.592216 0.065978
v -2.992383 3.534087 0.065659
v -3.850999 3.737991 0.075741
v -3.492370 3.819706 0.076601
v -3.949788 3.886567 0.080947
v -3.057572 3.721508 0.071526
v -2.319160 3.657707 0.066291
v -3.037930 3.916612 0.077488
v -3.459835 4.024105 0.083012
v -2.004082 3.489808 0.060142
v -1.490187 3.193041 0.050193
v -1.128423 2.863210 0.040943
v -0.804654 2.497590 0.032068
v -0.578260 2.143882 0.024794
v -0.396507 1.786734 0.018565
v -0.264832 1.421987 0.013315
v -0.159770 1.053199 0.009044
v -2.657254 3.793549 0.071874
v -1.936011 3.718353 0.066367
v -2.697623 3.961477 0.077276
v -2.987592 4.042275 0.081271
v -1.285019 3.575355 0.059495
v -1.631363 3.552917 0.060328
v -1.173286 3.241030 0.050193
v -0.826005 3.260273 0.049352
v -0.798593 2.913157 0.040943
v -0.484261 2.927409 0.040187
v -0.507259 2.542624 0.032068
v -0.222092 2.582473 0.032001
v -0.285844 2.188163 0.024794
v 0.006573 2.232444 0.024794
v -0.118329 1.828858 0.018565
v 0.159850 1.870983 0.018565
v 0.003207 1.462577 0.013315
v 0.271246 1.503166 0.013315
v 0.107541 1.093678 0.009044
v 0.346617 1.129882 0.009044
v 0.164492 0.717595 0.005752
v -2.277297 3.849668 0.071830
v -1.589915 3.721471 0.064934
v -2.233937 3.965013 0.075183
v -2.507454 4.008297 0.077847
v -0.102820 0.677116 0.005752
v -3.362906 3.645264 0.070617
v -0.694400 0.972293 0.003754
v -0.427089 1.012772 0.003754
v -0.370136 0.636676 0.000462
v -0.800920 1.340874 0.008026
v -0.532881 1.381463 0.008026
v -0.952876 1.702563 0.013276
v -0.674697 1.744687 0.013276
v -1.163107 2.055413 0.019505
v -0.870690 2.099694 0.019505
v -1.391677 2.395734 0.026518
v -1.102064 2.452661 0.026779
v -1.721861 2.740119 0.034899
v -1.447526 2.811440 0.035573
v -2.093628 3.068451 0.044064
v -1.825428 3.128128 0.044544
v -2.614483 3.374183 0.054207
v -2.347705 3.427919 0.054577
v -2.992408 3.534241 0.060371
v -2.680925 3.592370 0.060690
v -4.364861 3.727199 0.072561
v -3.949814 3.886738 0.075660
v -3.492394 3.819872 0.071314
v -3.362931 3.645423 0.065330
v -3.851023 3.738156 0.070453
v -2.004104 3.489954 0.054854
v -2.657279 3.793710 0.066586
v -3.057595 3.721669 0.066239
v -3.037956 3.916779 0.072200
v -1.490207 3.193175 0.044904
v -1.128442 2.863331 0.035655
v -0.804670 2.497696 0.026779
v -0.578274 2.143975 0.019505
v -0.396519 1.786812 0.013276
v -0.264842 1.422053 0.008026
v -0.159778 1.053251 0.003754
v -0.102825 0.677155 0.000462
v -2.277323 3.849829 0.066543
v -1.936034 3.718507 0.061080
v -2.319183 3.657861 0.061003
v -2.697648 3.961644 0.071989
v -3.459861 4.024280 0.077725
v -0.826026 3.260406 0.044064
v -1.173306 3.241164 0.044904
v -1.631386 3.553065 0.055040
v -0.484279 2.927528 0.034899
v -0.798611 2.913277 0.035655
v -0.222108 2.582578 0.026712
v -0.507275 2.542731 0.026779
v 0.006558 2.232536 0.019505
v -0.285858 2.188256 0.019505
v 0.159838 1.871062 0.013276
v -0.118341 1.828937 0.013276
v 0.271236 1.503232 0.008026
v 0.003197 1.462642 0.008026
v 0.346609 1.129934 0.003754
v 0.107533 1.093730 0.003754
v 0.403562 0.753838 0.000462
v 0.164486 0.717634 0.000462
v -1.894834 3.867739 0.065329
v -1.589938 3.721624 0.059646
v -2.233961 3.965178 0.069895
v -2.987618 4.042447 0.075984
v -0.118405 -0.426959 0.001737
v -0.118405 -0.426959 -0.003553
v -0.063531 -0.418650 -0.003553
v -0.637447 0.596196 0.000462
v -2.614460 3.374036 0.059495
v -4.364837 3.727032 0.077848
v -0.063531 -0.418650 0.001737
v 0.060275 -0.399902 -0.003553
v -1.285042 3.575502 0.054207
v 0.403568 0.753799 0.005752
v 0.184081 -0.381154 0.001737
v 0.184081 -0.381154 -0.003553
v 0.210719 -0.377120 -0.003553
v -1.894810 3.867579 0.070617
v -2.507479 4.008466 0.072560
v 0.060275 -0.399902 0.001737
v -0.580265 0.218585 0.003431
v -0.312954 0.259064 0.003431
v -0.580269 0.218610 -0.001859
v -0.312958 0.259089 -0.001859
v -0.045643 0.299544 0.003431
v -0.045647 0.299569 -0.001859
v 0.460744 0.376226 0.003431
v 0.460740 0.376251 -0.001859
v 0.221668 0.340023 0.003431
v 0.221664 0.340048 -0.001859
v -0.529002 -0.119942 0.002188
v -0.261691 -0.079463 0.002189
v -0.529003 -0.119929 -0.003102
v -0.261693 -0.079450 -0.003101
v 0.005620 -0.038984 0.002189
v 0.005618 -0.038971 -0.003101
v 0.512008 0.037699 0.002189
v 0.512006 0.037712 -0.003101
v 0.272931 0.001496 0.002189
v 0.272930 0.001509 -0.003101
v -0.528250 -0.124905 -0.003115
v -0.528248 -0.124918 0.002175
v 0.512761 0.032723 0.002176
v 0.512759 0.032736 -0.003114
v 0.336836 -0.246982 0.001778
v 0.407126 -0.151604 0.001864
v 0.467851 -0.064355 0.001986
v 0.336836 -0.246978 -0.003512
v 0.267883 -0.335691 -0.003549
v -0.496701 -0.227119 0.001956
v -0.430659 -0.321724 0.001814
v -0.335281 -0.392014 0.001752
v -0.225364 -0.427086 0.001738
v -0.335281 -0.392012 -0.003538
v -0.430660 -0.321719 -0.003476
v -0.496702 -0.227110 -0.003334
v -0.225364 -0.427085 -0.003552
v 0.210719 -0.377120 0.001737
v 0.267884 -0.335692 0.001741
v 0.467849 -0.064346 -0.003304
v 0.407125 -0.151597 -0.003426
vt 0.304715 0.801905
vt 0.284292 0.810666
vt 0.244437 0.689568
vt 0.778223 0.273258
vt 0.765235 0.290599
vt 0.728537 0.263114
vt 0.497991 0.405541
vt 0.397827 0.484408
vt 0.482774 0.389346
vt 0.323306 0.789732
vt 0.322508 0.879466
vt 0.309490 0.896780
vt 0.272849 0.869233
vt 0.510164 0.424133
vt 0.339501 0.774514
vt 0.335526 0.862151
vt 0.285867 0.851918
vt 0.518924 0.444555
vt 0.352807 0.756716
vt 0.348544 0.844837
vt 0.298884 0.834603
vt 0.524005 0.466189
vt 0.362821 0.736878
vt 0.361562 0.827522
vt 0.311902 0.817288
vt 0.525252 0.488376
vt 0.369238 0.715602
vt 0.374581 0.810207
vt 0.324920 0.799972
vt 0.522627 0.510443
vt 0.371862 0.693535
vt 0.387601 0.792892
vt 0.337939 0.782657
vt 0.516210 0.531719
vt 0.370615 0.671348
vt 0.400621 0.775577
vt 0.350958 0.765341
vt 0.506196 0.551557
vt 0.365534 0.649714
vt 0.413642 0.758261
vt 0.363977 0.748024
vt 0.492889 0.569355
vt 0.356774 0.629292
vt 0.426663 0.740944
vt 0.376997 0.730707
vt 0.476694 0.584572
vt 0.344600 0.610700
vt 0.439684 0.723627
vt 0.390017 0.713390
vt 0.458102 0.596746
vt 0.329384 0.594505
vt 0.452706 0.706310
vt 0.403038 0.696072
vt 0.437679 0.605506
vt 0.311585 0.581199
vt 0.465728 0.688992
vt 0.416058 0.678754
vt 0.416045 0.610586
vt 0.291747 0.571185
vt 0.478750 0.671673
vt 0.429080 0.661436
vt 0.393858 0.611833
vt 0.270471 0.564768
vt 0.491772 0.654355
vt 0.442101 0.644117
vt 0.371791 0.609208
vt 0.248405 0.562143
vt 0.504795 0.637036
vt 0.455123 0.626798
vt 0.350515 0.602791
vt 0.226217 0.563390
vt 0.517817 0.619716
vt 0.468144 0.609479
vt 0.330677 0.592777
vt 0.204584 0.568471
vt 0.530839 0.602397
vt 0.481166 0.592160
vt 0.312879 0.579470
vt 0.184161 0.577231
vt 0.543861 0.585077
vt 0.494188 0.574840
vt 0.297662 0.563275
vt 0.165570 0.589404
vt 0.556883 0.567757
vt 0.507210 0.557521
vt 0.285488 0.544683
vt 0.149375 0.604621
vt 0.569905 0.550438
vt 0.520232 0.540201
vt 0.276728 0.524260
vt 0.136068 0.622419
vt 0.582927 0.533118
vt 0.533254 0.522882
vt 0.271648 0.502626
vt 0.126054 0.642257
vt 0.595948 0.515798
vt 0.546275 0.505563
vt 0.270401 0.480439
vt 0.119637 0.663533
vt 0.608968 0.498478
vt 0.559297 0.488243
vt 0.273026 0.458372
vt 0.117012 0.685600
vt 0.621989 0.481159
vt 0.572318 0.470924
vt 0.279444 0.437097
vt 0.118259 0.707788
vt 0.635009 0.463839
vt 0.585339 0.453605
vt 0.289458 0.417258
vt 0.123340 0.729422
vt 0.648028 0.446520
vt 0.598359 0.436287
vt 0.302764 0.399461
vt 0.132100 0.749845
vt 0.661047 0.429201
vt 0.611379 0.418968
vt 0.318960 0.384244
vt 0.144274 0.768437
vt 0.674065 0.411882
vt 0.624398 0.401650
vt 0.337551 0.372070
vt 0.159491 0.784632
vt 0.687083 0.394564
vt 0.637417 0.384333
vt 0.357974 0.363310
vt 0.177289 0.797939
vt 0.700101 0.377246
vt 0.650436 0.367015
vt 0.379608 0.358230
vt 0.197128 0.807952
vt 0.713118 0.359928
vt 0.663454 0.349698
vt 0.401795 0.356983
vt 0.218404 0.814369
vt 0.726135 0.342610
vt 0.676471 0.332381
vt 0.423862 0.359608
vt 0.240471 0.816994
vt 0.739151 0.325293
vt 0.689489 0.315064
vt 0.445138 0.366025
vt 0.262658 0.815747
vt 0.752167 0.307976
vt 0.702505 0.297747
vt 0.464976 0.376039
vt 0.765183 0.290659
vt 0.715522 0.280431
vt 0.775610 0.359347
vt 0.825175 0.367290
vt 0.813999 0.437026
vt 0.764434 0.429082
vt 0.793765 0.505311
vt 0.744065 0.497345
vt 0.766851 0.572526
vt 0.715270 0.564258
vt 0.729891 0.638131
vt 0.675669 0.629439
vt 0.686363 0.703304
vt 0.632682 0.692268
vt 0.621642 0.769378
vt 0.570819 0.755693
vt 0.550963 0.827589
vt 0.501260 0.816076
vt 0.453502 0.882437
vt 0.391361 0.912454
vt 0.333613 0.901160
vt 0.173831 0.937689
vt 0.240303 0.953434
vt 0.155247 0.965141
vt 0.321206 0.935876
vt 0.458427 0.925194
vt 0.324540 0.972154
vt 0.246019 0.991463
vt 0.517203 0.894507
vt 0.613101 0.840205
vt 0.680804 0.779525
vt 0.741508 0.712143
vt 0.784112 0.646822
vt 0.818432 0.580793
vt 0.843466 0.513277
vt 0.863564 0.444970
vt 0.395428 0.949893
vt 0.529474 0.937068
vt 0.387662 0.981026
vt 0.333687 0.995580
vt 0.650579 0.911542
vt 0.586308 0.906823
vt 0.671865 0.849624
vt 0.736315 0.853752
vt 0.741964 0.789328
vt 0.800304 0.792477
vt 0.796653 0.720982
vt 0.849537 0.728838
vt 0.838334 0.655512
vt 0.892556 0.664203
vt 0.870014 0.589061
vt 0.921595 0.597327
vt 0.893167 0.521242
vt 0.942868 0.529208
vt 0.913129 0.452914
vt 0.957460 0.460018
vt 0.924305 0.383177
vt 0.465892 0.960920
vt 0.593732 0.938197
vt 0.473758 0.982416
vt 0.422900 0.990024
vt 0.874740 0.375233
vt 0.264625 0.921228
vt 0.565223 0.234262
vt 0.556400 0.184842
vt 0.625932 0.172429
vt 0.497326 0.255839
vt 0.488480 0.206284
vt 0.430928 0.285817
vt 0.421747 0.234386
vt 0.366453 0.326569
vt 0.356802 0.272505
vt 0.304389 0.370664
vt 0.292405 0.317183
vt 0.242063 0.433642
vt 0.227481 0.383066
vt 0.182915 0.504262
vt 0.170526 0.454767
vt 0.128678 0.602442
vt 0.117403 0.553183
vt 0.100793 0.673374
vt 0.088487 0.615840
vt 0.071606 0.929054
vt 0.039981 0.852795
vt 0.050180 0.767570
vt 0.081945 0.742690
vt 0.067093 0.833736
vt 0.104211 0.489704
vt 0.050986 0.612433
vt 0.066307 0.686388
vt 0.029982 0.683694
vt 0.156813 0.392859
vt 0.216289 0.324090
vt 0.282590 0.262199
vt 0.347152 0.218442
vt 0.412567 0.182956
vt 0.479634 0.156729
vt 0.547578 0.135422
vt 0.617110 0.123009
vt 0.038717 0.542181
vt 0.061440 0.478187
vt 0.074567 0.549012
vt 0.019998 0.620747
vt 0.012066 0.762528
vt 0.141087 0.269898
vt 0.146356 0.334268
vt 0.090676 0.420827
vt 0.201223 0.204830
vt 0.205404 0.263109
vt 0.263986 0.154476
vt 0.272776 0.207215
vt 0.327852 0.110316
vt 0.337502 0.164379
vt 0.394208 0.080096
vt 0.403387 0.131525
vt 0.461943 0.057620
vt 0.470788 0.107174
vt 0.530867 0.041802
vt 0.538756 0.086002
vt 0.600398 0.029390
vt 0.608288 0.073590
vt 0.033527 0.471270
vt 0.059175 0.413957
vt 0.017087 0.534697
vt 0.006402 0.674964
vt 0.823081 0.120396
vt 0.822107 0.120495
vt 0.820310 0.110351
vt 0.565395 0.235229
vt 0.634755 0.221848
vt 0.497623 0.256775
vt 0.431332 0.286712
vt 0.366977 0.327399
vt 0.304958 0.371465
vt 0.242761 0.434333
vt 0.183722 0.504815
vt 0.129537 0.602917
vt 0.101707 0.673733
vt 0.072587 0.929007
vt 0.039058 0.853128
vt 0.068062 0.833894
vt 0.011127 0.762819
vt 0.821280 0.110179
vt 0.816224 0.087463
vt 0.005421 0.674974
vt 0.140262 0.269363
vt 0.084823 0.356647
vt 0.200502 0.204163
vt 0.263399 0.153689
vt 0.327294 0.109508
vt 0.393800 0.079202
vt 0.461679 0.056674
vt 0.530670 0.040840
vt 0.600225 0.028423
vt 0.813104 0.064402
vt 0.812137 0.064575
vt 0.811257 0.059650
vt 0.058278 0.413556
vt 0.032576 0.471023
vt 0.009398 0.585591
vt 0.010377 0.585677
vt 0.016124 0.534509
vt 0.817191 0.087290
vt 0.083962 0.356179
vt 0.082893 0.742948
vt 0.786830 0.289336
vt 0.836394 0.297280
vt 0.704560 0.209386
vt 0.704733 0.210353
vt 0.634927 0.222815
vt 0.695737 0.159967
vt 0.885959 0.305223
vt 0.686915 0.110548
vt 0.670030 0.015963
vt 0.670203 0.016930
vt 0.935524 0.313166
vt 0.979854 0.320270
vt 0.968635 0.390281
vt 0.678093 0.061129
vt 0.796889 0.226566
vt 0.846454 0.234509
vt 0.767145 0.198212
vt 0.767317 0.199180
vt 0.758322 0.148794
vt 0.896019 0.242453
vt 0.749500 0.099375
vt 0.732615 0.004791
vt 0.732787 0.005759
vt 0.945584 0.250396
vt 0.989913 0.257500
vt 0.740677 0.049957
vt 0.883787 0.171852
vt 0.768066 0.198048
vt 0.768238 0.199016
vt 0.906743 0.175531
vt 0.733535 0.004628
vt 0.733707 0.005595
vt 0.957897 0.204394
vt 0.970768 0.222200
vt 0.981879 0.238482
vt 0.786463 0.036895
vt 0.803282 0.049242
vt 0.929699 0.179210
vt 0.803057 0.206719
vt 0.815470 0.189260
vt 0.833291 0.176362
vt 0.853754 0.170027
vt 0.873612 0.170221
vt 0.797037 0.225644
vt 0.816698 0.160919
vt 0.804118 0.178968
vt 0.786881 0.191691
vt 0.822668 0.140345
vt 0.934639 0.180002
vt 0.990061 0.256577
vt 0.945186 0.187785
vt 0.751807 0.013686
vt 0.768356 0.024364
vt 0.787195 0.192621
vt 0.768380 0.198979
vt 0.752273 0.012827
vt 0.804701 0.179758
vt 0.787464 0.192481
vt 0.817504 0.161480
vt 0.804923 0.179530
vt 0.823611 0.140618
vt 0.817641 0.161192
vt 0.823653 0.140316
vt 0.768902 0.023547
vt 0.787034 0.036094
vt 0.803864 0.048450
vt 0.812037 0.059052
vt 0.741525 0.245773
vt 0.404051 0.872030
vt 0.078415 0.934853
vt 0.536884 0.964853
vt 0.565520 0.235198
vt 0.497730 0.256734
vt 0.431453 0.286647
vt 0.305087 0.371355
vt 0.129592 0.602801
vt 0.068074 0.833690
vt 0.070699 0.929430
vt 0.082914 0.742848
vt 0.011085 0.762591
vt 0.140365 0.269231
vt 0.200608 0.204063
vt 0.327445 0.109422
vt 0.393898 0.079163
vt 0.812224 0.059477
vt 0.032631 0.470868
vt 0.101741 0.673631
vt 0.734109 0.004696
vt 0.804062 0.048644
vn -0.0000 -0.0000 1.0000
vn 1.0000 0.0050 0.0000
vn 0.9839 0.1785 0.0000
vn 0.9927 0.1209 -0.0000
vn -0.0000 0.0000 -1.0000
vn 0.9856 -0.1688 0.0000
vn 0.9986 -0.0533 -0.0000
vn 0.9414 -0.3374 0.0000
vn 0.9741 -0.2260 -0.0000
vn 0.8685 -0.4957 0.0000
vn 0.9201 -0.3917 -0.0000
vn 0.7692 -0.6390 -0.0000
vn 0.8381 -0.5455 -0.0000
vn 0.6465 -0.7629 -0.0000
vn 0.7307 -0.6827 -0.0000
vn 0.5042 -0.8636 -0.0000
vn 0.6010 -0.7992 -0.0000
vn 0.3466 -0.9380 -0.0000
vn 0.4531 -0.8915 -0.0000
vn 0.1785 -0.9839 -0.0000
vn 0.2914 -0.9566 -0.0000
vn 0.0049 -1.0000 0.0000
vn 0.1209 -0.9927 -0.0000
vn -0.1688 -0.9856 -0.0000
vn -0.0533 -0.9986 -0.0000
vn -0.3374 -0.9414 -0.0000
vn -0.2259 -0.9742 -0.0000
vn -0.4957 -0.8685 -0.0000
vn -0.3917 -0.9201 -0.0000
vn -0.6390 -0.7692 -0.0000
vn -0.5455 -0.8381 -0.0000
vn -0.7629 -0.6465 -0.0000
vn -0.6827 -0.7307 -0.0000
vn -0.8636 -0.5042 -0.0000
vn -0.7992 -0.6010 -0.0000
vn -0.9380 -0.3466 -0.0000
vn -0.8915 -0.4531 0.0000
vn -0.9839 -0.1785 -0.0000
vn -0.9566 -0.2914 -0.0000
vn -1.0000 -0.0049 -0.0000
vn -0.9927 -0.1209 -0.0000
vn -0.9856 0.1688 0.0000
vn -0.9986 0.0533 0.0000
vn -0.9414 0.3374 -0.0000
vn -0.9741 0.2259 0.0000
vn -0.8685 0.4958 0.0000
vn -0.9201 0.3917 0.0000
vn -0.7692 0.6390 0.0000
vn -0.8381 0.5455 0.0000
vn -0.6465 0.7629 -0.0000
vn -0.7307 0.6827 0.0000
vn -0.5042 0.8636 -0.0000
vn -0.6010 0.7992 0.0000
vn -0.3466 0.9380 0.0000
vn -0.4531 0.8915 0.0000
vn -0.1785 0.9839 0.0000
vn -0.2914 0.9566 0.0000
vn -0.0049 1.0000 0.0000
vn -0.1209 0.9927 0.0000
vn 0.1688 0.9856 0.0000
vn 0.0533 0.9986 0.0000
vn 0.3374 0.9414 0.0000
vn 0.2259 0.9742 0.0000
vn 0.4958 0.8685 0.0000
vn 0.3917 0.9201 -0.0000
vn 0.6390 0.7692 0.0000
vn 0.5455 0.8381 0.0000
vn 0.7629 0.6466 0.0000
vn 0.6827 0.7307 0.0000
vn 0.8636 0.5042 0.0000
vn 0.7992 0.6010 -0.0000
vn 0.9380 0.3466 0.0000
vn 0.8915 0.4531 -0.0000
vn 0.9566 0.2914 -0.0000
vn 0.0012 -0.0078 1.0000
vn 0.0011 -0.0073 1.0000
vn 0.0015 -0.0098 1.0000
vn 0.0015 -0.0099 1.0000
vn 0.0019 -0.0124 0.9999
vn 0.0019 -0.0125 0.9999
vn 0.0023 -0.0149 0.9999
vn 0.0023 -0.0152 0.9999
vn 0.0026 -0.0175 0.9998
vn 0.0027 -0.0178 0.9998
vn 0.0030 -0.0201 0.9998
vn 0.0031 -0.0204 0.9998
vn 0.0034 -0.0227 0.9997
vn 0.0035 -0.0230 0.9997
vn 0.0038 -0.0252 0.9997
vn 0.0039 -0.0257 0.9997
vn 0.0041 -0.0275 0.9996
vn 0.0044 -0.0291 0.9996
vn 0.0044 -0.0289 0.9996
vn 0.0047 -0.0311 0.9995
vn 0.0048 -0.0315 0.9995
vn 0.0048 -0.0319 0.9995
vn 0.0046 -0.0304 0.9995
vn 0.0044 -0.0292 0.9996
vn 0.0048 -0.0316 0.9995
vn 0.0049 -0.0321 0.9995
vn 0.0042 -0.0275 0.9996
vn 0.0038 -0.0253 0.9997
vn 0.0044 -0.0290 0.9996
vn 0.0049 -0.0320 0.9995
vn 0.0042 -0.0274 0.9996
vn 0.0042 -0.0276 0.9996
vn 0.0037 -0.0245 0.9997
vn 0.0033 -0.0223 0.9997
vn 0.0031 -0.0200 0.9998
vn 0.0030 -0.0196 0.9998
vn 0.0026 -0.0172 0.9998
vn 0.0022 -0.0148 0.9999
vn 0.0018 -0.0120 0.9999
vn 0.0046 -0.0303 0.9995
vn 0.0047 -0.0308 0.9995
vn 0.0046 -0.0305 0.9995
vn -0.0014 0.0096 -1.0000
vn -0.0015 0.0098 -1.0000
vn -0.0011 0.0073 -1.0000
vn -0.0018 0.0122 -0.9999
vn -0.0019 0.0124 -0.9999
vn -0.0023 0.0152 -0.9999
vn -0.0023 0.0149 -0.9999
vn -0.0026 0.0171 -0.9999
vn -0.0026 0.0175 -0.9998
vn -0.0030 0.0198 -0.9998
vn -0.0030 0.0201 -0.9998
vn -0.0034 0.0220 -0.9998
vn -0.0034 0.0227 -0.9997
vn -0.0038 0.0247 -0.9997
vn -0.0038 0.0252 -0.9997
vn -0.0042 0.0276 -0.9996
vn -0.0041 0.0271 -0.9996
vn -0.0045 0.0295 -0.9996
vn -0.0044 0.0291 -0.9996
vn -0.0048 0.0318 -0.9995
vn -0.0048 0.0320 -0.9995
vn -0.0047 0.0314 -0.9995
vn -0.0047 0.0306 -0.9995
vn -0.0048 0.0314 -0.9995
vn -0.0046 0.0304 -0.9995
vn -0.0046 0.0303 -0.9995
vn -0.0048 0.0317 -0.9995
vn -0.0038 0.0253 -0.9997
vn -0.0046 0.0305 -0.9995
vn -0.0044 0.0292 -0.9996
vn -0.0047 0.0317 -0.9995
vn -0.0049 0.0323 -0.9995
vn -0.0039 0.0254 -0.9997
vn -0.0038 0.0254 -0.9997
vn -0.0042 0.0275 -0.9996
vn -0.0035 0.0229 -0.9997
vn -0.0034 0.0228 -0.9997
vn -0.0031 0.0203 -0.9998
vn -0.0027 0.0177 -0.9998
vn -0.0022 0.0148 -0.9999
vn -0.0019 0.0126 -0.9999
vn -0.0012 0.0076 -1.0000
vn -0.0045 0.0298 -0.9995
vn -0.0043 0.0286 -0.9996
vn -0.0048 0.0304 -0.9995
vn -0.0049 0.0318 -0.9995
vn 0.1497 -0.9887 0.0000
vn -0.9813 -0.1927 -0.0004
vn -0.9719 -0.2354 -0.0008
vn -0.9887 -0.1497 0.0001
vn -0.9492 -0.3147 -0.0021
vn -0.9363 -0.3513 -0.0026
vn -0.9030 -0.4297 -0.0043
vn -0.8820 -0.4713 -0.0054
vn -0.8498 -0.5271 -0.0066
vn -0.8401 -0.5424 -0.0076
vn -0.7967 -0.6042 -0.0097
vn -0.7605 -0.6492 -0.0112
vn -0.7025 -0.7116 -0.0131
vn -0.6826 -0.7307 -0.0147
vn -0.6127 -0.7901 -0.0171
vn -0.5606 -0.8279 -0.0194
vn -0.4685 -0.8832 -0.0218
vn -0.4298 -0.9026 -0.0233
vn -0.3565 -0.9340 -0.0251
vn -0.3222 -0.9463 -0.0263
vn 0.0212 -0.9993 -0.0317
vn -0.0484 -0.9983 -0.0309
vn -0.3296 0.9436 0.0319
vn -0.3000 0.9534 0.0324
vn -0.3588 0.9329 0.0312
vn -0.1181 -0.9925 -0.0304
vn -0.2207 -0.9749 -0.0288
vn -0.1941 0.9804 0.0331
vn -0.1163 0.9927 0.0332
vn -0.0019 0.9995 0.0325
vn 0.0345 0.9989 0.0319
vn 0.6120 0.7906 0.0183
vn 0.6561 0.7545 0.0161
vn 0.5229 0.8521 0.0207
vn 0.7324 0.6807 0.0133
vn 0.7653 0.6435 0.0114
vn 0.8103 0.5859 0.0096
vn 0.8240 0.5665 0.0084
vn 0.8681 0.4964 0.0067
vn 0.8960 0.4440 0.0052
vn 0.9340 0.3573 0.0034
vn 0.9461 0.3237 0.0026
vn 0.9658 0.2595 0.0015
vn 0.9735 0.2288 0.0009
vn 0.9833 0.1819 0.0003
vn 0.9862 0.1658 0.0001
vn 0.9887 0.1497 -0.0000
vn 0.4324 0.9013 0.0245
vn 0.4324 0.9014 0.0238
vn 0.3816 0.9240 0.0258
vn 0.3294 0.9438 0.0273
vn 0.2369 0.9711 0.0289
vn 0.0995 0.9945 0.0314
vn 0.1280 0.9913 0.0308
vn 0.1968 0.9800 0.0299
vn 0.4782 0.8779 0.0226
vn -0.2543 -0.9667 -0.0279
vn 0.0008 -0.0054 1.0000
vn 0.0007 -0.0048 1.0000
vn -0.9887 -0.1497 0.0000
vn -0.0007 0.0048 -1.0000
vn 0.9887 0.1497 -0.0001
vn -0.0008 0.0053 -1.0000
vn 0.0001 -0.0028 1.0000
vn 0.0004 -0.0030 1.0000
vn -0.9887 -0.1497 -0.0002
vn -0.9887 -0.1497 -0.0001
vn -0.0004 0.0024 -1.0000
vn -0.0001 0.0024 -1.0000
vn 0.0004 -0.0024 1.0000
vn 0.0006 -0.0021 1.0000
vn -0.0007 0.0027 -1.0000
vn -0.0004 0.0030 -1.0000
vn 0.0002 -0.0012 1.0000
vn -0.9887 -0.1498 0.0000
vn -0.0002 0.0012 -1.0000
vn 0.9887 0.1496 -0.0000
vn 0.0120 -0.0097 0.9999
vn 0.0118 -0.0096 0.9999
vn 0.0092 -0.0077 0.9999
vn -0.0047 0.0043 -1.0000
vn -0.0005 0.0008 -1.0000
vn -0.0012 0.0017 -1.0000
vn -0.0013 -0.0025 1.0000
vn -0.0009 -0.0022 1.0000
vn -0.0003 -0.0017 1.0000
vn 0.0000 -0.0004 1.0000
vn 0.0001 -0.0012 1.0000
vn -0.0008 -0.0026 1.0000
vn 0.0008 0.0020 -1.0000
vn 0.0009 0.0022 -1.0000
vn 0.0007 0.0020 -1.0000
vn 0.0001 0.0015 -1.0000
vn 0.0007 0.0022 -1.0000
vn 0.0011 -0.0019 1.0000
vn 0.0025 -0.0029 1.0000
vn 0.0058 -0.0052 1.0000
vn -0.0021 0.0026 -1.0000
vn -0.0076 0.0066 -0.9999
vn -0.0118 0.0096 -0.9999
vn -0.9201 -0.3916 -0.0005
vn -0.8745 -0.4851 -0.0005
vn -0.9555 -0.2949 -0.0004
vn 0.8816 -0.4719 -0.0012
vn 0.8526 -0.5225 -0.0010
vn 0.9076 -0.4199 -0.0014
vn -0.7533 -0.6577 -0.0007
vn -0.6768 -0.7362 -0.0005
vn -0.5028 -0.8644 -0.0005
vn -0.4052 -0.9142 -0.0003
vn -0.2044 -0.9789 -0.0002
vn -0.1016 -0.9948 -0.0001
vn 0.0012 -1.0000 -0.0000
vn 0.8155 -0.5787 -0.0010
vn 0.8104 -0.5859 -0.0008
vn 0.7999 -0.6001 -0.0006
vn 0.7948 -0.6069 -0.0004
vn 0.7284 -0.6851 -0.0003
vn 0.6603 -0.7510 -0.0001
vn 0.5868 -0.8097 -0.0000
vn 0.0048 -0.0318 0.9995
vn 0.0046 -0.0300 0.9995
vn -0.0042 0.0269 -0.9996
vn -0.0050 0.0298 -0.9995
s 1
f 1/1/1 2/2/1 3/3/1
f 4/4/2 5/5/3 2/6/4
f 4/7/5 6/8/5 5/9/5
f 7/10/1 1/1/1 3/3/1
f 8/11/6 4/12/2 1/13/7
f 8/14/5 6/8/5 4/7/5
f 9/15/1 7/10/1 3/3/1
f 10/16/8 8/11/6 7/17/9
f 10/18/5 6/8/5 8/14/5
f 11/19/1 9/15/1 3/3/1
f 12/20/10 10/16/8 9/21/11
f 12/22/5 6/8/5 10/18/5
f 13/23/1 11/19/1 3/3/1
f 14/24/12 12/20/10 11/25/13
f 14/26/5 6/8/5 12/22/5
f 15/27/1 13/23/1 3/3/1
f 16/28/14 14/24/12 13/29/15
f 16/30/5 6/8/5 14/26/5
f 17/31/1 15/27/1 3/3/1
f 18/32/16 16/28/14 15/33/17
f 18/34/5 6/8/5 16/30/5
f 19/35/1 17/31/1 3/3/1
f 20/36/18 18/32/16 17/37/19
f 20/38/5 6/8/5 18/34/5
f 21/39/1 19/35/1 3/3/1
f 22/40/20 20/36/18 19/41/21
f 22/42/5 6/8/5 20/38/5
f 23/43/1 21/39/1 3/3/1
f 24/44/22 22/40/20 21/45/23
f 24/46/5 6/8/5 22/42/5
f 25/47/1 23/43/1 3/3/1
f 26/48/24 24/44/22 23/49/25
f 26/50/5 6/8/5 24/46/5
f 27/51/1 25/47/1 3/3/1
f 28/52/26 26/48/24 25/53/27
f 28/54/5 6/8/5 26/50/5
f 29/55/1 27/51/1 3/3/1
f 30/56/28 28/52/26 27/57/29
f 30/58/5 6/8/5 28/54/5
f 31/59/1 29/55/1 3/3/1
f 32/60/30 30/56/28 29/61/31
f 32/62/5 6/8/5 30/58/5
f 33/63/1 31/59/1 3/3/1
f 34/64/32 32/60/30 31/65/33
f 34/66/5 6/8/5 32/62/5
f 35/67/1 33/63/1 3/3/1
f 36/68/34 34/64/32 33/69/35
f 36/70/5 6/8/5 34/66/5
f 37/71/1 35/67/1 3/3/1
f 38/72/36 36/68/34 35/73/37
f 38/74/5 6/8/5 36/70/5
f 39/75/1 37/71/1 3/3/1
f 40/76/38 38/72/36 37/77/39
f 40/78/5 6/8/5 38/74/5
f 41/79/1 39/75/1 3/3/1
f 42/80/40 40/76/38 39/81/41
f 42/82/5 6/8/5 40/78/5
f 43/83/1 41/79/1 3/3/1
f 44/84/42 42/80/40 41/85/43
f 44/86/5 6/8/5 42/82/5
f 45/87/1 43/83/1 3/3/1
f 46/88/44 44/84/42 43/89/45
f 46/90/5 6/8/5 44/86/5
f 47/91/1 45/87/1 3/3/1
f 48/92/46 46/88/44 45/93/47
f 48/94/5 6/8/5 46/90/5
f 49/95/1 47/91/1 3/3/1
f 50/96/48 48/92/46 47/97/49
f 50/98/5 6/8/5 48/94/5
f 51/99/1 49/95/1 3/3/1
f 52/100/50 50/96/48 49/101/51
f 52/102/5 6/8/5 50/98/5
f 53/103/1 51/99/1 3/3/1
f 54/104/52 52/100/50 51/105/53
f 54/106/5 6/8/5 52/102/5
f 55/107/1 53/103/1 3/3/1
f 56/108/54 54/104/52 53/109/55
f 56/110/5 6/8/5 54/106/5
f 57/111/1 55/107/1 3/3/1
f 58/112/56 56/108/54 55/113/57
f 58/114/5 6/8/5 56/110/5
f 59/115/1 57/111/1 3/3/1
f 60/116/58 58/112/56 57/117/59
f 60/118/5 6/8/5 58/114/5
f 61/119/1 59/115/1 3/3/1
f 62/120/60 60/116/58 59/121/61
f 62/122/5 6/8/5 60/118/5
f 63/123/1 61/119/1 3/3/1
f 64/124/62 62/120/60 61/125/63
f 64/126/5 6/8/5 62/122/5
f 65/127/1 63/123/1 3/3/1
f 66/128/64 64/124/62 63/129/65
f 66/130/5 6/8/5 64/126/5
f 67/131/1 65/127/1 3/3/1
f 68/132/66 66/128/64 65/133/67
f 68/134/5 6/8/5 66/130/5
f 69/135/1 67/131/1 3/3/1
f 70/136/68 68/132/66 67/137/69
f 70/138/5 6/8/5 68/134/5
f 71/139/1 69/135/1 3/3/1
f 72/140/70 70/136/68 69/141/71
f 72/142/5 6/8/5 70/138/5
f 73/143/1 71/139/1 3/3/1
f 74/144/72 72/140/70 71/145/73
f 74/146/5 6/8/5 72/142/5
f 2/2/1 73/143/1 3/3/1
f 5/147/3 74/144/72 73/148/74
f 5/9/5 6/8/5 74/146/5
f 75/149/75 76/150/76 77/151/77
f 78/152/78 77/151/77 79/153/79
f 80/154/80 79/153/79 81/155/81
f 82/156/82 81/155/81 83/157/83
f 84/158/84 83/157/83 85/159/85
f 86/160/86 85/159/85 87/161/87
f 88/162/88 87/161/87 89/163/89
f 90/164/90 89/163/89 91/165/91
f 91/165/91 92/166/92 93/167/93
f 94/168/94 95/169/95 96/170/96
f 97/171/97 95/169/95 94/168/94
f 98/172/98 92/166/92 91/165/91
f 99/173/99 95/169/95 97/171/97
f 100/174/100 96/170/96 95/169/95
f 101/175/101 91/165/91 89/163/89
f 102/176/102 89/163/89 87/161/87
f 103/177/87 87/161/87 85/159/85
f 104/178/85 85/159/85 83/157/83
f 105/179/83 83/157/83 81/155/81
f 106/180/81 81/155/81 79/153/79
f 107/181/79 79/153/79 77/151/77
f 108/182/77 77/151/77 76/150/76
f 109/183/97 98/172/98 110/184/103
f 111/185/95 99/173/99 109/183/97
f 112/186/104 100/174/100 99/173/99
f 113/187/105 114/188/106 115/189/102
f 116/190/107 115/189/102 117/191/87
f 118/192/108 117/191/87 119/193/109
f 120/194/110 119/193/109 121/195/83
f 122/196/111 121/195/83 123/197/81
f 124/198/112 123/197/81 125/199/79
f 126/200/113 125/199/79 127/201/77
f 128/202/77 127/201/77 129/203/76
f 130/204/114 110/184/103 131/205/92
f 132/206/115 111/185/95 130/204/114
f 133/207/95 112/186/104 111/185/95
f 102/176/102 115/189/102 114/188/106
f 103/177/87 117/191/87 115/189/102
f 104/178/85 119/193/109 117/191/87
f 105/179/83 121/195/83 119/193/109
f 106/180/81 123/197/81 121/195/83
f 107/181/79 125/199/79 123/197/81
f 108/182/77 127/201/77 125/199/79
f 134/208/76 129/203/76 127/201/77
f 114/188/106 110/184/103 98/172/98
f 113/187/105 131/205/92 110/184/103
f 97/171/97 92/166/92 98/172/98
f 135/209/116 93/167/93 92/166/92
f 136/210/117 137/211/118 138/212/119
f 139/213/120 140/214/121 137/211/118
f 141/215/122 142/216/123 140/214/121
f 143/217/124 144/218/125 142/216/123
f 145/219/126 146/220/127 144/218/125
f 147/221/128 148/222/129 146/220/127
f 149/223/130 150/224/131 148/222/129
f 151/225/132 152/226/133 150/224/131
f 151/225/132 153/227/134 154/228/135
f 155/229/136 156/230/137 157/231/138
f 158/232/139 159/233/140 157/231/138
f 160/234/132 152/226/133 154/228/135
f 161/235/141 162/236/142 157/231/138
f 163/237/143 157/231/138 156/230/137
f 164/238/144 150/224/131 152/226/133
f 165/239/129 148/222/129 150/224/131
f 166/240/127 146/220/127 148/222/129
f 167/241/125 144/218/125 146/220/127
f 168/242/123 142/216/123 144/218/125
f 169/243/121 140/214/121 142/216/123
f 170/244/118 137/211/118 140/214/121
f 171/245/119 138/212/119 137/211/118
f 172/246/145 173/247/135 174/248/146
f 172/246/145 161/235/141 163/237/143
f 175/249/147 163/237/143 176/250/148
f 177/251/149 178/252/150 179/253/151
f 180/254/152 181/255/153 178/252/150
f 182/256/154 183/257/127 181/255/153
f 184/258/155 185/259/125 183/257/127
f 186/260/156 187/261/123 185/259/125
f 188/262/157 189/263/121 187/261/123
f 190/264/118 191/265/118 189/263/121
f 192/266/158 193/267/119 191/265/118
f 194/268/159 195/269/160 173/247/135
f 194/268/159 172/246/145 175/249/147
f 196/270/161 175/249/147 197/271/162
f 160/234/132 179/253/151 178/252/150
f 164/238/144 178/252/150 181/255/153
f 165/239/129 181/255/153 183/257/127
f 166/240/127 183/257/127 185/259/125
f 167/241/125 185/259/125 187/261/123
f 168/242/123 187/261/123 189/263/121
f 169/243/121 189/263/121 191/265/118
f 170/244/118 191/265/118 193/267/119
f 160/234/132 174/248/146 173/247/135
f 179/253/151 173/247/135 195/269/160
f 161/235/141 174/248/146 154/228/135
f 162/236/142 154/228/135 153/227/134
f 198/272/163 199/273/163 200/274/163
f 78/275/164 136/210/165 201/276/166
f 80/277/167 139/213/168 136/210/165
f 82/278/169 141/215/170 139/213/168
f 84/279/171 143/217/172 141/215/170
f 86/280/173 145/219/174 143/217/172
f 88/281/175 147/221/176 145/219/174
f 90/282/177 149/223/178 147/221/176
f 202/283/179 151/225/180 149/223/178
f 93/284/181 153/227/182 151/225/180
f 203/285/183 155/229/183 159/233/184
f 96/286/185 156/230/186 155/229/187
f 94/287/188 159/233/184 158/232/189
f 100/288/190 176/250/191 156/230/186
f 204/289/163 200/274/163 205/290/163
f 112/291/192 197/271/193 176/250/191
f 116/292/194 177/251/195 206/293/196
f 118/294/197 180/254/198 177/251/195
f 120/295/199 182/256/200 180/254/198
f 122/296/201 184/258/202 182/256/200
f 124/297/203 186/260/204 184/258/202
f 126/298/205 188/262/206 186/260/204
f 128/299/207 190/264/208 188/262/206
f 207/300/209 192/266/209 190/264/208
f 208/301/163 209/302/163 210/303/163
f 131/304/210 195/269/211 194/268/212
f 211/305/213 194/268/212 196/270/214
f 133/306/215 212/307/216 197/271/193
f 132/308/217 196/270/214 212/307/216
f 213/309/163 205/290/163 209/302/163
f 113/310/218 206/293/196 195/269/211
f 135/311/219 158/232/189 153/227/182
f 214/312/220 215/313/221 76/150/76
f 216/314/222 214/315/222 75/316/166
f 217/317/223 216/314/223 201/276/119
f 215/313/221 218/318/221 134/208/76
f 219/319/223 217/317/223 138/212/119
f 220/320/224 221/321/224 192/266/209
f 222/322/221 220/323/221 207/324/76
f 221/321/225 223/325/223 193/267/119
f 218/318/221 222/322/221 129/203/76
f 223/325/223 219/319/223 171/245/119
f 224/326/226 225/327/227 215/313/221
f 226/328/228 224/329/229 214/315/222
f 227/330/230 226/328/231 216/314/223
f 225/327/227 228/331/232 218/318/221
f 229/332/230 227/330/230 217/317/223
f 230/333/209 231/334/209 221/321/224
f 232/335/232 230/336/233 220/323/221
f 231/334/234 233/337/235 223/325/223
f 228/331/232 232/335/232 222/322/221
f 233/337/235 229/332/230 219/319/223
f 204/338/236 225/327/227 224/326/226
f 234/339/229 235/340/237 224/329/229
f 226/328/231 227/330/230 200/274/238
f 204/338/236 213/341/236 228/331/232
f 205/290/238 200/274/238 227/330/230
f 236/342/239 237/343/239 231/334/209
f 238/344/240 239/345/241 240/346/242
f 241/347/243 242/348/244 210/303/245
f 213/341/236 208/349/236 232/335/232
f 209/302/238 205/290/238 229/332/230
f 243/350/246 244/351/247 245/352/248
f 245/352/248 246/353/249 198/354/250
f 235/355/251 198/354/250 204/338/236
f 247/356/252 248/357/253 249/358/254
f 199/273/255 234/339/256 226/328/231
f 250/359/255 249/358/254 234/339/256
f 251/360/257 236/361/258 230/336/233
f 230/336/233 232/335/232 208/349/236
f 252/362/259 240/346/242 236/361/258
f 237/343/260 210/303/245 209/302/238
f 209/302/238 233/337/235 231/334/234
f 253/363/261 254/364/262 241/347/243
f 249/358/263 243/365/264 235/366/265
f 240/367/266 253/363/267 237/343/268
f 248/357/269 244/368/270 243/369/264
f 247/356/271 245/370/272 244/371/270
f 250/359/273 246/372/274 245/373/272
f 199/273/275 198/272/275 246/374/274
f 239/375/276 254/364/277 253/363/267
f 238/376/278 241/347/279 254/364/277
f 252/377/280 242/348/281 241/347/279
f 251/378/282 210/303/282 242/348/281
f 1/379/7 4/4/2 2/6/4
f 7/17/9 8/11/6 1/13/7
f 9/21/11 10/16/8 7/17/9
f 11/25/13 12/20/10 9/21/11
f 13/29/15 14/24/12 11/25/13
f 15/33/17 16/28/14 13/29/15
f 17/37/19 18/32/16 15/33/17
f 19/41/21 20/36/18 17/37/19
f 21/45/23 22/40/20 19/41/21
f 23/49/25 24/44/22 21/45/23
f 25/53/27 26/48/24 23/49/25
f 27/57/29 28/52/26 25/53/27
f 29/61/31 30/56/28 27/57/29
f 31/65/33 32/60/30 29/61/31
f 33/69/35 34/64/32 31/65/33
f 35/73/37 36/68/34 33/69/35
f 37/77/39 38/72/36 35/73/37
f 39/81/41 40/76/38 37/77/39
f 41/85/43 42/80/40 39/81/41
f 43/89/45 44/84/42 41/85/43
f 45/93/47 46/88/44 43/89/45
f 47/97/49 48/92/46 45/93/47
f 49/101/51 50/96/48 47/97/49
f 51/105/53 52/100/50 49/101/51
f 53/109/55 54/104/52 51/105/53
f 55/113/57 56/108/54 53/109/55
f 57/117/59 58/112/56 55/113/57
f 59/121/61 60/116/58 57/117/59
f 61/125/63 62/120/60 59/121/61
f 63/129/65 64/124/62 61/125/63
f 65/133/67 66/128/64 63/129/65
f 67/137/69 68/132/66 65/133/67
f 69/141/71 70/136/68 67/137/69
f 71/145/73 72/140/70 69/141/71
f 73/148/74 74/144/72 71/145/73
f 2/6/4 5/147/3 73/148/74
f 78/152/78 75/149/75 77/151/77
f 80/154/80 78/152/78 79/153/79
f 82/156/82 80/154/80 81/155/81
f 84/158/84 82/156/82 83/157/83
f 86/160/86 84/158/84 85/159/85
f 88/162/88 86/160/86 87/161/87
f 90/164/90 88/162/88 89/163/89
f 202/380/106 90/164/90 91/165/91
f 202/380/106 91/165/91 93/167/93
f 203/381/283 94/168/94 96/170/96
f 135/209/116 97/171/97 94/168/94
f 101/175/101 98/172/98 91/165/91
f 109/183/97 99/173/99 97/171/97
f 99/173/99 100/174/100 95/169/95
f 102/176/102 101/175/101 89/163/89
f 103/177/87 102/176/102 87/161/87
f 104/178/85 103/177/87 85/159/85
f 105/179/83 104/178/85 83/157/83
f 106/180/81 105/179/83 81/155/81
f 107/181/79 106/180/81 79/153/79
f 108/182/77 107/181/79 77/151/77
f 134/208/76 108/182/77 76/150/76
f 130/204/114 109/183/97 110/184/103
f 130/204/114 111/185/95 109/183/97
f 111/185/95 112/186/104 99/173/99
f 116/190/107 113/187/105 115/189/102
f 118/192/108 116/190/107 117/191/87
f 120/194/110 118/192/108 119/193/109
f 122/196/111 120/194/110 121/195/83
f 124/198/112 122/196/111 123/197/81
f 126/200/113 124/198/112 125/199/79
f 128/202/77 126/200/113 127/201/77
f 207/324/76 128/202/77 129/203/76
f 211/382/284 130/204/114 131/205/92
f 211/382/284 132/206/115 130/204/114
f 132/206/115 133/207/95 111/185/95
f 101/175/101 102/176/102 114/188/106
f 102/176/102 103/177/87 115/189/102
f 103/177/87 104/178/85 117/191/87
f 104/178/85 105/179/83 119/193/109
f 105/179/83 106/180/81 121/195/83
f 106/180/81 107/181/79 123/197/81
f 107/181/79 108/182/77 125/199/79
f 108/182/77 134/208/76 127/201/77
f 101/175/101 114/188/106 98/172/98
f 114/188/106 113/187/105 110/184/103
f 109/183/97 97/171/97 98/172/98
f 97/171/97 135/209/116 92/166/92
f 201/276/119 136/210/117 138/212/119
f 136/210/117 139/213/120 137/211/118
f 139/213/120 141/215/122 140/214/121
f 141/215/122 143/217/124 142/216/123
f 143/217/124 145/219/126 144/218/125
f 145/219/126 147/221/128 146/220/127
f 147/221/128 149/223/130 148/222/129
f 149/223/130 151/225/132 150/224/131
f 152/226/133 151/225/132 154/228/135
f 159/233/140 155/229/136 157/231/138
f 162/236/142 158/232/139 157/231/138
f 174/248/146 160/234/132 154/228/135
f 163/237/143 161/235/141 157/231/138
f 176/250/148 163/237/143 156/230/137
f 160/234/132 164/238/144 152/226/133
f 164/238/144 165/239/129 150/224/131
f 165/239/129 166/240/127 148/222/129
f 166/240/127 167/241/125 146/220/127
f 167/241/125 168/242/123 144/218/125
f 168/242/123 169/243/121 142/216/123
f 169/243/121 170/244/118 140/214/121
f 170/244/118 171/245/119 137/211/118
f 161/235/141 172/246/145 174/248/146
f 175/249/147 172/246/145 163/237/143
f 197/271/162 175/249/147 176/250/148
f 206/293/285 177/251/149 179/253/151
f 177/251/149 180/254/152 178/252/150
f 180/254/152 182/256/154 181/255/153
f 182/256/154 184/258/155 183/257/127
f 184/258/155 186/260/156 185/259/125
f 186/260/156 188/262/157 187/261/123
f 188/262/157 190/264/118 189/263/121
f 190/264/118 192/266/158 191/265/118
f 172/246/145 194/268/159 173/247/135
f 196/270/161 194/268/159 175/249/147
f 212/307/286 196/270/161 197/271/162
f 164/238/144 160/234/132 178/252/150
f 165/239/129 164/238/144 181/255/153
f 166/240/127 165/239/129 183/257/127
f 167/241/125 166/240/127 185/259/125
f 168/242/123 167/241/125 187/261/123
f 169/243/121 168/242/123 189/263/121
f 170/244/118 169/243/121 191/265/118
f 171/245/119 170/244/118 193/267/119
f 179/253/151 160/234/132 173/247/135
f 206/293/285 179/253/151 195/269/160
f 162/236/142 161/235/141 154/228/135
f 158/232/139 162/236/142 153/227/134
f 204/289/163 198/272/163 200/274/163
f 75/316/166 78/275/164 201/276/166
f 78/383/164 80/277/167 136/210/165
f 80/384/167 82/278/169 139/213/168
f 82/385/169 84/279/171 141/215/170
f 84/279/171 86/280/173 143/217/172
f 86/386/173 88/281/175 145/219/174
f 88/281/175 90/282/177 147/221/176
f 90/282/177 202/283/179 149/223/178
f 202/387/179 93/284/181 151/225/180
f 94/388/188 203/285/183 159/233/184
f 203/389/187 96/286/185 155/229/187
f 135/390/219 94/287/188 158/232/189
f 96/286/185 100/288/190 156/230/186
f 213/309/163 204/289/163 205/290/163
f 100/391/190 112/291/192 176/250/191
f 113/310/218 116/292/194 206/293/196
f 116/392/194 118/294/197 177/251/195
f 118/393/197 120/295/199 180/254/198
f 120/295/199 122/296/201 182/256/200
f 122/394/201 124/297/203 184/258/202
f 124/395/203 126/298/205 186/260/204
f 126/298/205 128/299/207 188/262/206
f 128/299/207 207/300/209 190/264/208
f 251/396/163 208/301/163 210/303/163
f 211/397/213 131/304/210 194/268/212
f 132/308/217 211/305/213 196/270/214
f 112/291/192 133/306/215 197/271/193
f 133/306/215 132/308/217 212/307/216
f 208/301/163 213/309/163 209/302/163
f 131/304/210 113/310/218 195/269/211
f 93/398/181 135/311/219 153/227/182
f 75/149/75 214/312/220 76/150/76
f 201/276/166 216/314/222 75/316/166
f 138/212/119 217/317/223 201/276/119
f 76/150/76 215/313/221 134/208/76
f 171/245/119 219/319/223 138/212/119
f 207/300/209 220/320/224 192/266/209
f 129/203/76 222/322/221 207/324/76
f 192/266/158 221/321/225 193/267/119
f 134/208/76 218/318/221 129/203/76
f 193/267/119 223/325/223 171/245/119
f 214/312/220 224/326/226 215/313/221
f 216/314/222 226/328/228 214/315/222
f 217/317/223 227/330/230 216/314/223
f 215/313/221 225/327/227 218/318/221
f 219/319/223 229/332/230 217/317/223
f 220/320/224 230/333/209 221/321/224
f 222/322/221 232/335/232 220/323/221
f 221/321/225 231/334/234 223/325/223
f 218/318/221 228/331/232 222/322/221
f 223/325/223 233/337/235 219/319/223
f 226/328/228 234/339/229 224/329/229
f 225/327/227 204/338/236 228/331/232
f 229/332/230 205/290/238 227/330/230
f 230/333/209 236/342/239 231/334/209
f 252/362/259 238/344/240 240/346/242
f 237/343/260 241/347/243 210/303/245
f 228/331/232 213/341/236 232/335/232
f 233/337/235 209/302/238 229/332/230
f 235/355/251 243/350/246 245/352/248
f 235/355/251 245/352/248 198/354/250
f 224/326/226 235/355/251 204/338/236
f 250/359/255 247/356/252 249/358/254
f 200/274/238 199/273/255 226/328/231
f 199/273/255 250/359/255 234/339/256
f 208/349/236 251/360/257 230/336/233
f 251/360/257 252/362/259 236/361/258
f 231/334/234 237/343/260 209/302/238
f 237/343/260 253/363/261 241/347/243
f 234/339/265 249/358/263 235/366/265
f 236/399/268 240/367/266 237/343/268
f 249/358/263 248/357/269 243/369/264
f 248/357/269 247/356/271 244/371/270
f 247/356/271 250/359/273 245/373/272
f 250/359/273 199/273/275 246/374/274
f 240/367/266 239/375/276 253/363/267
f 239/375/276 238/376/278 254/364/277
f 238/376/278 252/377/280 241/347/279
f 252/400/280 251/378/282 242/348/281
