# Blender v3.0.0 OBJ File: ''
# www.blender.org
o plate_goauld_Cube.001
v 0.228850 -0.537894 0.051543
v 0.228851 0.393693 0.032115
v 0.228850 0.393693 0.051543
v -0.227364 0.393693 0.051543
v -0.227364 -0.537894 0.032114
v -0.227365 -0.537894 0.051543
v -0.227364 0.393693 0.032114
v 0.228850 -0.537894 0.032114
v -0.009025 0.203792 0.011053
v 0.001462 0.207913 0.013255
v -0.009034 0.207912 0.013255
v -0.009084 0.233877 -0.025606
v 0.001404 0.236842 -0.021995
v 0.001410 0.233879 -0.025606
v 0.001453 0.212383 0.014611
v -0.009043 0.212381 0.014611
v -0.009077 0.230267 -0.028569
v 0.001417 0.230269 -0.028569
v 0.001444 0.217031 0.015069
v -0.009052 0.217030 0.015069
v -0.009069 0.226148 -0.030771
v 0.001426 0.226149 -0.030771
v 0.001434 0.221680 0.014611
v -0.009061 0.221678 0.014611
v -0.009061 0.221678 -0.032127
v 0.001434 0.221680 -0.032127
v 0.001426 0.226149 0.013255
v -0.009069 0.226148 0.013255
v -0.009052 0.217030 -0.032585
v 0.001444 0.217031 -0.032585
v 0.001417 0.230269 0.011053
v -0.009077 0.230267 0.011053
v -0.009043 0.212381 -0.032127
v 0.001453 0.212383 -0.032127
v 0.001410 0.233879 0.008090
v -0.009084 0.233877 0.008090
v -0.009034 0.207911 -0.030771
v 0.001462 0.207913 -0.030771
v 0.001404 0.236842 0.004479
v -0.009090 0.236841 0.004479
v -0.009025 0.203792 -0.028569
v 0.001470 0.203794 -0.028569
v 0.001400 0.239044 0.000360
v -0.009095 0.239043 0.000360
v -0.009004 0.193203 -0.008758
v 0.001490 0.193662 -0.004110
v -0.009005 0.193661 -0.004110
v -0.009018 0.200182 -0.025606
v 0.001477 0.200183 -0.025606
v 0.001397 0.240400 -0.004110
v -0.009097 0.240398 -0.004110
v 0.001487 0.195018 0.000360
v -0.009008 0.195017 0.000360
v -0.009012 0.197218 -0.021995
v 0.001483 0.197220 -0.021995
v 0.001396 0.240858 -0.008758
v -0.009099 0.240856 -0.008758
v 0.001483 0.197220 0.004479
v -0.009012 0.197218 0.004479
v -0.009008 0.195017 -0.017876
v 0.001487 0.195018 -0.017876
v -0.009097 0.240398 -0.013406
v 0.001397 0.240400 -0.013406
v 0.001477 0.200183 0.008090
v -0.009018 0.200182 0.008090
v -0.009005 0.193661 -0.013406
v 0.001490 0.193662 -0.013406
v -0.009095 0.239043 -0.017876
v 0.001400 0.239044 -0.017876
v 0.001470 0.203794 0.011053
v 0.001491 0.193205 -0.008758
v -0.009090 0.236841 -0.021995
v -0.027934 0.207346 0.005730
v -0.020265 0.210359 0.007341
v -0.027940 0.210358 0.007341
v -0.027977 0.229348 -0.021080
v -0.020306 0.231516 -0.018439
v -0.020302 0.229349 -0.021080
v -0.020271 0.213628 0.008332
v -0.027947 0.213627 0.008332
v -0.027972 0.226707 -0.023247
v -0.020297 0.226709 -0.023247
v -0.020278 0.217028 0.008667
v -0.027953 0.217026 0.008667
v -0.027966 0.223695 -0.024857
v -0.020291 0.223696 -0.024857
v -0.020284 0.220427 0.008332
v -0.027960 0.220426 0.008332
v -0.027960 0.220426 -0.025848
v -0.020284 0.220427 -0.025848
v -0.020291 0.223696 0.007341
v -0.027966 0.223695 0.007341
v -0.027953 0.217026 -0.026183
v -0.020278 0.217028 -0.026183
v -0.020297 0.226709 0.005730
v -0.027972 0.226707 0.005730
v -0.027947 0.213627 -0.025848
v -0.020271 0.213628 -0.025848
v -0.020302 0.229349 0.003563
v -0.027977 0.229348 0.003563
v -0.027940 0.210358 -0.024857
v -0.020265 0.210359 -0.024857
v -0.020306 0.231516 0.000923
v -0.027981 0.231515 0.000923
v -0.027934 0.207346 -0.023247
v -0.020259 0.207347 -0.023247
v -0.020310 0.233126 -0.002090
v -0.027985 0.233125 -0.002090
v -0.027918 0.199601 -0.008758
v -0.020244 0.199937 -0.005359
v -0.027920 0.199936 -0.005359
v -0.027929 0.204705 -0.021080
v -0.020253 0.204706 -0.021080
v -0.020312 0.234118 -0.005359
v -0.027987 0.234117 -0.005359
v -0.020246 0.200929 -0.002090
v -0.027921 0.200928 -0.002090
v -0.027924 0.202538 -0.018439
v -0.020249 0.202539 -0.018439
v -0.020312 0.234453 -0.008758
v -0.027987 0.234452 -0.008758
v -0.020249 0.202539 0.000923
v -0.027924 0.202538 0.000923
v -0.027921 0.200928 -0.015426
v -0.020246 0.200929 -0.015426
v -0.027987 0.234117 -0.012158
v -0.020312 0.234118 -0.012158
v -0.020253 0.204706 0.003563
v -0.027929 0.204705 0.003563
v -0.027920 0.199936 -0.012158
v -0.020244 0.199937 -0.012158
v -0.027985 0.233125 -0.015426
v -0.020310 0.233126 -0.015426
v -0.020259 0.207347 0.005730
v -0.020243 0.199603 -0.008758
v -0.027981 0.231515 -0.018439
v 0.014955 0.207353 0.005730
v 0.022625 0.210367 0.007341
v 0.014949 0.210365 0.007341
v 0.014912 0.229355 -0.021080
v 0.022583 0.231523 -0.018439
v 0.022586 0.229356 -0.021080
v 0.022617 0.213635 0.008332
v 0.014942 0.213634 0.008332
v 0.014917 0.226714 -0.023247
v 0.022592 0.226716 -0.023247
v 0.022611 0.217035 0.008667
v 0.014936 0.217034 0.008667
v 0.014923 0.223702 -0.024857
v 0.022598 0.223703 -0.024857
v 0.022604 0.220434 0.008332
v 0.014930 0.220433 0.008332
v 0.014930 0.220433 -0.025848
v 0.022604 0.220434 -0.025848
v 0.022598 0.223703 0.007341
v 0.014923 0.223702 0.007341
v 0.014936 0.217034 -0.026183
v 0.022611 0.217035 -0.026183
v 0.022592 0.226716 0.005730
v 0.014917 0.226714 0.005730
v 0.014942 0.213634 -0.025848
v 0.022617 0.213635 -0.025848
v 0.022586 0.229356 0.003563
v 0.014912 0.229355 0.003563
v 0.014949 0.210365 -0.024857
v 0.022625 0.210367 -0.024857
v 0.022583 0.231523 0.000923
v 0.014908 0.231522 0.000923
v 0.014955 0.207353 -0.023247
v 0.022630 0.207354 -0.023247
v 0.022579 0.233134 -0.002090
v 0.014904 0.233132 -0.002090
v 0.014971 0.199608 -0.008758
v 0.022644 0.199944 -0.005359
v 0.014969 0.199943 -0.005359
v 0.014960 0.204712 -0.021080
v 0.022635 0.204713 -0.021080
v 0.022577 0.234125 -0.005359
v 0.014901 0.234124 -0.005359
v 0.022643 0.200936 -0.002090
v 0.014968 0.200935 -0.002090
v 0.014964 0.202545 -0.018439
v 0.022639 0.202546 -0.018439
v 0.022577 0.234460 -0.008758
v 0.014901 0.234459 -0.008758
v 0.022639 0.202546 0.000923
v 0.014964 0.202545 0.000923
v 0.014968 0.200935 -0.015426
v 0.022643 0.200936 -0.015426
v 0.014901 0.234124 -0.012158
v 0.022577 0.234125 -0.012158
v 0.022635 0.204713 0.003563
v 0.014960 0.204712 0.003563
v 0.014969 0.199943 -0.012158
v 0.022644 0.199944 -0.012158
v 0.014904 0.233132 -0.015426
v 0.022579 0.233134 -0.015426
v 0.022630 0.207354 0.005730
v 0.022646 0.199610 -0.008758
v 0.014908 0.231522 -0.018439
v -0.029489 0.237630 0.033979
v -0.246358 -0.081588 0.015978
v -0.246358 -0.081588 0.038801
v 0.178372 -0.052376 0.015814
v 0.022678 0.172966 0.042939
v 0.022836 0.173062 0.014719
v 0.026675 0.235587 0.014555
v 0.246092 -0.080571 0.038801
v 0.246092 -0.080571 0.015978
v -0.026332 0.235587 0.014555
v 0.022826 0.237630 0.033979
v -0.190504 -0.052376 0.015814
v -0.025783 0.175806 0.044181
v -0.190850 -0.052376 0.045276
v -0.029489 0.206876 0.014555
v 0.177505 -0.052376 0.043942
v 0.015528 0.077210 -0.008347
v 0.030502 0.060077 -0.008347
v 0.015528 0.060077 -0.008347
v -0.030314 0.077210 -0.008347
v -0.014007 0.060077 -0.008347
v -0.030314 0.060077 -0.008347
v 0.015372 0.042374 -0.008347
v -0.014496 0.042374 -0.008347
v -0.030314 0.024101 -0.008347
v -0.014084 0.024101 -0.008347
v -0.030314 0.042374 -0.008347
v 0.030502 0.024101 -0.008347
v 0.015372 0.024101 -0.008347
v 0.030502 0.042374 -0.008347
v 0.015528 -0.028927 -0.008347
v 0.030502 -0.046060 -0.008347
v 0.015528 -0.046060 -0.008347
v -0.030314 -0.028927 -0.008347
v -0.014007 -0.046060 -0.008347
v -0.030314 -0.046060 -0.008347
v 0.015372 -0.063764 -0.008347
v -0.014496 -0.063764 -0.008347
v -0.030314 -0.082037 -0.008347
v -0.014084 -0.082037 -0.008347
v -0.030314 -0.063764 -0.008347
v 0.030502 -0.082037 -0.008347
v 0.015372 -0.082037 -0.008347
v 0.030502 -0.063764 -0.008347
v 0.015528 -0.134341 -0.008347
v 0.030502 -0.151474 -0.008347
v 0.015528 -0.151474 -0.008347
v -0.030314 -0.134341 -0.008347
v -0.014007 -0.151474 -0.008347
v -0.030314 -0.151474 -0.008347
v 0.015372 -0.169177 -0.008347
v -0.014496 -0.169177 -0.008347
v -0.030314 -0.187450 -0.008347
v -0.014084 -0.187450 -0.008347
v -0.030314 -0.169177 -0.008347
v 0.030502 -0.187450 -0.008347
v 0.015372 -0.187450 -0.008347
v 0.030502 -0.169177 -0.008347
v 0.015528 -0.237733 -0.008347
v 0.030502 -0.254866 -0.008347
v 0.015528 -0.254866 -0.008347
v -0.030314 -0.237733 -0.008347
v -0.014007 -0.254866 -0.008347
v -0.030314 -0.254866 -0.008347
v 0.015372 -0.272569 -0.008347
v -0.014496 -0.272569 -0.008347
v -0.030314 -0.290842 -0.008347
v -0.014084 -0.290842 -0.008347
v -0.030314 -0.272569 -0.008347
v 0.030502 -0.290842 -0.008347
v 0.015372 -0.290842 -0.008347
v 0.030502 -0.272569 -0.008347
v 0.015528 -0.342625 -0.008347
v 0.030502 -0.359758 -0.008347
v 0.015528 -0.359758 -0.008347
v -0.030314 -0.342625 -0.008347
v -0.014007 -0.359758 -0.008347
v -0.030314 -0.359758 -0.008347
v 0.015372 -0.377461 -0.008347
v -0.014496 -0.377461 -0.008347
v -0.030314 -0.395734 -0.008347
v -0.014084 -0.395734 -0.008347
v -0.030314 -0.377461 -0.008347
v 0.030502 -0.395734 -0.008347
v 0.015372 -0.395734 -0.008347
v 0.030502 -0.377461 -0.008347
v -0.218295 -0.382203 0.016085
v 0.216276 -0.078316 0.016085
v -0.218295 -0.078316 0.016085
v 0.216276 -0.382203 0.016085
v -0.218295 -0.382203 0.037020
v 0.216276 -0.382203 0.037019
v 0.071288 0.407141 -0.015948
v -0.065220 0.406924 -0.008320
v 0.071288 0.406924 -0.008320
v -0.065220 0.320837 -0.017964
v -0.065220 0.320639 -0.010336
v 0.071288 0.320639 -0.010336
v 0.071288 0.320837 -0.017964
v -0.065220 0.407141 -0.015948
v 0.101664 0.297255 0.028593
v 0.101904 0.402377 0.022408
v 0.101664 0.401957 0.031770
v 0.093910 0.303213 0.019082
v 0.101904 0.297322 0.019222
v 0.093780 0.400101 0.011878
v 0.093910 0.399934 0.021962
v 0.084201 0.310639 0.008520
v 0.093780 0.303570 0.009003
v 0.084673 0.404369 0.000973
v 0.084201 0.403760 0.011029
v 0.077204 0.316045 -0.001246
v 0.084673 0.310553 -0.001555
v 0.077280 0.407186 -0.008413
v 0.077204 0.406914 0.000996
v 0.077280 0.316234 -0.010657
v -0.095836 0.297322 0.019223
v -0.095595 0.297255 0.028593
v -0.087842 0.303213 0.019082
v -0.087712 0.303570 0.009003
v -0.078132 0.310639 0.008520
v -0.071137 0.316045 -0.001246
v -0.078604 0.310553 -0.001555
v -0.071213 0.316234 -0.010657
v -0.095836 0.406016 0.022408
v -0.095595 0.405595 0.031770
v -0.087712 0.405318 0.011878
v -0.087842 0.405152 0.021962
v -0.078604 0.404340 0.000973
v -0.078132 0.403731 0.011029
v -0.071213 0.407186 -0.008413
v -0.071137 0.406914 0.000996
v -0.053154 0.331870 -0.029789
v 0.056996 0.406678 -0.030351
v 0.056996 0.331884 -0.031633
v 0.064380 0.326365 -0.016121
v 0.064443 0.407110 -0.026100
v 0.064380 0.407004 -0.014406
v 0.057054 0.331805 -0.028102
v 0.064443 0.326451 -0.027817
v 0.057054 0.407067 -0.026607
v -0.059427 0.326461 -0.024899
v -0.059593 0.326365 -0.015190
v -0.054408 0.331802 -0.024685
v -0.059427 0.407119 -0.023182
v -0.059593 0.407004 -0.013475
v -0.053154 0.406660 -0.028506
v -0.054408 0.407061 -0.023191
v -0.065695 -0.536135 -0.008320
v 0.069844 -0.537782 -0.015948
v 0.069847 -0.537566 -0.008320
v 0.071380 -0.451489 -0.017964
v 0.071382 -0.451291 -0.010336
v -0.064159 -0.449860 -0.010336
v -0.064163 -0.450058 -0.017964
v -0.094114 -0.426067 0.028593
v -0.096226 -0.531173 0.022408
v -0.095978 -0.530756 0.031770
v -0.086468 -0.432129 0.019082
v -0.094356 -0.426130 0.019223
v -0.088062 -0.529007 0.011878
v -0.088189 -0.528839 0.021962
v -0.076891 -0.439686 0.008520
v -0.086345 -0.432488 0.009003
v -0.079031 -0.533399 0.000973
v -0.078548 -0.532796 0.011029
v -0.069993 -0.445187 -0.001246
v -0.077362 -0.439594 -0.001555
v -0.071690 -0.536316 -0.008413
v -0.071610 -0.536045 0.000996
v -0.070073 -0.445374 -0.010657
v 0.102410 -0.428392 0.019222
v 0.102170 -0.428323 0.028593
v 0.094312 -0.434174 0.019082
v 0.094175 -0.434530 0.009003
v 0.084471 -0.441468 0.008520
v 0.077381 -0.446778 -0.001246
v 0.084945 -0.441388 -0.001555
v 0.077453 -0.446968 -0.010657
v 0.100476 -0.537073 0.022408
v 0.100243 -0.536650 0.031770
v 0.092366 -0.536265 0.011878
v 0.092497 -0.536100 0.021962
v 0.083276 -0.535164 0.000973
v 0.082814 -0.534548 0.011029
v 0.075834 -0.537909 -0.008413
v 0.075763 -0.537636 0.000996
v -0.050068 -0.461298 -0.031633
v 0.057788 -0.537138 -0.028506
v -0.051399 -0.536082 -0.030351
v -0.057354 -0.455679 -0.016121
v -0.058853 -0.536414 -0.026100
v -0.058789 -0.536309 -0.014406
v -0.050125 -0.461218 -0.028102
v -0.057418 -0.455765 -0.027817
v -0.051464 -0.536471 -0.026607
v 0.065487 -0.457034 -0.024899
v 0.065654 -0.456940 -0.015190
v 0.059119 -0.462356 -0.029789
v 0.060374 -0.462307 -0.024685
v 0.064052 -0.537682 -0.023182
v 0.064220 -0.537569 -0.013475
v 0.059034 -0.537556 -0.023191
v 0.035594 0.401928 0.048697
v -0.036007 -0.526965 0.048697
v 0.035594 -0.526965 0.048697
v -0.036007 0.401928 0.048697
v -0.036007 -0.526965 -0.003708
v -0.036007 0.401928 -0.003708
v 0.035594 -0.526965 -0.003708
v 0.035594 0.401928 -0.003708
v 0.178372 -0.052376 0.044034
v -0.021594 0.175018 0.014719
v -0.191171 -0.052376 0.043942
v 0.030502 0.077210 -0.008347
v -0.013595 0.077210 -0.008347
v 0.030502 -0.028927 -0.008347
v -0.013595 -0.028927 -0.008347
v 0.030502 -0.134341 -0.008347
v -0.013595 -0.134341 -0.008347
v 0.030502 -0.237733 -0.008347
v -0.013595 -0.237733 -0.008347
v 0.030502 -0.342625 -0.008347
v -0.013595 -0.342625 -0.008347
v -0.065698 -0.536351 -0.015948
v -0.014583 0.077210 -0.003774
v -0.030314 0.060077 -0.003774
v -0.014583 0.060077 -0.003774
v -0.030314 0.077210 -0.003774
v 0.030502 0.060077 -0.003774
v 0.015803 0.024101 -0.003774
v 0.030502 0.024101 -0.003774
v 0.015592 0.077210 -0.003774
v -0.014850 0.024101 -0.003774
v -0.014850 0.042374 -0.003774
v -0.030314 0.024101 -0.003774
v 0.015592 0.060077 -0.003774
v 0.030502 0.077210 -0.003774
v 0.015803 0.042374 -0.003774
v 0.030502 0.042374 -0.003774
v -0.030314 0.042374 -0.003774
v -0.014583 -0.028927 -0.003774
v -0.030314 -0.046060 -0.003774
v -0.014583 -0.046060 -0.003774
v -0.030314 -0.028927 -0.003774
v 0.030502 -0.046060 -0.003774
v 0.015803 -0.082037 -0.003774
v 0.030502 -0.082037 -0.003774
v 0.015592 -0.028927 -0.003774
v -0.014850 -0.082037 -0.003774
v -0.014850 -0.063764 -0.003774
v -0.030314 -0.082037 -0.003774
v 0.015592 -0.046060 -0.003774
v 0.030502 -0.028927 -0.003774
v 0.015803 -0.063764 -0.003774
v 0.030502 -0.063764 -0.003774
v -0.030314 -0.063764 -0.003774
v -0.014583 -0.134341 -0.003774
v -0.030314 -0.151474 -0.003774
v -0.014583 -0.151474 -0.003774
v -0.030314 -0.134341 -0.003774
v 0.030502 -0.151474 -0.003774
v 0.015803 -0.187450 -0.003774
v 0.030502 -0.187450 -0.003774
v 0.015592 -0.134341 -0.003774
v -0.014850 -0.187450 -0.003774
v -0.014850 -0.169177 -0.003774
v -0.030314 -0.187450 -0.003774
v 0.015592 -0.151474 -0.003774
v 0.030502 -0.134341 -0.003774
v 0.015803 -0.169177 -0.003774
v 0.030502 -0.169177 -0.003774
v -0.030314 -0.169177 -0.003774
v -0.014583 -0.237733 -0.003774
v -0.030314 -0.254866 -0.003774
v -0.014583 -0.254866 -0.003774
v -0.030314 -0.237733 -0.003774
v 0.030502 -0.254866 -0.003774
v 0.015803 -0.290842 -0.003774
v 0.030502 -0.290842 -0.003774
v 0.015592 -0.237733 -0.003774
v -0.014850 -0.290842 -0.003774
v -0.014850 -0.272569 -0.003774
v -0.030314 -0.290842 -0.003774
v 0.015592 -0.254866 -0.003774
v 0.030502 -0.237733 -0.003774
v 0.015803 -0.272569 -0.003774
v 0.030502 -0.272569 -0.003774
v -0.030314 -0.272569 -0.003774
v -0.014583 -0.342625 -0.003774
v -0.030314 -0.359758 -0.003774
v -0.014583 -0.359758 -0.003774
v -0.030314 -0.342625 -0.003774
v 0.030502 -0.359758 -0.003774
v 0.015803 -0.395734 -0.003774
v 0.030502 -0.395734 -0.003774
v 0.015592 -0.342625 -0.003774
v -0.014850 -0.395734 -0.003774
v -0.014850 -0.377461 -0.003774
v -0.030314 -0.395734 -0.003774
v 0.015592 -0.359758 -0.003774
v 0.030502 -0.342625 -0.003774
v 0.015803 -0.377461 -0.003774
v 0.030502 -0.377461 -0.003774
v -0.030314 -0.377461 -0.003774
v -0.299928 -0.538979 0.029760
v -0.216745 -0.538979 0.038284
v -0.225769 -0.538979 0.045688
v -0.299928 -0.538979 0.045688
v -0.299928 0.392608 0.029760
v -0.299928 0.392608 0.045688
v -0.225769 0.392608 0.045688
v -0.216745 0.392608 0.038284
v 0.224946 0.392555 -0.018533
v 0.300678 -0.538906 -0.018533
v 0.226519 -0.539031 -0.018533
v 0.224946 0.392555 -0.011474
v 0.226519 -0.539031 -0.011473
v -0.299928 0.392608 0.007848
v -0.299928 -0.538979 -0.006545
v -0.299928 -0.538979 0.007848
v -0.214710 0.392608 -0.004923
v 0.299105 0.392680 0.046731
v 0.226519 -0.539031 0.046731
v 0.300678 -0.538906 0.046731
v -0.222385 -0.538979 -0.005687
v -0.221636 -0.538979 -0.011416
v 0.300678 -0.538906 -0.005501
v -0.299928 0.392608 -0.006545
v -0.299928 -0.538979 -0.019577
v 0.224946 0.392555 0.046731
v 0.217495 -0.539046 0.039328
v 0.223134 -0.539036 -0.004643
v 0.300678 -0.538906 0.008892
v -0.221636 0.392608 -0.011416
v -0.225769 0.392608 -0.012517
v -0.225769 -0.538979 -0.012517
v -0.222385 0.392608 -0.005686
v 0.299105 0.392680 -0.005501
v 0.299105 0.392680 0.008892
v 0.300678 -0.538906 0.030803
v 0.299105 0.392680 0.024473
v 0.299105 0.392680 0.030803
v 0.300678 -0.538906 0.016535
v 0.300678 -0.538906 0.024473
v -0.299928 0.392608 0.015492
v -0.299928 -0.538979 0.015492
v -0.214710 -0.538979 -0.004923
v -0.299928 0.392608 0.023429
v 0.215921 0.392540 0.039327
v 0.215459 -0.539049 -0.003879
v -0.299928 -0.538979 0.023429
v -0.225769 0.392608 -0.019577
v 0.220813 0.392548 -0.010372
v 0.222385 -0.539038 -0.010372
v -0.225769 -0.538979 -0.019577
v -0.299928 0.392608 -0.019577
v 0.299105 0.392680 -0.018533
v 0.221562 0.392549 -0.004643
v 0.299105 0.392680 0.016535
v 0.213887 0.392536 -0.003879
v 0.316035 0.426043 -0.031677
v 0.316035 0.312908 0.081458
v 0.316035 0.312908 -0.031677
v 0.202899 0.426043 -0.031677
v 0.202899 0.312908 0.081458
v 0.316035 0.426043 0.081458
v 0.202899 0.426043 0.081458
v 0.202899 0.312908 -0.031677
v -0.311745 0.312908 -0.032114
v -0.198610 0.312908 0.081021
v -0.311745 0.312908 0.081021
v -0.198610 0.426043 -0.032114
v -0.198610 0.312908 -0.032114
v -0.311745 0.426043 -0.032114
v -0.198610 0.426043 0.081021
v -0.311745 0.426043 0.081021
v 0.202899 -0.556505 -0.027654
v 0.316035 -0.556505 0.085481
v 0.202899 -0.556505 0.085481
v -0.309096 -0.556505 0.081165
v -0.195960 -0.443370 0.081165
v -0.309096 -0.443370 0.081165
v 0.316035 -0.443370 -0.027654
v 0.316035 -0.556505 -0.027654
v 0.316035 -0.443370 0.085481
v 0.202899 -0.443370 0.085481
v -0.195960 -0.443370 -0.031971
v -0.195960 -0.556505 0.081165
v -0.195960 -0.556505 -0.031971
v -0.309096 -0.556505 -0.031971
v -0.309096 -0.443370 -0.031971
v 0.202899 -0.443370 -0.027654
v 0.289458 0.406801 -0.000663
v 0.289458 0.392084 0.051111
v 0.289458 0.392084 -0.000663
v -0.296847 0.392084 0.051111
v 0.289458 0.406801 0.051111
v -0.296847 0.406801 0.051111
v 0.289458 -0.523055 -0.000663
v -0.296847 -0.523055 0.051111
v 0.289458 -0.523055 0.051111
v 0.289458 -0.537772 0.051111
v -0.296847 0.392084 -0.000663
v -0.296847 0.406801 -0.000663
v 0.289458 -0.537772 -0.000663
v -0.296847 -0.523055 -0.000663
v -0.296847 -0.537772 -0.000663
v -0.296847 -0.537772 0.051111
v 0.246092 -0.080549 0.016764
vt 0.000000 0.000000
vt 0.000000 0.000000
vt 0.000000 0.000000
vt 0.000000 0.000000
vt 0.000000 0.000000
vt 0.000000 0.000000
vt 0.000000 0.000000
vt 0.097743 0.309293
vt 0.396387 0.974339
vt 0.097743 0.974339
vt 0.000000 0.000000
vt 0.569609 0.536737
vt 0.778502 0.963295
vt 0.569609 0.963295
vt 0.854424 0.457052
vt 0.836873 0.463301
vt 0.849526 0.451723
vt 0.937703 0.547657
vt 0.929950 0.564565
vt 0.925051 0.559236
vt 0.831975 0.457971
vt 0.844627 0.446393
vt 0.932804 0.542327
vt 0.920152 0.553906
vt 0.827076 0.452642
vt 0.839728 0.441063
vt 0.927906 0.536998
vt 0.915253 0.548576
vt 0.822177 0.447312
vt 0.834829 0.435734
vt 0.923007 0.531668
vt 0.910355 0.543247
vt 0.817278 0.441982
vt 0.829931 0.430404
vt 0.918108 0.526338
vt 0.905456 0.537917
vt 0.986691 0.600954
vt 0.969140 0.607203
vt 0.981792 0.595625
vt 0.913209 0.521009
vt 0.900557 0.532587
vt 0.964241 0.601873
vt 0.976893 0.590295
vt 0.908311 0.515679
vt 0.895658 0.527257
vt 0.959342 0.596543
vt 0.971994 0.584965
vt 0.903412 0.510349
vt 0.890760 0.521928
vt 0.954443 0.591214
vt 0.967096 0.579635
vt 0.878918 0.483701
vt 0.861367 0.489950
vt 0.874019 0.478371
vt 0.898513 0.505020
vt 0.885861 0.516598
vt 0.949545 0.585884
vt 0.962197 0.574306
vt 0.856468 0.484620
vt 0.869121 0.473041
vt 0.893614 0.499690
vt 0.880962 0.511268
vt 0.944646 0.580554
vt 0.957298 0.568976
vt 0.851570 0.479290
vt 0.864222 0.467712
vt 0.888716 0.494360
vt 0.876063 0.505939
vt 0.952399 0.563646
vt 0.939747 0.575225
vt 0.846671 0.473960
vt 0.859323 0.462382
vt 0.883817 0.489031
vt 0.871165 0.500609
vt 0.947501 0.558317
vt 0.934848 0.569895
vt 0.841772 0.468631
vt 0.866266 0.495279
vt 0.942602 0.552987
vt 0.985207 0.494701
vt 0.925929 0.605431
vt 0.815026 0.546245
vt 0.983262 0.494318
vt 0.925339 0.602518
vt 0.816971 0.544684
vt 0.967172 0.598001
vt 0.983156 0.592706
vt 0.972278 0.603248
vt 0.880379 0.508792
vt 0.886152 0.493002
vt 0.891258 0.498249
vt 0.988262 0.597954
vt 0.977383 0.608496
vt 0.885484 0.514039
vt 0.896363 0.503497
vt 0.814008 0.440573
vt 0.829992 0.435278
vt 0.819113 0.445821
vt 0.890590 0.519287
vt 0.901469 0.508745
vt 0.835097 0.440526
vt 0.824218 0.451068
vt 0.895695 0.524535
vt 0.906574 0.513992
vt 0.840203 0.445773
vt 0.829324 0.456316
vt 0.900801 0.529782
vt 0.911680 0.519240
vt 0.845308 0.451021
vt 0.834429 0.461563
vt 0.905906 0.535030
vt 0.916785 0.524487
vt 0.850414 0.456269
vt 0.839535 0.466811
vt 0.911012 0.540277
vt 0.921890 0.529735
vt 0.855519 0.461516
vt 0.844640 0.472058
vt 0.916117 0.545525
vt 0.926996 0.534982
vt 0.860625 0.466764
vt 0.849746 0.477306
vt 0.941645 0.571763
vt 0.957629 0.566468
vt 0.946750 0.577010
vt 0.921223 0.550772
vt 0.932101 0.540230
vt 0.865730 0.472011
vt 0.854851 0.482554
vt 0.962734 0.571716
vt 0.951856 0.582258
vt 0.926328 0.556020
vt 0.937207 0.545478
vt 0.870836 0.477259
vt 0.859957 0.487801
vt 0.967840 0.576963
vt 0.956961 0.587506
vt 0.931434 0.561268
vt 0.942312 0.550725
vt 0.865062 0.493049
vt 0.875941 0.482507
vt 0.972945 0.582211
vt 0.962067 0.592753
vt 0.936539 0.566515
vt 0.947418 0.555973
vt 0.870168 0.498296
vt 0.881047 0.487754
vt 0.978051 0.587458
vt 0.952523 0.561220
vt 0.875273 0.503544
vt 0.836008 0.573303
vt 0.817954 0.513877
vt 0.979699 0.529783
vt 0.889977 0.439206
vt 0.978815 0.512001
vt 0.905908 0.600701
vt 0.963676 0.594663
vt 0.981782 0.587106
vt 0.969170 0.600012
vt 0.870287 0.503721
vt 0.877406 0.485466
vt 0.882899 0.490816
vt 0.987276 0.592456
vt 0.974663 0.605361
vt 0.875780 0.509071
vt 0.888393 0.496165
vt 0.992769 0.597805
vt 0.980157 0.610711
vt 0.881274 0.514420
vt 0.893886 0.501515
vt 0.804364 0.439528
vt 0.822470 0.431972
vt 0.809858 0.444877
vt 0.886767 0.519770
vt 0.899380 0.506864
vt 0.827964 0.437321
vt 0.815351 0.450227
vt 0.892261 0.525119
vt 0.904873 0.512214
vt 0.833457 0.442671
vt 0.820845 0.455576
vt 0.897754 0.530469
vt 0.910367 0.517563
vt 0.838951 0.448020
vt 0.826338 0.460926
vt 0.903248 0.535818
vt 0.915860 0.522913
vt 0.844444 0.453370
vt 0.831832 0.466275
vt 0.908741 0.541168
vt 0.921354 0.528262
vt 0.849938 0.458719
vt 0.837325 0.471625
vt 0.936209 0.567915
vt 0.954315 0.560359
vt 0.941702 0.573265
vt 0.914235 0.546517
vt 0.926847 0.533612
vt 0.855431 0.464069
vt 0.842819 0.476974
vt 0.959808 0.565709
vt 0.947196 0.578614
vt 0.919728 0.551867
vt 0.932341 0.538961
vt 0.860925 0.469418
vt 0.848312 0.482324
vt 0.965302 0.571058
vt 0.952689 0.583964
vt 0.925222 0.557216
vt 0.937834 0.544311
vt 0.853806 0.487673
vt 0.866418 0.474768
vt 0.970795 0.576408
vt 0.958183 0.589313
vt 0.930715 0.562566
vt 0.943328 0.549660
vt 0.859299 0.493023
vt 0.871912 0.480117
vt 0.976289 0.581757
vt 0.948821 0.555010
vt 0.864793 0.498372
vt 0.847273 0.583416
vt 0.817954 0.528648
vt 0.979699 0.512742
vt 0.976592 0.496400
vt 0.922416 0.597598
vt 0.821061 0.543507
vt 0.817597 0.609782
vt 0.970270 0.426583
vt 0.980701 0.436139
vt 0.914061 0.486433
vt 0.855110 0.436307
vt 0.864609 0.428153
vt 0.823893 0.601036
vt 0.982259 0.440102
vt 0.990915 0.449726
vt 0.855064 0.436253
vt 0.980884 0.600182
vt 0.847345 0.442803
vt 0.900086 0.554960
vt 0.879293 0.543847
vt 0.885899 0.538241
vt 0.997033 0.425355
vt 0.840147 0.607640
vt 0.804848 0.616498
vt 0.995835 0.440647
vt 0.804365 0.600542
vt 0.977163 0.422393
vt 0.976779 0.464006
vt 0.808006 0.604784
vt 0.993182 0.424218
vt 0.989791 0.424865
vt 0.813370 0.617628
vt 0.812919 0.598024
vt 0.981943 0.426612
vt 0.816491 0.617850
vt 0.803586 0.604944
vt 0.872526 0.580556
vt 0.839658 0.537492
vt 0.872526 0.537492
vt 0.973148 0.580556
vt 0.937355 0.537492
vt 0.973148 0.537492
vt 0.872869 0.492995
vt 0.938429 0.492995
vt 0.973148 0.447065
vt 0.937524 0.447065
vt 0.973148 0.492995
vt 0.839657 0.447066
vt 0.872869 0.447065
vt 0.839658 0.492995
vt 0.872526 0.580556
vt 0.839658 0.537492
vt 0.872526 0.537492
vt 0.973148 0.580556
vt 0.937355 0.537492
vt 0.973148 0.537492
vt 0.872869 0.492995
vt 0.938429 0.492995
vt 0.973148 0.447065
vt 0.937524 0.447065
vt 0.973148 0.492995
vt 0.839657 0.447066
vt 0.872869 0.447065
vt 0.839658 0.492995
vt 0.872526 0.580556
vt 0.839658 0.537492
vt 0.872526 0.537492
vt 0.973148 0.580556
vt 0.937355 0.537492
vt 0.973148 0.537492
vt 0.872869 0.492995
vt 0.938429 0.492995
vt 0.973148 0.447065
vt 0.937524 0.447065
vt 0.973148 0.492995
vt 0.839657 0.447066
vt 0.872869 0.447065
vt 0.839658 0.492995
vt 0.872526 0.580556
vt 0.839658 0.537492
vt 0.872526 0.537492
vt 0.973148 0.580556
vt 0.937355 0.537492
vt 0.973148 0.537492
vt 0.872869 0.492995
vt 0.938429 0.492995
vt 0.973148 0.447065
vt 0.937524 0.447065
vt 0.973148 0.492995
vt 0.839657 0.447066
vt 0.872869 0.447065
vt 0.839658 0.492995
vt 0.872526 0.580556
vt 0.839658 0.537492
vt 0.872526 0.537492
vt 0.973148 0.580556
vt 0.937355 0.537492
vt 0.973148 0.537492
vt 0.872869 0.492995
vt 0.938429 0.492995
vt 0.973148 0.447065
vt 0.937524 0.447065
vt 0.973148 0.492995
vt 0.839657 0.447066
vt 0.872869 0.447065
vt 0.839658 0.492995
vt 0.860140 0.036991
vt 0.495549 0.273726
vt 0.861709 0.273867
vt 0.997325 0.436899
vt 0.802579 0.603788
vt 0.988853 0.427925
vt 0.609144 0.925135
vt 0.836154 0.931676
vt 0.589436 0.937895
vt 0.788591 0.794613
vt 0.795453 0.786006
vt 0.627468 0.792124
vt 0.635749 0.804387
vt 0.813945 0.913834
vt 0.516595 0.660507
vt 0.473782 0.928383
vt 0.450460 0.922126
vt 0.546805 0.698134
vt 0.535376 0.686865
vt 0.509695 0.932229
vt 0.488951 0.926963
vt 0.577135 0.735309
vt 0.564942 0.723316
vt 0.545210 0.950258
vt 0.524845 0.944022
vt 0.602423 0.766561
vt 0.593765 0.758273
vt 0.579047 0.938966
vt 0.556686 0.958386
vt 0.619639 0.785732
vt 0.888810 0.683711
vt 0.906272 0.663151
vt 0.875266 0.699437
vt 0.859323 0.717036
vt 0.844613 0.734225
vt 0.819710 0.762456
vt 0.830345 0.750059
vt 0.804209 0.776845
vt 0.955521 0.934317
vt 0.978302 0.927733
vt 0.920983 0.941817
vt 0.941289 0.936312
vt 0.882857 0.949817
vt 0.903267 0.943214
vt 0.845602 0.932127
vt 0.871216 0.958386
vt 0.803858 0.792721
vt 0.653244 0.915423
vt 0.651629 0.782265
vt 0.586286 0.720227
vt 0.632391 0.924686
vt 0.606061 0.953925
vt 0.642995 0.773904
vt 0.626814 0.759594
vt 0.647516 0.922516
vt 0.825546 0.777348
vt 0.853565 0.758870
vt 0.815371 0.786022
vt 0.814107 0.928170
vt 0.831817 0.946209
vt 0.799211 0.920539
vt 0.806529 0.927558
vt 0.826208 0.670886
vt 0.593827 0.678736
vt 0.573937 0.665415
vt 0.615438 0.805763
vt 0.608078 0.814047
vt 0.779429 0.820528
vt 0.771504 0.807267
vt 0.886047 0.953626
vt 0.947754 0.680842
vt 0.971337 0.688817
vt 0.856962 0.914189
vt 0.868149 0.926132
vt 0.911068 0.674501
vt 0.932039 0.681300
vt 0.827401 0.874962
vt 0.839477 0.887762
vt 0.875802 0.653472
vt 0.896284 0.661308
vt 0.804307 0.848913
vt 0.812991 0.858290
vt 0.836897 0.670341
vt 0.863913 0.643888
vt 0.787243 0.827730
vt 0.506386 0.921494
vt 0.487320 0.942114
vt 0.521015 0.905762
vt 0.538210 0.888293
vt 0.553954 0.871176
vt 0.582632 0.836276
vt 0.571440 0.847925
vt 0.598765 0.822708
vt 0.455039 0.662298
vt 0.431369 0.667505
vt 0.490744 0.656959
vt 0.469664 0.661211
vt 0.530161 0.651463
vt 0.508888 0.656755
vt 0.564336 0.664461
vt 0.541914 0.643888
vt 0.771375 0.864009
vt 0.631581 0.722596
vt 0.781522 0.728369
vt 0.832474 0.926586
vt 0.803506 0.718940
vt 0.832473 0.688827
vt 0.779482 0.872484
vt 0.795020 0.887185
vt 0.787909 0.721095
vt 0.593679 0.869870
vt 0.563155 0.888207
vt 0.617265 0.854445
vt 0.604861 0.861134
vt 0.616382 0.714451
vt 0.599014 0.695390
vt 0.624345 0.715155
vt 0.567724 0.985936
vt 0.986301 0.895362
vt 0.985847 0.987983
vt 0.987514 0.647487
vt 0.569011 0.723066
vt 0.569391 0.645440
vt 0.986754 0.802740
vt 0.568178 0.893314
vt 0.568631 0.800693
vt 0.568631 0.800693
vt 0.987134 0.725114
vt 0.986754 0.802740
vt 0.597917 0.567951
vt 0.625683 0.645715
vt 0.597537 0.645577
vt 0.597537 0.645577
vt 0.569771 0.567813
vt 0.597917 0.567951
vt 0.396387 0.309293
vt 0.778502 0.536737
vt 0.974038 0.612533
vt 0.874305 0.435515
vt 0.891401 0.432119
vt 0.942033 0.442175
vt 0.908832 0.432119
vt 0.925929 0.435515
vt 0.956527 0.451844
vt 0.968853 0.464151
vt 0.978537 0.478622
vt 0.988608 0.511771
vt 0.978537 0.562324
vt 0.988608 0.529175
vt 0.985207 0.546245
vt 0.968853 0.576795
vt 0.956527 0.589102
vt 0.942033 0.598771
vt 0.908832 0.608827
vt 0.858201 0.598771
vt 0.891401 0.608827
vt 0.874305 0.605431
vt 0.843707 0.589102
vt 0.831381 0.576795
vt 0.821697 0.562324
vt 0.811626 0.529175
vt 0.811626 0.511771
vt 0.815026 0.494701
vt 0.821697 0.478622
vt 0.831382 0.464150
vt 0.843707 0.451844
vt 0.858201 0.442175
vt 0.813648 0.528004
vt 0.813648 0.510998
vt 0.816971 0.494318
vt 0.823490 0.478607
vt 0.832952 0.464466
vt 0.874895 0.436485
vt 0.844996 0.452441
vt 0.859159 0.442993
vt 0.891601 0.433167
vt 0.908633 0.433167
vt 0.925339 0.436485
vt 0.941075 0.442993
vt 0.955237 0.452441
vt 0.967281 0.464466
vt 0.976744 0.478607
vt 0.986585 0.510998
vt 0.986585 0.528004
vt 0.983262 0.544684
vt 0.976744 0.560396
vt 0.967281 0.574536
vt 0.955237 0.586561
vt 0.941075 0.596010
vt 0.908633 0.605835
vt 0.891601 0.605835
vt 0.874895 0.602518
vt 0.859159 0.596010
vt 0.844996 0.586561
vt 0.832952 0.574536
vt 0.823490 0.560396
vt 0.824886 0.430031
vt 0.821062 0.498277
vt 0.827158 0.483582
vt 0.836008 0.470357
vt 0.847273 0.459110
vt 0.860519 0.450273
vt 0.875237 0.444186
vt 0.890861 0.441083
vt 0.906792 0.441083
vt 0.922416 0.444186
vt 0.961644 0.470357
vt 0.937134 0.450273
vt 0.950380 0.459110
vt 0.970495 0.483582
vt 0.976592 0.498277
vt 0.979699 0.513877
vt 0.976592 0.545383
vt 0.970495 0.560078
vt 0.961644 0.573304
vt 0.950380 0.584551
vt 0.937134 0.593388
vt 0.890861 0.602578
vt 0.922416 0.599474
vt 0.906792 0.602578
vt 0.875237 0.599474
vt 0.860519 0.593388
vt 0.847273 0.584551
vt 0.827158 0.560078
vt 0.821061 0.545383
vt 0.817954 0.529783
vt 0.817069 0.527906
vt 0.817069 0.512001
vt 0.820177 0.496400
vt 0.826274 0.481705
vt 0.835124 0.468480
vt 0.846389 0.457233
vt 0.859635 0.448396
vt 0.874353 0.442309
vt 0.905908 0.439206
vt 0.921532 0.442309
vt 0.936250 0.448396
vt 0.949496 0.457233
vt 0.960761 0.468480
vt 0.969611 0.481705
vt 0.975707 0.496400
vt 0.978815 0.527906
vt 0.960761 0.571427
vt 0.975707 0.543507
vt 0.969611 0.558202
vt 0.949496 0.582674
vt 0.936250 0.591511
vt 0.921532 0.597598
vt 0.889977 0.600701
vt 0.874353 0.597598
vt 0.859635 0.591511
vt 0.846389 0.582674
vt 0.835124 0.571427
vt 0.826274 0.558202
vt 0.820177 0.543507
vt 0.816977 0.426622
vt 0.817954 0.512742
vt 0.821061 0.497142
vt 0.827158 0.482447
vt 0.836008 0.469221
vt 0.847273 0.457974
vt 0.860519 0.449138
vt 0.875237 0.443051
vt 0.890861 0.439948
vt 0.906792 0.439948
vt 0.950380 0.457974
vt 0.922416 0.443051
vt 0.937134 0.449138
vt 0.961644 0.469221
vt 0.970495 0.482447
vt 0.976592 0.497142
vt 0.979699 0.528648
vt 0.976592 0.544248
vt 0.970495 0.558943
vt 0.961644 0.572168
vt 0.950380 0.583416
vt 0.906792 0.601442
vt 0.937134 0.592252
vt 0.922416 0.598339
vt 0.890861 0.601442
vt 0.875237 0.598339
vt 0.860519 0.592252
vt 0.836008 0.572168
vt 0.827158 0.558943
vt 0.821061 0.544248
vt 0.875237 0.442309
vt 0.890861 0.439206
vt 0.937134 0.448396
vt 0.906792 0.439206
vt 0.922416 0.442309
vt 0.950380 0.457233
vt 0.961644 0.468480
vt 0.970495 0.481705
vt 0.979699 0.512001
vt 0.979699 0.527906
vt 0.976592 0.543507
vt 0.970495 0.558202
vt 0.961644 0.571427
vt 0.950380 0.582674
vt 0.937134 0.591511
vt 0.906792 0.600701
vt 0.890861 0.600701
vt 0.875237 0.597598
vt 0.860519 0.591511
vt 0.847273 0.582674
vt 0.836008 0.571427
vt 0.827158 0.558202
vt 0.817954 0.527906
vt 0.817954 0.512001
vt 0.821062 0.496400
vt 0.827158 0.481705
vt 0.836008 0.468480
vt 0.847273 0.457233
vt 0.860519 0.448396
vt 0.809425 0.600850
vt 0.904562 0.494586
vt 0.815813 0.593457
vt 0.988604 0.593631
vt 0.893479 0.560566
vt 0.991844 0.456767
vt 0.823037 0.618796
vt 0.848842 0.602759
vt 0.816511 0.574841
vt 0.954304 0.442221
vt 0.994848 0.439518
vt 0.839658 0.580556
vt 0.936452 0.580556
vt 0.839658 0.580556
vt 0.936452 0.580556
vt 0.839658 0.580556
vt 0.936452 0.580556
vt 0.839658 0.580556
vt 0.936452 0.580556
vt 0.839658 0.580556
vt 0.936452 0.580556
vt 0.495549 0.037237
vt 0.811051 0.612762
vt 0.802831 0.689143
vt 0.568178 0.893315
vt 0.987134 0.725114
vt 0.986301 0.895362
vt 0.569011 0.723066
vt 0.626063 0.568089
vt 0.569391 0.645440
vt 0.000000 0.629327
vt 0.225514 0.500001
vt 0.225514 0.629327
vt 0.699050 0.000000
vt 0.759227 0.161301
vt 0.699050 0.161301
vt 0.759227 0.000001
vt 0.819343 0.161300
vt 0.759230 0.161301
vt 0.939808 0.584989
vt 1.000000 0.705831
vt 0.939808 0.705831
vt 0.939808 0.580897
vt 1.000000 0.458324
vt 1.000000 0.581435
vt 0.940098 0.385551
vt 0.879906 0.256223
vt 0.940098 0.248099
vt 0.879906 0.420133
vt 0.819574 0.248100
vt 0.879897 0.248099
vt 0.939805 0.581435
vt 0.879613 0.708567
vt 0.879613 0.581435
vt 0.879613 0.581435
vt 0.939808 0.420133
vt 0.939808 0.581435
vt 0.000000 1.000000
vt 0.225514 0.877427
vt 0.225514 1.000000
vt 0.879613 0.420133
vt 0.819346 0.592167
vt 0.819343 0.420134
vt 0.879535 0.248099
vt 0.819343 0.004738
vt 0.879535 0.000000
vt 0.458531 0.879158
vt 0.458531 0.627131
vt 0.458531 1.000000
vt 0.699048 0.879158
vt 0.699048 1.000000
vt 0.879777 0.161301
vt 0.940226 0.000001
vt 0.940226 0.161301
vt 0.759227 0.327968
vt 0.819340 0.500001
vt 0.759227 0.500001
vt 0.819343 0.327968
vt 0.699050 0.327969
vt 0.759227 0.500002
vt 0.699050 0.500002
vt 0.759227 0.327968
vt 0.699048 0.627131
vt 0.458531 0.500001
vt 0.000000 0.629327
vt 0.225514 0.500001
vt 0.225514 0.629327
vt 0.699050 0.000000
vt 0.759227 0.161301
vt 0.699050 0.161301
vt 0.759227 0.000001
vt 0.819343 0.161300
vt 0.759230 0.161301
vt 0.939808 0.584989
vt 1.000000 0.705831
vt 0.939808 0.705831
vt 0.939808 0.580897
vt 1.000000 0.458324
vt 1.000000 0.581435
vt 0.940098 0.385551
vt 0.879906 0.256223
vt 0.940098 0.248099
vt 0.879906 0.420133
vt 0.819574 0.248100
vt 0.879897 0.248099
vt 0.939805 0.581435
vt 0.879613 0.708567
vt 0.879613 0.581435
vt 0.879613 0.581435
vt 0.939808 0.420133
vt 0.939808 0.581435
vt 0.000000 1.000000
vt 0.225514 0.877427
vt 0.225514 1.000000
vt 0.879613 0.420133
vt 0.819346 0.592167
vt 0.819343 0.420134
vt 0.879535 0.248099
vt 0.819343 0.004738
vt 0.879535 0.000000
vt 0.458531 0.879158
vt 0.458531 0.627131
vt 0.458531 1.000000
vt 0.699048 0.879158
vt 0.699048 1.000000
vt 0.879777 0.161301
vt 0.940226 0.000001
vt 0.940226 0.161301
vt 0.759227 0.327968
vt 0.819340 0.500001
vt 0.759227 0.500001
vt 0.819343 0.327968
vt 0.699050 0.327969
vt 0.759227 0.500002
vt 0.699050 0.500002
vt 0.759227 0.327968
vt 0.699048 0.627131
vt 0.458531 0.500001
vt 0.000000 0.629327
vt 0.225514 0.500001
vt 0.225514 0.629327
vt 0.699050 0.000000
vt 0.759227 0.161301
vt 0.699050 0.161301
vt 0.759227 0.000001
vt 0.819343 0.161300
vt 0.759230 0.161301
vt 0.939808 0.584989
vt 1.000000 0.705831
vt 0.939808 0.705831
vt 0.939808 0.580897
vt 1.000000 0.458324
vt 1.000000 0.581435
vt 0.940098 0.385551
vt 0.879906 0.256223
vt 0.940098 0.248099
vt 0.879906 0.420133
vt 0.819574 0.248100
vt 0.879897 0.248099
vt 0.939805 0.581435
vt 0.879613 0.708567
vt 0.879613 0.581435
vt 0.879613 0.581435
vt 0.939808 0.420133
vt 0.939808 0.581435
vt 0.000000 1.000000
vt 0.225514 0.877427
vt 0.225514 1.000000
vt 0.879613 0.420133
vt 0.819346 0.592167
vt 0.819343 0.420134
vt 0.879535 0.248099
vt 0.819343 0.004738
vt 0.879535 0.000000
vt 0.458531 0.879158
vt 0.458531 0.627131
vt 0.458531 1.000000
vt 0.699048 0.879158
vt 0.699048 1.000000
vt 0.879777 0.161301
vt 0.940226 0.000001
vt 0.940226 0.161301
vt 0.759227 0.327968
vt 0.819340 0.500001
vt 0.759227 0.500001
vt 0.819343 0.327968
vt 0.699050 0.327969
vt 0.759227 0.500002
vt 0.699050 0.500002
vt 0.759227 0.327968
vt 0.699048 0.627131
vt 0.458531 0.500001
vt 0.000000 0.629327
vt 0.225514 0.500001
vt 0.225514 0.629327
vt 0.699050 0.000000
vt 0.759227 0.161301
vt 0.699050 0.161301
vt 0.759227 0.000001
vt 0.819343 0.161300
vt 0.759230 0.161301
vt 0.939808 0.584989
vt 1.000000 0.705831
vt 0.939808 0.705831
vt 0.939808 0.580897
vt 1.000000 0.458324
vt 1.000000 0.581435
vt 0.940098 0.385551
vt 0.879906 0.256223
vt 0.940098 0.248099
vt 0.879906 0.420133
vt 0.819574 0.248100
vt 0.879897 0.248099
vt 0.939805 0.581435
vt 0.879613 0.708567
vt 0.879613 0.581435
vt 0.879613 0.581435
vt 0.939808 0.420133
vt 0.939808 0.581435
vt 0.000000 1.000000
vt 0.225514 0.877427
vt 0.225514 1.000000
vt 0.879613 0.420133
vt 0.819346 0.592167
vt 0.819343 0.420134
vt 0.879535 0.248099
vt 0.819343 0.004738
vt 0.879535 0.000000
vt 0.458531 0.879158
vt 0.458531 0.627131
vt 0.458531 1.000000
vt 0.699048 0.879158
vt 0.699048 1.000000
vt 0.879777 0.161301
vt 0.940226 0.000001
vt 0.940226 0.161301
vt 0.759227 0.327968
vt 0.819340 0.500001
vt 0.759227 0.500001
vt 0.819343 0.327968
vt 0.699050 0.327969
vt 0.759227 0.500002
vt 0.699050 0.500002
vt 0.759227 0.327968
vt 0.699048 0.627131
vt 0.458531 0.500001
vt 0.000000 0.629327
vt 0.225514 0.500001
vt 0.225514 0.629327
vt 0.699050 0.000000
vt 0.759227 0.161301
vt 0.699050 0.161301
vt 0.759227 0.000001
vt 0.819343 0.161300
vt 0.759230 0.161301
vt 0.939808 0.584989
vt 1.000000 0.705831
vt 0.939808 0.705831
vt 0.939808 0.580897
vt 1.000000 0.458324
vt 1.000000 0.581435
vt 0.940098 0.385551
vt 0.879906 0.256223
vt 0.940098 0.248099
vt 0.879906 0.420133
vt 0.819574 0.248100
vt 0.879897 0.248099
vt 0.939805 0.581435
vt 0.879613 0.708567
vt 0.879613 0.581435
vt 0.879613 0.581435
vt 0.939808 0.420133
vt 0.939808 0.581435
vt 0.000000 1.000000
vt 0.225514 0.877427
vt 0.225514 1.000000
vt 0.879613 0.420133
vt 0.819346 0.592167
vt 0.819343 0.420134
vt 0.879535 0.248099
vt 0.819343 0.004738
vt 0.879535 0.000000
vt 0.458531 0.879158
vt 0.458531 0.627131
vt 0.458531 1.000000
vt 0.699048 0.879158
vt 0.699048 1.000000
vt 0.879777 0.161301
vt 0.940226 0.000001
vt 0.940226 0.161301
vt 0.759227 0.327968
vt 0.819340 0.500001
vt 0.759227 0.500001
vt 0.819343 0.327968
vt 0.699050 0.327969
vt 0.759227 0.500002
vt 0.699050 0.500002
vt 0.759227 0.327968
vt 0.699048 0.627131
vt 0.458531 0.500001
vt 0.000000 0.500001
vt 0.759227 0.000000
vt 0.819343 0.000000
vt 1.000000 0.581435
vt 0.939808 0.458324
vt 0.879906 0.385551
vt 0.819343 0.420133
vt 0.939805 0.714867
vt 0.879613 0.420134
vt 0.000000 0.877427
vt 0.879613 0.592167
vt 0.819343 0.247562
vt 0.879535 0.000000
vt 0.000000 0.500001
vt 0.759227 0.000000
vt 0.819343 0.000000
vt 1.000000 0.581435
vt 0.939808 0.458324
vt 0.879906 0.385551
vt 0.819343 0.420133
vt 0.939805 0.714867
vt 0.879613 0.420134
vt 0.000000 0.877427
vt 0.879613 0.592167
vt 0.819343 0.247562
vt 0.879535 0.000000
vt 0.000000 0.500001
vt 0.759227 0.000000
vt 0.819343 0.000000
vt 1.000000 0.581435
vt 0.939808 0.458324
vt 0.879906 0.385551
vt 0.819343 0.420133
vt 0.939805 0.714867
vt 0.879613 0.420134
vt 0.000000 0.877427
vt 0.879613 0.592167
vt 0.819343 0.247562
vt 0.879535 0.000000
vt 0.000000 0.500001
vt 0.759227 0.000000
vt 0.819343 0.000000
vt 1.000000 0.581435
vt 0.939808 0.458324
vt 0.879906 0.385551
vt 0.819343 0.420133
vt 0.939805 0.714867
vt 0.879613 0.420134
vt 0.000000 0.877427
vt 0.879613 0.592167
vt 0.819343 0.247562
vt 0.879535 0.000000
vt 0.000000 0.500001
vt 0.759227 0.000000
vt 0.819343 0.000000
vt 1.000000 0.581435
vt 0.939808 0.458324
vt 0.879906 0.385551
vt 0.819343 0.420133
vt 0.939805 0.714867
vt 0.879613 0.420134
vt 0.000000 0.877427
vt 0.879613 0.592167
vt 0.819343 0.247562
vt 0.879535 0.000000
vt 0.758241 0.648965
vt 0.726211 0.643974
vt 0.729723 0.639887
vt 0.758310 0.640112
vt 0.659541 0.666755
vt 0.659471 0.675608
vt 0.630884 0.675382
vt 0.627437 0.671240
vt 0.624890 0.894755
vt 0.984335 0.856370
vt 0.984010 0.897587
vt 0.626589 0.679272
vt 0.985740 0.678181
vt 0.985709 0.682104
vt 0.625706 0.791296
vt 0.984889 0.786129
vt 0.984826 0.794127
vt 0.626302 0.715758
vt 0.985611 0.694559
vt 0.985422 0.718590
vt 0.624525 0.940987
vt 0.983971 0.902602
vt 0.983646 0.943819
vt 0.983321 0.985035
vt 0.624161 0.987219
vt 0.624200 0.982203
vt 0.728193 0.668430
vt 0.758081 0.669142
vt 0.727879 0.671612
vt 0.663990 0.643292
vt 0.692608 0.639594
vt 0.692551 0.646837
vt 0.625769 0.783298
vt 0.984947 0.778888
vt 0.624851 0.899770
vt 0.984010 0.897587
vt 0.662655 0.647078
vt 0.692488 0.654837
vt 0.659700 0.646578
vt 0.629541 0.643632
vt 0.631139 0.643033
vt 0.729467 0.672236
vt 0.629804 0.646819
vt 0.659637 0.654578
vt 0.985067 0.763648
vt 0.625883 0.768814
vt 0.625946 0.760816
vt 0.985162 0.751473
vt 0.626015 0.752158
vt 0.626042 0.748641
vt 0.660288 0.671499
vt 0.692455 0.659085
vt 0.692420 0.663496
vt 0.659603 0.658826
vt 0.626842 0.647220
vt 0.758178 0.656895
vt 0.725237 0.667982
vt 0.659569 0.663237
vt 0.985422 0.718590
vt 0.626112 0.739790
vt 0.626302 0.715759
vt 0.983646 0.943819
vt 0.624525 0.940987
vt 0.758213 0.652483
vt 0.758144 0.661143
vt 0.985709 0.682104
vt 0.626558 0.683195
vt 0.626589 0.679272
vt 0.625610 0.803471
vt 0.984758 0.802785
vt 0.984730 0.806303
vt 0.725389 0.648706
vt 0.693360 0.643715
vt 0.696872 0.639628
vt 0.725459 0.639853
vt 0.692392 0.667015
vt 0.692322 0.675867
vt 0.663734 0.675641
vt 0.626907 0.639076
vt 0.986051 0.638716
vt 0.986027 0.641908
vt 0.986051 0.638716
vt 0.626957 0.632692
vt 0.986077 0.635524
vt 0.625672 0.795543
vt 0.984793 0.798375
vt 0.625215 0.853538
vt 0.984660 0.815154
vt 0.984335 0.856370
vt 0.625638 0.799954
vt 0.626525 0.687461
vt 0.985679 0.686027
vt 0.985645 0.690293
vt 0.659757 0.639335
vt 0.758024 0.676385
vt 0.729437 0.676160
vt 0.625540 0.812322
vt 0.984660 0.815154
vt 0.696616 0.671977
vt 0.725173 0.676126
vt 0.696586 0.675901
vt 0.695342 0.668171
vt 0.725230 0.668883
vt 0.695028 0.671353
vt 0.662392 0.643892
vt 0.725327 0.656636
vt 0.692386 0.667723
vt 0.985100 0.759401
vt 0.625980 0.756569
vt 0.986095 0.633227
vt 0.626957 0.632692
vt 0.626975 0.630395
vt 0.659693 0.647479
vt 0.986113 0.630930
vt 0.626975 0.630395
vt 0.626993 0.628098
vt 0.985232 0.742622
vt 0.626112 0.739790
vt 0.725362 0.652224
vt 0.725293 0.660883
vt 0.985645 0.690293
vt 0.626491 0.691727
vt 0.626525 0.687461
vt 0.985004 0.771646
vt 0.625826 0.776056
vt 0.985135 0.754990
vt 0.788659 0.975337
vt 0.940039 0.823682
vt 0.940176 0.975199
vt 0.637005 0.823957
vt 0.788659 0.975337
vt 0.637142 0.975474
vt 0.485349 0.672577
vt 0.637004 0.823957
vt 0.485487 0.824094
vt 0.636730 0.520922
vt 0.788384 0.672302
vt 0.636867 0.672439
vt 0.637005 0.823957
vt 0.485624 0.975611
vt 0.485487 0.824094
vt 0.783808 0.967752
vt 0.927012 0.826107
vt 0.926233 0.968532
vt 0.642942 0.682122
vt 0.501297 0.538917
vt 0.643722 0.539697
vt 0.498957 0.966193
vt 0.642163 0.824547
vt 0.641383 0.966972
vt 0.642163 0.824547
vt 0.783808 0.967752
vt 0.641383 0.966972
vt 0.786147 0.540477
vt 0.642942 0.682122
vt 0.643722 0.539697
vt 0.500517 0.681342
vt 0.642162 0.824547
vt 0.499737 0.823768
vt 0.652825 0.971694
vt 0.812092 0.812106
vt 0.812252 0.971533
vt 0.510169 0.512803
vt 0.668817 0.669022
vt 0.511384 0.670236
vt 0.812092 0.812106
vt 0.971358 0.652518
vt 0.971519 0.811945
vt 0.493398 0.971855
vt 0.652665 0.812267
vt 0.652825 0.971694
vt 0.671245 0.983888
vt 0.827464 0.825240
vt 0.828678 0.982673
vt 0.512598 0.827669
vt 0.668817 0.669022
vt 0.670031 0.826455
vt 0.492916 0.493573
vt 0.652504 0.652840
vt 0.493077 0.653000
vt 0.984897 0.824026
vt 0.986111 0.981459
vt 0.826250 0.667808
vt 0.670031 0.826455
vt 0.812252 0.971533
vt 0.971519 0.811945
vt 0.971679 0.971373
vt 0.670031 0.826455
vt 0.513812 0.985102
vt 0.512598 0.827669
vt 0.493077 0.653000
vt 0.652665 0.812267
vt 0.493238 0.812427
vt 0.636867 0.672439
vt 0.788522 0.823819
vt 0.637005 0.823957
vt 0.670594 0.612885
vt 0.704146 0.633969
vt 0.670567 0.633926
vt 0.603356 0.675923
vt 0.983584 0.697449
vt 0.603329 0.696965
vt 0.983396 0.845493
vt 0.603235 0.770987
vt 0.983490 0.771471
vt 0.670567 0.633926
vt 0.637015 0.612842
vt 0.670594 0.612885
vt 0.983490 0.771471
vt 0.603329 0.696965
vt 0.983584 0.697449
vt 0.636988 0.633883
vt 0.603436 0.612799
vt 0.637015 0.612842
vt 0.983301 0.919515
vt 0.603141 0.845009
vt 0.983396 0.845493
vt 0.603383 0.654882
vt 0.983611 0.676407
vt 0.603356 0.675923
vt 0.983207 0.993538
vt 0.603047 0.919032
vt 0.983301 0.919515
vt 0.603410 0.633841
vt 0.983638 0.655366
vt 0.603383 0.654882
vt 0.625215 0.853539
vt 0.626620 0.675349
vt 0.626491 0.691727
vt 0.983281 0.990050
vt 0.664021 0.639369
vt 0.625826 0.776056
vt 0.624890 0.894755
vt 0.985232 0.742621
vt 0.985678 0.686027
vt 0.626931 0.635884
vt 0.626931 0.635884
vt 0.625540 0.812322
vt 0.626558 0.683195
vt 0.631170 0.639109
vt 0.986077 0.635524
vt 0.986095 0.633227
vt 0.985611 0.694559
vt 0.984947 0.778888
vt 0.788522 0.823819
vt 0.788522 0.823819
vt 0.636867 0.672439
vt 0.788247 0.520785
vt 0.637142 0.975474
vt 0.784588 0.825327
vt 0.500517 0.681342
vt 0.499737 0.823768
vt 0.784588 0.825327
vt 0.785367 0.682902
vt 0.642942 0.682122
vt 0.652665 0.812267
vt 0.667602 0.511589
vt 0.811931 0.652679
vt 0.493238 0.812427
vt 0.670031 0.826455
vt 0.511384 0.670236
vt 0.652343 0.493413
vt 0.827464 0.825240
vt 0.827464 0.825240
vt 0.812092 0.812106
vt 0.671245 0.983888
vt 0.652504 0.652840
vt 0.788384 0.672302
vt 0.704173 0.612928
vt 0.983611 0.676407
vt 0.603141 0.845009
vt 0.636988 0.633883
vt 0.603235 0.770987
vt 0.603410 0.633841
vt 0.603047 0.919032
vt 0.983638 0.655366
vt 0.602952 0.993054
vt 0.983664 0.634324
vn 1.0000 -0.0000 0.0000
vn 1.0000 -0.0000 0.0001
vn -1.0000 0.0000 -0.0000
vn -1.0000 0.0000 -0.0001
vn 0.0000 1.0000 0.0000
vn 0.0000 0.0000 -1.0000
vn 0.0000 -1.0000 -0.0000
vn 0.0000 -0.0000 1.0000
vn 0.0001 -0.4714 0.8819
vn 0.0000 -0.4714 0.8819
vn -0.0001 0.7730 -0.6344
vn -0.0001 0.7731 -0.6343
vn 0.0000 -0.2903 0.9569
vn 0.0001 -0.2903 0.9569
vn -0.0001 0.6344 -0.7730
vn 0.0000 -0.0980 0.9952
vn 0.0000 -0.0981 0.9952
vn -0.0001 0.4714 -0.8819
vn -0.0000 0.4714 -0.8819
vn -0.0000 0.0981 0.9952
vn -0.0000 0.0980 0.9952
vn -0.0000 0.2903 -0.9569
vn -0.0001 0.2904 -0.9569
vn -0.0000 0.2903 0.9569
vn -0.0000 0.0981 -0.9952
vn -0.0000 0.0980 -0.9952
vn -0.0001 0.4714 0.8819
vn -0.0001 0.4715 0.8819
vn 0.0000 -0.0980 -0.9952
vn 0.0000 -0.0981 -0.9952
vn -0.0001 0.6344 0.7730
vn 0.0001 -0.2903 -0.9569
vn -0.0001 0.7730 0.6344
vn -0.0001 0.7730 0.6345
vn 0.0001 -0.4714 -0.8819
vn 0.0001 -0.4715 -0.8819
vn -0.0001 0.8819 0.4715
vn -0.0001 0.8819 0.4714
vn 0.0001 -0.9952 0.0980
vn 0.0002 -0.9952 0.0979
vn 0.0001 -0.9952 0.0981
vn 0.0001 -0.6344 -0.7730
vn 0.0001 -0.6343 -0.7731
vn -0.0002 0.9570 0.2901
vn -0.0001 0.9570 0.2902
vn -0.0002 0.9569 0.2905
vn 0.0004 -0.9569 0.2903
vn 0.0004 -0.9569 0.2904
vn 0.0006 -0.9569 0.2903
vn 0.0001 -0.7730 -0.6344
vn 0.0001 -0.7731 -0.6343
vn -0.0002 0.9952 0.0981
vn 0.0001 -0.8820 0.4713
vn 0.0001 -0.8819 0.4714
vn 0.0002 -0.8820 0.4713
vn 0.0001 -0.8820 -0.4713
vn 0.0001 -0.8819 -0.4714
vn 0.0001 -0.8819 -0.4715
vn -0.0002 0.9952 -0.0981
vn 0.0001 -0.7730 0.6344
vn 0.0001 -0.7729 0.6345
vn 0.0004 -0.9569 -0.2903
vn 0.0004 -0.9569 -0.2904
vn -0.0002 0.9570 -0.2901
vn -0.0001 0.9570 -0.2902
vn -0.0001 0.9569 -0.2903
vn 0.0001 -0.6344 0.7730
vn 0.0001 -0.9952 -0.0980
vn 0.0002 -0.9952 -0.0979
vn 0.0002 -0.9952 -0.0978
vn -0.0001 0.8819 -0.4715
vn -1.0000 -0.0020 -0.0000
vn 1.0000 0.0020 -0.0000
vn 1.0000 0.0020 0.0001
vn 0.0001 -0.4716 0.8818
vn 0.0000 -0.2901 0.9570
vn -0.0002 0.6345 -0.7730
vn -0.0001 0.4713 -0.8820
vn -0.0000 0.2901 -0.9570
vn -0.0000 0.2901 0.9570
vn -0.0001 0.4716 0.8818
vn -0.0001 0.4715 0.8818
vn -0.0001 0.6343 0.7731
vn 0.0000 -0.2901 -0.9570
vn -0.0001 0.8820 0.4713
vn 0.0002 -0.9952 0.0980
vn -0.0001 0.9569 0.2904
vn 0.0001 -0.9569 0.2904
vn 0.0003 -0.9570 0.2901
vn -0.0001 0.9952 0.0981
vn 0.0003 -0.8818 -0.4716
vn -0.0001 0.9952 -0.0981
vn 0.0001 -0.7730 0.6345
vn 0.0003 -0.9570 -0.2900
vn 0.0003 -0.9570 -0.2902
vn -0.0004 0.9570 -0.2901
vn -0.0003 0.9570 -0.2902
vn 0.0001 -0.6343 0.7731
vn 0.0002 -0.9952 -0.0980
vn 0.0003 -0.9952 -0.0978
vn -0.0001 0.8820 -0.4713
vn -1.0000 -0.0019 0.0001
vn -1.0000 -0.0019 -0.0000
vn -1.0000 -0.0021 0.0000
vn 1.0000 0.0019 0.0000
vn 1.0000 0.0020 -0.0001
vn 0.0001 -0.2902 0.9570
vn -0.0001 0.2906 -0.9569
vn -0.0000 0.2906 0.9569
vn 0.0001 -0.2902 -0.9570
vn 0.0001 -0.4713 -0.8820
vn -0.0002 0.8819 0.4714
vn -0.0002 0.8820 0.4713
vn 0.0001 -0.6347 -0.7728
vn 0.0001 -0.6346 -0.7729
vn -0.0002 0.9569 0.2903
vn 0.0004 -0.9570 0.2900
vn -0.0001 0.9952 -0.0980
vn 0.0002 -0.9570 -0.2900
vn 0.0004 -0.9570 -0.2900
vn -0.0002 0.9569 -0.2904
vn -0.0002 0.9569 -0.2903
vn -0.0001 0.9569 -0.2905
vn 0.0002 -0.6347 0.7728
vn -0.0002 0.8819 -0.4714
vn -0.0001 0.8819 -0.4714
vn -0.0003 0.8820 -0.4713
vn 1.0000 0.0019 -0.0001
vn -0.8272 0.5620 0.0000
vn -0.8230 -0.5680 -0.0048
vn -0.8228 -0.5683 -0.0018
vn -0.8231 -0.5679 -0.0065
vn 0.8215 0.5702 0.0000
vn 0.0021 -1.0000 -0.0000
vn 0.0000 0.9945 -0.1046
vn -0.0043 -0.0022 -1.0000
vn -0.0000 -0.0057 -1.0000
vn 0.0002 -0.0056 -1.0000
vn 0.8102 -0.5861 0.0095
vn 0.0008 -0.0040 -1.0000
vn -0.0077 0.0008 -1.0000
vn -0.0010 -0.0042 -1.0000
vn 0.0000 0.9996 0.0284
vn 0.0000 -0.9997 -0.0259
vn 0.0000 0.0234 -0.9997
vn 0.9997 -0.0008 0.0256
vn 0.0398 0.0303 -0.9987
vn 0.9999 0.0004 -0.0129
vn 0.0722 0.0297 -0.9969
vn 0.9989 -0.0013 0.0468
vn -0.0215 0.0269 -0.9994
vn 1.0000 -0.0002 0.0081
vn -0.0354 0.0246 -0.9991
vn -0.0000 -1.0000 -0.0072
vn -0.0000 -1.0000 -0.0071
vn -0.0000 -0.0239 -0.9997
vn -0.0000 -0.0238 -0.9997
vn 0.0000 -0.9994 -0.0354
vn 0.0000 -0.0682 -0.9977
vn 0.0000 -1.0000 0.0085
vn 0.0000 0.0562 -0.9984
vn 0.0000 -0.9998 -0.0201
vn 0.0000 0.0727 -0.9974
vn -0.9997 -0.0008 0.0257
vn -0.0428 0.0290 -0.9987
vn -0.0489 0.0285 -0.9984
vn -0.0392 0.0293 -0.9988
vn -0.9999 0.0004 -0.0129
vn -0.0745 0.0278 -0.9968
vn -0.0803 0.0272 -0.9964
vn -0.0711 0.0282 -0.9971
vn -0.9989 -0.0013 0.0468
vn 0.0215 0.0269 -0.9994
vn -1.0000 -0.0002 0.0080
vn 0.0354 0.0246 -0.9991
vn 0.0000 0.9996 0.0289
vn 0.0000 -0.3336 -0.9427
vn -0.0000 -0.3335 -0.9428
vn -0.0167 0.0171 -0.9997
vn 1.0000 -0.0001 0.0054
vn 0.0539 0.0213 -0.9983
vn 0.9999 0.0003 -0.0159
vn 0.9999 0.0003 -0.0164
vn 0.9999 0.0003 -0.0158
vn -0.0003 -1.0000 -0.0082
vn -0.0002 -1.0000 -0.0093
vn -0.0001 -1.0000 -0.0099
vn -0.0235 -0.0854 -0.9961
vn -0.0003 -0.9998 -0.0197
vn -0.0003 -0.9999 -0.0158
vn -0.0004 -0.9999 -0.0134
vn -0.9999 0.0004 -0.0171
vn 0.0200 0.0213 -0.9996
vn -0.9717 0.0043 -0.2361
vn -0.9726 0.0045 -0.2323
vn -0.9732 0.0046 -0.2300
vn 0.0001 0.9999 0.0118
vn -0.0111 -0.8844 -0.4666
vn -0.0024 0.9971 -0.0758
vn -0.0106 -0.9995 0.0283
vn 0.9998 -0.0178 -0.0000
vn 0.9998 -0.0178 0.0001
vn 0.0106 0.9996 -0.0259
vn 0.0106 0.9996 -0.0260
vn -0.9998 0.0178 0.0001
vn -0.9998 0.0178 0.0002
vn -0.0002 -0.0234 -0.9997
vn -0.9995 0.0186 0.0255
vn -0.0403 -0.0296 -0.9987
vn -0.9998 0.0174 -0.0128
vn -0.9998 0.0174 -0.0129
vn -0.0726 -0.0284 -0.9970
vn -0.9987 0.0190 0.0469
vn -0.9987 0.0190 0.0468
vn 0.0212 -0.0273 -0.9994
vn -0.9998 0.0180 0.0080
vn 0.0351 -0.0253 -0.9991
vn 0.0115 0.9999 -0.0071
vn 0.0115 0.9999 -0.0070
vn 0.0003 0.0238 -0.9997
vn 0.0003 0.0239 -0.9997
vn 0.0113 0.9993 -0.0355
vn 0.0008 0.0680 -0.9977
vn 0.0008 0.0684 -0.9977
vn 0.0111 0.9999 0.0085
vn 0.0110 0.9999 0.0086
vn -0.0006 -0.0564 -0.9984
vn -0.0006 -0.0560 -0.9984
vn 0.0108 0.9997 -0.0201
vn 0.0108 0.9997 -0.0200
vn -0.0008 -0.0729 -0.9973
vn -0.0008 -0.0727 -0.9974
vn 0.9995 -0.0170 0.0256
vn 0.0424 -0.0297 -0.9987
vn 0.0485 -0.0294 -0.9984
vn 0.0387 -0.0300 -0.9988
vn 0.9998 -0.0182 -0.0128
vn 0.0742 -0.0291 -0.9968
vn 0.0799 -0.0286 -0.9964
vn 0.0707 -0.0294 -0.9971
vn 0.9988 -0.0165 0.0468
vn -0.0219 -0.0266 -0.9994
vn 0.9998 -0.0176 0.0080
vn -0.0357 -0.0240 -0.9991
vn -0.0108 -0.9995 0.0289
vn 0.0038 0.3537 -0.9353
vn 0.0167 -0.0174 -0.9997
vn -0.9998 0.0179 0.0053
vn -0.0542 -0.0203 -0.9983
vn -0.9997 0.0175 -0.0158
vn -0.9997 0.0175 -0.0162
vn -0.9997 0.0175 -0.0159
vn 0.0104 0.9999 -0.0080
vn 0.0104 0.9999 -0.0091
vn 0.0103 0.9999 -0.0099
vn 0.0245 0.0849 -0.9961
vn 0.0101 0.9998 -0.0193
vn 0.0102 0.9998 -0.0152
vn 0.0102 0.9999 -0.0124
vn 0.9997 -0.0182 -0.0171
vn -0.0203 -0.0209 -0.9996
vn 0.9715 -0.0215 -0.2361
vn 0.9724 -0.0218 -0.2323
vn 0.9729 -0.0219 -0.2300
vn -0.0103 -0.9999 0.0118
vn 0.0218 0.8290 -0.5588
vn -0.0074 -0.9970 -0.0767
vn 0.0001 -0.4715 0.8819
vn -0.0001 0.7730 -0.6345
vn -0.0001 0.4715 -0.8819
vn -0.0001 0.2903 0.9569
vn -0.0000 0.4714 0.8819
vn -0.0001 0.7731 0.6343
vn 0.0002 -0.9952 0.0978
vn -0.0001 0.9569 0.2903
vn 0.0001 -0.7730 -0.6345
vn 0.0004 -0.8819 0.4714
vn 0.0002 -0.8820 -0.4713
vn 0.0001 -0.7731 0.6343
vn 0.0006 -0.9569 -0.2903
vn -0.0002 0.9569 -0.2905
vn 0.0001 -0.9952 -0.0981
vn -1.0000 -0.0022 0.0000
vn -1.0000 -0.0020 0.0001
vn -1.0000 -0.0021 -0.0002
vn -1.0000 -0.0021 0.0002
vn -1.0000 -0.0019 -0.0001
vn -1.0000 -0.0019 0.0004
vn -1.0000 -0.0020 -0.0001
vn -1.0000 -0.0018 0.0000
vn 1.0000 0.0023 -0.0000
vn 1.0000 0.0018 -0.0000
vn 1.0000 0.0021 0.0001
vn 1.0000 0.0021 0.0000
vn 1.0000 0.0018 0.0001
vn 1.0000 0.0021 -0.0001
vn 1.0000 0.0019 0.0004
vn -0.0001 0.6343 -0.7731
vn -0.0002 0.6345 0.7730
vn 0.0003 -0.9952 0.0978
vn 0.0002 -0.9570 0.2901
vn -0.0003 0.8818 -0.4715
vn -1.0000 -0.0019 -0.0002
vn -1.0000 -0.0019 0.0002
vn 1.0000 0.0016 0.0001
vn 1.0000 0.0017 -0.0000
vn 1.0000 0.0016 -0.0001
vn 1.0000 0.0019 0.0001
vn 1.0000 0.0022 -0.0000
vn 1.0000 0.0021 0.0002
vn 1.0000 0.0020 -0.0002
vn 1.0000 0.0020 -0.0003
vn 0.0001 -0.9569 -0.2905
vn 0.0002 -0.6346 0.7729
vn -0.0002 0.8820 -0.4713
vn -1.0000 -0.0017 -0.0001
vn -1.0000 -0.0022 0.0001
vn -1.0000 -0.0017 0.0000
vn -1.0000 -0.0018 -0.0001
vn -1.0000 -0.0021 0.0001
vn -1.0000 -0.0021 -0.0001
vn -1.0000 -0.0017 0.0001
vn 1.0000 0.0025 0.0000
vn 1.0000 0.0021 -0.0002
vn 1.0000 0.0022 -0.0004
vn 1.0000 0.0016 0.0000
vn 1.0000 0.0018 -0.0001
vn 1.0000 0.0020 0.0002
vn 1.0000 0.0022 -0.0001
vn -0.8071 0.5590 -0.1900
vn -0.8227 -0.5684 -0.0000
vn 0.8137 0.5725 0.1011
vn 0.0003 -0.0051 -1.0000
vn 0.7963 -0.5909 0.1290
vn 0.0030 -0.0028 -1.0000
vn 0.0000 -0.9997 -0.0260
vn 0.0466 0.0297 -0.9985
vn 0.0984 0.0268 -0.9948
vn 0.0053 0.0247 -0.9997
vn -0.0165 0.0234 -0.9996
vn -0.0526 0.0282 -0.9982
vn -0.0838 0.0268 -0.9961
vn -0.0054 0.0247 -0.9997
vn 0.0165 0.0234 -0.9996
vn -0.0000 -0.3337 -0.9427
vn 0.0683 0.0198 -0.9975
vn 0.9999 0.0003 -0.0167
vn -0.0003 -1.0000 -0.0074
vn -0.0306 0.0687 -0.9972
vn -0.0002 -0.9998 -0.0223
vn -0.0016 0.0198 -0.9998
vn -0.9711 0.0041 -0.2385
vn 0.0003 1.0000 0.0091
vn -0.0018 0.9983 -0.0580
vn -0.0019 0.9946 -0.1033
vn -0.9998 0.0178 -0.0001
vn -0.9995 0.0186 0.0257
vn -0.0470 -0.0289 -0.9985
vn -0.0987 -0.0250 -0.9948
vn -0.0057 -0.0246 -0.9997
vn 0.0162 -0.0236 -0.9996
vn 0.0008 0.0679 -0.9977
vn -0.0008 -0.0724 -0.9974
vn 0.0522 -0.0291 -0.9982
vn 0.9998 -0.0181 -0.0129
vn 0.0835 -0.0283 -0.9961
vn 0.0051 -0.0248 -0.9997
vn -0.0168 -0.0231 -0.9996
vn 0.0033 0.3144 -0.9493
vn -0.0686 -0.0186 -0.9975
vn -0.9997 0.0175 -0.0165
vn 0.0105 0.9999 -0.0074
vn 0.0301 -0.0697 -0.9971
vn 0.0101 0.9997 -0.0225
vn 0.0013 -0.0199 -0.9998
vn 0.9709 -0.0214 -0.2385
vn -0.0105 -0.9999 0.0090
vn -0.0092 -0.9997 -0.0207
vn -0.0079 -0.9946 -0.1035
vn 0.9970 0.0000 0.0772
vn -0.9999 -0.0000 0.0142
vn -0.9956 0.0000 0.0940
vn 0.9922 0.0000 0.1250
vn 0.9860 0.0222 0.1652
vn 0.9772 -0.0235 0.2111
vn 0.9989 -0.0000 0.0470
vn 0.6343 -0.0000 0.7731
vn 0.0017 -1.0000 -0.0000
vn -0.6343 -0.0011 0.7731
vn -0.6342 -0.0011 0.7731
vn -0.9989 -0.0017 0.0470
vn -0.0017 1.0000 0.0000
vn 0.9916 -0.0000 0.1296
vn -0.9916 -0.0017 0.1296
vn 0.0990 0.0000 -0.9951
vn 0.0989 0.0000 -0.9951
vn 0.0017 -1.0000 0.0001
vn -0.2576 -0.0004 -0.9662
vn -0.2574 -0.0004 -0.9663
vn 0.2574 0.0000 -0.9663
vn -0.0991 -0.0002 -0.9951
vn -0.2573 -0.0004 -0.9663
s 1
f 1/1/1 2/2/2 3/3/2
f 4/4/3 5/5/4 6/6/4
f 3/3/5 7/7/5 4/4/5
f 8/8/6 7/9/6 2/10/6
f 1/1/7 5/5/7 8/11/7
f 6/12/8 3/13/8 4/14/8
f 9/15/9 10/16/9 11/17/10
f 12/18/11 13/19/11 14/20/12
f 11/17/13 15/21/13 16/22/14
f 17/23/15 14/20/15 18/24/15
f 16/22/16 19/25/17 20/26/16
f 21/27/18 18/24/18 22/28/19
f 20/26/20 23/29/21 24/30/20
f 25/31/22 22/28/22 26/32/23
f 24/30/24 27/33/24 28/34/24
f 29/35/25 26/32/26 30/36/26
f 28/37/27 31/38/27 32/39/28
f 33/40/29 30/36/30 34/41/30
f 32/39/31 35/42/31 36/43/31
f 37/44/32 34/41/32 38/45/32
f 36/43/33 39/46/33 40/47/34
f 41/48/35 38/45/36 42/49/36
f 40/47/37 43/50/37 44/51/38
f 45/52/39 46/53/40 47/54/41
f 48/55/42 42/49/42 49/56/43
f 44/51/44 50/57/45 51/58/46
f 47/54/47 52/59/48 53/60/49
f 54/61/50 49/56/50 55/62/51
f 51/58/52 56/63/52 57/64/52
f 53/60/53 58/65/54 59/66/55
f 60/67/56 55/62/57 61/68/58
f 62/69/59 56/63/59 63/70/59
f 59/66/60 64/71/60 65/72/61
f 66/73/62 61/68/63 67/74/63
f 68/75/64 63/70/65 69/76/66
f 65/72/67 70/77/67 9/15/67
f 45/52/68 67/74/69 71/78/70
f 72/79/71 69/76/71 13/19/71
f 20/80/72 57/81/72 29/82/72
f 69/83/73 27/84/74 52/85/73
f 73/86/75 74/87/75 75/88/75
f 76/89/12 77/90/12 78/91/12
f 75/88/76 79/92/76 80/93/76
f 81/94/15 78/91/15 82/95/77
f 80/96/17 83/97/17 84/98/17
f 85/99/18 82/95/78 86/100/78
f 84/98/20 87/101/20 88/102/20
f 89/103/79 86/100/79 90/104/79
f 88/102/80 91/105/80 92/106/80
f 93/107/25 90/104/25 94/108/25
f 92/106/81 95/109/82 96/110/81
f 97/111/30 94/108/30 98/112/29
f 96/110/31 99/113/31 100/114/83
f 101/115/84 98/112/84 102/116/84
f 100/114/34 103/117/34 104/118/34
f 105/119/35 102/116/35 106/120/35
f 104/118/85 107/121/85 108/122/85
f 109/123/86 110/124/40 111/125/41
f 112/126/43 106/120/43 113/127/43
f 108/122/87 114/128/87 115/129/87
f 111/125/88 116/130/89 117/131/88
f 118/132/51 113/127/51 119/133/51
f 115/129/90 120/134/90 121/135/90
f 117/131/53 122/136/53 123/137/53
f 124/138/56 119/133/56 125/139/91
f 126/140/92 120/134/92 127/141/92
f 123/137/93 128/142/61 129/143/93
f 130/144/94 125/139/95 131/145/94
f 132/146/96 127/141/97 133/147/97
f 129/143/98 134/148/98 73/86/98
f 109/123/99 131/145/70 135/149/100
f 136/150/101 133/147/101 77/90/101
f 112/151/102 109/152/103 121/153/104
f 102/154/73 133/155/105 91/156/106
f 137/157/75 138/158/75 139/159/75
f 140/160/12 141/161/12 142/162/12
f 139/159/76 143/163/107 144/164/76
f 145/165/15 142/162/15 146/166/77
f 144/164/17 147/167/17 148/168/17
f 149/169/18 146/166/78 150/170/78
f 148/171/20 151/172/20 152/173/20
f 153/174/79 150/170/108 154/175/79
f 152/173/80 155/176/109 156/177/80
f 157/178/25 154/175/25 158/179/25
f 156/177/81 159/180/82 160/181/81
f 161/182/29 158/179/29 162/183/29
f 160/181/31 163/184/31 164/185/83
f 165/186/84 162/183/110 166/187/110
f 164/185/34 167/188/34 168/189/34
f 169/190/35 166/187/111 170/191/111
f 168/189/112 171/192/38 172/193/113
f 173/194/86 174/195/40 175/196/41
f 176/197/43 170/191/114 177/198/115
f 172/193/116 178/199/46 179/200/87
f 175/196/88 180/201/88 181/202/117
f 182/203/51 177/198/51 183/204/51
f 179/200/90 184/205/90 185/206/90
f 181/202/53 186/207/53 187/208/53
f 188/209/56 183/204/56 189/210/56
f 190/211/92 184/205/118 191/212/118
f 187/208/93 192/213/93 193/214/93
f 194/215/119 189/210/119 195/216/120
f 196/217/121 191/212/122 197/218/123
f 193/214/98 198/219/124 137/157/98
f 173/194/99 195/216/70 199/220/100
f 200/221/125 197/218/126 141/161/127
f 176/222/102 173/223/103 185/224/104
f 166/225/128 197/226/105 155/227/73
f 201/228/129 202/229/129 203/230/129
f 204/231/130 205/232/131 206/233/132
f 207/234/133 208/235/133 209/236/133
f 202/237/134 208/238/134 203/239/134
f 210/240/135 211/241/135 207/242/135
f 202/243/136 204/244/137 209/245/138
f 212/246/139 213/247/139 214/248/139
f 204/249/137 207/250/140 209/251/138
f 202/252/136 210/253/141 215/254/142
f 212/255/5 216/256/5 204/257/5
f 217/258/6 218/259/6 219/260/6
f 220/261/6 221/262/6 222/263/6
f 221/262/6 223/264/6 224/265/6
f 225/266/6 224/265/6 226/267/6
f 222/263/6 224/265/6 227/268/6
f 223/264/6 228/269/6 229/270/6
f 219/260/6 230/271/6 223/264/6
f 231/272/6 232/273/6 233/274/6
f 234/275/6 235/276/6 236/277/6
f 235/276/6 237/278/6 238/279/6
f 239/280/6 238/279/6 240/281/6
f 236/277/6 238/279/6 241/282/6
f 237/278/6 242/283/6 243/284/6
f 233/274/6 244/285/6 237/278/6
f 245/286/6 246/287/6 247/288/6
f 248/289/6 249/290/6 250/291/6
f 249/290/6 251/292/6 252/293/6
f 253/294/6 252/293/6 254/295/6
f 250/291/6 252/293/6 255/296/6
f 251/292/6 256/297/6 257/298/6
f 247/288/6 258/299/6 251/292/6
f 259/300/6 260/301/6 261/302/6
f 262/303/6 263/304/6 264/305/6
f 263/304/6 265/306/6 266/307/6
f 267/308/6 266/307/6 268/309/6
f 264/305/6 266/307/6 269/310/6
f 265/306/6 270/311/6 271/312/6
f 261/302/6 272/313/6 265/306/6
f 273/314/6 274/315/6 275/316/6
f 276/317/6 277/318/6 278/319/6
f 277/318/6 279/320/6 280/321/6
f 281/322/6 280/321/6 282/323/6
f 278/319/6 280/321/6 283/324/6
f 279/320/6 284/325/6 285/326/6
f 275/316/6 286/327/6 279/320/6
f 287/328/8 288/329/8 289/330/8
f 290/331/5 291/332/5 292/333/5
f 293/334/143 294/335/143 295/336/143
f 294/335/3 296/337/3 297/338/3
f 296/337/144 298/339/144 297/338/144
f 299/340/1 295/336/1 298/339/1
f 300/341/145 299/340/145 296/337/145
f 301/342/146 302/343/146 303/344/146
f 304/345/147 302/343/147 305/346/147
f 304/345/148 306/347/148 307/348/148
f 308/349/149 306/347/149 309/350/149
f 308/349/150 310/351/150 311/352/150
f 312/353/151 310/351/151 313/354/151
f 312/353/152 314/355/152 315/356/152
f 298/339/153 314/355/153 316/357/153
f 317/358/154 301/342/155 318/359/154
f 319/360/156 305/346/157 317/358/156
f 320/361/158 304/345/158 319/360/158
f 320/361/159 308/349/159 309/350/159
f 321/362/160 313/354/160 308/349/160
f 322/363/161 313/354/161 323/364/161
f 324/365/162 312/353/162 322/363/162
f 297/338/163 316/357/163 324/365/163
f 325/366/164 318/359/164 326/367/164
f 325/366/165 319/360/166 317/358/167
f 327/368/168 319/360/168 328/369/168
f 327/368/169 321/362/170 320/361/171
f 329/370/172 321/362/172 330/371/172
f 329/370/173 322/363/173 323/364/173
f 331/372/174 322/363/174 332/373/174
f 331/372/175 297/338/175 324/365/175
f 314/355/176 332/373/176 315/356/176
f 295/336/177 331/372/178 314/355/178
f 333/374/179 334/375/179 335/376/179
f 336/377/180 337/378/180 338/379/180
f 339/380/181 337/378/181 340/381/181
f 339/380/182 334/375/183 341/382/184
f 342/383/185 336/377/186 343/384/187
f 342/383/188 339/380/188 340/381/188
f 333/374/189 339/380/190 344/385/191
f 345/386/192 343/384/192 346/387/192
f 345/386/193 344/385/193 342/383/193
f 347/388/194 344/385/195 348/389/196
f 338/379/197 345/386/197 346/387/197
f 337/378/198 348/389/198 345/386/198
f 341/382/199 347/388/199 348/389/199
f 349/390/200 350/391/200 351/392/200
f 351/392/201 352/393/202 353/394/202
f 352/393/203 354/395/204 353/394/203
f 355/396/205 349/390/206 354/395/205
f 350/391/207 355/396/207 352/393/207
f 356/397/208 357/398/208 358/399/208
f 359/400/209 357/398/209 360/401/209
f 359/400/210 361/402/211 362/403/211
f 363/404/212 361/402/212 364/405/212
f 363/404/213 365/406/214 366/407/214
f 367/408/215 365/406/215 368/409/215
f 367/408/216 369/410/216 370/411/216
f 354/395/217 369/410/217 371/412/217
f 372/413/218 356/397/219 373/414/218
f 374/415/220 360/401/221 372/413/220
f 375/416/222 359/400/222 374/415/222
f 376/417/223 364/405/223 375/416/224
f 376/417/225 368/409/226 363/404/226
f 377/418/227 368/409/228 378/419/227
f 379/420/229 367/408/230 377/418/229
f 353/394/231 371/412/232 379/420/231
f 380/421/233 373/414/233 381/422/233
f 380/421/234 374/415/235 372/413/236
f 382/423/237 374/415/237 383/424/237
f 382/423/238 376/417/239 375/416/240
f 384/425/241 376/417/241 385/426/241
f 384/425/242 377/418/242 378/419/242
f 386/427/243 377/418/243 387/428/243
f 386/427/244 353/394/244 379/420/244
f 370/411/245 386/427/245 387/428/245
f 349/390/246 386/427/246 369/410/246
f 388/429/247 389/430/247 390/431/247
f 391/432/248 392/433/248 393/434/248
f 394/435/249 392/433/249 395/436/249
f 394/435/250 390/431/251 396/437/252
f 397/438/253 391/432/254 398/439/255
f 397/438/256 394/435/256 395/436/256
f 399/440/257 394/435/258 400/441/259
f 401/442/260 398/439/260 402/443/260
f 401/442/261 400/441/261 397/438/261
f 389/430/262 400/441/263 403/444/264
f 393/434/265 401/442/265 402/443/265
f 392/433/266 403/444/266 401/442/266
f 396/437/267 389/430/267 403/444/267
f 404/445/8 405/446/8 406/447/8
f 407/448/3 408/449/3 405/450/3
f 409/451/6 410/452/6 408/453/6
f 411/454/1 406/455/1 410/456/1
f 408/457/7 406/458/7 405/459/7
f 407/460/5 411/461/5 409/462/5
f 1/1/1 8/11/1 2/2/2
f 4/4/3 7/7/3 5/5/4
f 3/3/5 2/2/5 7/7/5
f 8/8/6 5/463/6 7/9/6
f 1/1/7 6/6/7 5/5/7
f 6/12/8 1/464/8 3/13/8
f 9/15/9 70/77/268 10/16/9
f 12/18/11 72/79/269 13/19/11
f 11/17/13 10/16/13 15/21/13
f 17/23/15 12/18/15 14/20/15
f 16/22/16 15/21/17 19/25/17
f 21/27/18 17/23/270 18/24/18
f 20/26/20 19/25/21 23/29/21
f 25/31/22 21/27/22 22/28/22
f 24/30/24 23/29/271 27/33/24
f 29/35/25 25/31/25 26/32/26
f 28/37/27 27/465/272 31/38/27
f 33/40/29 29/35/29 30/36/30
f 32/39/31 31/38/31 35/42/31
f 37/44/32 33/40/32 34/41/32
f 36/43/33 35/42/273 39/46/33
f 41/48/35 37/44/35 38/45/36
f 40/47/37 39/46/37 43/50/37
f 45/52/39 71/78/274 46/53/40
f 48/55/42 41/48/42 42/49/42
f 44/51/44 43/50/275 50/57/45
f 47/54/47 46/53/48 52/59/48
f 54/61/50 48/55/276 49/56/50
f 51/58/52 50/57/52 56/63/52
f 53/60/53 52/59/277 58/65/54
f 60/67/56 54/61/278 55/62/57
f 62/69/59 57/64/59 56/63/59
f 59/66/60 58/65/279 64/71/60
f 66/73/62 60/67/280 61/68/63
f 68/75/64 62/69/281 63/70/65
f 65/72/67 64/71/98 70/77/67
f 45/52/68 66/73/282 67/74/69
f 72/79/71 68/75/71 69/76/71
f 45/466/72 47/467/103 65/468/72
f 47/467/103 53/469/283 65/468/72
f 53/469/283 59/470/103 65/468/72
f 65/468/72 9/471/284 20/80/72
f 9/471/284 11/472/284 20/80/72
f 11/472/284 16/473/284 20/80/72
f 20/80/72 24/474/102 36/475/72
f 24/474/102 28/476/285 36/475/72
f 28/476/285 32/477/72 36/475/72
f 36/475/72 40/478/72 44/479/72
f 44/479/72 51/480/72 36/475/72
f 51/480/72 57/81/72 36/475/72
f 57/81/72 62/481/72 12/482/72
f 62/481/72 68/483/72 12/482/72
f 68/483/72 72/484/103 12/482/72
f 12/482/72 17/485/72 21/486/286
f 21/486/286 25/487/287 12/482/72
f 25/487/287 29/82/72 12/482/72
f 29/82/72 33/488/288 37/489/289
f 37/489/289 41/490/289 29/82/72
f 41/490/289 48/491/72 29/82/72
f 48/491/72 54/492/290 60/493/103
f 60/493/103 66/494/283 45/466/72
f 48/491/72 60/493/103 29/82/72
f 60/493/103 45/466/72 29/82/72
f 45/466/72 65/468/72 20/80/72
f 20/80/72 36/475/72 57/81/72
f 57/81/72 12/482/72 29/82/72
f 45/466/72 20/80/72 29/82/72
f 52/85/73 46/495/291 71/496/73
f 71/496/73 67/497/292 61/498/105
f 61/498/105 55/499/128 38/500/73
f 55/499/128 49/501/293 38/500/73
f 49/501/293 42/502/73 38/500/73
f 38/500/73 34/503/106 30/504/73
f 30/504/73 26/505/73 22/506/106
f 22/506/106 18/507/294 14/508/295
f 14/508/295 13/509/296 69/83/73
f 69/83/73 63/510/291 56/511/105
f 56/511/105 50/512/291 43/513/73
f 43/513/73 39/514/293 35/515/293
f 35/515/293 31/516/294 27/84/74
f 27/84/74 23/517/73 19/518/73
f 19/518/73 15/519/297 10/520/73
f 10/520/73 70/521/73 52/85/73
f 70/521/73 64/522/73 52/85/73
f 64/522/73 58/523/106 52/85/73
f 52/85/73 71/496/73 38/500/73
f 71/496/73 61/498/105 38/500/73
f 38/500/73 30/504/73 69/83/73
f 30/504/73 22/506/106 69/83/73
f 22/506/106 14/508/295 69/83/73
f 69/83/73 56/511/105 43/513/73
f 43/513/73 35/515/293 69/83/73
f 35/515/293 27/84/74 69/83/73
f 27/84/74 19/518/73 52/85/73
f 19/518/73 10/520/73 52/85/73
f 52/85/73 38/500/73 69/83/73
f 73/86/75 134/148/75 74/87/75
f 76/89/12 136/150/12 77/90/12
f 75/88/76 74/87/76 79/92/76
f 81/94/15 76/89/298 78/91/15
f 80/96/17 79/524/17 83/97/17
f 85/99/18 81/94/18 82/95/78
f 84/98/20 83/97/20 87/101/20
f 89/103/79 85/99/79 86/100/79
f 88/102/80 87/101/80 91/105/80
f 93/107/25 89/103/26 90/104/25
f 92/106/81 91/105/28 95/109/82
f 97/111/30 93/107/30 94/108/30
f 96/110/31 95/109/299 99/113/31
f 101/115/84 97/111/84 98/112/84
f 100/114/34 99/113/34 103/117/34
f 105/119/35 101/115/35 102/116/35
f 104/118/85 103/117/85 107/121/85
f 109/123/86 135/149/300 110/124/40
f 112/126/43 105/119/43 106/120/43
f 108/122/87 107/121/87 114/128/87
f 111/125/88 110/124/301 116/130/89
f 118/132/51 112/126/51 113/127/51
f 115/129/90 114/128/90 120/134/90
f 117/131/53 116/130/53 122/136/53
f 124/138/56 118/132/56 119/133/56
f 126/140/92 121/135/92 120/134/92
f 123/137/93 122/136/61 128/142/61
f 130/144/94 124/138/94 125/139/95
f 132/146/96 126/140/96 127/141/97
f 129/143/98 128/142/98 134/148/98
f 109/123/99 130/144/68 131/145/70
f 136/150/101 132/146/302 133/147/101
f 109/152/103 111/525/283 117/526/284
f 117/526/284 123/527/284 109/152/103
f 123/527/284 129/528/104 109/152/103
f 129/528/104 73/529/287 75/530/72
f 75/530/72 80/531/103 84/532/72
f 84/532/72 88/533/102 100/534/72
f 88/533/102 92/535/103 100/534/72
f 92/535/103 96/536/104 100/534/72
f 100/534/72 104/537/103 108/538/104
f 108/538/104 115/539/72 100/534/72
f 115/539/72 121/153/104 100/534/72
f 121/153/104 126/540/283 132/541/72
f 132/541/72 136/542/72 76/543/303
f 76/543/303 81/544/284 93/545/284
f 81/544/284 85/546/287 93/545/284
f 85/546/287 89/547/103 93/545/284
f 93/545/284 97/548/72 112/151/102
f 97/548/72 101/549/72 112/151/102
f 101/549/72 105/550/304 112/151/102
f 112/151/102 118/551/289 109/152/103
f 118/551/289 124/552/103 109/152/103
f 124/552/103 130/553/104 109/152/103
f 129/528/104 75/530/72 109/152/103
f 75/530/72 84/532/72 109/152/103
f 121/153/104 132/541/72 93/545/284
f 132/541/72 76/543/303 93/545/284
f 84/532/72 100/534/72 109/152/103
f 100/534/72 121/153/104 109/152/103
f 93/545/284 112/151/102 121/153/104
f 116/554/73 110/555/305 135/556/306
f 135/556/306 131/557/307 125/558/73
f 125/558/73 119/559/292 113/560/73
f 113/560/73 106/561/73 125/558/73
f 106/561/73 102/154/73 125/558/73
f 102/154/73 98/562/106 94/563/308
f 94/563/308 90/564/73 86/565/308
f 86/565/308 82/566/74 133/155/105
f 82/566/74 78/567/105 133/155/105
f 78/567/105 77/568/309 133/155/105
f 133/155/105 127/569/105 107/570/73
f 127/569/105 120/571/73 107/570/73
f 120/571/73 114/572/294 107/570/73
f 107/570/73 103/573/293 91/156/106
f 103/573/293 99/574/310 91/156/106
f 99/574/310 95/575/308 91/156/106
f 91/156/106 87/576/73 83/577/311
f 83/577/311 79/578/312 91/156/106
f 79/578/312 74/579/106 91/156/106
f 74/579/106 134/580/73 128/581/73
f 128/581/73 122/582/292 116/554/73
f 116/554/73 135/556/306 102/154/73
f 135/556/306 125/558/73 102/154/73
f 102/154/73 94/563/308 86/565/308
f 74/579/106 128/581/73 91/156/106
f 128/581/73 116/554/73 91/156/106
f 102/154/73 86/565/308 133/155/105
f 133/155/105 107/570/73 91/156/106
f 116/554/73 102/154/73 91/156/106
f 137/157/75 198/219/268 138/158/75
f 140/160/12 200/221/12 141/161/12
f 139/159/76 138/158/107 143/163/107
f 145/165/15 140/160/298 142/162/15
f 144/164/17 143/163/17 147/167/17
f 149/169/18 145/165/18 146/166/78
f 148/171/20 147/583/20 151/172/20
f 153/174/79 149/169/79 150/170/108
f 152/173/80 151/172/80 155/176/109
f 157/178/25 153/174/25 154/175/25
f 156/177/81 155/176/28 159/180/82
f 161/182/29 157/178/29 158/179/29
f 160/181/31 159/180/299 163/184/31
f 165/186/84 161/182/84 162/183/110
f 164/185/34 163/184/34 167/188/34
f 169/190/35 165/186/35 166/187/111
f 168/189/112 167/188/37 171/192/38
f 173/194/86 199/220/300 174/195/40
f 176/197/43 169/190/43 170/191/114
f 172/193/116 171/192/44 178/199/46
f 175/196/88 174/195/88 180/201/88
f 182/203/51 176/197/51 177/198/51
f 179/200/90 178/199/90 184/205/90
f 181/202/53 180/201/53 186/207/53
f 188/209/56 182/203/56 183/204/56
f 190/211/92 185/206/92 184/205/118
f 187/208/93 186/207/93 192/213/93
f 194/215/119 188/209/313 189/210/119
f 196/217/121 190/211/97 191/212/122
f 193/214/98 192/213/314 198/219/124
f 173/194/99 194/215/282 195/216/70
f 200/221/125 196/217/315 197/218/126
f 173/223/103 175/584/103 181/585/316
f 181/585/316 187/586/72 173/223/103
f 187/586/72 193/587/72 173/223/103
f 193/587/72 137/588/317 139/589/72
f 139/589/72 144/590/72 193/587/72
f 144/590/72 148/591/72 193/587/72
f 148/591/72 152/592/72 164/593/72
f 152/592/72 156/594/102 164/593/72
f 156/594/102 160/595/103 164/593/72
f 164/593/72 168/596/103 172/597/104
f 172/597/104 179/598/72 164/593/72
f 179/598/72 185/224/104 164/593/72
f 185/224/104 190/599/103 196/600/318
f 196/600/318 200/601/319 185/224/104
f 200/601/319 140/602/103 185/224/104
f 140/602/103 145/603/284 157/604/72
f 145/603/284 149/605/320 157/604/72
f 149/605/320 153/606/284 157/604/72
f 157/604/72 161/607/72 176/222/102
f 161/607/72 165/608/72 176/222/102
f 165/608/72 169/609/321 176/222/102
f 176/222/102 182/610/72 173/223/103
f 182/610/72 188/611/322 173/223/103
f 188/611/322 194/612/104 173/223/103
f 173/223/103 193/587/72 148/591/72
f 148/591/72 164/593/72 173/223/103
f 164/593/72 185/224/104 173/223/103
f 185/224/104 140/602/103 157/604/72
f 157/604/72 176/222/102 185/224/104
f 180/613/73 174/614/73 189/615/105
f 174/614/73 199/616/323 189/615/105
f 199/616/323 195/617/294 189/615/105
f 189/615/105 183/618/105 166/225/128
f 183/618/105 177/619/324 166/225/128
f 177/619/324 170/620/105 166/225/128
f 166/225/128 162/621/105 158/622/74
f 158/622/74 154/623/106 166/225/128
f 154/623/106 150/624/106 166/225/128
f 150/624/106 146/625/325 142/626/74
f 142/626/74 141/627/292 197/226/105
f 197/226/105 191/628/105 184/629/292
f 184/629/292 178/630/326 171/631/74
f 171/631/74 167/632/105 163/633/327
f 163/633/327 159/634/106 171/631/74
f 159/634/106 155/227/73 171/631/74
f 155/227/73 151/635/73 147/636/312
f 147/636/312 143/637/328 138/638/73
f 138/638/73 198/639/73 180/613/73
f 198/639/73 192/640/329 180/613/73
f 192/640/329 186/641/295 180/613/73
f 150/624/106 142/626/74 166/225/128
f 142/626/74 197/226/105 166/225/128
f 197/226/105 184/629/292 155/227/73
f 184/629/292 171/631/74 155/227/73
f 155/227/73 147/636/312 138/638/73
f 180/613/73 189/615/105 166/225/128
f 155/227/73 138/638/73 180/613/73
f 180/613/73 166/225/128 155/227/73
f 201/228/330 210/642/330 202/229/330
f 204/231/130 412/643/331 205/232/131
f 207/234/332 211/644/332 208/235/332
f 202/237/134 209/645/134 208/238/134
f 210/240/135 201/646/135 211/241/135
f 202/243/136 212/647/333 204/244/137
f 212/246/334 413/648/334 213/247/334
f 204/249/335 206/649/335 207/250/335
f 413/650/333 212/651/333 215/254/142
f 212/651/333 202/252/136 215/254/142
f 212/255/5 414/652/5 216/256/5
f 217/258/6 415/653/6 218/259/6
f 220/261/6 416/654/6 221/262/6
f 221/262/6 219/260/6 223/264/6
f 225/266/6 227/268/6 224/265/6
f 222/263/6 221/262/6 224/265/6
f 223/264/6 230/271/6 228/269/6
f 219/260/6 218/259/6 230/271/6
f 231/272/6 417/655/6 232/273/6
f 234/275/6 418/656/6 235/276/6
f 235/276/6 233/274/6 237/278/6
f 239/280/6 241/282/6 238/279/6
f 236/277/6 235/276/6 238/279/6
f 237/278/6 244/285/6 242/283/6
f 233/274/6 232/273/6 244/285/6
f 245/286/6 419/657/6 246/287/6
f 248/289/6 420/658/6 249/290/6
f 249/290/6 247/288/6 251/292/6
f 253/294/6 255/296/6 252/293/6
f 250/291/6 249/290/6 252/293/6
f 251/292/6 258/299/6 256/297/6
f 247/288/6 246/287/6 258/299/6
f 259/300/6 421/659/6 260/301/6
f 262/303/6 422/660/6 263/304/6
f 263/304/6 261/302/6 265/306/6
f 267/308/6 269/310/6 266/307/6
f 264/305/6 263/304/6 266/307/6
f 265/306/6 272/313/6 270/311/6
f 261/302/6 260/301/6 272/313/6
f 273/314/6 423/661/6 274/315/6
f 276/317/6 424/662/6 277/318/6
f 277/318/6 275/316/6 279/320/6
f 281/322/6 283/324/6 280/321/6
f 278/319/6 277/318/6 280/321/6
f 279/320/6 286/327/6 284/325/6
f 275/316/6 274/315/6 286/327/6
f 287/328/8 290/663/8 288/329/8
f 290/331/5 287/664/5 291/332/5
f 293/334/143 300/341/143 294/335/143
f 294/335/3 300/341/3 296/337/3
f 296/337/144 299/340/336 298/339/144
f 299/340/1 293/334/1 295/336/1
f 300/341/145 293/334/145 299/340/145
f 301/342/146 305/346/146 302/343/146
f 304/345/337 307/348/337 302/343/337
f 304/345/148 309/350/148 306/347/148
f 308/349/338 311/352/338 306/347/338
f 308/349/150 313/354/150 310/351/150
f 312/353/339 315/356/339 310/351/339
f 312/353/152 316/357/152 314/355/152
f 298/339/340 295/336/340 314/355/340
f 317/358/154 305/346/155 301/342/155
f 319/360/156 304/345/157 305/346/157
f 320/361/158 309/350/158 304/345/158
f 320/361/159 321/362/159 308/349/159
f 321/362/160 323/364/160 313/354/160
f 322/363/161 312/353/161 313/354/161
f 324/365/162 316/357/162 312/353/162
f 297/338/163 298/339/163 316/357/163
f 325/366/164 317/358/164 318/359/164
f 325/366/165 328/369/341 319/360/166
f 327/368/168 320/361/168 319/360/168
f 327/368/169 330/371/342 321/362/170
f 329/370/172 323/364/172 321/362/172
f 329/370/343 332/373/343 322/363/343
f 331/372/174 324/365/174 322/363/174
f 331/372/344 294/335/344 297/338/344
f 314/355/176 331/372/176 332/373/176
f 295/336/177 294/335/345 331/372/178
f 333/374/179 347/388/179 334/375/179
f 336/377/180 340/381/180 337/378/180
f 339/380/346 341/382/346 337/378/346
f 339/380/182 335/376/347 334/375/183
f 342/383/185 340/381/348 336/377/186
f 342/383/349 344/385/349 339/380/349
f 333/374/189 335/376/350 339/380/190
f 345/386/192 342/383/192 343/384/192
f 345/386/351 348/389/351 344/385/351
f 347/388/194 333/374/352 344/385/195
f 338/379/353 337/378/353 345/386/353
f 337/378/354 341/382/354 348/389/354
f 341/382/355 334/375/355 347/388/355
f 349/390/200 425/665/200 350/391/200
f 351/392/201 350/391/201 352/393/202
f 352/393/203 355/396/204 354/395/204
f 355/396/205 425/665/356 349/390/206
f 350/391/207 425/665/207 355/396/207
f 356/397/357 360/401/357 357/398/357
f 359/400/358 362/403/358 357/398/358
f 359/400/210 364/405/210 361/402/211
f 363/404/359 366/407/359 361/402/359
f 363/404/213 368/409/213 365/406/214
f 367/408/360 370/411/360 365/406/360
f 367/408/216 371/412/216 369/410/216
f 354/395/361 349/390/361 369/410/361
f 372/413/218 360/401/219 356/397/219
f 374/415/220 359/400/221 360/401/221
f 375/416/222 364/405/222 359/400/222
f 376/417/223 363/404/362 364/405/223
f 376/417/225 378/419/225 368/409/226
f 377/418/227 367/408/228 368/409/228
f 379/420/229 371/412/230 367/408/230
f 353/394/231 354/395/363 371/412/232
f 380/421/233 372/413/233 373/414/233
f 380/421/234 383/424/364 374/415/235
f 382/423/365 375/416/365 374/415/365
f 382/423/238 385/426/366 376/417/239
f 384/425/241 378/419/241 376/417/241
f 384/425/367 387/428/367 377/418/367
f 386/427/243 379/420/243 377/418/243
f 386/427/368 351/392/368 353/394/368
f 370/411/245 369/410/245 386/427/245
f 349/390/369 351/392/369 386/427/369
f 388/429/247 399/440/247 389/430/247
f 391/432/248 395/436/248 392/433/248
f 394/435/370 396/437/370 392/433/370
f 394/435/250 388/429/371 390/431/251
f 397/438/253 395/436/372 391/432/254
f 397/438/373 400/441/373 394/435/373
f 399/440/257 388/429/374 394/435/258
f 401/442/260 397/438/260 398/439/260
f 401/442/375 403/444/375 400/441/375
f 389/430/262 399/440/376 400/441/263
f 393/434/377 392/433/377 401/442/377
f 392/433/378 396/437/378 403/444/378
f 396/437/379 390/431/379 389/430/379
f 404/445/8 407/666/8 405/446/8
f 407/448/3 409/667/3 408/449/3
f 409/451/6 411/668/6 410/452/6
f 411/454/1 404/669/1 406/455/1
f 408/457/7 410/670/7 406/458/7
f 407/460/5 404/671/5 411/461/5
f 426/672/8 427/673/8 428/674/8
f 429/675/3 222/676/3 427/677/3
f 415/678/1 430/679/1 218/680/1
f 431/681/7 228/682/7 432/683/7
f 433/684/5 415/685/5 217/686/5
f 220/687/5 426/688/5 416/689/5
f 434/690/380 224/691/380 435/692/380
f 225/693/7 434/694/7 436/695/7
f 437/696/381 217/697/381 219/698/381
f 438/699/8 437/700/8 430/701/8
f 223/702/382 431/703/382 439/704/382
f 437/705/5 221/706/5 428/707/5
f 439/708/8 428/674/8 435/709/8
f 440/710/8 431/711/8 432/712/8
f 430/701/8 439/708/8 440/710/8
f 221/713/383 426/714/383 428/715/383
f 230/716/1 432/717/1 228/718/1
f 218/680/1 440/719/1 230/716/1
f 441/720/3 225/721/3 436/722/3
f 427/677/3 227/723/3 441/720/3
f 435/709/8 436/722/8 434/724/8
f 435/709/8 427/673/8 441/725/8
f 442/726/8 443/727/8 444/728/8
f 445/729/3 236/730/3 443/731/3
f 417/732/1 446/733/1 232/734/1
f 447/735/7 242/736/7 448/737/7
f 449/738/5 417/739/5 231/740/5
f 234/741/5 442/742/5 418/743/5
f 450/744/380 238/745/380 451/746/380
f 239/747/7 450/748/7 452/749/7
f 453/750/381 231/751/381 233/752/381
f 454/753/8 453/754/8 446/755/8
f 237/756/382 447/757/382 455/758/382
f 453/759/5 235/760/5 444/761/5
f 455/762/8 444/728/8 451/763/8
f 456/764/8 447/765/8 448/766/8
f 446/755/8 455/762/8 456/764/8
f 235/767/383 442/768/383 444/769/383
f 244/770/1 448/771/1 242/772/1
f 232/734/1 456/773/1 244/770/1
f 457/774/3 239/775/3 452/776/3
f 443/731/3 241/777/3 457/774/3
f 451/763/8 452/776/8 450/778/8
f 451/763/8 443/727/8 457/779/8
f 458/780/8 459/781/8 460/782/8
f 461/783/3 250/784/3 459/785/3
f 419/786/1 462/787/1 246/788/1
f 463/789/7 256/790/7 464/791/7
f 465/792/5 419/793/5 245/794/5
f 248/795/5 458/796/5 420/797/5
f 466/798/380 252/799/380 467/800/380
f 253/801/7 466/802/7 468/803/7
f 469/804/381 245/805/381 247/806/381
f 470/807/8 469/808/8 462/809/8
f 251/810/382 463/811/382 471/812/382
f 469/813/5 249/814/5 460/815/5
f 471/816/8 460/782/8 467/817/8
f 472/818/8 463/819/8 464/820/8
f 462/809/8 471/816/8 472/818/8
f 249/821/383 458/822/383 460/823/383
f 258/824/1 464/825/1 256/826/1
f 246/788/1 472/827/1 258/824/1
f 473/828/3 253/829/3 468/830/3
f 459/785/3 255/831/3 473/828/3
f 467/817/8 468/830/8 466/832/8
f 467/817/8 459/781/8 473/833/8
f 474/834/8 475/835/8 476/836/8
f 477/837/3 264/838/3 475/839/3
f 421/840/1 478/841/1 260/842/1
f 479/843/7 270/844/7 480/845/7
f 481/846/5 421/847/5 259/848/5
f 262/849/5 474/850/5 422/851/5
f 482/852/380 266/853/380 483/854/380
f 267/855/7 482/856/7 484/857/7
f 485/858/381 259/859/381 261/860/381
f 486/861/8 485/862/8 478/863/8
f 265/864/382 479/865/382 487/866/382
f 485/867/5 263/868/5 476/869/5
f 487/870/8 476/836/8 483/871/8
f 488/872/8 479/873/8 480/874/8
f 478/863/8 487/870/8 488/872/8
f 263/875/383 474/876/383 476/877/383
f 272/878/1 480/879/1 270/880/1
f 260/842/1 488/881/1 272/878/1
f 489/882/3 267/883/3 484/884/3
f 475/839/3 269/885/3 489/882/3
f 483/871/8 484/884/8 482/886/8
f 483/871/8 475/835/8 489/887/8
f 490/888/8 491/889/8 492/890/8
f 493/891/3 278/892/3 491/893/3
f 423/894/1 494/895/1 274/896/1
f 495/897/7 284/898/7 496/899/7
f 497/900/5 423/901/5 273/902/5
f 276/903/5 490/904/5 424/905/5
f 498/906/380 280/907/380 499/908/380
f 281/909/7 498/910/7 500/911/7
f 501/912/381 273/913/381 275/914/381
f 502/915/8 501/916/8 494/917/8
f 279/918/382 495/919/382 503/920/382
f 501/921/5 277/922/5 492/923/5
f 503/924/8 492/890/8 499/925/8
f 504/926/8 495/927/8 496/928/8
f 494/917/8 503/924/8 504/926/8
f 277/929/383 490/930/383 492/931/383
f 286/932/1 496/933/1 284/934/1
f 274/896/1 504/935/1 286/932/1
f 505/936/3 281/937/3 500/938/3
f 491/893/3 283/939/3 505/936/3
f 499/925/8 500/938/8 498/940/8
f 499/925/8 491/889/8 505/941/8
f 426/672/8 429/942/8 427/673/8
f 429/675/3 220/943/3 222/676/3
f 415/678/1 438/944/1 430/679/1
f 431/681/7 229/945/7 228/682/7
f 433/684/5 438/946/5 415/685/5
f 220/687/5 429/947/5 426/688/5
f 434/690/384 226/948/384 224/691/384
f 225/693/7 226/949/7 434/694/7
f 437/696/381 433/950/381 217/697/381
f 438/699/8 433/951/8 437/700/8
f 223/702/382 229/952/382 431/703/382
f 437/705/5 219/953/5 221/706/5
f 439/708/8 437/700/8 428/674/8
f 440/710/8 439/708/8 431/711/8
f 430/701/8 437/700/8 439/708/8
f 221/713/385 416/954/385 426/714/385
f 230/716/1 440/719/1 432/717/1
f 218/680/1 430/679/1 440/719/1
f 441/720/3 227/723/3 225/721/3
f 427/677/3 222/676/3 227/723/3
f 435/709/8 441/725/8 436/722/8
f 435/709/8 428/674/8 427/673/8
f 442/726/8 445/955/8 443/727/8
f 445/729/3 234/956/3 236/730/3
f 417/732/1 454/957/1 446/733/1
f 447/735/7 243/958/7 242/736/7
f 449/738/5 454/959/5 417/739/5
f 234/741/5 445/960/5 442/742/5
f 450/744/384 240/961/384 238/745/384
f 239/747/7 240/962/7 450/748/7
f 453/750/381 449/963/381 231/751/381
f 454/753/8 449/964/8 453/754/8
f 237/756/382 243/965/382 447/757/382
f 453/759/5 233/966/5 235/760/5
f 455/762/8 453/754/8 444/728/8
f 456/764/8 455/762/8 447/765/8
f 446/755/8 453/754/8 455/762/8
f 235/767/385 418/967/385 442/768/385
f 244/770/1 456/773/1 448/771/1
f 232/734/1 446/733/1 456/773/1
f 457/774/3 241/777/3 239/775/3
f 443/731/3 236/730/3 241/777/3
f 451/763/8 457/779/8 452/776/8
f 451/763/8 444/728/8 443/727/8
f 458/780/8 461/968/8 459/781/8
f 461/783/3 248/969/3 250/784/3
f 419/786/1 470/970/1 462/787/1
f 463/789/7 257/971/7 256/790/7
f 465/792/5 470/972/5 419/793/5
f 248/795/5 461/973/5 458/796/5
f 466/798/384 254/974/384 252/799/384
f 253/801/7 254/975/7 466/802/7
f 469/804/381 465/976/381 245/805/381
f 470/807/8 465/977/8 469/808/8
f 251/810/382 257/978/382 463/811/382
f 469/813/5 247/979/5 249/814/5
f 471/816/8 469/808/8 460/782/8
f 472/818/8 471/816/8 463/819/8
f 462/809/8 469/808/8 471/816/8
f 249/821/385 420/980/385 458/822/385
f 258/824/1 472/827/1 464/825/1
f 246/788/1 462/787/1 472/827/1
f 473/828/3 255/831/3 253/829/3
f 459/785/3 250/784/3 255/831/3
f 467/817/8 473/833/8 468/830/8
f 467/817/8 460/782/8 459/781/8
f 474/834/8 477/981/8 475/835/8
f 477/837/3 262/982/3 264/838/3
f 421/840/1 486/983/1 478/841/1
f 479/843/7 271/984/7 270/844/7
f 481/846/5 486/985/5 421/847/5
f 262/849/5 477/986/5 474/850/5
f 482/852/384 268/987/384 266/853/384
f 267/855/7 268/988/7 482/856/7
f 485/858/381 481/989/381 259/859/381
f 486/861/8 481/990/8 485/862/8
f 265/864/382 271/991/382 479/865/382
f 485/867/5 261/992/5 263/868/5
f 487/870/8 485/862/8 476/836/8
f 488/872/8 487/870/8 479/873/8
f 478/863/8 485/862/8 487/870/8
f 263/875/385 422/993/385 474/876/385
f 272/878/1 488/881/1 480/879/1
f 260/842/1 478/841/1 488/881/1
f 489/882/3 269/885/3 267/883/3
f 475/839/3 264/838/3 269/885/3
f 483/871/8 489/887/8 484/884/8
f 483/871/8 476/836/8 475/835/8
f 490/888/8 493/994/8 491/889/8
f 493/891/3 276/995/3 278/892/3
f 423/894/1 502/996/1 494/895/1
f 495/897/7 285/997/7 284/898/7
f 497/900/5 502/998/5 423/901/5
f 276/903/5 493/999/5 490/904/5
f 498/906/384 282/1000/384 280/907/384
f 281/909/7 282/1001/7 498/910/7
f 501/912/381 497/1002/381 273/913/381
f 502/915/8 497/1003/8 501/916/8
f 279/918/382 285/1004/382 495/919/382
f 501/921/5 275/1005/5 277/922/5
f 503/924/8 501/916/8 492/890/8
f 504/926/8 503/924/8 495/927/8
f 494/917/8 501/916/8 503/924/8
f 277/929/385 424/1006/385 490/930/385
f 286/932/1 504/935/1 496/933/1
f 274/896/1 494/895/1 504/935/1
f 505/936/3 283/939/3 281/937/3
f 491/893/3 278/892/3 283/939/3
f 499/925/8 505/941/8 500/938/8
f 499/925/8 492/890/8 491/889/8
f 506/1007/7 507/1008/7 508/1009/7
f 506/1007/7 508/1009/7 509/1010/7
f 510/1011/5 511/1012/5 512/1013/5
f 510/1011/5 512/1013/5 513/1014/5
f 514/1015/6 515/1016/6 516/1017/6
f 517/1018/318 516/1019/318 518/1020/318
f 519/1021/3 520/1022/3 521/1023/3
f 507/1024/386 522/1025/386 513/1026/386
f 523/1027/8 524/1028/8 525/1029/8
f 508/1030/387 513/1031/387 512/1032/387
f 526/1033/7 520/1034/7 527/1035/7
f 518/1036/388 515/1037/388 528/1038/388
f 529/1039/3 530/1040/3 520/1022/3
f 531/1041/389 532/1042/390 524/1028/390
f 533/1043/388 528/1038/388 534/1044/388
f 529/1045/5 535/1046/5 536/1047/5
f 520/1034/7 537/1048/7 527/1035/7
f 538/1049/5 529/1045/5 519/1050/5
f 534/1051/306 539/1052/306 540/1053/306
f 541/1054/306 542/1055/306 543/1056/306
f 532/1057/388 544/1058/388 545/1059/388
f 546/1060/5 522/1061/5 538/1049/5
f 547/1062/7 526/1033/7 548/1063/7
f 513/1014/5 546/1060/5 549/1064/5
f 550/1065/391 551/1066/391 532/1067/391
f 509/1068/8 512/1032/8 511/1069/8
f 549/1064/5 510/1011/5 513/1014/5
f 552/1070/7 507/1008/7 506/1007/7
f 521/1071/7 526/1033/7 547/1062/7
f 519/1050/5 546/1060/5 538/1049/5
f 537/1072/1 553/1073/1 536/1074/1
f 510/1075/3 552/1076/3 506/1077/3
f 543/1078/392 550/1079/392 531/1080/392
f 543/1078/392 531/1080/392 523/1081/392
f 541/1082/388 525/1083/388 524/1084/388
f 541/1082/388 524/1084/388 532/1057/388
f 526/1085/393 535/1086/393 538/1087/393
f 533/1088/394 554/1089/394 555/1090/394
f 546/1091/3 521/1023/3 547/1092/3
f 556/1093/6 557/1094/6 553/1095/6
f 549/1096/3 547/1092/3 552/1076/3
f 548/1097/395 538/1098/396 522/1099/396
f 536/1047/5 557/1100/5 529/1045/5
f 537/1048/7 530/1101/7 556/1102/7
f 511/1103/3 506/1077/3 509/1104/3
f 517/1105/392 558/1106/392 514/1107/392
f 559/1108/392 539/1109/392 554/1110/392
f 528/1038/388 555/1111/397 518/1036/388
f 539/1109/392 517/1105/392 554/1110/392
f 550/1079/392 560/1112/392 561/1113/392
f 544/1114/306 540/1053/306 560/1115/306
f 554/1116/398 518/1117/399 555/1118/399
f 544/1058/388 551/1119/388 533/1043/388
f 560/1112/392 559/1108/392 561/1113/392
f 507/1008/7 547/1062/7 548/1063/7
f 527/1120/400 536/1121/400 535/1122/400
f 525/1123/306 543/1056/306 523/1124/306
f 545/1059/388 541/1082/388 532/1057/388
f 542/1125/392 550/1079/392 543/1078/392
f 540/1126/392 559/1108/392 560/1112/392
f 534/1044/388 544/1058/388 533/1043/388
f 561/1127/401 533/1128/401 551/1129/401
f 528/1130/306 558/1131/306 539/1052/306
f 545/1132/306 560/1115/306 542/1055/306
f 562/1133/1 563/1134/1 564/1135/1
f 564/1136/6 565/1137/6 562/1138/6
f 566/1139/8 567/1140/8 568/1141/8
f 562/1142/5 568/1143/5 567/1144/5
f 569/1145/3 568/1146/3 565/1147/3
f 570/1148/7 571/1149/7 572/1150/7
f 573/1151/1 571/1152/1 574/1153/1
f 574/1154/6 575/1155/6 573/1156/6
f 572/1157/8 576/1158/8 577/1159/8
f 573/1160/5 577/1161/5 576/1162/5
f 570/1163/3 577/1164/3 575/1165/3
f 578/1166/7 579/1167/7 580/1168/7
f 581/1169/8 582/1170/8 583/1171/8
f 584/1172/1 579/1173/1 585/1174/1
f 580/1175/8 586/1176/8 587/1177/8
f 588/1178/1 589/1179/1 590/1180/1
f 591/1181/7 589/1182/7 581/1183/7
f 584/1184/5 587/1185/5 586/1186/5
f 590/1180/6 592/1187/6 588/1188/6
f 588/1189/5 583/1190/5 582/1170/5
f 585/1191/6 593/1192/6 584/1193/6
f 591/1194/3 583/1195/3 592/1196/3
f 578/1197/3 587/1198/3 593/1199/3
f 569/1200/7 563/1201/7 566/1202/7
f 594/1203/1 595/1204/1 596/1205/1
f 597/1206/8 598/1207/8 599/1208/8
f 600/1209/5 601/1210/5 602/1211/5
f 603/1212/1 600/1213/1 602/1214/1
f 604/1215/7 595/1216/7 597/1217/7
f 604/1218/3 599/1219/3 605/1220/3
f 594/1221/5 599/1222/5 598/1223/5
f 606/1224/6 607/1225/6 600/1226/6
f 603/1227/7 608/1228/7 606/1229/7
f 596/1230/6 605/1231/6 594/1232/6
f 514/1015/6 558/1233/6 515/1016/6
f 517/1018/318 514/1234/318 516/1019/318
f 519/1021/3 529/1039/3 520/1022/3
f 507/1024/386 548/1235/386 522/1025/386
f 523/1027/8 531/1041/8 524/1028/8
f 508/1030/387 507/1236/387 513/1031/387
f 526/1033/7 521/1071/7 520/1034/7
f 518/1036/388 516/1237/388 515/1037/388
f 529/1039/3 557/1238/3 530/1040/3
f 531/1041/389 550/1239/389 532/1042/390
f 533/1043/388 555/1111/397 528/1038/388
f 538/1049/5 535/1046/5 529/1045/5
f 534/1051/306 528/1130/306 539/1052/306
f 541/1054/306 545/1132/306 542/1055/306
f 532/1057/388 551/1119/388 544/1058/388
f 513/1014/5 522/1061/5 546/1060/5
f 550/1065/391 561/1240/391 551/1066/391
f 509/1068/8 508/1030/8 512/1032/8
f 537/1072/1 556/1241/1 553/1073/1
f 510/1075/3 549/1096/3 552/1076/3
f 526/1085/393 527/1242/393 535/1086/393
f 533/1088/394 559/1243/394 554/1089/394
f 546/1091/3 519/1021/3 521/1023/3
f 556/1093/6 530/1244/6 557/1094/6
f 549/1096/3 546/1091/3 547/1092/3
f 548/1097/395 526/1245/395 538/1098/396
f 536/1047/5 553/1246/5 557/1100/5
f 537/1048/7 520/1034/7 530/1101/7
f 511/1103/3 510/1075/3 506/1077/3
f 517/1105/392 539/1109/392 558/1106/392
f 559/1108/392 540/1126/392 539/1109/392
f 550/1079/392 542/1125/392 560/1112/392
f 544/1114/306 534/1051/306 540/1053/306
f 554/1116/398 517/1247/402 518/1117/399
f 507/1008/7 552/1070/7 547/1062/7
f 527/1120/400 537/1248/400 536/1121/400
f 525/1123/306 541/1054/306 543/1056/306
f 561/1127/401 559/1249/401 533/1128/401
f 528/1130/306 515/1250/306 558/1131/306
f 545/1132/306 544/1114/306 560/1115/306
f 562/1133/1 567/1251/1 563/1134/1
f 564/1136/6 569/1252/6 565/1137/6
f 566/1139/8 563/1253/8 567/1140/8
f 562/1142/5 565/1254/5 568/1143/5
f 569/1145/3 566/1255/3 568/1146/3
f 570/1148/7 574/1256/7 571/1149/7
f 573/1151/1 576/1257/1 571/1152/1
f 574/1154/6 570/1258/6 575/1155/6
f 572/1157/8 571/1259/8 576/1158/8
f 573/1160/5 575/1260/5 577/1161/5
f 570/1163/3 572/1261/3 577/1164/3
f 578/1166/7 585/1262/7 579/1167/7
f 581/1169/8 589/1263/8 582/1170/8
f 584/1172/1 586/1264/1 579/1173/1
f 580/1175/8 579/1265/8 586/1176/8
f 588/1178/1 582/1266/1 589/1179/1
f 591/1181/7 590/1267/7 589/1182/7
f 584/1184/5 593/1268/5 587/1185/5
f 590/1180/6 591/1269/6 592/1187/6
f 588/1189/5 592/1270/5 583/1190/5
f 585/1191/6 578/1271/6 593/1192/6
f 591/1194/3 581/1272/3 583/1195/3
f 578/1197/3 580/1273/3 587/1198/3
f 569/1200/7 564/1274/7 563/1201/7
f 594/1203/1 598/1275/1 595/1204/1
f 597/1206/8 595/1276/8 598/1207/8
f 600/1209/5 607/1277/5 601/1210/5
f 603/1212/1 606/1278/1 600/1213/1
f 604/1215/7 596/1279/7 595/1216/7
f 604/1218/3 597/1280/3 599/1219/3
f 594/1221/5 605/1281/5 599/1222/5
f 606/1224/6 608/1282/6 607/1225/6
f 603/1227/7 609/1283/7 608/1228/7
f 596/1230/6 604/1284/6 605/1231/6
l 209 610
l 610 204
