# Blender v3.0.0 OBJ File: ''
# www.blender.org
o Cylinder
v 0.000000 -1.945274 -4.381975
v 0.000000 1.945274 -4.381975
v 0.854881 -1.945274 -4.297777
v 0.854881 1.945274 -4.297777
v 1.676909 -1.945274 -4.048417
v 1.676909 1.945274 -4.048417
v 2.434495 -1.945274 -3.643479
v 2.434495 1.945274 -3.643479
v 3.098524 -1.945274 -3.098524
v 3.098524 1.945274 -3.098524
v 3.643479 -1.945274 -2.434495
v 3.643479 1.945274 -2.434495
v 4.048417 -1.945274 -1.676909
v 4.048417 1.945274 -1.676909
v 4.297777 -1.945274 -0.854881
v 4.297777 1.945274 -0.854881
v 4.381975 -1.945274 0.000000
v 4.381975 1.945274 0.000000
v 4.297777 -1.945274 0.854881
v 4.297777 1.945274 0.854881
v 4.048417 -1.945274 1.676909
v 4.048417 1.945274 1.676909
v 3.643479 -1.945274 2.434495
v 3.643479 1.945274 2.434495
v 3.098524 -1.945274 3.098524
v 3.098524 1.945274 3.098524
v 2.434495 -1.945274 3.643479
v 2.434495 1.945274 3.643479
v 1.676910 -1.945274 4.048417
v 1.676910 1.945274 4.048417
v 0.854881 -1.945274 4.297777
v 0.854881 1.945274 4.297777
v -0.000000 -1.945274 4.381975
v -0.000000 1.945274 4.381975
v -0.854881 -1.945274 4.297777
v -0.854881 1.945274 4.297777
v -1.676909 -1.945274 4.048417
v -1.676909 1.945274 4.048417
v -2.434495 -1.945274 3.643479
v -2.434495 1.945274 3.643479
v -3.098524 -1.945274 3.098525
v -3.098524 1.945274 3.098525
v -3.643479 -1.945274 2.434496
v -3.643479 1.945274 2.434496
v -4.048417 -1.945274 1.676910
v -4.048417 1.945274 1.676910
v -4.297777 -1.945274 0.854881
v -4.297777 1.945274 0.854881
v -4.381975 -1.945274 -0.000000
v -4.381975 1.945274 -0.000000
v -4.297777 -1.945274 -0.854881
v -4.297777 1.945274 -0.854881
v -4.048417 -1.945274 -1.676910
v -4.048417 1.945274 -1.676910
v -3.643480 -1.945274 -2.434494
v -3.643480 1.945274 -2.434494
v -3.098525 -1.945274 -3.098524
v -3.098525 1.945274 -3.098524
v -2.434495 -1.945274 -3.643479
v -2.434495 1.945274 -3.643479
v -1.676909 -1.945274 -4.048417
v -1.676909 1.945274 -4.048417
v -0.854881 -1.945274 -4.297777
v -0.854881 1.945274 -4.297777
vt 0.500000 1.003066
vt 0.598826 -0.003066
vt 0.500000 -0.003066
vt 0.598826 1.003066
vt 0.693855 -0.003066
vt 0.693855 1.003066
vt 0.781433 -0.003066
vt 0.781433 1.003066
vt 0.858197 -0.003066
vt 0.858197 1.003066
vt 0.921195 -0.003066
vt 0.921195 1.003066
vt 0.968007 -0.003066
vt 0.968007 1.003066
vt 0.996833 -0.003066
vt 0.996833 1.003066
vt 1.006567 -0.003066
vt 1.006567 1.003066
vt 0.996833 -0.003066
vt 0.996833 1.003066
vt 0.968007 -0.003066
vt 0.968007 1.003066
vt 0.921195 -0.003066
vt 0.921195 1.003066
vt 0.858197 -0.003066
vt 0.858197 1.003066
vt 0.781433 -0.003066
vt 0.781433 1.003066
vt 0.693855 -0.003066
vt 0.693855 1.003066
vt 0.598826 -0.003066
vt 0.598826 1.003066
vt 0.500000 -0.003066
vt 0.500000 1.003066
vt 0.401174 -0.003066
vt 0.401174 1.003066
vt 0.306145 -0.003066
vt 0.306145 1.003066
vt 0.218567 -0.003066
vt 0.218567 1.003066
vt 0.141803 -0.003066
vt 0.141803 1.003066
vt 0.078805 -0.003066
vt 0.078805 1.003066
vt 0.031993 -0.003066
vt 0.031993 1.003066
vt 0.003167 -0.003066
vt 0.003167 1.003066
vt -0.006567 -0.003066
vt -0.006567 1.003066
vt 0.003167 -0.003066
vt 0.003167 1.003066
vt 0.031993 -0.003066
vt 0.031993 1.003066
vt 0.078805 -0.003066
vt 0.078805 1.003066
vt 0.141803 -0.003066
vt 0.141803 1.003066
vt 0.218567 -0.003066
vt 0.218567 1.003066
vt 0.306145 -0.003066
vt 0.306145 1.003066
vt 0.401174 -0.003066
vt 0.401174 1.003066
vn 0.0980 0.0000 -0.9952
vn 0.2903 0.0000 -0.9569
vn 0.4714 0.0000 -0.8819
vn 0.6344 0.0000 -0.7730
vn 0.7730 0.0000 -0.6344
vn 0.8819 0.0000 -0.4714
vn 0.9569 0.0000 -0.2903
vn 0.9952 0.0000 -0.0980
vn 0.9952 0.0000 0.0980
vn 0.9569 0.0000 0.2903
vn 0.8819 0.0000 0.4714
vn 0.7730 0.0000 0.6344
vn 0.6344 0.0000 0.7730
vn 0.4714 0.0000 0.8819
vn 0.2903 0.0000 0.9569
vn 0.0980 0.0000 0.9952
vn -0.0980 0.0000 0.9952
vn -0.2903 0.0000 0.9569
vn -0.4714 0.0000 0.8819
vn -0.6344 0.0000 0.7730
vn -0.7730 0.0000 0.6344
vn -0.8819 0.0000 0.4714
vn -0.9569 0.0000 0.2903
vn -0.9952 0.0000 0.0980
vn -0.9952 0.0000 -0.0980
vn -0.9569 0.0000 -0.2903
vn -0.8819 0.0000 -0.4714
vn -0.7730 0.0000 -0.6344
vn -0.6344 0.0000 -0.7730
vn -0.4714 0.0000 -0.8819
vn -0.2903 0.0000 -0.9569
vn -0.0980 0.0000 -0.9952
s off
f 2/1/1 3/2/1 1/3/1
f 4/4/2 5/5/2 3/2/2
f 6/6/3 7/7/3 5/5/3
f 8/8/4 9/9/4 7/7/4
f 10/10/5 11/11/5 9/9/5
f 12/12/6 13/13/6 11/11/6
f 14/14/7 15/15/7 13/13/7
f 16/16/8 17/17/8 15/15/8
f 18/18/9 19/19/9 17/17/9
f 20/20/10 21/21/10 19/19/10
f 22/22/11 23/23/11 21/21/11
f 24/24/12 25/25/12 23/23/12
f 26/26/13 27/27/13 25/25/13
f 28/28/14 29/29/14 27/27/14
f 30/30/15 31/31/15 29/29/15
f 32/32/16 33/33/16 31/31/16
f 34/34/17 35/35/17 33/33/17
f 36/36/18 37/37/18 35/35/18
f 38/38/19 39/39/19 37/37/19
f 40/40/20 41/41/20 39/39/20
f 42/42/21 43/43/21 41/41/21
f 44/44/22 45/45/22 43/43/22
f 46/46/23 47/47/23 45/45/23
f 48/48/24 49/49/24 47/47/24
f 50/50/25 51/51/25 49/49/25
f 52/52/26 53/53/26 51/51/26
f 54/54/27 55/55/27 53/53/27
f 56/56/28 57/57/28 55/55/28
f 58/58/29 59/59/29 57/57/29
f 60/60/30 61/61/30 59/59/30
f 62/62/31 63/63/31 61/61/31
f 64/64/32 1/3/32 63/63/32
f 2/1/1 4/4/1 3/2/1
f 4/4/2 6/6/2 5/5/2
f 6/6/3 8/8/3 7/7/3
f 8/8/4 10/10/4 9/9/4
f 10/10/5 12/12/5 11/11/5
f 12/12/6 14/14/6 13/13/6
f 14/14/7 16/16/7 15/15/7
f 16/16/8 18/18/8 17/17/8
f 18/18/9 20/20/9 19/19/9
f 20/20/10 22/22/10 21/21/10
f 22/22/11 24/24/11 23/23/11
f 24/24/12 26/26/12 25/25/12
f 26/26/13 28/28/13 27/27/13
f 28/28/14 30/30/14 29/29/14
f 30/30/15 32/32/15 31/31/15
f 32/32/16 34/34/16 33/33/16
f 34/34/17 36/36/17 35/35/17
f 36/36/18 38/38/18 37/37/18
f 38/38/19 40/40/19 39/39/19
f 40/40/20 42/42/20 41/41/20
f 42/42/21 44/44/21 43/43/21
f 44/44/22 46/46/22 45/45/22
f 46/46/23 48/48/23 47/47/23
f 48/48/24 50/50/24 49/49/24
f 50/50/25 52/52/25 51/51/25
f 52/52/26 54/54/26 53/53/26
f 54/54/27 56/56/27 55/55/27
f 56/56/28 58/58/28 57/57/28
f 58/58/29 60/60/29 59/59/29
f 60/60/30 62/62/30 61/61/30
f 62/62/31 64/64/31 63/63/31
f 64/64/32 2/1/32 1/3/32
