# Blender v2.91.0 OBJ File: ''
# www.blender.org
o Circle_Circle.001
v 0.000000 0.000000 -4.755542
v -0.466125 0.000000 -4.732643
v -0.927760 0.000000 -4.664165
v -1.380461 0.000000 -4.550770
v -1.819867 0.000000 -4.393548
v -2.241747 0.000000 -4.194013
v -2.642038 0.000000 -3.954088
v -3.016884 0.000000 -3.676084
v -3.362676 0.000000 -3.362676
v -3.676083 0.000000 -3.016884
v -3.954088 0.000000 -2.642038
v -4.194013 0.000000 -2.241747
v -4.393548 0.000000 -1.819867
v -4.550770 0.000000 -1.380461
v -4.664165 0.000000 -0.927760
v -4.732643 0.000000 -0.466124
v -4.755542 0.000000 0.000001
v -4.732643 0.000000 0.466126
v -4.664165 0.000000 0.927761
v -4.550769 0.000000 1.380462
v -4.393547 0.000000 1.819868
v -4.194013 0.000000 2.241748
v -3.954087 0.000000 2.642039
v -3.676082 0.000000 3.016886
v -3.362674 0.000000 3.362678
v -3.016882 0.000000 3.676085
v -2.642035 0.000000 3.954090
v -2.241744 0.000000 4.194015
v -1.819864 0.000000 4.393549
v -1.380458 0.000000 4.550771
v -0.927757 0.000000 4.664166
v -0.466121 0.000000 4.732643
v 0.000004 0.000000 4.755542
v 0.466129 0.000000 4.732642
v 0.927764 0.000000 4.664165
v 1.380465 0.000000 4.550768
v 1.819871 0.000000 4.393546
v 2.241751 0.000000 4.194011
v 2.642041 0.000000 3.954086
v 3.016888 0.000000 3.676080
v 3.362680 0.000000 3.362672
v 3.676086 0.000000 3.016880
v 3.954090 0.000000 2.642035
v 4.194015 0.000000 2.241745
v 4.393548 0.000000 1.819866
v 4.550770 0.000000 1.380460
v 4.664165 0.000000 0.927760
v 4.732643 0.000000 0.466126
v 4.755542 0.000000 0.000002
v 4.732643 0.000000 -0.466121
v 4.664166 0.000000 -0.927756
v 4.550771 0.000000 -1.380456
v 4.393550 0.000000 -1.819862
v 4.194016 0.000000 -2.241741
v 3.954093 0.000000 -2.642031
v 3.676089 0.000000 -3.016877
v 3.362683 0.000000 -3.362669
v 3.016892 0.000000 -3.676077
v 2.642047 0.000000 -3.954082
v 2.241758 0.000000 -4.194007
v 1.819880 0.000000 -4.393542
v 1.380475 0.000000 -4.550766
v 0.927775 0.000000 -4.664163
v 0.466141 0.000000 -4.732641
v 0.000001 0.000000 -3.798985
v -0.372365 0.000000 -3.780692
v -0.741145 0.000000 -3.725988
v -1.102786 0.000000 -3.635402
v -1.453808 0.000000 -3.509804
v -1.790829 0.000000 -3.350405
v -2.110602 0.000000 -3.158740
v -2.410050 0.000000 -2.936655
v -2.686288 0.000000 -2.686288
v -2.936655 0.000000 -2.410050
v -3.158740 0.000000 -2.110603
v -3.350405 0.000000 -1.790829
v -3.509804 0.000000 -1.453808
v -3.635401 0.000000 -1.102787
v -3.725988 0.000000 -0.741145
v -3.780692 0.000000 -0.372365
v -3.798985 0.000000 0.000001
v -3.780692 0.000000 0.372367
v -3.725988 0.000000 0.741146
v -3.635401 0.000000 1.102789
v -3.509804 0.000000 1.453810
v -3.350405 0.000000 1.790830
v -3.158739 0.000000 2.110605
v -2.936654 0.000000 2.410052
v -2.686286 0.000000 2.686290
v -2.410048 0.000000 2.936656
v -2.110601 0.000000 3.158742
v -1.790826 0.000000 3.350407
v -1.453806 0.000000 3.509806
v -1.102784 0.000000 3.635403
v -0.741142 0.000000 3.725990
v -0.372362 0.000000 3.780692
v 0.000004 0.000000 3.798985
v 0.372369 0.000000 3.780692
v 0.741149 0.000000 3.725988
v 1.102791 0.000000 3.635401
v 1.453812 0.000000 3.509803
v 1.790833 0.000000 3.350404
v 2.110607 0.000000 3.158739
v 2.410054 0.000000 2.936653
v 2.686291 0.000000 2.686285
v 2.936658 0.000000 2.410048
v 3.158743 0.000000 2.110601
v 3.350407 0.000000 1.790828
v 3.509806 0.000000 1.453808
v 3.635403 0.000000 1.102787
v 3.725989 0.000000 0.741146
v 3.780692 0.000000 0.372367
v 3.798985 0.000000 0.000002
v 3.780693 0.000000 -0.372363
v 3.725990 0.000000 -0.741142
v 3.635404 0.000000 -1.102783
v 3.509807 0.000000 -1.453804
v 3.350409 0.000000 -1.790824
v 3.158745 0.000000 -2.110598
v 2.936660 0.000000 -2.410045
v 2.686294 0.000000 -2.686282
v 2.410058 0.000000 -2.936649
v 2.110611 0.000000 -3.158735
v 1.790838 0.000000 -3.350401
v 1.453819 0.000000 -3.509800
v 1.102799 0.000000 -3.635398
v 0.741158 0.000000 -3.725986
v 0.372379 0.000000 -3.780690
v 0.000000 -0.081456 -4.755542
v -0.466125 -0.081456 -4.732643
v -0.927760 -0.081456 -4.664165
v -1.380461 -0.081456 -4.550770
v -1.819867 -0.081456 -4.393548
v -2.241747 -0.081456 -4.194013
v -2.642038 -0.081456 -3.954088
v -3.016884 -0.081456 -3.676084
v -3.362676 -0.081456 -3.362676
v -3.676083 -0.081456 -3.016884
v -3.954088 -0.081456 -2.642038
v -4.194013 -0.081456 -2.241747
v -4.393548 -0.081456 -1.819867
v -4.550770 -0.081456 -1.380461
v -4.664165 -0.081456 -0.927760
v -4.732643 -0.081456 -0.466124
v -4.755542 -0.081456 0.000001
v -4.732643 -0.081456 0.466126
v -4.664165 -0.081456 0.927761
v -4.550769 -0.081456 1.380462
v -4.393547 -0.081456 1.819868
v -4.194013 -0.081456 2.241748
v -3.954087 -0.081456 2.642039
v -3.676082 -0.081456 3.016886
v -3.362674 -0.081456 3.362678
v -3.016882 -0.081456 3.676085
v -2.642035 -0.081456 3.954090
v -2.241744 -0.081456 4.194015
v -1.819864 -0.081456 4.393549
v -1.380458 -0.081456 4.550771
v -0.927757 -0.081456 4.664166
v -0.466121 -0.081456 4.732643
v 0.000004 -0.081456 4.755542
v 0.466129 -0.081456 4.732642
v 0.927764 -0.081456 4.664165
v 1.380465 -0.081456 4.550768
v 1.819871 -0.081456 4.393546
v 2.241751 -0.081456 4.194011
v 2.642041 -0.081456 3.954086
v 3.016888 -0.081456 3.676080
v 3.362680 -0.081456 3.362672
v 3.676086 -0.081456 3.016880
v 3.954090 -0.081456 2.642035
v 4.194015 -0.081456 2.241745
v 4.393548 -0.081456 1.819866
v 4.550770 -0.081456 1.380460
v 4.664165 -0.081456 0.927760
v 4.732643 -0.081456 0.466126
v 4.755542 -0.081456 0.000002
v 4.732643 -0.081456 -0.466121
v 4.664166 -0.081456 -0.927756
v 4.550771 -0.081456 -1.380456
v 4.393550 -0.081456 -1.819862
v 4.194016 -0.081456 -2.241741
v 3.954093 -0.081456 -2.642031
v 3.676089 -0.081456 -3.016877
v 3.362683 -0.081456 -3.362669
v 3.016892 -0.081456 -3.676077
v 2.642047 -0.081456 -3.954082
v 2.241758 -0.081456 -4.194007
v 1.819880 -0.081456 -4.393542
v 1.380475 -0.081456 -4.550766
v 0.927775 -0.081456 -4.664163
v 0.466141 -0.081456 -4.732641
v 0.000001 -0.081456 -3.798985
v -0.372365 -0.081456 -3.780692
v -0.741145 -0.081456 -3.725988
v -1.102786 -0.081456 -3.635402
v -1.453808 -0.081456 -3.509804
v -1.790829 -0.081456 -3.350405
v -2.110602 -0.081456 -3.158740
v -2.410050 -0.081456 -2.936655
v -2.686288 -0.081456 -2.686288
v -2.936655 -0.081456 -2.410050
v -3.158740 -0.081456 -2.110603
v -3.350405 -0.081456 -1.790829
v -3.509804 -0.081456 -1.453808
v -3.635401 -0.081456 -1.102787
v -3.725988 -0.081456 -0.741145
v -3.780692 -0.081456 -0.372365
v -3.798985 -0.081456 0.000001
v -3.780692 -0.081456 0.372367
v -3.725988 -0.081456 0.741146
v -3.635401 -0.081456 1.102789
v -3.509804 -0.081456 1.453810
v -3.350405 -0.081456 1.790830
v -3.158739 -0.081456 2.110605
v -2.936654 -0.081456 2.410052
v -2.686286 -0.081456 2.686290
v -2.410048 -0.081456 2.936656
v -2.110601 -0.081456 3.158742
v -1.790826 -0.081456 3.350407
v -1.453806 -0.081456 3.509806
v -1.102784 -0.081456 3.635403
v -0.741142 -0.081456 3.725990
v -0.372362 -0.081456 3.780692
v 0.000004 -0.081456 3.798985
v 0.372369 -0.081456 3.780692
v 0.741149 -0.081456 3.725988
v 1.102791 -0.081456 3.635401
v 1.453812 -0.081456 3.509803
v 1.790833 -0.081456 3.350404
v 2.110607 -0.081456 3.158739
v 2.410054 -0.081456 2.936653
v 2.686291 -0.081456 2.686285
v 2.936658 -0.081456 2.410048
v 3.158743 -0.081456 2.110601
v 3.350407 -0.081456 1.790828
v 3.509806 -0.081456 1.453808
v 3.635403 -0.081456 1.102787
v 3.725989 -0.081456 0.741146
v 3.780692 -0.081456 0.372367
v 3.798985 -0.081456 0.000002
v 3.780693 -0.081456 -0.372363
v 3.725990 -0.081456 -0.741142
v 3.635404 -0.081456 -1.102783
v 3.509807 -0.081456 -1.453804
v 3.350409 -0.081456 -1.790824
v 3.158745 -0.081456 -2.110598
v 2.936660 -0.081456 -2.410045
v 2.686294 -0.081456 -2.686282
v 2.410058 -0.081456 -2.936649
v 2.110611 -0.081456 -3.158735
v 1.790838 -0.081456 -3.350401
v 1.453819 -0.081456 -3.509800
v 1.102799 -0.081456 -3.635398
v 0.741158 -0.081456 -3.725986
v 0.372379 -0.081456 -3.780690
vt 0.868631 0.653656
vt 0.977963 0.645904
vt 0.961450 0.692345
vt 0.278326 0.166145
vt 0.183140 0.111466
vt 0.222510 0.082083
vt 0.851890 0.689276
vt 0.940493 0.736935
vt 0.264552 0.056725
vt 0.460891 0.899590
vt 0.500000 1.002624
vt 0.451043 1.000204
vt 0.831760 0.723074
vt 0.915294 0.779242
vt 0.308862 0.035636
vt 0.311911 0.145888
vt 0.422158 0.893808
vt 0.402558 0.992966
vt 0.808434 0.754723
vt 0.886096 0.818861
vt 0.355012 0.019019
vt 0.347308 0.129041
vt 0.384175 0.884234
vt 0.355012 0.980981
vt 0.782139 0.783919
vt 0.853179 0.855408
vt 0.422159 0.106192
vt 0.402559 0.007034
vt 0.347308 0.870959
vt 0.308861 0.964364
vt 0.753126 0.810381
vt 0.816861 0.888533
vt 0.451044 -0.000204
vt 0.311911 0.854112
vt 0.264552 0.943275
vt 0.721675 0.833854
vt 0.777491 0.917916
vt 0.500000 0.098476
vt 0.500000 -0.002624
vt 0.278326 0.833855
vt 0.222510 0.917917
vt 0.688090 0.854112
vt 0.735449 0.943274
vt 0.548957 -0.000204
vt 0.246875 0.810382
vt 0.183140 0.888534
vt 0.652693 0.870959
vt 0.691140 0.964364
vt 0.597442 0.007034
vt 0.539110 0.100410
vt 0.146822 0.855409
vt 0.615826 0.884234
vt 0.644990 0.980981
vt 0.644989 0.019019
vt 0.577842 0.106192
vt 0.113905 0.818861
vt 0.217862 0.783920
vt 0.577843 0.893808
vt 0.597443 0.992966
vt 0.691139 0.035636
vt 0.615825 0.115766
vt 0.168241 0.723074
vt 0.084706 0.779243
vt 0.539111 0.899590
vt 0.548958 1.000204
vt 0.688089 0.145888
vt 0.735449 0.056725
vt 0.148110 0.689277
vt 0.059507 0.736935
vt 0.500000 0.901523
vt 0.777491 0.082084
vt 0.038550 0.692346
vt 0.753125 0.189618
vt 0.816861 0.111467
vt 0.118178 0.616556
vt 0.022037 0.645904
vt 0.853179 0.144591
vt 0.010127 0.598057
vt 0.886096 0.181139
vt 0.782138 0.216080
vt 0.102918 0.539356
vt 0.002935 0.549266
vt 0.831759 0.276926
vt 0.915294 0.220757
vt 0.000530 0.500000
vt 0.851890 0.310723
vt 0.940493 0.263065
vt 0.102918 0.460644
vt 0.002935 0.450734
vt 0.868631 0.346344
vt 0.961450 0.307654
vt 0.010128 0.401943
vt 0.977962 0.354096
vt 0.022037 0.354096
vt 0.108663 0.421667
vt 0.891337 0.421667
vt 0.989872 0.401943
vt 0.038550 0.307654
vt 0.118178 0.383444
vt 0.897082 0.460644
vt 0.997065 0.450734
vt 0.059507 0.263064
vt 0.131369 0.346343
vt 0.899003 0.500000
vt 0.999470 0.500000
vt 0.084706 0.220757
vt 0.148111 0.310723
vt 0.897082 0.539356
vt 0.997065 0.549265
vt 0.191566 0.245276
vt 0.113905 0.181138
vt 0.891337 0.578333
vt 0.989872 0.598057
vt 0.146822 0.144591
vt 0.881823 0.616556
vt 0.217862 0.216080
vt 0.977963 0.645904
vt 0.868631 0.653656
vt 0.961450 0.692345
vt 0.222510 0.082083
vt 0.246875 0.189618
vt 0.278326 0.166145
vt 0.851890 0.689276
vt 0.940493 0.736935
vt 0.264552 0.056725
vt 0.311911 0.145888
vt 0.500000 1.002624
vt 0.460891 0.899590
vt 0.451043 1.000204
vt 0.831760 0.723074
vt 0.915294 0.779242
vt 0.308862 0.035636
vt 0.347308 0.129041
vt 0.422158 0.893808
vt 0.402558 0.992966
vt 0.808434 0.754723
vt 0.886096 0.818861
vt 0.355012 0.019019
vt 0.384176 0.115766
vt 0.384175 0.884234
vt 0.355012 0.980981
vt 0.782139 0.783919
vt 0.853179 0.855408
vt 0.422159 0.106192
vt 0.402559 0.007034
vt 0.347308 0.870959
vt 0.308861 0.964364
vt 0.753126 0.810381
vt 0.816861 0.888533
vt 0.451044 -0.000204
vt 0.460891 0.100410
vt 0.311911 0.854112
vt 0.264552 0.943275
vt 0.721675 0.833854
vt 0.777491 0.917916
vt 0.500000 -0.002624
vt 0.500000 0.098476
vt 0.278326 0.833855
vt 0.222510 0.917917
vt 0.688090 0.854112
vt 0.735449 0.943274
vt 0.548957 -0.000204
vt 0.539110 0.100410
vt 0.246875 0.810382
vt 0.183140 0.888534
vt 0.652693 0.870959
vt 0.691140 0.964364
vt 0.597442 0.007034
vt 0.577842 0.106192
vt 0.146822 0.855409
vt 0.217862 0.783920
vt 0.615826 0.884234
vt 0.644990 0.980981
vt 0.644989 0.019019
vt 0.615825 0.115766
vt 0.191566 0.754724
vt 0.113905 0.818861
vt 0.577843 0.893808
vt 0.597443 0.992966
vt 0.691139 0.035636
vt 0.652692 0.129041
vt 0.168241 0.723074
vt 0.084706 0.779243
vt 0.539111 0.899590
vt 0.548958 1.000204
vt 0.688089 0.145888
vt 0.735449 0.056725
vt 0.148110 0.689277
vt 0.059507 0.736935
vt 0.500000 0.901523
vt 0.777491 0.082084
vt 0.721675 0.166146
vt 0.038550 0.692346
vt 0.131369 0.653656
vt 0.753125 0.189618
vt 0.816861 0.111467
vt 0.118178 0.616556
vt 0.022037 0.645904
vt 0.853179 0.144591
vt 0.782138 0.216080
vt 0.010127 0.598057
vt 0.108663 0.578333
vt 0.886096 0.181139
vt 0.808434 0.245277
vt 0.102918 0.539356
vt 0.002935 0.549266
vt 0.831759 0.276926
vt 0.915294 0.220757
vt 0.000530 0.500000
vt 0.100997 0.500000
vt 0.940493 0.263065
vt 0.851890 0.310723
vt 0.102918 0.460644
vt 0.002935 0.450734
vt 0.868631 0.346344
vt 0.961450 0.307654
vt 0.010128 0.401943
vt 0.108663 0.421667
vt 0.977962 0.354096
vt 0.881822 0.383444
vt 0.022037 0.354096
vt 0.118178 0.383444
vt 0.891337 0.421667
vt 0.989872 0.401943
vt 0.038550 0.307654
vt 0.131369 0.346343
vt 0.897082 0.460644
vt 0.997065 0.450734
vt 0.059507 0.263064
vt 0.148111 0.310723
vt 0.999470 0.500000
vt 0.899003 0.500000
vt 0.084706 0.220757
vt 0.168241 0.276925
vt 0.897082 0.539356
vt 0.997065 0.549265
vt 0.191566 0.245276
vt 0.113905 0.181138
vt 0.891337 0.578333
vt 0.989872 0.598057
vt 0.146822 0.144591
vt 0.217862 0.216080
vt 0.881823 0.616556
vt 0.183140 0.111466
vt 0.460891 0.100410
vt 0.652692 0.129041
vt 0.721675 0.166146
vt 0.808434 0.245277
vt 0.881822 0.383444
vt 0.191566 0.754724
vt 0.131369 0.653656
vt 0.108663 0.578333
vt 0.100997 0.500000
vt 0.168241 0.276925
vt 0.246875 0.189618
vt 0.384176 0.115766
vn 0.0000 1.0000 0.0000
vn 0.0000 -1.0000 0.0000
vn 0.1467 0.0000 -0.9892
vn 0.9040 0.0000 0.4276
vn 0.0491 0.0000 -0.9988
vn 0.9415 0.0000 0.3369
vn -0.0491 0.0000 -0.9988
vn 0.9700 0.0000 0.2430
vn -0.1467 0.0000 -0.9892
vn 0.9892 0.0000 0.1467
vn -0.2430 0.0000 -0.9700
vn 0.9988 0.0000 0.0491
vn -0.3369 0.0000 -0.9415
vn 0.9988 0.0000 -0.0491
vn -0.4276 0.0000 -0.9040
vn 0.9892 0.0000 -0.1467
vn -0.5141 0.0000 -0.8577
vn 0.9700 0.0000 -0.2430
vn -0.5957 0.0000 -0.8032
vn 0.9415 0.0000 -0.3369
vn -0.6716 0.0000 -0.7409
vn 0.9040 0.0000 -0.4276
vn -0.7410 0.0000 -0.6716
vn 0.8577 0.0000 -0.5141
vn -0.8032 0.0000 -0.5957
vn 0.8032 0.0000 -0.5957
vn -0.8577 0.0000 -0.5141
vn 0.7410 0.0000 -0.6716
vn -0.9040 0.0000 -0.4276
vn 0.6716 0.0000 -0.7409
vn -0.9415 0.0000 -0.3369
vn 0.5957 0.0000 -0.8032
vn -0.9700 0.0000 -0.2430
vn 0.5141 0.0000 -0.8577
vn -0.6716 0.0000 -0.7410
vn -0.9892 0.0000 -0.1467
vn 0.4276 0.0000 -0.9040
vn -0.9988 0.0000 -0.0491
vn 0.3369 0.0000 -0.9415
vn -0.9988 0.0000 0.0491
vn 0.2430 0.0000 -0.9700
vn -0.9892 0.0000 0.1467
vn -0.9700 0.0000 0.2430
vn -0.9415 0.0000 0.3369
vn 0.0491 0.0000 0.9988
vn -0.9040 0.0000 0.4276
vn 0.1467 0.0000 0.9892
vn -0.8577 0.0000 0.5141
vn 0.2430 0.0000 0.9700
vn -0.8032 0.0000 0.5957
vn 0.3369 0.0000 0.9415
vn -0.7410 0.0000 0.6716
vn 0.4276 0.0000 0.9040
vn -0.6716 0.0000 0.7410
vn 0.5141 0.0000 0.8577
vn -0.5957 0.0000 0.8032
vn 0.5957 0.0000 0.8032
vn -0.5141 0.0000 0.8577
vn 0.6716 0.0000 0.7410
vn -0.4276 0.0000 0.9040
vn 0.7410 0.0000 0.6716
vn -0.3369 0.0000 0.9415
vn 0.8032 0.0000 0.5957
vn -0.2430 0.0000 0.9700
vn 0.8577 0.0000 0.5141
vn -0.1467 0.0000 0.9892
vn -0.0491 0.0000 0.9988
vn 0.6716 0.0000 -0.7410
s off
f 117/1/1 52/2/1 53/3/1
f 91/4/1 26/5/1 27/6/1
f 118/7/1 53/3/1 54/8/1
f 28/9/1 91/4/1 27/6/1
f 66/10/1 1/11/1 2/12/1
f 119/13/1 54/8/1 55/14/1
f 29/15/1 92/16/1 28/9/1
f 67/17/1 2/12/1 3/18/1
f 120/19/1 55/14/1 56/20/1
f 30/21/1 93/22/1 29/15/1
f 68/23/1 3/18/1 4/24/1
f 121/25/1 56/20/1 57/26/1
f 95/27/1 30/21/1 31/28/1
f 69/29/1 4/24/1 5/30/1
f 122/31/1 57/26/1 58/32/1
f 32/33/1 95/27/1 31/28/1
f 70/34/1 5/30/1 6/35/1
f 123/36/1 58/32/1 59/37/1
f 97/38/1 32/33/1 33/39/1
f 71/40/1 6/35/1 7/41/1
f 124/42/1 59/37/1 60/43/1
f 34/44/1 97/38/1 33/39/1
f 72/45/1 7/41/1 8/46/1
f 125/47/1 60/43/1 61/48/1
f 35/49/1 98/50/1 34/44/1
f 9/51/1 72/45/1 8/46/1
f 126/52/1 61/48/1 62/53/1
f 36/54/1 99/55/1 35/49/1
f 10/56/1 73/57/1 9/51/1
f 127/58/1 62/53/1 63/59/1
f 37/60/1 100/61/1 36/54/1
f 75/62/1 10/56/1 11/63/1
f 128/64/1 63/59/1 64/65/1
f 102/66/1 37/60/1 38/67/1
f 76/68/1 11/63/1 12/69/1
f 65/70/1 64/65/1 1/11/1
f 39/71/1 102/66/1 38/67/1
f 13/72/1 76/68/1 12/69/1
f 104/73/1 39/71/1 40/74/1
f 78/75/1 13/72/1 14/76/1
f 41/77/1 104/73/1 40/74/1
f 15/78/1 78/75/1 14/76/1
f 42/79/1 105/80/1 41/77/1
f 80/81/1 15/78/1 16/82/1
f 107/83/1 42/79/1 43/84/1
f 17/85/1 80/81/1 16/82/1
f 108/86/1 43/84/1 44/87/1
f 82/88/1 17/85/1 18/89/1
f 109/90/1 44/87/1 45/91/1
f 19/92/1 82/88/1 18/89/1
f 46/93/1 109/90/1 45/91/1
f 20/94/1 83/95/1 19/92/1
f 111/96/1 46/93/1 47/97/1
f 21/98/1 84/99/1 20/94/1
f 112/100/1 47/97/1 48/101/1
f 22/102/1 85/103/1 21/98/1
f 113/104/1 48/101/1 49/105/1
f 23/106/1 86/107/1 22/102/1
f 114/108/1 49/105/1 50/109/1
f 88/110/1 23/106/1 24/111/1
f 115/112/1 50/109/1 51/113/1
f 25/114/1 88/110/1 24/111/1
f 116/115/1 51/113/1 52/2/1
f 26/5/1 89/116/1 25/114/1
f 180/117/2 245/118/2 181/119/2
f 155/120/2 218/121/2 219/122/2
f 181/119/2 246/123/2 182/124/2
f 156/125/2 219/122/2 220/126/2
f 129/127/2 194/128/2 130/129/2
f 182/124/2 247/130/2 183/131/2
f 157/132/2 220/126/2 221/133/2
f 130/129/2 195/134/2 131/135/2
f 183/131/2 248/136/2 184/137/2
f 158/138/2 221/133/2 222/139/2
f 131/135/2 196/140/2 132/141/2
f 184/137/2 249/142/2 185/143/2
f 158/138/2 223/144/2 159/145/2
f 132/141/2 197/146/2 133/147/2
f 185/143/2 250/148/2 186/149/2
f 160/150/2 223/144/2 224/151/2
f 133/147/2 198/152/2 134/153/2
f 186/149/2 251/154/2 187/155/2
f 161/156/2 224/151/2 225/157/2
f 134/153/2 199/158/2 135/159/2
f 187/155/2 252/160/2 188/161/2
f 162/162/2 225/157/2 226/163/2
f 135/159/2 200/164/2 136/165/2
f 188/161/2 253/166/2 189/167/2
f 163/168/2 226/163/2 227/169/2
f 137/170/2 200/164/2 201/171/2
f 189/167/2 254/172/2 190/173/2
f 164/174/2 227/169/2 228/175/2
f 137/170/2 202/176/2 138/177/2
f 190/173/2 255/178/2 191/179/2
f 165/180/2 228/175/2 229/181/2
f 138/177/2 203/182/2 139/183/2
f 191/179/2 256/184/2 192/185/2
f 165/180/2 230/186/2 166/187/2
f 139/183/2 204/188/2 140/189/2
f 192/185/2 193/190/2 129/127/2
f 167/191/2 230/186/2 231/192/2
f 141/193/2 204/188/2 205/194/2
f 167/191/2 232/195/2 168/196/2
f 141/193/2 206/197/2 142/198/2
f 169/199/2 232/195/2 233/200/2
f 143/201/2 206/197/2 207/202/2
f 170/203/2 233/200/2 234/204/2
f 143/201/2 208/205/2 144/206/2
f 170/203/2 235/207/2 171/208/2
f 145/209/2 208/205/2 209/210/2
f 172/211/2 235/207/2 236/212/2
f 145/209/2 210/213/2 146/214/2
f 172/211/2 237/215/2 173/216/2
f 147/217/2 210/213/2 211/218/2
f 174/219/2 237/215/2 238/220/2
f 148/221/2 211/218/2 212/222/2
f 174/219/2 239/223/2 175/224/2
f 149/225/2 212/222/2 213/226/2
f 175/224/2 240/227/2 176/228/2
f 150/229/2 213/226/2 214/230/2
f 177/231/2 240/227/2 241/232/2
f 151/233/2 214/230/2 215/234/2
f 177/231/2 242/235/2 178/236/2
f 151/233/2 216/237/2 152/238/2
f 178/236/2 243/239/2 179/240/2
f 153/241/2 216/237/2 217/242/2
f 179/240/2 244/243/2 180/117/2
f 154/244/2 217/242/2 218/121/2
f 96/245/3 223/144/3 95/27/3
f 44/87/4 173/216/4 45/91/4
f 97/38/5 224/151/5 96/245/5
f 45/91/6 174/219/6 46/93/6
f 98/50/7 225/157/7 97/38/7
f 46/93/8 175/224/8 47/97/8
f 99/55/9 226/163/9 98/50/9
f 47/97/10 176/228/10 48/101/10
f 100/61/11 227/169/11 99/55/11
f 48/101/12 177/231/12 49/105/12
f 101/246/13 228/175/13 100/61/13
f 49/105/14 178/236/14 50/109/14
f 102/66/15 229/181/15 101/246/15
f 50/109/16 179/240/16 51/113/16
f 103/247/17 230/186/17 102/66/17
f 51/113/18 180/117/18 52/2/18
f 104/73/19 231/192/19 103/247/19
f 52/2/20 181/119/20 53/3/20
f 1/11/7 130/129/7 2/12/7
f 105/80/21 232/195/21 104/73/21
f 53/3/22 182/124/22 54/8/22
f 2/12/9 131/135/9 3/18/9
f 106/248/23 233/200/23 105/80/23
f 54/8/24 183/131/24 55/14/24
f 3/18/11 132/141/11 4/24/11
f 107/83/25 234/204/25 106/248/25
f 55/14/26 184/137/26 56/20/26
f 4/24/13 133/147/13 5/30/13
f 108/86/27 235/207/27 107/83/27
f 56/20/28 185/143/28 57/26/28
f 5/30/15 134/153/15 6/35/15
f 109/90/29 236/212/29 108/86/29
f 57/26/30 186/149/30 58/32/30
f 6/35/17 135/159/17 7/41/17
f 110/249/31 237/215/31 109/90/31
f 58/32/32 187/155/32 59/37/32
f 7/41/19 136/165/19 8/46/19
f 111/96/33 238/220/33 110/249/33
f 59/37/34 188/161/34 60/43/34
f 8/46/35 137/170/35 9/51/35
f 112/100/36 239/223/36 111/96/36
f 60/43/37 189/167/37 61/48/37
f 9/51/23 138/177/23 10/56/23
f 113/104/38 240/227/38 112/100/38
f 61/48/39 190/173/39 62/53/39
f 10/56/25 139/183/25 11/63/25
f 114/108/40 241/232/40 113/104/40
f 62/53/41 191/179/41 63/59/41
f 11/63/27 140/189/27 12/69/27
f 115/112/42 242/235/42 114/108/42
f 63/59/3 192/185/3 64/65/3
f 12/69/29 141/193/29 13/72/29
f 116/115/43 243/239/43 115/112/43
f 64/65/5 129/127/5 1/11/5
f 13/72/31 142/198/31 14/76/31
f 117/1/44 244/243/44 116/115/44
f 66/10/45 193/190/45 65/70/45
f 14/76/33 143/201/33 15/78/33
f 118/7/46 245/118/46 117/1/46
f 67/17/47 194/128/47 66/10/47
f 15/78/36 144/206/36 16/82/36
f 119/13/48 246/123/48 118/7/48
f 68/23/49 195/134/49 67/17/49
f 16/82/38 145/209/38 17/85/38
f 120/19/50 247/130/50 119/13/50
f 69/29/51 196/140/51 68/23/51
f 17/85/40 146/214/40 18/89/40
f 121/25/52 248/136/52 120/19/52
f 70/34/53 197/146/53 69/29/53
f 18/89/42 147/217/42 19/92/42
f 122/31/54 249/142/54 121/25/54
f 71/40/55 198/152/55 70/34/55
f 19/92/43 148/221/43 20/94/43
f 123/36/56 250/148/56 122/31/56
f 72/45/57 199/158/57 71/40/57
f 20/94/44 149/225/44 21/98/44
f 124/42/58 251/154/58 123/36/58
f 73/57/59 200/164/59 72/45/59
f 21/98/46 150/229/46 22/102/46
f 125/47/60 252/160/60 124/42/60
f 74/250/61 201/171/61 73/57/61
f 22/102/48 151/233/48 23/106/48
f 126/52/62 253/166/62 125/47/62
f 75/62/63 202/176/63 74/250/63
f 23/106/50 152/238/50 24/111/50
f 127/58/64 254/172/64 126/52/64
f 76/68/65 203/182/65 75/62/65
f 24/111/52 153/241/52 25/114/52
f 128/64/66 255/178/66 127/58/66
f 77/251/4 204/188/4 76/68/4
f 25/114/54 154/244/54 26/5/54
f 65/70/67 256/184/67 128/64/67
f 78/75/6 205/194/6 77/251/6
f 26/5/56 155/120/56 27/6/56
f 79/252/8 206/197/8 78/75/8
f 27/6/58 156/125/58 28/9/58
f 80/81/10 207/202/10 79/252/10
f 28/9/60 157/132/60 29/15/60
f 81/253/12 208/205/12 80/81/12
f 29/15/62 158/138/62 30/21/62
f 82/88/14 209/210/14 81/253/14
f 30/21/64 159/145/64 31/28/64
f 83/95/16 210/213/16 82/88/16
f 31/28/66 160/150/66 32/33/66
f 84/99/18 211/218/18 83/95/18
f 32/33/67 161/156/67 33/39/67
f 85/103/20 212/222/20 84/99/20
f 33/39/45 162/162/45 34/44/45
f 86/107/22 213/226/22 85/103/22
f 34/44/47 163/168/47 35/49/47
f 87/254/24 214/230/24 86/107/24
f 35/49/49 164/174/49 36/54/49
f 88/110/26 215/234/26 87/254/26
f 36/54/51 165/180/51 37/60/51
f 89/116/28 216/237/28 88/110/28
f 37/60/53 166/187/53 38/67/53
f 90/255/68 217/242/68 89/116/68
f 38/67/55 167/191/55 39/71/55
f 91/4/32 218/121/32 90/255/32
f 39/71/57 168/196/57 40/74/57
f 92/16/34 219/122/34 91/4/34
f 40/74/59 169/199/59 41/77/59
f 93/22/37 220/126/37 92/16/37
f 41/77/61 170/203/61 42/79/61
f 94/256/39 221/133/39 93/22/39
f 42/79/63 171/208/63 43/84/63
f 95/27/41 222/139/41 94/256/41
f 43/84/65 172/211/65 44/87/65
f 117/1/1 116/115/1 52/2/1
f 91/4/1 90/255/1 26/5/1
f 118/7/1 117/1/1 53/3/1
f 28/9/1 92/16/1 91/4/1
f 66/10/1 65/70/1 1/11/1
f 119/13/1 118/7/1 54/8/1
f 29/15/1 93/22/1 92/16/1
f 67/17/1 66/10/1 2/12/1
f 120/19/1 119/13/1 55/14/1
f 30/21/1 94/256/1 93/22/1
f 68/23/1 67/17/1 3/18/1
f 121/25/1 120/19/1 56/20/1
f 95/27/1 94/256/1 30/21/1
f 69/29/1 68/23/1 4/24/1
f 122/31/1 121/25/1 57/26/1
f 32/33/1 96/245/1 95/27/1
f 70/34/1 69/29/1 5/30/1
f 123/36/1 122/31/1 58/32/1
f 97/38/1 96/245/1 32/33/1
f 71/40/1 70/34/1 6/35/1
f 124/42/1 123/36/1 59/37/1
f 34/44/1 98/50/1 97/38/1
f 72/45/1 71/40/1 7/41/1
f 125/47/1 124/42/1 60/43/1
f 35/49/1 99/55/1 98/50/1
f 9/51/1 73/57/1 72/45/1
f 126/52/1 125/47/1 61/48/1
f 36/54/1 100/61/1 99/55/1
f 10/56/1 74/250/1 73/57/1
f 127/58/1 126/52/1 62/53/1
f 37/60/1 101/246/1 100/61/1
f 75/62/1 74/250/1 10/56/1
f 128/64/1 127/58/1 63/59/1
f 102/66/1 101/246/1 37/60/1
f 76/68/1 75/62/1 11/63/1
f 65/70/1 128/64/1 64/65/1
f 39/71/1 103/247/1 102/66/1
f 13/72/1 77/251/1 76/68/1
f 104/73/1 103/247/1 39/71/1
f 78/75/1 77/251/1 13/72/1
f 41/77/1 105/80/1 104/73/1
f 15/78/1 79/252/1 78/75/1
f 42/79/1 106/248/1 105/80/1
f 80/81/1 79/252/1 15/78/1
f 107/83/1 106/248/1 42/79/1
f 17/85/1 81/253/1 80/81/1
f 108/86/1 107/83/1 43/84/1
f 82/88/1 81/253/1 17/85/1
f 109/90/1 108/86/1 44/87/1
f 19/92/1 83/95/1 82/88/1
f 46/93/1 110/249/1 109/90/1
f 20/94/1 84/99/1 83/95/1
f 111/96/1 110/249/1 46/93/1
f 21/98/1 85/103/1 84/99/1
f 112/100/1 111/96/1 47/97/1
f 22/102/1 86/107/1 85/103/1
f 113/104/1 112/100/1 48/101/1
f 23/106/1 87/254/1 86/107/1
f 114/108/1 113/104/1 49/105/1
f 88/110/1 87/254/1 23/106/1
f 115/112/1 114/108/1 50/109/1
f 25/114/1 89/116/1 88/110/1
f 116/115/1 115/112/1 51/113/1
f 26/5/1 90/255/1 89/116/1
f 180/117/2 244/243/2 245/118/2
f 155/120/2 154/244/2 218/121/2
f 181/119/2 245/118/2 246/123/2
f 156/125/2 155/120/2 219/122/2
f 129/127/2 193/190/2 194/128/2
f 182/124/2 246/123/2 247/130/2
f 157/132/2 156/125/2 220/126/2
f 130/129/2 194/128/2 195/134/2
f 183/131/2 247/130/2 248/136/2
f 158/138/2 157/132/2 221/133/2
f 131/135/2 195/134/2 196/140/2
f 184/137/2 248/136/2 249/142/2
f 158/138/2 222/139/2 223/144/2
f 132/141/2 196/140/2 197/146/2
f 185/143/2 249/142/2 250/148/2
f 160/150/2 159/145/2 223/144/2
f 133/147/2 197/146/2 198/152/2
f 186/149/2 250/148/2 251/154/2
f 161/156/2 160/150/2 224/151/2
f 134/153/2 198/152/2 199/158/2
f 187/155/2 251/154/2 252/160/2
f 162/162/2 161/156/2 225/157/2
f 135/159/2 199/158/2 200/164/2
f 188/161/2 252/160/2 253/166/2
f 163/168/2 162/162/2 226/163/2
f 137/170/2 136/165/2 200/164/2
f 189/167/2 253/166/2 254/172/2
f 164/174/2 163/168/2 227/169/2
f 137/170/2 201/171/2 202/176/2
f 190/173/2 254/172/2 255/178/2
f 165/180/2 164/174/2 228/175/2
f 138/177/2 202/176/2 203/182/2
f 191/179/2 255/178/2 256/184/2
f 165/180/2 229/181/2 230/186/2
f 139/183/2 203/182/2 204/188/2
f 192/185/2 256/184/2 193/190/2
f 167/191/2 166/187/2 230/186/2
f 141/193/2 140/189/2 204/188/2
f 167/191/2 231/192/2 232/195/2
f 141/193/2 205/194/2 206/197/2
f 169/199/2 168/196/2 232/195/2
f 143/201/2 142/198/2 206/197/2
f 170/203/2 169/199/2 233/200/2
f 143/201/2 207/202/2 208/205/2
f 170/203/2 234/204/2 235/207/2
f 145/209/2 144/206/2 208/205/2
f 172/211/2 171/208/2 235/207/2
f 145/209/2 209/210/2 210/213/2
f 172/211/2 236/212/2 237/215/2
f 147/217/2 146/214/2 210/213/2
f 174/219/2 173/216/2 237/215/2
f 148/221/2 147/217/2 211/218/2
f 174/219/2 238/220/2 239/223/2
f 149/225/2 148/221/2 212/222/2
f 175/224/2 239/223/2 240/227/2
f 150/229/2 149/225/2 213/226/2
f 177/231/2 176/228/2 240/227/2
f 151/233/2 150/229/2 214/230/2
f 177/231/2 241/232/2 242/235/2
f 151/233/2 215/234/2 216/237/2
f 178/236/2 242/235/2 243/239/2
f 153/241/2 152/238/2 216/237/2
f 179/240/2 243/239/2 244/243/2
f 154/244/2 153/241/2 217/242/2
f 96/245/3 224/151/3 223/144/3
f 44/87/4 172/211/4 173/216/4
f 97/38/5 225/157/5 224/151/5
f 45/91/6 173/216/6 174/219/6
f 98/50/7 226/163/7 225/157/7
f 46/93/8 174/219/8 175/224/8
f 99/55/9 227/169/9 226/163/9
f 47/97/10 175/224/10 176/228/10
f 100/61/11 228/175/11 227/169/11
f 48/101/12 176/228/12 177/231/12
f 101/246/13 229/181/13 228/175/13
f 49/105/14 177/231/14 178/236/14
f 102/66/15 230/186/15 229/181/15
f 50/109/16 178/236/16 179/240/16
f 103/247/17 231/192/17 230/186/17
f 51/113/18 179/240/18 180/117/18
f 104/73/19 232/195/19 231/192/19
f 52/2/20 180/117/20 181/119/20
f 1/11/7 129/127/7 130/129/7
f 105/80/35 233/200/35 232/195/35
f 53/3/22 181/119/22 182/124/22
f 2/12/9 130/129/9 131/135/9
f 106/248/23 234/204/23 233/200/23
f 54/8/24 182/124/24 183/131/24
f 3/18/11 131/135/11 132/141/11
f 107/83/25 235/207/25 234/204/25
f 55/14/26 183/131/26 184/137/26
f 4/24/13 132/141/13 133/147/13
f 108/86/27 236/212/27 235/207/27
f 56/20/28 184/137/28 185/143/28
f 5/30/15 133/147/15 134/153/15
f 109/90/29 237/215/29 236/212/29
f 57/26/30 185/143/30 186/149/30
f 6/35/17 134/153/17 135/159/17
f 110/249/31 238/220/31 237/215/31
f 58/32/32 186/149/32 187/155/32
f 7/41/19 135/159/19 136/165/19
f 111/96/33 239/223/33 238/220/33
f 59/37/34 187/155/34 188/161/34
f 8/46/35 136/165/35 137/170/35
f 112/100/36 240/227/36 239/223/36
f 60/43/37 188/161/37 189/167/37
f 9/51/23 137/170/23 138/177/23
f 113/104/38 241/232/38 240/227/38
f 61/48/39 189/167/39 190/173/39
f 10/56/25 138/177/25 139/183/25
f 114/108/40 242/235/40 241/232/40
f 62/53/41 190/173/41 191/179/41
f 11/63/27 139/183/27 140/189/27
f 115/112/42 243/239/42 242/235/42
f 63/59/3 191/179/3 192/185/3
f 12/69/29 140/189/29 141/193/29
f 116/115/43 244/243/43 243/239/43
f 64/65/5 192/185/5 129/127/5
f 13/72/31 141/193/31 142/198/31
f 117/1/44 245/118/44 244/243/44
f 66/10/45 194/128/45 193/190/45
f 14/76/33 142/198/33 143/201/33
f 118/7/46 246/123/46 245/118/46
f 67/17/47 195/134/47 194/128/47
f 15/78/36 143/201/36 144/206/36
f 119/13/48 247/130/48 246/123/48
f 68/23/49 196/140/49 195/134/49
f 16/82/38 144/206/38 145/209/38
f 120/19/50 248/136/50 247/130/50
f 69/29/51 197/146/51 196/140/51
f 17/85/40 145/209/40 146/214/40
f 121/25/52 249/142/52 248/136/52
f 70/34/53 198/152/53 197/146/53
f 18/89/42 146/214/42 147/217/42
f 122/31/54 250/148/54 249/142/54
f 71/40/55 199/158/55 198/152/55
f 19/92/43 147/217/43 148/221/43
f 123/36/56 251/154/56 250/148/56
f 72/45/57 200/164/57 199/158/57
f 20/94/44 148/221/44 149/225/44
f 124/42/58 252/160/58 251/154/58
f 73/57/59 201/171/59 200/164/59
f 21/98/46 149/225/46 150/229/46
f 125/47/60 253/166/60 252/160/60
f 74/250/61 202/176/61 201/171/61
f 22/102/48 150/229/48 151/233/48
f 126/52/62 254/172/62 253/166/62
f 75/62/63 203/182/63 202/176/63
f 23/106/50 151/233/50 152/238/50
f 127/58/64 255/178/64 254/172/64
f 76/68/65 204/188/65 203/182/65
f 24/111/52 152/238/52 153/241/52
f 128/64/66 256/184/66 255/178/66
f 77/251/4 205/194/4 204/188/4
f 25/114/54 153/241/54 154/244/54
f 65/70/67 193/190/67 256/184/67
f 78/75/6 206/197/6 205/194/6
f 26/5/56 154/244/56 155/120/56
f 79/252/8 207/202/8 206/197/8
f 27/6/58 155/120/58 156/125/58
f 80/81/10 208/205/10 207/202/10
f 28/9/60 156/125/60 157/132/60
f 81/253/12 209/210/12 208/205/12
f 29/15/62 157/132/62 158/138/62
f 82/88/14 210/213/14 209/210/14
f 30/21/64 158/138/64 159/145/64
f 83/95/16 211/218/16 210/213/16
f 31/28/66 159/145/66 160/150/66
f 84/99/18 212/222/18 211/218/18
f 32/33/67 160/150/67 161/156/67
f 85/103/20 213/226/20 212/222/20
f 33/39/45 161/156/45 162/162/45
f 86/107/22 214/230/22 213/226/22
f 34/44/47 162/162/47 163/168/47
f 87/254/24 215/234/24 214/230/24
f 35/49/49 163/168/49 164/174/49
f 88/110/26 216/237/26 215/234/26
f 36/54/51 164/174/51 165/180/51
f 89/116/28 217/242/28 216/237/28
f 37/60/53 165/180/53 166/187/53
f 90/255/68 218/121/68 217/242/68
f 38/67/55 166/187/55 167/191/55
f 91/4/32 219/122/32 218/121/32
f 39/71/57 167/191/57 168/196/57
f 92/16/34 220/126/34 219/122/34
f 40/74/59 168/196/59 169/199/59
f 93/22/37 221/133/37 220/126/37
f 41/77/61 169/199/61 170/203/61
f 94/256/39 222/139/39 221/133/39
f 42/79/63 170/203/63 171/208/63
f 95/27/41 223/144/41 222/139/41
f 43/84/65 171/208/65 172/211/65
