# Blender v2.90.1 OBJ File: 'gateTollan_chevron.blend'
# www.blender.org
v -0.194180 4.217458 0.330836
v -0.194180 4.217458 0.265622
v -0.128966 4.217458 0.330836
v -0.128966 4.217458 0.265622
v 0.132431 4.217458 0.330836
v 0.132431 4.217458 0.265622
v 0.197645 4.217458 0.330836
v 0.197645 4.217458 0.265622
v -0.194180 4.217458 -0.142190
v -0.194180 4.217458 -0.207404
v -0.128966 4.217458 -0.142190
v -0.128966 4.217458 -0.207404
v 0.132431 4.217458 -0.142190
v 0.132431 4.217458 -0.207404
v 0.197645 4.217458 -0.142190
v 0.197645 4.217458 -0.207404
v -0.226894 4.867914 0.299602
v -0.226894 4.867914 -0.242876
v 0.226894 4.867914 0.299602
v 0.226894 4.867914 -0.242876
v -0.146460 4.867914 -0.242876
v 0.146460 4.867914 -0.242876
v 0.146460 4.867914 0.306919
v -0.146460 4.867914 0.306919
v -0.143279 4.857872 -0.232113
v 0.143279 4.857872 -0.232113
v 0.143279 4.857872 0.299360
v -0.143279 4.857872 0.299360
v -0.092113 4.857872 -0.232113
v 0.092113 4.857872 -0.232113
v 0.092113 4.857872 0.300518
v -0.092113 4.857872 0.300518
v -0.226894 4.888364 0.226578
v -0.226894 4.888364 -0.187233
v 0.226894 4.888364 -0.187233
v 0.226894 4.888364 0.226578
v 0.146460 4.888364 -0.187233
v 0.146460 4.888364 0.241424
v -0.146460 4.888364 -0.187233
v -0.146460 4.888364 0.241424
v 0.143279 4.878322 -0.180739
v 0.143279 4.878322 0.239406
v -0.143279 4.878322 -0.180739
v -0.143279 4.878322 0.239406
v 0.092113 4.878322 -0.180739
v 0.092113 4.878322 0.240973
v -0.092113 4.878322 -0.180739
v -0.092113 4.878322 0.240973
v -0.226894 4.924124 0.017180
v 0.226894 4.924124 0.017180
v 0.146460 4.924124 0.017180
v -0.146460 4.924124 0.017180
v 0.143279 4.914082 0.017180
v -0.143279 4.914082 0.017180
v 0.092113 4.914082 0.017180
v -0.092113 4.914082 0.017180
v 0.226894 4.922382 0.058063
v 0.226894 4.917648 0.098946
v 0.226894 4.910239 0.139828
v 0.226894 4.900317 0.180711
v 0.146460 4.922382 0.058063
v 0.146460 4.917648 0.098946
v 0.146460 4.910239 0.139828
v 0.146460 4.900317 0.185848
v -0.146460 4.922382 0.058063
v -0.146460 4.917648 0.098946
v -0.146460 4.910239 0.139828
v -0.146460 4.900317 0.185848
v 0.143279 4.912341 0.056764
v 0.143279 4.907606 0.096348
v 0.143279 4.900197 0.135932
v 0.143279 4.890275 0.188407
v -0.143279 4.912341 0.056764
v -0.143279 4.907606 0.096348
v -0.143279 4.900197 0.135932
v -0.143279 4.890275 0.188407
v 0.092113 4.912341 0.056764
v 0.092113 4.907606 0.096348
v 0.092113 4.900197 0.135932
v 0.092113 4.890275 0.191546
v -0.092113 4.912341 0.056764
v -0.092113 4.907606 0.096348
v -0.092113 4.900197 0.135932
v -0.092113 4.890275 0.191546
v -0.226894 4.900317 0.180711
v -0.226894 4.910239 0.139828
v -0.226894 4.917649 0.098946
v -0.226894 4.922382 0.058063
v -0.226894 4.922382 -0.023702
v -0.226894 4.917648 -0.064585
v -0.226894 4.910239 -0.105468
v -0.226894 4.900317 -0.146350
v 0.226894 4.900317 -0.146350
v 0.226894 4.910239 -0.105468
v 0.226894 4.917649 -0.064585
v 0.226894 4.922382 -0.023702
v 0.146460 4.900317 -0.146350
v 0.146460 4.910239 -0.105468
v 0.146460 4.917649 -0.064585
v 0.146460 4.922382 -0.023702
v -0.146460 4.900317 -0.146350
v -0.146460 4.910239 -0.105468
v -0.146460 4.917649 -0.064585
v -0.146460 4.922382 -0.023702
v 0.143279 4.890275 -0.141155
v 0.143279 4.900197 -0.101571
v 0.143279 4.907606 -0.061987
v 0.143279 4.912341 -0.022403
v -0.143279 4.890275 -0.141155
v -0.143279 4.900197 -0.101571
v -0.143279 4.907606 -0.061987
v -0.143279 4.912341 -0.022403
v 0.092113 4.890275 -0.141155
v 0.092113 4.900197 -0.101571
v 0.092113 4.907607 -0.061987
v 0.092113 4.912341 -0.022403
v -0.092113 4.890275 -0.141155
v -0.092113 4.900197 -0.101571
v -0.092113 4.907607 -0.061987
v -0.092113 4.912341 -0.022403
v -0.214375 4.559690 0.345999
v -0.217505 4.636746 0.340333
v -0.220635 4.713802 0.332794
v -0.223764 4.790858 0.321095
v -0.223764 4.790858 -0.242876
v -0.220635 4.713802 -0.242876
v -0.217505 4.636746 -0.242876
v -0.214375 4.559690 -0.242876
v 0.223764 4.790858 -0.242876
v 0.220635 4.713802 -0.242876
v 0.217505 4.636746 -0.242876
v 0.214375 4.559690 -0.242876
v 0.223764 4.790858 0.321095
v 0.220635 4.713802 0.332794
v 0.217505 4.636746 0.340333
v 0.214375 4.559690 0.345999
v 0.144440 4.790858 0.325109
v 0.142420 4.713802 0.335904
v 0.140400 4.636746 0.342990
v 0.138380 4.559690 0.347463
v -0.144440 4.790858 0.325109
v -0.142420 4.713802 0.335904
v -0.140400 4.636746 0.342990
v -0.138380 4.559690 0.347463
v -0.144440 4.790858 -0.242876
v -0.142420 4.713802 -0.242876
v -0.140400 4.636746 -0.242876
v -0.138380 4.559690 -0.242876
v 0.144440 4.790858 -0.242876
v 0.142420 4.713802 -0.242876
v 0.140400 4.636746 -0.242876
v 0.138380 4.559690 -0.242876
v 0.141303 4.782489 0.315793
v 0.139327 4.707107 0.325914
v 0.137350 4.631725 0.332632
v 0.135462 4.559714 0.336701
v -0.141303 4.782489 0.315793
v -0.139327 4.707107 0.325914
v -0.137350 4.631725 0.332632
v -0.135462 4.559714 0.336701
v -0.141303 4.782489 -0.232113
v -0.139327 4.707107 -0.232113
v -0.137350 4.631725 -0.232113
v -0.135374 4.556343 -0.232113
v 0.141303 4.782489 -0.232113
v 0.139327 4.707107 -0.232113
v 0.137350 4.631725 -0.232113
v 0.135374 4.556343 -0.232113
v -0.090843 4.782489 -0.232113
v -0.089572 4.707107 -0.232113
v -0.088302 4.631725 -0.232113
v -0.087031 4.556343 -0.232113
v 0.090843 4.782489 -0.232113
v 0.089572 4.707107 -0.232113
v 0.088302 4.631725 -0.232113
v 0.087031 4.556343 -0.232113
v 0.090964 4.789669 0.315379
v 0.089814 4.721467 0.324970
v 0.088665 4.653265 0.331613
v 0.087097 4.560276 0.337053
v -0.090964 4.789669 0.315379
v -0.089814 4.721467 0.324970
v -0.088665 4.653265 0.331613
v -0.087102 4.560545 0.337041
v 0.223764 4.811308 -0.187233
v 0.220635 4.734252 -0.187233
v 0.217505 4.657196 -0.187233
v 0.213555 4.559928 -0.185474
v 0.223764 4.811308 0.260131
v 0.220635 4.734252 0.273300
v 0.217505 4.657196 0.281442
v 0.213556 4.559958 0.287861
v -0.223764 4.811308 0.260131
v -0.220635 4.734252 0.273300
v -0.217505 4.657196 0.281442
v -0.213556 4.559958 0.287861
v -0.223764 4.811308 -0.187233
v -0.220635 4.734252 -0.187233
v -0.217505 4.657196 -0.187233
v -0.213555 4.559928 -0.185474
v -0.223764 4.835475 0.017180
v -0.220635 4.746827 0.048711
v -0.217505 4.658179 0.063095
v -0.214037 4.559952 0.071288
v 0.223764 4.835475 0.017180
v 0.220635 4.746827 0.048711
v 0.217505 4.658179 0.063095
v 0.214037 4.559952 0.071288
v -0.223764 4.820943 0.214993
v -0.220635 4.741569 0.230078
v -0.217505 4.662194 0.239008
v -0.213476 4.559999 0.245789
v -0.223764 4.828547 0.168342
v -0.220635 4.746853 0.186154
v -0.217505 4.665160 0.195999
v -0.213473 4.559913 0.203090
v -0.223764 4.833637 0.118882
v -0.220635 4.749626 0.141462
v -0.217505 4.665614 0.152393
v -0.213562 4.559762 0.159777
v -0.223764 4.836052 0.065056
v -0.220635 4.749722 0.095792
v -0.217505 4.663393 0.108101
v -0.213751 4.559831 0.115915
v 0.223764 4.836052 0.065056
v 0.220635 4.749722 0.095792
v 0.217505 4.663393 0.108101
v 0.213751 4.559831 0.115915
v 0.223764 4.833637 0.118882
v 0.220635 4.749626 0.141462
v 0.217505 4.665614 0.152393
v 0.213562 4.559762 0.159777
v 0.223764 4.828547 0.168342
v 0.220635 4.746853 0.186154
v 0.217505 4.665160 0.195999
v 0.213473 4.559913 0.203090
v 0.223764 4.820943 0.214993
v 0.220635 4.741569 0.230078
v 0.217505 4.662194 0.239008
v 0.213476 4.559999 0.245789
v 0.223764 4.820943 -0.146350
v 0.220635 4.741569 -0.146350
v 0.217505 4.662194 -0.146350
v 0.213475 4.559975 -0.128118
v 0.223764 4.828547 -0.105468
v 0.220635 4.746853 -0.105468
v 0.217505 4.665160 -0.090822
v 0.213470 4.559831 -0.071906
v 0.223764 4.833637 -0.064585
v 0.220635 4.749626 -0.064585
v 0.217505 4.665614 -0.034506
v 0.213568 4.559941 -0.021934
v 0.223764 4.836052 -0.023702
v 0.220635 4.749722 -0.005138
v 0.217505 4.663393 0.015523
v 0.213752 4.559871 0.025455
v -0.223764 4.836052 -0.023702
v -0.220635 4.749722 -0.005138
v -0.217505 4.663393 0.015523
v -0.213752 4.559871 0.025455
v -0.223764 4.833637 -0.064585
v -0.220635 4.749626 -0.064585
v -0.217505 4.665614 -0.034506
v -0.213568 4.559941 -0.021934
v -0.223764 4.828547 -0.105468
v -0.220635 4.746853 -0.105468
v -0.217505 4.665160 -0.090822
v -0.213470 4.559831 -0.071906
v -0.223764 4.820943 -0.146350
v -0.220635 4.741569 -0.146350
v -0.217505 4.662194 -0.146350
v -0.213475 4.559975 -0.128118
v 0.132431 4.557882 -0.142190
v 0.197645 4.559198 -0.194964
v 0.197645 4.559238 -0.149195
v 0.197645 4.559483 -0.142190
v -0.194180 4.558990 -0.207404
v -0.194180 4.559040 -0.197032
v -0.194180 4.559077 -0.153809
v -0.194180 4.559421 -0.143987
v -0.194180 4.559416 -0.142190
v -0.176794 4.558242 -0.207404
v -0.128966 4.557206 -0.207404
v -0.153931 4.557206 -0.207404
v -0.128966 4.557882 -0.142190
v -0.128966 4.557535 -0.162458
v -0.128966 4.557548 -0.197623
v -0.128966 4.557500 -0.178978
v 0.141169 4.557882 -0.142190
v 0.158000 4.558301 -0.142190
v 0.197645 4.559140 -0.207404
v 0.176794 4.558242 -0.207404
v 0.153931 4.557206 -0.207404
v 0.132431 4.557206 -0.207404
v 0.196365 4.559483 -0.142190
v 0.132431 4.557634 -0.156703
v 0.132431 4.557595 -0.174587
v 0.132431 4.557647 -0.194773
v -0.141169 4.557882 -0.142190
v -0.158000 4.558301 -0.142190
v 0.197645 4.559908 0.297811
v 0.197645 4.559756 0.330836
v 0.132431 4.559827 0.330836
v -0.194180 4.559976 0.265622
v -0.194180 4.559928 0.268274
v -0.194180 4.559897 0.299978
v -0.194180 4.559755 0.330836
v -0.128966 4.560229 0.265622
v -0.138052 4.560229 0.265622
v -0.154480 4.560208 0.265622
v -0.186010 4.560118 0.265622
v -0.128966 4.560286 0.278358
v -0.128966 4.560336 0.292666
v -0.128966 4.560364 0.306812
v -0.128966 4.559932 0.330836
v 0.140496 4.559732 0.330836
v 0.144841 4.559743 0.330836
v 0.132431 4.560078 0.265622
v 0.138055 4.560069 0.265622
v 0.154483 4.560082 0.265622
v 0.186012 4.560059 0.265622
v 0.196457 4.559937 0.265622
v 0.197645 4.559939 0.265622
v 0.132431 4.560091 0.273504
v 0.132431 4.560146 0.288997
v 0.132431 4.560177 0.304315
v -0.140496 4.559732 0.330836
v -0.144841 4.559743 0.330836
vt 0.610002 0.239831
vt 0.610035 0.250000
vt 0.375000 0.250000
vt 0.610209 0.465169
vt 0.610209 0.500000
vt 0.375000 0.500000
vt 0.610301 0.657903
vt 0.610005 0.750000
vt 0.375000 0.750000
vt 0.609875 0.810855
vt 0.609883 1.000000
vt 0.375000 1.000000
vt 0.125000 0.750000
vt 0.125000 0.500000
vt 0.610151 0.160390
vt 0.610114 0.219783
vt 0.375000 0.250000
vt 0.610092 0.455403
vt 0.610008 0.495443
vt 0.375000 0.500000
vt 0.609988 0.623400
vt 0.609884 0.750000
vt 0.375000 0.750000
vt 0.609868 0.969086
vt 0.609933 1.000000
vt 0.375000 1.000000
vt 0.125000 0.750000
vt 0.125000 0.500000
vt 0.609392 0.210237
vt 0.609359 0.250000
vt 0.375000 0.250000
vt 0.608134 0.404299
vt 0.608134 0.500000
vt 0.375000 0.500000
vt 0.608336 0.608972
vt 0.608360 0.672301
vt 0.375000 0.750000
vt 0.608885 0.861303
vt 0.609650 1.000000
vt 0.375000 1.000000
vt 0.125000 0.750000
vt 0.125000 0.500000
vt 0.608401 0.124197
vt 0.608437 0.201579
vt 0.375000 0.250000
vt 0.608845 0.420063
vt 0.609461 0.500000
vt 0.375000 0.500000
vt 0.609529 0.723145
vt 0.609697 0.750000
vt 0.375000 0.750000
vt 0.608886 0.901981
vt 0.608598 0.966505
vt 0.375000 1.000000
vt 0.125000 0.750000
vt 0.125000 0.500000
vt 0.318064 0.217627
vt 0.330057 0.293839
vt 0.318064 0.293839
vt 0.330057 0.446263
vt 0.318064 0.522475
vt 0.318064 0.446263
vt 0.318064 0.674899
vt 0.330057 0.751110
vt 0.318064 0.751110
vt 0.330057 0.903534
vt 0.318064 0.979746
vt 0.318064 0.903534
vt 0.433249 0.674899
vt 0.484844 0.751110
vt 0.433249 0.751110
vt 0.381653 0.674899
vt 0.330057 0.674899
vt 0.381653 0.598687
vt 0.381653 0.522475
vt 0.381653 0.598687
vt 0.330057 0.827322
vt 0.318064 0.827322
vt 0.330057 0.370051
vt 0.318064 0.370051
vt 0.416050 0.674899
vt 0.433249 0.751110
vt 0.416050 0.751110
vt 0.319207 0.878130
vt 0.330057 0.903534
vt 0.318064 0.903534
vt 0.330057 0.420859
vt 0.318064 0.446263
vt 0.318064 0.420859
vt 0.330057 0.370051
vt 0.318064 0.370051
vt 0.433249 0.674899
vt 0.330057 0.827322
vt 0.318064 0.827322
vt 0.330057 0.395455
vt 0.318064 0.395455
vt 0.319207 0.852726
vt 0.330057 0.852726
vt 0.398852 0.674899
vt 0.381653 0.751110
vt 0.381653 0.674899
vt 0.398852 0.751110
vt 0.416050 0.522475
vt 0.398852 0.598687
vt 0.398852 0.522475
vt 0.416050 0.667277
vt 0.398852 0.667277
vt 0.381653 0.667277
vt 0.433249 0.598687
vt 0.433249 0.522475
vt 0.433249 0.522475
vt 0.433249 0.667277
vt 0.433249 0.667277
vt 0.416050 0.598687
vt 0.381653 0.751110
vt 0.381653 0.606308
vt 0.381653 0.606308
vt 0.381653 0.522475
vt 0.330057 0.598687
vt 0.330057 0.522475
vt 0.381653 0.667277
vt 0.330057 0.667277
vt 0.484844 0.522475
vt 0.484844 0.674899
vt 0.318064 0.598687
vt 0.318064 0.667277
vt 0.330057 0.065204
vt 0.318064 0.141415
vt 0.318064 0.065204
vt 0.318064 0.210006
vt 0.330057 0.217627
vt 0.330057 0.171900
vt 0.318064 0.179521
vt 0.318064 0.171900
vt 0.330057 0.629171
vt 0.318064 0.636793
vt 0.318064 0.629171
vt 0.433249 0.629171
vt 0.484844 0.636792
vt 0.433249 0.636793
vt 0.381653 0.629172
vt 0.330057 0.636792
vt 0.381653 0.636793
vt 0.381653 0.644414
vt 0.381653 0.644414
vt 0.433249 0.629171
vt 0.416050 0.636793
vt 0.416050 0.629171
vt 0.381653 0.629171
vt 0.398852 0.636793
vt 0.381653 0.636793
vt 0.398852 0.629171
vt 0.381653 0.659656
vt 0.381653 0.652035
vt 0.381653 0.659656
vt 0.381653 0.652035
vt 0.330057 0.141415
vt 0.318064 0.149037
vt 0.330057 0.149037
vt 0.318064 0.156658
vt 0.330057 0.156658
vt 0.318064 0.164279
vt 0.330057 0.164279
vt 0.330057 0.644414
vt 0.318064 0.644414
vt 0.330057 0.652035
vt 0.318064 0.652035
vt 0.330057 0.659656
vt 0.318064 0.659656
vt 0.484844 0.644414
vt 0.433249 0.644414
vt 0.484844 0.652035
vt 0.433249 0.652035
vt 0.484844 0.659656
vt 0.433249 0.659656
vt 0.484844 0.667277
vt 0.433249 0.636793
vt 0.416050 0.644414
vt 0.433249 0.644414
vt 0.416050 0.652035
vt 0.433249 0.652035
vt 0.416050 0.659656
vt 0.433249 0.659656
vt 0.398852 0.644414
vt 0.398852 0.652035
vt 0.398852 0.659656
vt 0.398852 0.606308
vt 0.416050 0.606308
vt 0.398852 0.613929
vt 0.416050 0.613929
vt 0.398852 0.621550
vt 0.416050 0.621550
vt 0.381653 0.613929
vt 0.381653 0.621550
vt 0.433249 0.606308
vt 0.433249 0.598687
vt 0.433249 0.613929
vt 0.433249 0.606308
vt 0.433249 0.621550
vt 0.433249 0.613929
vt 0.433249 0.621550
vt 0.330057 0.606308
vt 0.330057 0.613929
vt 0.381653 0.613929
vt 0.330057 0.621550
vt 0.381653 0.621550
vt 0.484844 0.606308
vt 0.484844 0.613929
vt 0.484844 0.621550
vt 0.484844 0.629171
vt 0.318064 0.606308
vt 0.318064 0.613929
vt 0.318064 0.621550
vt 0.330057 0.187143
vt 0.318064 0.187143
vt 0.330057 0.194764
vt 0.318064 0.194764
vt 0.330057 0.202385
vt 0.318064 0.202385
vt 0.330057 0.210006
vt 0.294078 0.202385
vt 0.278633 0.210006
vt 0.278615 0.202385
vt 0.306071 0.202385
vt 0.294078 0.210006
vt 0.306071 0.210006
vt 0.294078 0.194764
vt 0.278992 0.194764
vt 0.306071 0.194764
vt 0.294078 0.187143
vt 0.279697 0.187143
vt 0.306071 0.187143
vt 0.294078 0.179521
vt 0.280789 0.179521
vt 0.306071 0.179521
vt 0.278992 0.621550
vt 0.294078 0.629171
vt 0.279697 0.629171
vt 0.294078 0.621550
vt 0.306071 0.629171
vt 0.306071 0.621550
vt 0.278615 0.613929
vt 0.294078 0.613929
vt 0.306071 0.613929
vt 0.278633 0.606308
vt 0.294078 0.606308
vt 0.306071 0.606308
vt 0.278939 0.598687
vt 0.306071 0.598687
vt 0.294078 0.598687
vt 0.278627 0.659656
vt 0.294078 0.667277
vt 0.278637 0.667277
vt 0.294078 0.659656
vt 0.306071 0.667277
vt 0.306071 0.659656
vt 0.278967 0.652035
vt 0.294078 0.652035
vt 0.306071 0.652035
vt 0.279691 0.644414
vt 0.294078 0.644414
vt 0.306071 0.644414
vt 0.280789 0.636793
vt 0.294078 0.636792
vt 0.306071 0.636793
vt 0.294078 0.164279
vt 0.279691 0.171900
vt 0.278967 0.164279
vt 0.306071 0.164279
vt 0.294078 0.171900
vt 0.306071 0.171900
vt 0.294078 0.156658
vt 0.278627 0.156658
vt 0.306071 0.156658
vt 0.294078 0.149037
vt 0.278637 0.149037
vt 0.306071 0.149037
vt 0.294078 0.141415
vt 0.278944 0.141415
vt 0.306071 0.141415
vt 0.278939 0.217627
vt 0.306071 0.217627
vt 0.294078 0.217627
vt 0.294078 0.065204
vt 0.282085 0.065204
vt 0.306071 0.065204
vt 0.294078 0.674899
vt 0.278944 0.674899
vt 0.306071 0.674899
vt 0.294078 0.522475
vt 0.282085 0.522475
vt 0.306071 0.522475
vt 0.297505 0.852726
vt 0.282753 0.878130
vt 0.282711 0.852726
vt 0.308356 0.852726
vt 0.297505 0.878130
vt 0.308356 0.878130
vt 0.294078 0.827322
vt 0.282621 0.827322
vt 0.306071 0.827322
vt 0.294078 0.395455
vt 0.282085 0.420859
vt 0.282085 0.395455
vt 0.306071 0.395455
vt 0.294078 0.420859
vt 0.306071 0.420859
vt 0.282085 0.370051
vt 0.294078 0.370051
vt 0.306071 0.370051
vt 0.306071 0.903534
vt 0.294078 0.903534
vt 0.306071 0.903534
vt 0.282085 0.903534
vt 0.294078 0.903534
vt 0.330057 0.446263
vt 0.306071 0.446263
vt 0.294078 0.446263
vt 0.306071 0.446263
vt 0.282085 0.446263
vt 0.294078 0.446263
vt 0.282085 0.827322
vt 0.294078 0.827322
vt 0.306071 0.827322
vt 0.282085 0.370051
vt 0.294078 0.370051
vt 0.306071 0.370051
vt 0.282085 0.446263
vt 0.282621 0.903534
vt 0.282085 0.293839
vt 0.294078 0.293839
vt 0.306071 0.293839
vt 0.282085 0.751110
vt 0.294078 0.751110
vt 0.306071 0.751110
vt 0.282085 0.979746
vt 0.294078 0.979746
vt 0.306071 0.979746
vt 0.281249 0.786202
vt 0.282377 0.821155
vt 0.330057 0.979746
vt 0.330057 0.878130
vt 0.484844 0.598687
vt 0.330057 0.179521
vt 0.280418 0.289298
vt 0.280288 0.269341
vt 0.280940 0.333950
vt 0.281265 0.345143
vt 0.280762 0.311372
vt 0.279159 0.238060
vt 0.280137 0.287086
vt 0.279486 0.249544
vt 0.281265 0.472992
vt 0.280846 0.487446
vt 0.280262 0.550950
vt 0.280418 0.527016
vt 0.280762 0.309591
vt 0.280762 0.497992
vt 0.281265 0.484289
vt 0.280137 0.529228
vt 0.279100 0.581214
vt 0.280762 0.506723
vt 0.281500 0.641810
vt 0.281228 0.600897
vt 0.281228 0.590521
vt 0.280553 0.493458
vt 0.279532 0.307498
vt 0.281202 0.771860
vt 0.281204 0.772681
vt 0.280533 0.749778
vt 0.279622 0.335649
vt 0.279856 0.330501
vt 0.281529 0.294613
vt 0.282392 0.848087
vt 0.281390 0.636599
vt 0.282180 0.809018
vt 0.281483 0.749766
vt 0.279455 0.700009
vt 0.279506 0.702192
vt 0.280839 0.490185
vt 0.280975 0.492865
vt 0.281060 0.328945
vt 0.280934 0.331420
vt 0.279333 0.573870
vt 0.281265 0.332024
vt 0.279160 0.238304
vt 0.281386 0.639119
vt 0.282364 0.816997
vt 0.282180 0.812011
vt 0.282364 0.854857
vt 0.281369 0.780784
vt 0.281246 0.783467
vt 0.279522 0.707578
vt 0.375000 0.000000
vt 0.609981 0.118292
vt 0.609883 0.000000
vt 0.610194 0.402192
vt 0.610132 0.281323
vt 0.610282 0.603674
vt 0.610247 0.548824
vt 0.609868 0.794197
vt 0.375000 0.000000
vt 0.610173 0.101669
vt 0.609933 0.000000
vt 0.610105 0.250000
vt 0.610108 0.334536
vt 0.610098 0.271556
vt 0.610010 0.500000
vt 0.609875 0.952429
vt 0.375000 0.000000
vt 0.609418 0.044543
vt 0.609650 0.000000
vt 0.609654 0.006888
vt 0.608845 0.316653
vt 0.608369 0.537496
vt 0.608598 0.750000
vt 0.608598 0.796778
vt 0.375000 0.000000
vt 0.608598 0.000000
vt 0.608428 0.055635
vt 0.608134 0.250000
vt 0.608134 0.332418
vt 0.609501 0.547687
vt 0.609697 0.754909
vt 0.608598 1.000000
vt 0.279719 0.255400
vt 0.279579 0.567670
vt 0.279693 0.705952
vt 0.279100 0.581887
vt 0.279512 0.312297
vn -1.0000 0.0000 0.0000
vn 0.0000 0.0000 -1.0000
vn 1.0000 0.0000 0.0000
vn 0.0000 0.0000 1.0000
vn 0.0000 -1.0000 0.0000
vn -0.9991 -0.0406 0.0149
vn 0.9989 -0.0448 -0.0150
vn -0.0492 0.2283 0.9724
vn -0.0271 0.9542 0.2979
vn 0.0497 0.9618 0.2693
vn -0.9651 0.2432 -0.0968
vn 0.0492 0.2282 0.9724
vn -0.0074 0.9458 0.3248
vn -0.0223 0.2124 0.9769
vn 0.9648 0.0253 -0.2616
vn 0.9543 0.2829 0.0965
vn -0.9642 0.0803 0.2526
vn 0.0223 0.2124 0.9769
vn 0.0000 0.2129 0.9771
vn 0.0099 0.9464 0.3228
vn 0.0000 0.9458 0.3248
vn 0.0000 0.9291 -0.3698
vn 0.0000 0.9720 0.2351
vn 0.0000 0.9291 -0.3699
vn 0.0140 0.9735 0.2282
vn 0.9719 0.2209 -0.0812
vn 0.9460 0.3170 0.0682
vn -0.0072 0.9720 0.2351
vn -0.9657 0.2477 0.0773
vn -0.9614 0.2634 -0.0795
vn 0.0000 0.9386 -0.3450
vn 0.0161 0.9676 0.2521
vn -0.0388 0.9769 0.2101
vn 0.9991 -0.0406 0.0149
vn 0.9990 -0.0447 -0.0095
vn -0.9989 -0.0448 -0.0150
vn -0.9991 -0.0406 0.0096
vn -0.9993 -0.0362 0.0004
vn 0.9993 -0.0362 -0.0005
vn 0.0000 0.9991 -0.0426
vn -0.9537 0.3005 0.0128
vn -0.0000 0.9990 -0.0440
vn 0.9537 0.3005 -0.0128
vn 0.0000 0.9990 -0.0439
vn -0.9550 0.2889 0.0677
vn -0.9471 0.3152 0.0596
vn -0.9576 0.2834 0.0514
vn -0.9553 0.2938 0.0340
vn -0.9990 -0.0447 -0.0095
vn -0.9991 -0.0424 -0.0069
vn -0.9992 -0.0397 -0.0041
vn -0.9993 -0.0376 -0.0017
vn 0.9993 -0.0362 0.0004
vn 0.9993 -0.0376 -0.0017
vn 0.9992 -0.0397 -0.0041
vn 0.9991 -0.0424 -0.0069
vn -0.0000 0.9991 0.0426
vn 0.0000 0.9934 0.1150
vn 0.0000 0.9840 0.1783
vn -0.0135 0.9774 0.2108
vn 0.0000 0.9718 0.2358
vn -0.0000 0.9990 0.0440
vn 0.0000 0.9929 0.1188
vn 0.0000 0.9829 0.1840
vn -0.0108 0.9844 0.1756
vn 0.9532 0.3020 0.0133
vn 0.9540 0.2976 0.0356
vn 0.9559 0.2888 0.0541
vn 0.9581 0.2801 0.0604
vn -0.0000 0.9990 0.0439
vn 0.0000 0.9826 0.1858
vn 0.0000 0.9845 0.1756
vn 0.0000 0.9573 -0.2891
vn 0.0000 0.9700 -0.2431
vn 0.0000 0.9829 -0.1840
vn 0.0000 0.9929 -0.1187
vn 0.0000 0.9929 -0.1188
vn 0.9636 0.2567 -0.0751
vn 0.9605 0.2703 -0.0656
vn 0.9576 0.2834 -0.0514
vn 0.9553 0.2938 -0.0340
vn 0.0000 0.9598 -0.2806
vn 0.0000 0.9718 -0.2359
vn 0.0000 0.9840 -0.1783
vn 0.0000 0.9934 -0.1150
vn 0.0000 0.9718 -0.2358
vn 0.9991 -0.0406 0.0096
vn 0.9992 -0.0394 0.0073
vn 0.9993 -0.0383 0.0048
vn 0.9993 -0.0372 0.0022
vn -0.9993 -0.0362 -0.0005
vn -0.9993 -0.0372 0.0022
vn -0.9993 -0.0383 0.0048
vn -0.9992 -0.0394 0.0073
vn -0.9532 0.3020 -0.0133
vn -0.9540 0.2976 -0.0356
vn -0.9559 0.2888 -0.0540
vn -0.9584 0.2767 -0.0694
vn -0.9993 -0.0383 -0.0000
vn -0.9993 -0.0379 0.0020
vn -0.9992 -0.0394 0.0051
vn -0.9993 -0.0374 -0.0019
vn -0.9993 -0.0371 0.0003
vn -0.9993 -0.0383 0.0026
vn -0.9993 -0.0366 -0.0039
vn -0.9993 -0.0366 -0.0016
vn -0.9993 -0.0362 0.0001
vn -0.9993 -0.0358 -0.0062
vn -0.9993 -0.0359 -0.0039
vn -0.9994 -0.0360 -0.0019
vn 0.9993 -0.0366 -0.0039
vn 0.9993 -0.0366 -0.0016
vn 0.9993 -0.0362 0.0001
vn 0.9993 -0.0374 -0.0019
vn 0.9993 -0.0371 0.0003
vn 0.9993 -0.0383 0.0026
vn 0.9993 -0.0383 -0.0000
vn 0.9993 -0.0379 0.0020
vn 0.9992 -0.0394 0.0051
vn 0.9992 -0.0391 0.0014
vn 0.9992 -0.0406 0.0050
vn 0.9991 -0.0406 0.0073
vn 0.9992 -0.0394 0.0000
vn 0.9992 -0.0397 -0.0027
vn 0.9992 -0.0403 -0.0049
vn 0.9993 -0.0381 0.0022
vn 0.9993 -0.0383 -0.0004
vn 0.9992 -0.0388 -0.0024
vn 0.9993 -0.0369 0.0042
vn 0.9993 -0.0370 0.0019
vn 0.9993 -0.0372 -0.0001
vn 0.9993 -0.0358 0.0063
vn 0.9994 -0.0356 0.0041
vn 0.9994 -0.0355 0.0022
vn -0.9993 -0.0369 0.0042
vn -0.9993 -0.0370 0.0019
vn -0.9993 -0.0372 -0.0001
vn -0.9993 -0.0381 0.0022
vn -0.9993 -0.0383 -0.0004
vn -0.9992 -0.0388 -0.0024
vn -0.9992 -0.0394 0.0000
vn -0.9992 -0.0397 -0.0027
vn -0.9992 -0.0403 -0.0049
vn -0.9992 -0.0407 -0.0019
vn -0.9991 -0.0411 -0.0048
vn -0.9991 -0.0418 -0.0071
vn 0.9993 -0.0358 -0.0062
vn 0.9993 -0.0359 -0.0039
vn 0.9994 -0.0360 -0.0019
vn -0.9993 -0.0358 0.0063
vn -0.9994 -0.0356 0.0041
vn -0.9994 -0.0355 0.0022
vn -0.9992 -0.0391 0.0014
vn -0.9992 -0.0406 0.0050
vn -0.9991 -0.0406 0.0073
vn -0.9990 -0.0416 -0.0143
vn -0.9990 -0.0420 -0.0146
vn -0.9990 -0.0428 -0.0147
vn 0.9992 -0.0407 -0.0019
vn 0.9991 -0.0411 -0.0048
vn 0.9991 -0.0418 -0.0071
vn 0.9991 -0.0406 0.0145
vn 0.0000 0.0584 0.9983
vn 0.0000 0.0969 0.9953
vn 0.0000 0.1393 0.9903
vn 0.0079 0.0562 0.9984
vn 0.0182 0.0883 0.9959
vn 0.0195 0.1325 0.9910
vn 0.9554 0.0913 0.2808
vn 0.9615 0.0627 0.2675
vn 0.9630 0.0496 0.2650
vn 0.9637 0.0406 0.2640
vn -0.9648 0.0253 -0.2616
vn -0.9644 0.0401 0.2615
vn -0.9643 0.0485 0.2604
vn -0.9642 0.0600 0.2584
vn -0.0080 0.0562 0.9984
vn -0.0182 0.0883 0.9959
vn -0.0195 0.1325 0.9910
vn 0.0192 0.0574 0.9982
vn 0.0343 0.0906 0.9953
vn 0.0394 0.1376 0.9897
vn -0.0192 0.0574 0.9982
vn -0.0343 0.0906 0.9953
vn -0.0394 0.1376 0.9897
vn 0.9990 -0.0416 -0.0143
vn 0.9990 -0.0420 -0.0146
vn 0.9990 -0.0428 -0.0147
vn -0.9991 -0.0406 0.0145
vn -0.0117 -0.9998 -0.0132
vn 0.9988 -0.0462 -0.0129
vn -0.0874 0.2644 0.9605
vn -0.0497 0.9618 0.2693
vn 0.0271 0.9542 0.2979
vn -0.9719 0.2209 -0.0812
vn 0.0874 0.2644 0.9605
vn -0.0099 0.9464 0.3228
vn -0.0221 0.2125 0.9769
vn 0.9657 0.2477 0.0773
vn -0.9554 0.0913 0.2808
vn 0.0221 0.2125 0.9769
vn 0.0074 0.9458 0.3248
vn 0.0072 0.9720 0.2351
vn 0.9651 0.2432 -0.0968
vn 0.9550 0.2889 0.0677
vn -0.0140 0.9735 0.2282
vn -0.9543 0.2829 0.0965
vn -0.9636 0.2567 -0.0751
vn 0.0388 0.9769 0.2101
vn -0.0161 0.9676 0.2521
vn 0.9989 -0.0444 -0.0116
vn -0.9988 -0.0462 -0.0129
vn -0.9992 -0.0394 0.0115
vn -0.9994 -0.0353 -0.0015
vn 0.9994 -0.0353 0.0015
vn -0.9532 0.3020 0.0133
vn 0.9532 0.3020 -0.0133
vn -0.9460 0.3170 0.0682
vn -0.9581 0.2801 0.0604
vn -0.9559 0.2888 0.0541
vn -0.9540 0.2976 0.0356
vn -0.9989 -0.0444 -0.0116
vn -0.9991 -0.0418 -0.0101
vn -0.9992 -0.0389 -0.0070
vn -0.9993 -0.0366 -0.0042
vn 0.9994 -0.0353 -0.0015
vn 0.9993 -0.0366 -0.0042
vn 0.9992 -0.0389 -0.0070
vn 0.9991 -0.0418 -0.0101
vn 0.0135 0.9774 0.2108
vn 0.9537 0.3005 0.0128
vn 0.9553 0.2938 0.0340
vn 0.9576 0.2834 0.0514
vn 0.9471 0.3152 0.0596
vn 0.0108 0.9844 0.1756
vn 0.0000 0.9929 0.1187
vn 0.9614 0.2634 -0.0795
vn 0.9584 0.2767 -0.0694
vn 0.9559 0.2888 -0.0540
vn 0.9540 0.2976 -0.0356
vn 0.9992 -0.0394 0.0115
vn 0.9992 -0.0383 0.0093
vn 0.9993 -0.0372 0.0067
vn 0.9993 -0.0362 0.0042
vn -0.9994 -0.0353 0.0015
vn -0.9993 -0.0362 0.0042
vn -0.9993 -0.0372 0.0067
vn -0.9992 -0.0383 0.0093
vn -0.9537 0.3005 -0.0128
vn -0.9553 0.2938 -0.0340
vn -0.9576 0.2834 -0.0514
vn -0.9605 0.2703 -0.0656
vn -0.9992 -0.0390 0.0021
vn -0.9992 -0.0383 0.0071
vn -0.9993 -0.0382 0.0003
vn -0.9993 -0.0378 0.0026
vn -0.9993 -0.0372 0.0046
vn -0.9993 -0.0374 -0.0017
vn -0.9993 -0.0372 0.0001
vn -0.9993 -0.0366 -0.0040
vn -0.9993 -0.0367 -0.0020
vn -0.9993 -0.0363 -0.0005
vn 0.9993 -0.0374 -0.0017
vn 0.9993 -0.0372 0.0001
vn 0.9993 -0.0382 0.0003
vn 0.9993 -0.0378 0.0026
vn 0.9993 -0.0372 0.0046
vn 0.9992 -0.0390 0.0021
vn 0.9992 -0.0383 0.0071
vn 0.9992 -0.0405 0.0049
vn 0.9992 -0.0394 0.0071
vn 0.9992 -0.0394 0.0093
vn 0.9993 -0.0385 -0.0027
vn 0.9992 -0.0388 -0.0047
vn 0.9992 -0.0397 -0.0065
vn 0.9993 -0.0373 -0.0004
vn 0.9993 -0.0375 -0.0023
vn 0.9993 -0.0383 -0.0039
vn 0.9993 -0.0361 0.0018
vn 0.9993 -0.0362 -0.0001
vn 0.9993 -0.0368 -0.0017
vn 0.9994 -0.0349 0.0040
vn 0.9994 -0.0349 0.0021
vn 0.9994 -0.0351 0.0004
vn -0.9993 -0.0361 0.0018
vn -0.9993 -0.0362 -0.0001
vn -0.9993 -0.0368 -0.0017
vn -0.9993 -0.0373 -0.0004
vn -0.9993 -0.0375 -0.0023
vn -0.9993 -0.0383 -0.0039
vn -0.9993 -0.0385 -0.0027
vn -0.9992 -0.0388 -0.0047
vn -0.9992 -0.0397 -0.0065
vn -0.9992 -0.0397 -0.0047
vn -0.9992 -0.0402 -0.0068
vn -0.9991 -0.0411 -0.0088
vn 0.9993 -0.0366 -0.0040
vn 0.9993 -0.0367 -0.0020
vn 0.9993 -0.0363 -0.0005
vn -0.9994 -0.0349 0.0040
vn -0.9994 -0.0349 0.0021
vn -0.9994 -0.0351 0.0004
vn -0.9992 -0.0405 0.0049
vn -0.9992 -0.0394 0.0071
vn -0.9992 -0.0394 0.0093
vn -0.9990 -0.0415 -0.0144
vn -0.9990 -0.0421 -0.0145
vn -0.9990 -0.0430 -0.0144
vn 0.9992 -0.0397 -0.0047
vn 0.9992 -0.0402 -0.0068
vn 0.9991 -0.0411 -0.0088
vn 0.9991 -0.0403 0.0148
vn 0.0049 0.0583 0.9983
vn 0.0091 0.0968 0.9953
vn 0.0117 0.1391 0.9902
vn 0.9642 0.0803 0.2526
vn 0.9642 0.0600 0.2584
vn 0.9643 0.0485 0.2604
vn 0.9644 0.0401 0.2615
vn -0.9637 0.0406 0.2640
vn -0.9630 0.0496 0.2650
vn -0.9615 0.0627 0.2675
vn -0.0049 0.0584 0.9983
vn -0.0091 0.0968 0.9953
vn -0.0117 0.1391 0.9902
vn 0.0343 0.0719 0.9968
vn 0.0395 0.0957 0.9946
vn 0.0500 0.1479 0.9877
vn -0.0343 0.0719 0.9968
vn -0.0395 0.0957 0.9946
vn -0.0500 0.1479 0.9877
vn 0.9990 -0.0415 -0.0144
vn 0.9990 -0.0421 -0.0145
vn 0.9990 -0.0430 -0.0144
vn -0.9991 -0.0403 0.0148
vn -0.0430 -0.9991 0.0048
vn 0.0000 -0.9549 -0.2970
vn 0.0000 -0.9994 0.0349
vn -0.0000 -0.9999 0.0171
vn -0.0308 -0.9995 -0.0026
vn -0.0453 -0.9990 0.0009
vn 0.0430 -0.9991 0.0048
vn -0.0249 -0.9997 0.0021
vn 0.0453 -0.9990 0.0009
vn 0.0308 -0.9995 -0.0025
vn 0.0249 -0.9997 0.0021
vn 0.0000 -1.0000 -0.0027
vn 0.0000 -1.0000 0.0018
vn 0.0000 -1.0000 -0.0015
vn 0.0000 -1.0000 -0.0016
vn 0.0000 -1.0000 0.0044
vn 0.0013 -1.0000 0.0035
vn 0.0029 -1.0000 0.0020
vn 0.0008 -1.0000 0.0035
vn -0.0015 -1.0000 0.0018
vn -0.0007 -1.0000 0.0020
vn -0.0025 -1.0000 -0.0010
vn 0.0000 -1.0000 -0.0021
vn -0.0002 -1.0000 -0.0047
vn 0.0173 -0.9997 -0.0180
vn 0.0002 -1.0000 -0.0047
vn -0.0000 -1.0000 -0.0022
vn 0.0024 -1.0000 -0.0013
vn 0.0248 -0.9997 0.0022
vn -0.0249 -0.9997 0.0022
vn 0.0029 -1.0000 0.0021
vn 0.0024 -1.0000 -0.0009
vn 0.0173 -0.9997 -0.0181
vn -0.0025 -1.0000 -0.0007
vn 0.0008 -1.0000 0.0036
vn 0.0013 -1.0000 0.0034
vn -0.0117 -0.9998 -0.0133
vn -0.0430 -0.9991 0.0047
vn 0.0001 -0.9999 0.0172
vn -0.0308 -0.9995 -0.0025
vn -0.0309 -0.9995 -0.0026
vn 0.0430 -0.9991 0.0047
vn -0.0001 -0.9999 0.0171
vn 0.0308 -0.9995 -0.0026
vn 0.0008 -1.0000 0.0034
vn -0.0016 -1.0000 0.0018
vn -0.0002 -1.0000 -0.0046
vn -0.0003 -1.0000 -0.0046
vn 0.0173 -0.9997 -0.0182
vn 0.0174 -0.9997 -0.0181
vn 0.0003 -1.0000 -0.0046
vn 0.0002 -1.0000 -0.0046
vn 0.0002 -1.0000 -0.0045
vn 0.0025 -1.0000 -0.0010
vn 0.0000 0.9994 -0.0350
vn -0.0173 0.9997 0.0182
s off
f 305/1/1 304/2/1 2/3/1
f 309/4/2 308/5/2 4/6/2
f 314/7/3 315/8/3 3/9/3
f 328/10/4 307/11/4 1/12/4
f 4/6/5 1/13/5 2/14/5
f 325/15/1 324/16/1 6/17/1
f 321/18/2 322/19/2 8/20/2
f 301/21/3 302/22/3 7/23/3
f 316/24/4 303/25/4 5/26/4
f 8/20/5 5/27/5 6/28/5
f 278/29/1 277/30/1 10/31/1
f 284/32/2 283/33/2 12/34/2
f 288/35/3 286/36/3 11/37/3
f 300/38/4 281/39/4 9/40/4
f 12/34/5 9/41/5 10/42/5
f 297/43/1 298/44/1 14/45/1
f 292/46/2 291/47/2 16/48/2
f 275/49/3 276/50/3 15/51/3
f 290/52/4 289/53/4 13/54/4
f 16/48/5 13/55/5 14/56/5
f 197/57/6 18/58/6 125/59/6
f 22/60/2 129/61/2 149/62/2
f 189/63/7 19/64/7 133/65/7
f 24/66/8 124/67/8 141/68/8
f 40/69/9 17/70/9 24/71/9
f 38/72/10 19/64/10 36/73/10
f 37/74/11 26/75/11 41/76/11
f 133/65/12 23/77/12 137/78/12
f 125/59/2 21/79/2 145/80/2
f 48/81/13 28/82/13 32/83/13
f 181/84/14 28/85/14 157/86/14
f 30/87/2 165/88/2 173/89/2
f 145/80/15 25/90/15 161/91/15
f 40/69/16 28/82/16 44/92/16
f 137/78/17 27/93/17 153/94/17
f 161/91/2 29/95/2 169/96/2
f 29/95/2 173/89/2 169/96/2
f 27/93/18 177/97/18 153/94/18
f 31/98/19 181/84/19 177/97/19
f 46/99/20 27/100/20 42/101/20
f 48/81/21 31/102/21 46/99/21
f 29/103/22 45/104/22 30/105/22
f 84/106/23 46/99/23 80/107/23
f 26/75/24 45/104/24 41/76/24
f 80/107/25 42/101/25 72/108/25
f 39/109/26 25/110/26 21/111/26
f 40/69/27 76/112/27 68/113/27
f 25/110/22 47/114/22 29/103/22
f 84/106/28 44/92/28 48/81/28
f 38/72/29 27/100/29 23/115/29
f 97/116/30 41/76/30 105/117/30
f 22/118/31 35/119/31 20/120/31
f 64/121/32 36/73/32 60/122/32
f 18/123/31 39/109/31 21/111/31
f 68/113/33 33/124/33 40/69/33
f 20/120/34 185/125/34 129/61/34
f 237/126/35 36/73/35 189/63/35
f 17/127/36 193/128/36 124/129/36
f 269/130/37 34/131/37 197/57/37
f 88/132/38 201/133/38 221/134/38
f 96/135/39 205/136/39 253/137/39
f 104/138/40 49/139/40 52/140/40
f 100/141/40 50/142/40 96/135/40
f 51/143/41 69/144/41 61/145/41
f 112/146/42 56/147/42 120/148/42
f 52/140/43 112/146/43 104/138/43
f 108/149/44 55/150/44 53/151/44
f 120/148/44 55/150/44 116/152/44
f 38/72/45 72/108/45 42/101/45
f 64/121/46 71/153/46 72/108/46
f 62/154/47 71/153/47 63/155/47
f 61/145/48 70/156/48 62/154/48
f 33/157/49 209/158/49 193/128/49
f 85/159/50 213/160/50 209/158/50
f 86/161/51 217/162/51 213/160/51
f 87/163/52 221/134/52 217/162/52
f 205/136/53 57/164/53 225/165/53
f 225/165/54 58/166/54 229/167/54
f 229/167/55 59/168/55 233/169/55
f 233/169/56 60/122/56 237/126/56
f 52/140/57 88/170/57 65/171/57
f 65/171/58 87/172/58 66/173/58
f 66/173/59 86/174/59 67/175/59
f 67/175/60 85/176/60 68/113/60
f 51/143/57 57/164/57 50/142/57
f 61/145/58 58/166/58 57/164/58
f 62/154/59 59/168/59 58/166/59
f 63/155/61 60/122/61 59/168/61
f 54/177/62 81/178/62 56/147/62
f 73/179/63 82/180/63 81/178/63
f 74/181/64 83/182/64 82/180/64
f 83/182/65 76/112/65 84/106/65
f 52/140/66 73/179/66 54/177/66
f 65/171/67 74/181/67 73/179/67
f 66/173/68 75/183/68 74/181/68
f 68/113/69 75/183/69 67/175/69
f 53/151/70 77/184/70 69/144/70
f 69/144/63 78/185/63 70/156/63
f 70/156/64 79/186/64 71/153/64
f 79/186/71 72/108/71 71/153/71
f 56/147/70 77/184/70 55/150/70
f 81/178/63 78/185/63 77/184/63
f 82/180/64 79/186/64 78/185/64
f 83/182/72 80/107/72 79/186/72
f 47/114/73 113/187/73 45/104/73
f 117/188/74 114/189/74 113/187/74
f 118/190/75 115/191/75 114/189/75
f 119/192/76 116/152/76 115/191/76
f 41/76/73 113/187/73 105/117/73
f 105/117/74 114/189/74 106/193/74
f 114/189/75 107/194/75 106/193/75
f 115/191/77 108/149/77 107/194/77
f 101/195/78 43/196/78 39/109/78
f 102/197/79 109/198/79 101/195/79
f 103/199/80 110/200/80 102/197/80
f 104/138/81 111/201/81 103/199/81
f 43/196/73 117/188/73 47/114/73
f 109/198/74 118/190/74 117/188/74
f 118/190/75 111/201/75 119/192/75
f 111/201/77 120/148/77 119/192/77
f 37/74/82 93/202/82 35/119/82
f 97/116/83 94/203/83 93/202/83
f 98/204/84 95/205/84 94/203/84
f 99/206/85 96/135/85 95/205/85
f 39/109/82 92/207/82 101/195/82
f 101/195/86 91/208/86 102/197/86
f 102/197/84 90/209/84 103/199/84
f 103/199/85 89/210/85 104/138/85
f 35/119/87 241/211/87 185/125/87
f 93/202/88 245/212/88 241/211/88
f 94/203/89 249/213/89 245/212/89
f 95/205/90 253/137/90 249/213/90
f 201/133/91 89/214/91 257/215/91
f 257/215/92 90/216/92 261/217/92
f 261/217/93 91/218/93 265/219/93
f 265/219/94 92/220/94 269/130/94
f 51/143/95 108/149/95 53/151/95
f 100/141/96 107/194/96 108/149/96
f 99/206/97 106/193/97 107/194/97
f 98/204/98 105/117/98 106/193/98
f 267/221/99 272/222/99 268/223/99
f 266/224/100 271/225/100 267/221/100
f 266/224/101 269/130/101 270/226/101
f 263/227/102 268/223/102 264/228/102
f 262/229/103 267/221/103 263/227/103
f 262/229/104 265/219/104 266/224/104
f 259/230/105 264/228/105 260/231/105
f 258/232/106 263/227/106 259/230/106
f 257/215/107 262/229/107 258/232/107
f 203/233/108 260/231/108 204/234/108
f 202/235/109 259/230/109 203/233/109
f 201/133/110 258/232/110 202/235/110
f 252/236/111 255/237/111 256/238/111
f 251/239/112 254/240/112 255/237/112
f 250/241/113 253/137/113 254/240/113
f 248/242/114 251/239/114 252/236/114
f 247/243/115 250/241/115 251/239/115
f 245/212/116 250/241/116 246/244/116
f 244/245/117 247/243/117 248/242/117
f 243/246/118 246/244/118 247/243/118
f 241/211/119 246/244/119 242/247/119
f 188/248/120 243/246/120 244/245/120
f 186/249/121 243/246/121 187/250/121
f 185/125/122 242/247/122 186/249/122
f 236/251/123 239/252/123 240/253/123
f 235/254/124 238/255/124 239/252/124
f 234/256/125 237/126/125 238/255/125
f 232/257/126 235/254/126 236/251/126
f 231/258/127 234/256/127 235/254/127
f 230/259/128 233/169/128 234/256/128
f 228/260/129 231/258/129 232/257/129
f 227/261/130 230/259/130 231/258/130
f 226/262/131 229/167/131 230/259/131
f 208/263/132 227/261/132 228/260/132
f 207/264/133 226/262/133 227/261/133
f 206/265/134 225/165/134 226/262/134
f 219/266/135 224/267/135 220/268/135
f 218/269/136 223/270/136 219/266/136
f 217/162/137 222/271/137 218/269/137
f 215/272/138 220/268/138 216/273/138
f 214/274/139 219/266/139 215/272/139
f 213/160/140 218/269/140 214/274/140
f 211/275/141 216/273/141 212/276/141
f 210/277/142 215/272/142 211/275/142
f 209/158/143 214/274/143 210/277/143
f 195/278/144 212/276/144 196/279/144
f 194/280/145 211/275/145 195/278/145
f 193/128/146 210/277/146 194/280/146
f 256/238/147 207/264/147 208/263/147
f 255/237/148 206/265/148 207/264/148
f 254/240/149 205/136/149 206/265/149
f 223/270/150 204/234/150 224/267/150
f 222/271/151 203/233/151 223/270/151
f 221/134/152 202/235/152 222/271/152
f 271/225/153 200/281/153 272/222/153
f 271/225/154 198/282/154 199/283/154
f 270/226/155 197/57/155 198/282/155
f 122/284/156 196/279/156 121/285/156
f 123/286/157 195/278/157 122/284/157
f 124/129/158 194/280/158 123/286/158
f 240/253/159 191/287/159 192/288/159
f 239/252/160 190/289/160 191/287/160
f 238/255/161 189/63/161 190/289/161
f 131/290/162 188/248/162 132/291/162
f 130/292/34 187/250/34 131/290/34
f 129/61/34 186/249/34 130/292/34
f 179/293/163 184/294/163 180/295/163
f 178/296/164 183/297/164 179/293/164
f 177/97/165 182/298/165 178/296/165
f 155/299/166 180/295/166 156/300/166
f 154/301/167 179/293/167 155/299/167
f 153/94/168 178/296/168 154/301/168
f 171/302/2 176/303/2 172/304/2
f 170/305/2 175/306/2 171/302/2
f 169/96/2 174/307/2 170/305/2
f 164/308/2 171/302/2 172/304/2
f 163/309/2 170/305/2 171/302/2
f 162/310/2 169/96/2 170/305/2
f 141/68/169 28/85/169 24/66/169
f 142/311/170 157/86/170 141/68/170
f 143/312/171 158/313/171 142/311/171
f 144/314/172 159/315/172 143/312/172
f 149/62/173 26/316/173 22/60/173
f 150/317/173 165/88/173 149/62/173
f 151/318/173 166/319/173 150/317/173
f 152/320/173 167/321/173 151/318/173
f 140/322/174 155/299/174 156/300/174
f 139/323/175 154/301/175 155/299/175
f 138/324/176 153/94/176 154/301/176
f 148/325/15 163/309/15 164/308/15
f 147/326/15 162/310/15 163/309/15
f 146/327/15 161/91/15 162/310/15
f 175/306/2 168/328/2 176/303/2
f 174/307/2 167/321/2 175/306/2
f 173/89/2 166/319/2 174/307/2
f 184/294/177 159/315/177 160/329/177
f 183/297/178 158/313/178 159/315/178
f 182/298/179 157/86/179 158/313/179
f 128/330/2 147/326/2 148/325/2
f 127/331/2 146/327/2 147/326/2
f 126/332/2 145/80/2 146/327/2
f 136/333/180 139/323/180 140/322/180
f 135/334/181 138/324/181 139/323/181
f 134/335/182 137/78/182 138/324/182
f 143/312/183 121/336/183 144/314/183
f 142/311/184 122/337/184 143/312/184
f 141/68/185 123/338/185 142/311/185
f 192/288/186 135/334/186 136/333/186
f 191/287/187 134/335/187 135/334/187
f 190/289/188 133/65/188 134/335/188
f 151/318/2 132/291/2 152/320/2
f 150/317/2 131/290/2 151/318/2
f 149/62/2 130/292/2 150/317/2
f 200/281/189 127/331/189 128/330/189
f 199/283/6 126/332/6 127/331/6
f 198/282/6 125/59/6 126/332/6
f 180/295/190 326/339/190 303/340/190
f 197/57/6 34/131/6 18/58/6
f 22/60/2 20/120/2 129/61/2
f 189/63/191 36/73/191 19/64/191
f 24/66/192 17/341/192 124/67/192
f 40/69/193 33/124/193 17/70/193
f 38/72/194 23/115/194 19/64/194
f 37/74/195 22/118/195 26/75/195
f 133/65/196 19/64/196 23/77/196
f 125/59/2 18/58/2 21/79/2
f 48/81/197 44/92/197 28/82/197
f 181/84/198 32/342/198 28/85/198
f 30/87/2 26/316/2 165/88/2
f 145/80/15 21/79/15 25/90/15
f 40/69/199 24/71/199 28/82/199
f 137/78/200 23/77/200 27/93/200
f 161/91/2 25/90/2 29/95/2
f 29/95/2 30/87/2 173/89/2
f 27/93/201 31/98/201 177/97/201
f 31/98/19 32/342/19 181/84/19
f 46/99/202 31/102/202 27/100/202
f 48/81/21 32/83/21 31/102/21
f 29/103/24 47/114/24 45/104/24
f 84/106/23 48/81/23 46/99/23
f 26/75/22 30/105/22 45/104/22
f 80/107/203 46/99/203 42/101/203
f 39/109/204 43/196/204 25/110/204
f 40/69/205 44/92/205 76/112/205
f 25/110/24 43/196/24 47/114/24
f 84/106/206 76/112/206 44/92/206
f 38/72/207 42/101/207 27/100/207
f 97/116/208 37/74/208 41/76/208
f 22/118/31 37/74/31 35/119/31
f 64/121/209 38/72/209 36/73/209
f 18/123/31 34/343/31 39/109/31
f 68/113/210 85/176/210 33/124/210
f 20/120/34 35/119/34 185/125/34
f 237/126/211 60/122/211 36/73/211
f 17/127/212 33/157/212 193/128/212
f 269/130/213 92/220/213 34/131/213
f 88/132/214 49/344/214 201/133/214
f 96/135/215 50/142/215 205/136/215
f 104/138/40 89/210/40 49/139/40
f 100/141/40 51/143/40 50/142/40
f 51/143/216 53/151/216 69/144/216
f 112/146/44 54/177/44 56/147/44
f 52/140/217 54/177/217 112/146/217
f 108/149/42 116/152/42 55/150/42
f 120/148/44 56/147/44 55/150/44
f 38/72/218 64/121/218 72/108/218
f 64/121/219 63/155/219 71/153/219
f 62/154/220 70/156/220 71/153/220
f 61/145/221 69/144/221 70/156/221
f 33/157/222 85/159/222 209/158/222
f 85/159/223 86/161/223 213/160/223
f 86/161/224 87/163/224 217/162/224
f 87/163/225 88/132/225 221/134/225
f 205/136/226 50/142/226 57/164/226
f 225/165/227 57/164/227 58/166/227
f 229/167/228 58/166/228 59/168/228
f 233/169/229 59/168/229 60/122/229
f 52/140/57 49/139/57 88/170/57
f 65/171/58 88/170/58 87/172/58
f 66/173/59 87/172/59 86/174/59
f 67/175/61 86/174/61 85/176/61
f 51/143/57 61/145/57 57/164/57
f 61/145/58 62/154/58 58/166/58
f 62/154/59 63/155/59 59/168/59
f 63/155/230 64/121/230 60/122/230
f 54/177/70 73/179/70 81/178/70
f 73/179/63 74/181/63 82/180/63
f 74/181/64 75/183/64 83/182/64
f 83/182/71 75/183/71 76/112/71
f 52/140/231 65/171/231 73/179/231
f 65/171/232 66/173/232 74/181/232
f 66/173/233 67/175/233 75/183/233
f 68/113/234 76/112/234 75/183/234
f 53/151/62 55/150/62 77/184/62
f 69/144/63 77/184/63 78/185/63
f 70/156/64 78/185/64 79/186/64
f 79/186/235 80/107/235 72/108/235
f 56/147/70 81/178/70 77/184/70
f 81/178/236 82/180/236 78/185/236
f 82/180/64 83/182/64 79/186/64
f 83/182/72 84/106/72 80/107/72
f 47/114/73 117/188/73 113/187/73
f 117/188/74 118/190/74 114/189/74
f 118/190/75 119/192/75 115/191/75
f 119/192/76 120/148/76 116/152/76
f 41/76/73 45/104/73 113/187/73
f 105/117/74 113/187/74 114/189/74
f 114/189/75 115/191/75 107/194/75
f 115/191/77 116/152/77 108/149/77
f 101/195/237 109/198/237 43/196/237
f 102/197/238 110/200/238 109/198/238
f 103/199/239 111/201/239 110/200/239
f 104/138/240 112/146/240 111/201/240
f 43/196/73 109/198/73 117/188/73
f 109/198/74 110/200/74 118/190/74
f 118/190/75 110/200/75 111/201/75
f 111/201/77 112/146/77 120/148/77
f 37/74/82 97/116/82 93/202/82
f 97/116/86 98/204/86 94/203/86
f 98/204/84 99/206/84 95/205/84
f 99/206/85 100/141/85 96/135/85
f 39/109/82 34/343/82 92/207/82
f 101/195/83 92/207/83 91/208/83
f 102/197/84 91/208/84 90/209/84
f 103/199/85 90/209/85 89/210/85
f 35/119/241 93/202/241 241/211/241
f 93/202/242 94/203/242 245/212/242
f 94/203/243 95/205/243 249/213/243
f 95/205/244 96/135/244 253/137/244
f 201/133/245 49/344/245 89/214/245
f 257/215/246 89/214/246 90/216/246
f 261/217/247 90/216/247 91/218/247
f 265/219/248 91/218/248 92/220/248
f 51/143/249 100/141/249 108/149/249
f 100/141/250 99/206/250 107/194/250
f 99/206/251 98/204/251 106/193/251
f 98/204/252 97/116/252 105/117/252
f 267/221/253 271/225/253 272/222/253
f 266/224/101 270/226/101 271/225/101
f 266/224/254 265/219/254 269/130/254
f 263/227/255 267/221/255 268/223/255
f 262/229/256 266/224/256 267/221/256
f 262/229/257 261/217/257 265/219/257
f 259/230/258 263/227/258 264/228/258
f 258/232/259 262/229/259 263/227/259
f 257/215/92 261/217/92 262/229/92
f 203/233/260 259/230/260 260/231/260
f 202/235/261 258/232/261 259/230/261
f 201/133/262 257/215/262 258/232/262
f 252/236/263 251/239/263 255/237/263
f 251/239/264 250/241/264 254/240/264
f 250/241/90 249/213/90 253/137/90
f 248/242/265 247/243/265 251/239/265
f 247/243/266 246/244/266 250/241/266
f 245/212/267 249/213/267 250/241/267
f 244/245/268 243/246/268 247/243/268
f 243/246/119 242/247/119 246/244/119
f 241/211/269 245/212/269 246/244/269
f 188/248/270 187/250/270 243/246/270
f 186/249/271 242/247/271 243/246/271
f 185/125/272 241/211/272 242/247/272
f 236/251/273 235/254/273 239/252/273
f 235/254/274 234/256/274 238/255/274
f 234/256/275 233/169/275 237/126/275
f 232/257/276 231/258/276 235/254/276
f 231/258/277 230/259/277 234/256/277
f 230/259/278 229/167/278 233/169/278
f 228/260/279 227/261/279 231/258/279
f 227/261/280 226/262/280 230/259/280
f 226/262/281 225/165/281 229/167/281
f 208/263/282 207/264/282 227/261/282
f 207/264/283 206/265/283 226/262/283
f 206/265/284 205/136/284 225/165/284
f 219/266/285 223/270/285 224/267/285
f 218/269/286 222/271/286 223/270/286
f 217/162/287 221/134/287 222/271/287
f 215/272/288 219/266/288 220/268/288
f 214/274/289 218/269/289 219/266/289
f 213/160/290 217/162/290 218/269/290
f 211/275/291 215/272/291 216/273/291
f 210/277/292 214/274/292 215/272/292
f 209/158/293 213/160/293 214/274/293
f 195/278/294 211/275/294 212/276/294
f 194/280/295 210/277/295 211/275/295
f 193/128/296 209/158/296 210/277/296
f 256/238/297 255/237/297 207/264/297
f 255/237/298 254/240/298 206/265/298
f 254/240/299 253/137/299 205/136/299
f 223/270/300 203/233/300 204/234/300
f 222/271/301 202/235/301 203/233/301
f 221/134/302 201/133/302 202/235/302
f 271/225/303 199/283/303 200/281/303
f 271/225/304 270/226/304 198/282/304
f 270/226/305 269/130/305 197/57/305
f 122/284/306 195/278/306 196/279/306
f 123/286/307 194/280/307 195/278/307
f 124/129/308 193/128/308 194/280/308
f 240/253/309 239/252/309 191/287/309
f 239/252/310 238/255/310 190/289/310
f 238/255/311 237/126/311 189/63/311
f 131/290/312 187/250/312 188/248/312
f 130/292/34 186/249/34 187/250/34
f 129/61/34 185/125/34 186/249/34
f 179/293/163 183/297/163 184/294/163
f 178/296/164 182/298/164 183/297/164
f 177/97/165 181/84/165 182/298/165
f 155/299/313 179/293/313 180/295/313
f 154/301/314 178/296/314 179/293/314
f 153/94/315 177/97/315 178/296/315
f 171/302/2 175/306/2 176/303/2
f 170/305/2 174/307/2 175/306/2
f 169/96/2 173/89/2 174/307/2
f 164/308/2 163/309/2 171/302/2
f 163/309/2 162/310/2 170/305/2
f 162/310/2 161/91/2 169/96/2
f 141/68/316 157/86/316 28/85/316
f 142/311/317 158/313/317 157/86/317
f 143/312/318 159/315/318 158/313/318
f 144/314/319 160/329/319 159/315/319
f 149/62/173 165/88/173 26/316/173
f 150/317/173 166/319/173 165/88/173
f 151/318/173 167/321/173 166/319/173
f 152/320/173 168/328/173 167/321/173
f 140/322/320 139/323/320 155/299/320
f 139/323/321 138/324/321 154/301/321
f 138/324/322 137/78/322 153/94/322
f 148/325/15 147/326/15 163/309/15
f 147/326/15 146/327/15 162/310/15
f 146/327/15 145/80/15 161/91/15
f 175/306/2 167/321/2 168/328/2
f 174/307/2 166/319/2 167/321/2
f 173/89/2 165/88/2 166/319/2
f 184/294/323 183/297/323 159/315/323
f 183/297/324 182/298/324 158/313/324
f 182/298/325 181/84/325 157/86/325
f 128/330/2 127/331/2 147/326/2
f 127/331/2 126/332/2 146/327/2
f 126/332/2 125/59/2 145/80/2
f 136/333/326 135/334/326 139/323/326
f 135/334/327 134/335/327 138/324/327
f 134/335/328 133/65/328 137/78/328
f 143/312/329 122/337/329 121/336/329
f 142/311/330 123/338/330 122/337/330
f 141/68/331 124/67/331 123/338/331
f 192/288/332 191/287/332 135/334/332
f 191/287/333 190/289/333 134/335/333
f 190/289/334 189/63/334 133/65/334
f 151/318/2 131/290/2 132/291/2
f 150/317/2 130/292/2 131/290/2
f 149/62/2 129/61/2 130/292/2
f 200/281/335 199/283/335 127/331/335
f 199/283/6 198/282/6 126/332/6
f 198/282/6 197/57/6 125/59/6
f 128/330/336 282/345/336 277/346/336
f 128/330/337 148/325/337 164/308/337
f 172/304/338 287/347/338 283/348/338
f 176/303/339 264/228/339 285/349/339
f 281/350/340 300/351/340 268/223/340
f 200/281/341 279/352/341 272/222/341
f 294/353/338 298/354/338 176/303/338
f 168/328/337 152/320/337 132/291/337
f 291/355/342 292/356/342 132/291/342
f 268/223/343 299/357/343 264/228/343
f 264/228/339 273/358/339 252/236/339
f 168/328/344 292/356/344 293/359/344
f 244/245/345 290/360/345 295/361/345
f 289/362/346 248/242/346 252/236/346
f 224/267/347 204/234/347 208/263/347
f 204/234/348 260/231/348 256/238/348
f 260/231/349 264/228/349 252/236/349
f 256/238/348 208/263/348 204/234/348
f 208/263/347 228/260/347 224/267/347
f 220/268/350 228/260/350 232/257/350
f 252/236/349 256/238/349 260/231/349
f 220/268/350 224/267/350 228/260/350
f 184/294/351 312/363/351 308/364/351
f 216/273/352 309/365/352 310/366/352
f 212/276/353 310/366/353 311/367/353
f 236/251/354 319/368/354 232/257/354
f 184/294/355 318/369/355 180/295/355
f 240/253/356 320/370/356 236/251/356
f 196/279/357 305/371/357 306/372/357
f 144/314/358 121/285/358 160/329/358
f 121/285/359 307/373/359 160/329/359
f 315/374/360 314/375/360 184/294/360
f 136/333/361 317/376/361 302/377/361
f 136/333/362 140/322/362 156/300/362
f 323/378/363 322/379/363 240/253/363
f 297/380/364 296/381/364 176/303/364
f 286/382/365 288/383/365 172/304/365
f 295/361/338 275/384/338 244/245/338
f 284/385/341 282/345/341 164/308/341
f 279/352/338 280/386/338 272/222/338
f 314/375/366 313/387/366 184/294/366
f 316/388/367 317/376/367 156/300/367
f 311/367/368 305/371/368 212/276/368
f 298/354/345 297/380/345 176/303/345
f 275/384/344 188/248/344 244/245/344
f 328/389/369 327/390/369 160/329/369
f 324/391/370 325/392/370 180/295/370
f 313/387/371 312/363/371 184/294/371
f 325/392/356 326/339/356 180/295/356
f 288/383/340 287/347/340 172/304/340
f 322/379/190 321/393/190 240/253/190
f 2/3/1 1/394/1 306/395/1
f 1/394/1 307/396/1 306/395/1
f 306/395/1 305/1/1 2/3/1
f 4/6/2 2/3/2 310/397/2
f 2/3/2 304/2/2 311/398/2
f 311/398/2 310/397/2 2/3/2
f 310/397/2 309/4/2 4/6/2
f 3/9/3 4/6/3 313/399/3
f 4/6/3 308/5/3 312/400/3
f 312/400/3 313/399/3 4/6/3
f 313/399/3 314/7/3 3/9/3
f 1/12/4 3/9/4 328/10/4
f 3/9/4 315/8/4 327/401/4
f 327/401/4 328/10/4 3/9/4
f 4/6/5 3/9/5 1/13/5
f 6/17/1 5/402/1 326/403/1
f 5/402/1 303/404/1 326/403/1
f 326/403/1 325/15/1 6/17/1
f 324/16/1 318/405/1 6/17/1
f 8/20/2 6/17/2 320/406/2
f 6/17/2 318/405/2 319/407/2
f 319/407/2 320/406/2 6/17/2
f 320/406/2 321/18/2 8/20/2
f 322/19/2 323/408/2 8/20/2
f 7/23/3 8/20/3 301/21/3
f 8/20/3 323/408/3 301/21/3
f 5/26/4 7/23/4 317/409/4
f 7/23/4 302/22/4 317/409/4
f 317/409/4 316/24/4 5/26/4
f 8/20/5 7/23/5 5/27/5
f 10/31/1 9/410/1 279/411/1
f 9/410/1 281/412/1 279/411/1
f 281/412/1 280/413/1 279/411/1
f 279/411/1 278/29/1 10/31/1
f 12/34/2 10/31/2 284/32/2
f 10/31/2 277/30/2 282/414/2
f 282/414/2 284/32/2 10/31/2
f 11/37/3 12/34/3 288/35/3
f 12/34/3 283/33/3 287/415/3
f 288/35/3 12/34/3 287/415/3
f 286/36/3 285/416/3 11/37/3
f 9/40/4 11/37/4 300/38/4
f 11/37/4 285/416/4 299/417/4
f 11/37/4 299/417/4 300/38/4
f 12/34/5 11/37/5 9/41/5
f 14/45/1 13/418/1 297/43/1
f 13/418/1 273/419/1 296/420/1
f 13/418/1 296/420/1 297/43/1
f 298/44/1 294/421/1 14/45/1
f 16/48/2 14/45/2 293/422/2
f 14/45/2 294/421/2 293/422/2
f 293/422/2 292/46/2 16/48/2
f 15/51/3 16/48/3 274/423/3
f 16/48/3 291/47/3 274/423/3
f 274/423/3 275/49/3 15/51/3
f 13/54/4 15/51/4 290/52/4
f 15/51/4 276/50/4 295/424/4
f 290/52/4 15/51/4 295/424/4
f 289/53/4 273/425/4 13/54/4
f 16/48/5 15/51/5 13/55/5
f 316/388/372 156/300/372 303/340/372
f 156/300/372 180/295/372 303/340/372
f 278/426/373 200/281/373 277/346/373
f 200/281/336 128/330/336 277/346/336
f 128/330/336 164/308/336 282/345/336
f 284/385/338 164/308/338 283/348/338
f 164/308/338 172/304/338 283/348/338
f 286/382/374 172/304/374 285/349/374
f 172/304/339 176/303/339 285/349/339
f 264/228/339 299/357/339 285/349/339
f 268/223/375 272/222/375 281/350/375
f 272/222/376 280/386/376 281/350/376
f 200/281/341 278/426/341 279/352/341
f 176/303/338 168/328/338 294/353/338
f 168/328/338 293/359/338 294/353/338
f 292/356/377 168/328/377 132/291/377
f 132/291/342 188/248/342 291/355/342
f 188/248/377 274/427/377 291/355/377
f 268/223/365 300/351/365 299/357/365
f 264/228/339 176/303/339 273/358/339
f 176/303/339 296/381/339 273/358/339
f 273/358/378 289/362/378 252/236/378
f 244/245/379 248/242/379 290/360/379
f 289/362/346 290/360/346 248/242/346
f 309/365/351 220/268/351 308/364/351
f 220/268/351 232/257/351 308/364/351
f 232/257/351 184/294/351 308/364/351
f 216/273/352 220/268/352 309/365/352
f 212/276/353 216/273/353 310/366/353
f 236/251/380 320/370/380 319/368/380
f 232/257/381 319/368/381 318/369/381
f 318/369/381 324/391/381 180/295/381
f 184/294/355 232/257/355 318/369/355
f 240/253/356 321/393/356 320/370/356
f 196/279/357 212/276/357 305/371/357
f 121/285/382 196/279/382 307/373/382
f 196/279/382 306/372/382 307/373/382
f 307/373/383 328/389/383 160/329/383
f 184/294/384 160/329/384 315/374/384
f 160/329/385 327/390/385 315/374/385
f 301/428/386 192/288/386 302/377/386
f 192/288/387 136/333/387 302/377/387
f 136/333/388 156/300/388 317/376/388
f 240/253/389 192/288/389 323/378/389
f 192/288/389 301/428/389 323/378/389
f 295/361/390 276/429/390 275/384/390
f 311/367/391 304/430/391 305/371/391
f 275/384/344 274/427/344 188/248/344
