# Blender v2.90.1 OBJ File: 'gateTollan_chevron.blend'
# www.blender.org
v 0.119379 4.395439 0.324362
v 0.108608 3.964440 0.280978
v -0.119379 4.395439 0.324362
v -0.108608 3.964440 0.280978
v -0.069823 3.964440 0.279986
v -0.077407 4.436490 0.324362
v 0.069823 3.964440 0.279986
v 0.077407 4.436490 0.324362
v 0.117583 4.323606 0.323533
v 0.115788 4.251772 0.320942
v 0.113993 4.179939 0.316370
v 0.112198 4.108106 0.309332
v 0.110403 4.036273 0.298683
v -0.117583 4.323606 0.323533
v -0.115788 4.251772 0.320942
v -0.113993 4.179939 0.316370
v -0.112198 4.108106 0.309332
v -0.110403 4.036273 0.298683
v 0.076143 4.357815 0.323842
v 0.074879 4.279140 0.321820
v 0.073615 4.200465 0.317532
v 0.072351 4.121790 0.310466
v 0.071087 4.043115 0.299350
v -0.076143 4.357815 0.323842
v -0.074879 4.279140 0.321820
v -0.073615 4.200465 0.317532
v -0.072351 4.121790 0.310466
v -0.071087 4.043115 0.299350
v 0.110403 4.051353 0.140403
v 0.108608 3.979521 0.122698
v -0.110403 4.051353 0.140403
v -0.108608 3.979521 0.122698
v -0.069823 3.979521 0.121706
v -0.077407 4.451571 0.166082
v -0.119379 4.410519 0.166082
v 0.069823 3.979521 0.121706
v 0.119379 4.410519 0.166082
v 0.077407 4.451571 0.166082
v 0.071087 4.058196 0.141070
v -0.071087 4.058196 0.141070
v 0.117583 4.338686 0.165253
v 0.115788 4.266853 0.162662
v 0.113993 4.195020 0.158090
v 0.112198 4.123187 0.151052
v -0.117583 4.338686 0.165253
v -0.115788 4.266853 0.162662
v -0.113993 4.195020 0.158090
v -0.112198 4.123187 0.151052
v 0.076143 4.372896 0.165563
v 0.074879 4.294221 0.163540
v 0.073615 4.215546 0.159252
v 0.072351 4.136870 0.152186
v -0.076143 4.372896 0.165563
v -0.074879 4.294221 0.163540
v -0.073615 4.215546 0.159252
v -0.072351 4.136870 0.152186
vt 0.742732 0.738043
vt 0.835695 0.715056
vt 0.835695 0.758943
vt 0.556805 0.715056
vt 0.649768 0.738043
vt 0.556805 0.758943
vt 0.649768 0.689975
vt 0.649768 0.978382
vt 0.742732 0.930314
vt 0.742732 0.978382
vt 0.649768 0.882246
vt 0.649768 0.930314
vt 0.649768 0.834178
vt 0.742732 0.882246
vt 0.649768 0.786110
vt 0.742732 0.834178
vt 0.742732 0.786110
vt 0.556805 0.934494
vt 0.556805 0.978381
vt 0.556805 0.890606
vt 0.556805 0.846719
vt 0.556805 0.802831
vt 0.835695 0.934494
vt 0.835695 0.978382
vt 0.835695 0.890606
vt 0.835695 0.846719
vt 0.835695 0.802831
vt 0.742732 0.689975
vt 0.742732 0.738043
vt 0.835695 0.758943
vt 0.835695 0.715056
vt 0.556805 0.715056
vt 0.556805 0.758943
vt 0.649768 0.738043
vt 0.649768 0.689975
vt 0.649768 0.978382
vt 0.742732 0.978382
vt 0.742732 0.930314
vt 0.649768 0.882246
vt 0.649768 0.930314
vt 0.649768 0.834178
vt 0.742732 0.882246
vt 0.649768 0.786110
vt 0.742732 0.834178
vt 0.742732 0.786110
vt 0.556805 0.934494
vt 0.556805 0.978381
vt 0.556805 0.890606
vt 0.556805 0.846719
vt 0.556805 0.802831
vt 0.835695 0.978382
vt 0.835695 0.934494
vt 0.835695 0.890606
vt 0.835695 0.846719
vt 0.835695 0.802831
vt 0.742732 0.689975
vn 0.0020 -0.0115 0.9999
vn -0.0020 -0.0115 0.9999
vn 0.0000 -0.0066 1.0000
vn 0.0000 -0.2390 0.9710
vn 0.0000 -0.1399 0.9902
vn 0.0000 -0.0895 0.9960
vn 0.0000 -0.0544 0.9985
vn 0.0000 -0.0257 0.9997
vn -0.0248 -0.2386 0.9708
vn -0.0087 -0.1464 0.9892
vn -0.0051 -0.0974 0.9952
vn -0.0035 -0.0634 0.9980
vn -0.0026 -0.0360 0.9993
vn 0.0248 -0.2386 0.9708
vn 0.0087 -0.1464 0.9892
vn 0.0051 -0.0974 0.9952
vn 0.0035 -0.0634 0.9980
vn 0.0026 -0.0360 0.9993
vn 0.0064 -0.0065 1.0000
vn -0.0064 -0.0065 1.0000
vn -0.0250 -0.2385 0.9708
vn -0.0198 -0.1396 0.9900
vn -0.0167 -0.0892 0.9959
vn -0.0148 -0.0542 0.9984
vn -0.0136 -0.0255 0.9996
vn 0.0250 -0.2385 0.9708
vn 0.0198 -0.1396 0.9900
vn 0.0167 -0.0892 0.9959
vn 0.0148 -0.0542 0.9984
vn 0.0136 -0.0255 0.9996
vn -0.0020 0.0115 -0.9999
vn 0.0020 0.0115 -0.9999
vn 0.0000 0.0066 -1.0000
vn 0.0000 0.2390 -0.9710
vn 0.0000 0.1399 -0.9902
vn 0.0000 0.0895 -0.9960
vn 0.0000 0.0544 -0.9985
vn 0.0000 0.0257 -0.9997
vn 0.0248 0.2386 -0.9708
vn 0.0087 0.1464 -0.9892
vn 0.0051 0.0974 -0.9952
vn 0.0035 0.0634 -0.9980
vn 0.0026 0.0360 -0.9993
vn -0.0248 0.2386 -0.9708
vn -0.0087 0.1464 -0.9892
vn -0.0051 0.0974 -0.9952
vn -0.0035 0.0634 -0.9980
vn -0.0026 0.0360 -0.9993
vn -0.0064 0.0065 -1.0000
vn 0.0064 0.0065 -1.0000
vn 0.0250 0.2385 -0.9708
vn 0.0198 0.1396 -0.9900
vn 0.0167 0.0892 -0.9959
vn 0.0148 0.0542 -0.9984
vn 0.0136 0.0255 -0.9996
vn -0.0250 0.2385 -0.9708
vn -0.0198 0.1396 -0.9900
vn -0.0167 0.0892 -0.9959
vn -0.0148 0.0542 -0.9984
vn -0.0136 0.0255 -0.9996
vn 0.0024 -0.9955 -0.0948
vn -0.9997 -0.0246 -0.0023
vn 0.9997 -0.0248 -0.0024
vn 0.0000 -0.9955 -0.0948
vn 0.6976 0.7132 0.0680
vn 0.9997 -0.0246 -0.0023
vn 0.0000 0.9955 0.0948
vn 0.9997 -0.0244 -0.0023
vn -0.9997 -0.0250 -0.0024
vn -0.9997 -0.0244 -0.0023
vn -0.9997 -0.0249 -0.0024
vn -0.0024 -0.9955 -0.0948
vn -0.9997 -0.0248 -0.0024
vn 0.9997 -0.0250 -0.0024
vn -0.6976 0.7132 0.0680
vn 0.9997 -0.0249 -0.0024
s off
f 24/1/1 3/2/1 14/3/1
f 1/4/2 19/5/2 9/6/2
f 8/7/3 24/1/3 19/5/3
f 7/8/4 28/9/4 5/10/4
f 22/11/5 28/9/5 23/12/5
f 21/13/6 27/14/6 22/11/6
f 20/15/7 26/16/7 21/13/7
f 19/5/8 25/17/8 20/15/8
f 13/18/9 7/8/9 2/19/9
f 12/20/10 23/12/10 13/18/10
f 11/21/11 22/11/11 12/20/11
f 10/22/12 21/13/12 11/21/12
f 9/6/13 20/15/13 10/22/13
f 5/10/14 18/23/14 4/24/14
f 28/9/15 17/25/15 18/23/15
f 27/14/16 16/26/16 17/25/16
f 26/16/17 15/27/17 16/26/17
f 25/17/18 14/3/18 15/27/18
f 24/1/19 6/28/19 3/2/19
f 1/4/20 8/7/20 19/5/20
f 8/7/3 6/28/3 24/1/3
f 7/8/4 23/12/4 28/9/4
f 22/11/5 27/14/5 28/9/5
f 21/13/6 26/16/6 27/14/6
f 20/15/7 25/17/7 26/16/7
f 19/5/8 24/1/8 25/17/8
f 13/18/21 23/12/21 7/8/21
f 12/20/22 22/11/22 23/12/22
f 11/21/23 21/13/23 22/11/23
f 10/22/24 20/15/24 21/13/24
f 9/6/25 19/5/25 20/15/25
f 5/10/26 28/9/26 18/23/26
f 28/9/27 27/14/27 17/25/27
f 27/14/28 26/16/28 16/26/28
f 26/16/29 25/17/29 15/27/29
f 25/17/30 24/1/30 14/3/30
f 53/29/31 45/30/31 35/31/31
f 37/32/32 41/33/32 49/34/32
f 38/35/33 49/34/33 53/29/33
f 36/36/34 33/37/34 40/38/34
f 52/39/35 39/40/35 40/38/35
f 51/41/36 52/39/36 56/42/36
f 50/43/37 51/41/37 55/44/37
f 49/34/38 50/43/38 54/45/38
f 29/46/39 30/47/39 36/36/39
f 44/48/40 29/46/40 39/40/40
f 43/49/41 44/48/41 52/39/41
f 42/50/42 43/49/42 51/41/42
f 41/33/43 42/50/43 50/43/43
f 33/37/44 32/51/44 31/52/44
f 40/38/45 31/52/45 48/53/45
f 56/42/46 48/53/46 47/54/46
f 55/44/47 47/54/47 46/55/47
f 54/45/48 46/55/48 45/30/48
f 53/29/49 35/31/49 34/56/49
f 37/32/50 49/34/50 38/35/50
f 38/35/33 53/29/33 34/56/33
f 36/36/34 40/38/34 39/40/34
f 52/39/35 40/38/35 56/42/35
f 51/41/36 56/42/36 55/44/36
f 50/43/37 55/44/37 54/45/37
f 49/34/38 54/45/38 53/29/38
f 29/46/51 36/36/51 39/40/51
f 44/48/52 39/40/52 52/39/52
f 43/49/53 52/39/53 51/41/53
f 42/50/54 51/41/54 50/43/54
f 41/33/55 50/43/55 49/34/55
f 33/37/56 31/52/56 40/38/56
f 40/38/57 48/53/57 56/42/57
f 56/42/58 47/54/58 55/44/58
f 55/44/59 46/55/59 54/45/59
f 54/45/60 45/30/60 53/29/60
f 7/8/61 36/36/61 30/47/61
f 18/23/62 17/25/62 48/53/62
f 10/22/63 11/21/63 43/49/63
f 7/8/64 5/10/64 33/37/64
f 12/20/63 44/48/63 43/49/63
f 8/7/65 1/4/65 37/32/65
f 13/18/66 29/46/66 44/48/66
f 6/28/67 8/7/67 38/35/67
f 2/19/68 30/47/68 29/46/68
f 3/2/69 35/31/69 45/30/69
f 4/24/70 18/23/70 31/52/70
f 14/3/71 45/30/71 46/55/71
f 5/10/72 4/24/72 32/51/72
f 15/27/73 46/55/73 47/54/73
f 1/4/74 9/6/74 41/33/74
f 6/28/75 34/56/75 35/31/75
f 17/25/73 16/26/73 47/54/73
f 9/6/76 10/22/76 42/50/76
f 7/8/61 30/47/61 2/19/61
f 18/23/62 48/53/62 31/52/62
f 10/22/63 43/49/63 42/50/63
f 7/8/64 33/37/64 36/36/64
f 12/20/63 43/49/63 11/21/63
f 8/7/65 37/32/65 38/35/65
f 13/18/66 44/48/66 12/20/66
f 6/28/67 38/35/67 34/56/67
f 2/19/68 29/46/68 13/18/68
f 3/2/69 45/30/69 14/3/69
f 4/24/70 31/52/70 32/51/70
f 14/3/71 46/55/71 15/27/71
f 5/10/72 32/51/72 33/37/72
f 15/27/73 47/54/73 16/26/73
f 1/4/74 41/33/74 37/32/74
f 6/28/75 35/31/75 3/2/75
f 17/25/73 47/54/73 48/53/73
f 9/6/76 42/50/76 41/33/76
