# Blender v2.90.1 OBJ File: 'gateTollan_chevron.blend'
# www.blender.org
v -0.186502 3.873402 0.278249
v -0.186502 3.873402 -0.079013
v 0.186502 3.873402 0.278249
v 0.186502 3.873402 -0.079013
v 0.120388 3.873402 -0.079013
v -0.120388 3.873402 -0.079013
v -0.120388 3.873402 0.278249
v 0.120388 3.873402 0.278249
v -0.189339 3.943244 0.293471
v -0.189339 3.943244 -0.117083
v 0.189339 3.943244 -0.117083
v 0.189339 3.943244 0.293471
v 0.122219 3.943244 0.297134
v -0.122219 3.943244 0.297134
v -0.122219 3.943244 -0.117066
v 0.122219 3.943244 -0.117066
v 0.119564 3.953286 0.291894
v -0.119564 3.953286 0.291894
v -0.119564 3.953286 -0.111709
v 0.119564 3.953286 -0.111709
v -0.208116 4.405579 0.350826
v -0.208116 4.405579 -0.242354
v 0.208116 4.405579 -0.242354
v 0.208116 4.405579 0.350826
v 0.134340 4.405579 0.350826
v -0.134340 4.405579 0.350826
v -0.134340 4.405579 -0.242345
v 0.134340 4.405579 -0.242345
v 0.131422 4.405579 0.340063
v -0.131422 4.405579 0.340063
v -0.131422 4.405579 -0.231584
v 0.131422 4.405579 -0.231584
v 0.077396 3.873402 -0.079013
v -0.077396 3.873402 -0.079013
v -0.077396 3.873402 0.278249
v 0.077396 3.873402 0.278249
v -0.078574 3.943244 -0.117058
v 0.078574 3.943244 -0.117058
v 0.078574 3.943244 0.295988
v -0.078574 3.943244 0.295988
v -0.076867 3.953286 -0.111708
v 0.076867 3.953286 -0.111708
v 0.076867 3.953286 0.290962
v -0.076867 3.953286 0.290962
v -0.084490 4.405579 -0.231582
v 0.084490 4.405579 -0.231582
v 0.085216 4.448658 0.340063
v -0.085216 4.448658 0.340063
v 0.119379 4.395439 0.324362
v 0.108608 3.964440 0.280978
v -0.119379 4.395439 0.324362
v -0.108608 3.964440 0.280978
v -0.069823 3.964440 0.279986
v -0.077407 4.436490 0.324362
v 0.069823 3.964440 0.279986
v 0.077407 4.436490 0.324362
v -0.186502 3.873002 -0.055981
v -0.186502 3.873513 0.226691
v 0.186502 3.873513 0.226691
v 0.186502 3.873002 -0.055981
v -0.120388 3.873002 -0.055981
v -0.120388 3.873513 0.226691
v 0.120388 3.873002 -0.055981
v 0.120388 3.873513 0.226691
v 0.189339 3.963694 -0.079180
v 0.189339 3.963694 0.247782
v -0.189339 3.963694 0.247782
v -0.189339 3.963694 -0.079180
v 0.208116 4.426029 -0.173559
v 0.208116 4.426029 0.292075
v -0.208116 4.426029 0.292075
v -0.208116 4.426029 -0.173559
v -0.077396 3.873002 -0.055981
v -0.077396 3.873513 0.226691
v 0.077396 3.873002 -0.055981
v 0.077396 3.873513 0.226691
v -0.186502 3.908351 0.080791
v 0.186502 3.908351 0.080791
v -0.120388 3.908351 0.080791
v 0.120388 3.908351 0.080791
v 0.189339 3.911180 0.062953
v -0.189339 3.929174 0.062953
v 0.208116 4.392233 0.076792
v -0.208116 4.392233 0.076792
v -0.186502 3.906993 0.105528
v -0.186502 3.904508 0.131620
v -0.186502 3.902075 0.159169
v -0.186502 3.895290 0.188201
v -0.120388 3.906993 0.105528
v -0.120388 3.904508 0.131620
v -0.120388 3.902075 0.159169
v -0.120388 3.895290 0.188201
v 0.120388 3.906993 0.105528
v 0.120388 3.904508 0.131620
v 0.120388 3.902075 0.159169
v 0.120388 3.895290 0.188201
v 0.189339 3.923360 0.091711
v 0.189339 3.934234 0.122473
v 0.189339 3.945449 0.163645
v 0.189339 3.957524 0.207314
v 0.208116 4.404403 0.121086
v 0.208116 4.413580 0.164556
v 0.208116 4.420082 0.207595
v 0.208116 4.424071 0.250130
v -0.077396 3.895290 0.188201
v 0.077396 3.895290 0.188201
v 0.186502 3.895290 0.188201
v 0.186502 3.902075 0.159169
v 0.186502 3.904508 0.131620
v 0.186502 3.906993 0.105528
v -0.189339 3.957524 0.207314
v -0.189339 3.945449 0.163645
v -0.189339 3.934234 0.122473
v -0.189339 3.923360 0.091711
v -0.208116 4.424071 0.250130
v -0.208116 4.420082 0.207595
v -0.208116 4.413580 0.164556
v -0.208116 4.404403 0.121086
v 0.186502 3.907239 0.057699
v 0.186502 3.904208 0.035921
v 0.186502 3.900337 0.015442
v 0.186502 3.893516 -0.003781
v -0.189339 3.925146 0.033936
v -0.189339 3.937578 0.005785
v -0.189339 3.948607 -0.021854
v -0.189339 3.958393 -0.049663
v -0.208116 4.404403 0.031518
v -0.208116 4.413580 -0.015027
v -0.208116 4.420082 -0.063360
v -0.208116 4.424071 -0.114894
v -0.186502 3.893516 -0.003781
v -0.186502 3.900337 0.015442
v -0.186502 3.904208 0.035921
v -0.186502 3.907239 0.057699
v -0.120388 3.893516 -0.003781
v -0.120388 3.900337 0.015442
v -0.120388 3.904208 0.035921
v -0.120388 3.907239 0.057699
v 0.120388 3.893516 -0.003781
v 0.120388 3.900337 0.015442
v 0.120388 3.904208 0.035921
v 0.120388 3.907239 0.057699
v 0.189339 3.958393 -0.049663
v 0.189339 3.948607 -0.021854
v 0.189339 3.937578 0.005785
v 0.189339 3.925146 0.033936
v 0.208116 4.424071 -0.114894
v 0.208116 4.420082 -0.063360
v 0.208116 4.413580 -0.015027
v 0.208116 4.404403 0.031518
v -0.077396 3.893516 -0.003781
v 0.077396 3.893516 -0.003781
v -0.204987 4.328523 -0.236768
v -0.201857 4.251467 -0.225065
v -0.198728 4.174411 -0.207245
v -0.195598 4.097355 -0.183308
v -0.192468 4.020299 -0.153254
v 0.204987 4.328523 -0.236768
v 0.201857 4.251467 -0.225065
v 0.198728 4.174411 -0.207245
v 0.195598 4.097355 -0.183308
v 0.192468 4.020299 -0.153254
v 0.204987 4.328523 0.349867
v 0.201857 4.251467 0.346865
v 0.198728 4.174411 0.341520
v 0.195598 4.097355 0.333155
v 0.192468 4.020299 0.320438
v 0.132319 4.328523 0.349968
v 0.130299 4.251467 0.347258
v 0.128279 4.174411 0.342265
v 0.126259 4.097355 0.334361
v 0.124239 4.020300 0.321931
v -0.132319 4.328523 0.349968
v -0.130299 4.251467 0.347258
v -0.128279 4.174411 0.342265
v -0.126259 4.097355 0.334361
v -0.124239 4.020300 0.321931
v -0.132319 4.328523 -0.236744
v -0.130299 4.251467 -0.225031
v -0.128279 4.174411 -0.207206
v -0.126259 4.097355 -0.183271
v -0.124239 4.020300 -0.153224
v 0.132319 4.328523 -0.236744
v 0.130299 4.251467 -0.225031
v 0.128279 4.174411 -0.207206
v 0.126259 4.097355 -0.183271
v 0.124239 4.020300 -0.153224
v 0.129445 4.330196 0.339327
v 0.127469 4.254814 0.336743
v 0.125493 4.179432 0.331993
v 0.123517 4.104050 0.324519
v 0.121540 4.028668 0.312941
v -0.129445 4.330196 0.339327
v -0.127469 4.254814 0.336743
v -0.125493 4.179432 0.331993
v -0.123517 4.104050 0.324519
v -0.121540 4.028668 0.312941
v -0.129445 4.330196 -0.226174
v -0.127469 4.254814 -0.214920
v -0.125493 4.179432 -0.197825
v -0.123517 4.104050 -0.174896
v -0.121540 4.028668 -0.146156
v 0.129445 4.330196 -0.226174
v 0.127469 4.254814 -0.214920
v 0.125493 4.179432 -0.197825
v 0.123517 4.104050 -0.174896
v 0.121540 4.028668 -0.146156
v -0.192468 4.020299 0.320438
v -0.195598 4.097355 0.333155
v -0.198728 4.174411 0.341520
v -0.201857 4.251467 0.346865
v -0.204987 4.328523 0.349867
v -0.083220 4.330196 -0.226168
v -0.081949 4.254814 -0.214913
v -0.080678 4.179432 -0.197818
v -0.079408 4.104050 -0.174892
v -0.078137 4.028668 -0.146155
v 0.083220 4.330196 -0.226168
v 0.081949 4.254814 -0.214913
v 0.080678 4.179432 -0.197818
v 0.079408 4.104050 -0.174892
v 0.078137 4.028668 -0.146155
v 0.117583 4.323606 0.323533
v 0.115788 4.251772 0.320942
v 0.113993 4.179939 0.316370
v 0.112198 4.108106 0.309332
v 0.110403 4.036273 0.298683
v -0.117583 4.323606 0.323533
v -0.115788 4.251772 0.320942
v -0.113993 4.179939 0.316370
v -0.112198 4.108106 0.309332
v -0.110403 4.036273 0.298683
v -0.204987 4.348973 0.291611
v -0.201857 4.271917 0.289120
v -0.198728 4.194861 0.284437
v -0.195598 4.117805 0.277288
v -0.192468 4.040750 0.266470
v -0.204987 4.348973 -0.170309
v -0.201857 4.271917 -0.169473
v -0.198728 4.194861 -0.158101
v -0.195598 4.117805 -0.136640
v -0.192468 4.040750 -0.109805
v 0.204987 4.348973 -0.170309
v 0.201857 4.271917 -0.169473
v 0.198728 4.194861 -0.158101
v 0.195598 4.117805 -0.136640
v 0.192468 4.040750 -0.109805
v 0.204987 4.348973 0.291611
v 0.201857 4.271917 0.289120
v 0.198728 4.194861 0.284437
v 0.195598 4.117805 0.277288
v 0.192468 4.040750 0.266470
v 0.204987 4.315177 0.075808
v 0.201857 4.238122 0.075385
v 0.198728 4.161066 0.075519
v 0.195598 4.084010 0.073934
v 0.192468 3.993747 0.061598
v -0.204987 4.315177 0.075808
v -0.201857 4.238122 0.075385
v -0.198728 4.161066 0.075519
v -0.195598 4.084010 0.073934
v -0.192468 3.993747 0.061598
v -0.204987 4.347015 0.249606
v -0.201857 4.269959 0.247095
v -0.198728 4.192903 0.242584
v -0.195598 4.115848 0.235631
v -0.192468 4.038792 0.226020
v -0.204987 4.343026 0.207053
v -0.201857 4.265970 0.204661
v -0.198728 4.188914 0.200117
v -0.195598 4.111858 0.194513
v -0.192468 4.034803 0.186007
v -0.204987 4.336524 0.164089
v -0.201857 4.259469 0.161435
v -0.198728 4.182413 0.158065
v -0.195598 4.105357 0.153969
v -0.192468 4.021774 0.146213
v -0.204987 4.327347 0.120331
v -0.201857 4.250291 0.118192
v -0.198728 4.173235 0.116568
v -0.195598 4.096180 0.113910
v -0.192468 4.007933 0.105825
v 0.204987 4.327347 0.120331
v 0.201857 4.250291 0.118192
v 0.198728 4.173235 0.116568
v 0.195598 4.096180 0.113910
v 0.192468 4.007933 0.105825
v 0.204987 4.336524 0.164089
v 0.201857 4.259469 0.161435
v 0.198728 4.182413 0.158065
v 0.195598 4.105357 0.153969
v 0.192468 4.021774 0.146213
v 0.204987 4.343026 0.207053
v 0.201857 4.265970 0.204661
v 0.198728 4.188914 0.200117
v 0.195598 4.111858 0.194513
v 0.192468 4.034803 0.186007
v 0.204987 4.347015 0.249606
v 0.201857 4.269959 0.247095
v 0.198728 4.192903 0.242584
v 0.195598 4.115848 0.235631
v 0.192468 4.038792 0.226020
v 0.204987 4.347015 -0.112503
v 0.201857 4.269959 -0.109846
v 0.198728 4.192903 -0.108290
v 0.195598 4.115848 -0.099023
v 0.192468 4.038792 -0.074844
v 0.204987 4.343026 -0.061875
v 0.201857 4.265970 -0.058685
v 0.198728 4.188914 -0.055408
v 0.195598 4.111858 -0.057507
v 0.192468 4.034803 -0.041595
v 0.204987 4.336524 -0.014460
v 0.201857 4.259469 -0.012182
v 0.198728 4.182413 -0.009012
v 0.195598 4.105357 -0.009364
v 0.192468 4.025055 -0.009184
v 0.204987 4.327347 0.031247
v 0.201857 4.250291 0.032250
v 0.198728 4.173235 0.034093
v 0.195598 4.096180 0.034189
v 0.192468 4.010271 0.022957
v -0.204987 4.327347 0.031247
v -0.201857 4.250291 0.032250
v -0.198728 4.173235 0.034093
v -0.195598 4.096180 0.034189
v -0.192468 4.010271 0.022957
v -0.204987 4.336524 -0.014460
v -0.201857 4.259469 -0.012182
v -0.198728 4.182413 -0.009012
v -0.195598 4.105357 -0.009364
v -0.192468 4.025055 -0.009184
v -0.204987 4.343026 -0.061875
v -0.201857 4.265970 -0.058685
v -0.198728 4.188914 -0.055408
v -0.195598 4.111858 -0.057507
v -0.192468 4.034803 -0.041595
v -0.204987 4.347015 -0.112503
v -0.201857 4.269959 -0.109846
v -0.198728 4.192903 -0.108290
v -0.195598 4.115848 -0.099023
v -0.192468 4.038792 -0.074844
v -0.211246 4.482635 0.349434
v -0.214375 4.559690 0.345999
v -0.214375 4.559690 -0.242876
v -0.211246 4.482635 -0.242876
v 0.214375 4.559690 -0.242876
v 0.211246 4.482635 -0.242876
v 0.214375 4.559690 0.345999
v 0.211246 4.482635 0.349434
v 0.138380 4.559690 0.347463
v 0.136360 4.482635 0.349777
v -0.138380 4.559690 0.347463
v -0.136360 4.482635 0.349777
v -0.138380 4.559690 -0.242876
v -0.136360 4.482635 -0.242876
v 0.138380 4.559690 -0.242876
v 0.136360 4.482635 -0.242876
v 0.135462 4.559714 0.336701
v 0.133398 4.480961 0.339098
v -0.135462 4.559714 0.336701
v -0.133398 4.480961 0.339098
v -0.135374 4.556343 -0.232113
v -0.133398 4.480961 -0.232113
v 0.135374 4.556343 -0.232113
v 0.133398 4.480961 -0.232113
v -0.087031 4.556343 -0.232113
v -0.085761 4.480961 -0.232113
v 0.087031 4.556343 -0.232113
v 0.085761 4.480961 -0.232113
v 0.087097 4.560276 0.337053
v 0.086366 4.516860 0.338885
v -0.087102 4.560545 0.337041
v -0.086366 4.516860 0.338885
v 0.213555 4.559928 -0.185474
v 0.211246 4.503084 -0.180526
v 0.213556 4.559958 0.287861
v 0.211246 4.503084 0.290553
v -0.213556 4.559958 0.287861
v -0.211246 4.503084 0.290553
v -0.213555 4.559928 -0.185474
v -0.211246 4.503084 -0.180526
v -0.214037 4.559952 0.071288
v -0.211246 4.480882 0.075211
v 0.214037 4.559952 0.071288
v 0.211246 4.480882 0.075211
v -0.213476 4.559999 0.245789
v -0.211246 4.503446 0.248554
v -0.213473 4.559913 0.203090
v -0.211246 4.501775 0.206010
v -0.213562 4.559762 0.159777
v -0.211246 4.497592 0.162885
v -0.213751 4.559831 0.115915
v -0.211246 4.490733 0.119270
v 0.213751 4.559831 0.115915
v 0.211246 4.490733 0.119270
v 0.213562 4.559762 0.159777
v 0.211246 4.497592 0.162885
v 0.213473 4.559913 0.203090
v 0.211246 4.501775 0.206010
v 0.213476 4.559999 0.245789
v 0.211246 4.503446 0.248554
v 0.213475 4.559975 -0.128118
v 0.211246 4.503446 -0.120023
v 0.213470 4.559831 -0.071906
v 0.211246 4.501775 -0.066753
v 0.213568 4.559941 -0.021934
v 0.211246 4.497592 -0.017682
v 0.213752 4.559871 0.025455
v 0.211246 4.490733 0.029416
v -0.213752 4.559871 0.025455
v -0.211246 4.490733 0.029416
v -0.213568 4.559941 -0.021934
v -0.211246 4.497592 -0.017682
v -0.213470 4.559831 -0.071906
v -0.211246 4.501775 -0.066753
v -0.213475 4.559975 -0.128118
v -0.211246 4.503446 -0.120023
v -0.120388 3.919841 0.057313
v -0.120388 3.920954 0.080405
v 0.120388 3.919841 0.057313
v 0.120388 3.920954 0.080405
v -0.120388 3.919596 0.105142
v -0.120388 3.917110 0.131235
v -0.120388 3.914677 0.158783
v -0.120388 3.907893 0.187815
v 0.120388 3.919596 0.105142
v 0.120388 3.917110 0.131235
v 0.120388 3.914677 0.158783
v 0.120388 3.907893 0.187815
v -0.077396 3.907893 0.187815
v 0.077396 3.907893 0.187815
v -0.077396 3.906119 -0.004167
v 0.077396 3.906119 -0.004167
v -0.120388 3.906119 -0.004167
v -0.120388 3.912940 0.015056
v -0.120388 3.916810 0.035535
v 0.120388 3.906119 -0.004167
v 0.120388 3.912940 0.015056
v 0.120388 3.916810 0.035535
vt 0.175270 0.674899
vt 0.123674 0.751110
vt 0.123674 0.674899
vt 0.072079 0.674899
vt 0.020483 0.751110
vt 0.020483 0.674899
vt 0.106476 0.674899
vt 0.106476 0.751110
vt 0.198133 0.903534
vt 0.186140 0.903534
vt 0.198133 0.903534
vt 0.198133 0.446263
vt 0.186140 0.446263
vt 0.198133 0.446263
vt 0.186140 0.420859
vt 0.175270 0.446263
vt 0.175270 0.420859
vt 0.175270 0.293839
vt 0.186140 0.370051
vt 0.175270 0.370051
vt 0.186140 0.878130
vt 0.175270 0.903534
vt 0.175270 0.878130
vt 0.175270 0.751110
vt 0.186140 0.827322
vt 0.175270 0.827322
vt 0.186140 0.903534
vt 0.175270 0.979746
vt 0.186140 0.674899
vt 0.186140 0.446263
vt 0.175270 0.522475
vt 0.186140 0.217627
vt 0.175270 0.217627
vt 0.186140 0.852726
vt 0.186140 0.827322
vt 0.186140 0.852726
vt 0.186140 0.395455
vt 0.186140 0.370051
vt 0.186140 0.395455
vt 0.258099 0.827322
vt 0.246106 0.827322
vt 0.246106 0.827322
vt 0.246106 0.370051
vt 0.258099 0.370051
vt 0.246106 0.370051
vt 0.258099 0.420859
vt 0.246106 0.446263
vt 0.246106 0.420859
vt 0.258099 0.903534
vt 0.264953 0.878130
vt 0.264953 0.878130
vt 0.258099 0.446263
vt 0.270092 0.446263
vt 0.270092 0.446263
vt 0.246106 0.293839
vt 0.258099 0.370051
vt 0.258099 0.903534
vt 0.270092 0.903534
vt 0.270092 0.903534
vt 0.246106 0.751110
vt 0.246106 0.979746
vt 0.246106 0.903534
vt 0.246106 0.674899
vt 0.258099 0.751110
vt 0.246106 0.522475
vt 0.246106 0.446263
vt 0.246106 0.217627
vt 0.258099 0.293839
vt 0.186140 0.878130
vt 0.186140 0.903534
vt 0.186140 0.878130
vt 0.258099 0.395455
vt 0.246106 0.395455
vt 0.186140 0.420859
vt 0.175270 0.852726
vt 0.175270 0.395455
vt 0.089277 0.674899
vt 0.072079 0.751110
vt 0.089277 0.751110
vt 0.198133 0.903534
vt 0.258099 0.827322
vt 0.264953 0.852726
vt 0.258099 0.827322
vt 0.186140 0.827322
vt 0.186140 0.852726
vt 0.264953 0.852726
vt 0.246106 0.827322
vt 0.106476 0.522475
vt 0.089277 0.598687
vt 0.089277 0.522475
vt 0.072079 0.598687
vt 0.072079 0.522475
vt 0.089277 0.667277
vt 0.072079 0.667277
vt 0.258099 0.065204
vt 0.246106 0.141415
vt 0.246106 0.065204
vt 0.258099 0.210006
vt 0.246106 0.210006
vt 0.258099 0.522475
vt 0.246106 0.598687
vt 0.258099 0.667277
vt 0.246106 0.667277
vt 0.175270 0.065204
vt 0.186140 0.141415
vt 0.175270 0.141415
vt 0.186140 0.210006
vt 0.175270 0.210006
vt 0.186140 0.598687
vt 0.175270 0.598687
vt 0.186140 0.667277
vt 0.175270 0.667277
vt 0.123674 0.522475
vt 0.106476 0.598687
vt 0.106476 0.667277
vt 0.020483 0.598687
vt 0.020483 0.522475
vt 0.020483 0.667277
vt 0.123674 0.598687
vt 0.123674 0.667277
vt 0.106476 0.606308
vt 0.175270 0.629171
vt 0.123674 0.636792
vt 0.123674 0.629171
vt 0.072079 0.629172
vt 0.020483 0.636793
vt 0.020483 0.629171
vt 0.186140 0.636792
vt 0.175270 0.636793
vt 0.186140 0.171900
vt 0.175270 0.179521
vt 0.175270 0.171900
vt 0.246106 0.629171
vt 0.258099 0.636792
vt 0.246106 0.636792
vt 0.246106 0.171900
vt 0.258099 0.179521
vt 0.246106 0.179521
vt 0.072079 0.652035
vt 0.072079 0.659656
vt 0.072079 0.659656
vt 0.258099 0.149037
vt 0.246106 0.149037
vt 0.258099 0.156658
vt 0.246106 0.156658
vt 0.258099 0.164279
vt 0.246106 0.164279
vt 0.258099 0.171900
vt 0.186140 0.149037
vt 0.175270 0.149037
vt 0.186140 0.156658
vt 0.175270 0.156658
vt 0.186140 0.164279
vt 0.175270 0.164279
vt 0.123674 0.621550
vt 0.123674 0.621550
vt 0.089277 0.606308
vt 0.072079 0.606308
vt 0.072079 0.606308
vt 0.072079 0.644414
vt 0.072079 0.652035
vt 0.123674 0.629171
vt 0.123674 0.644414
vt 0.175270 0.644414
vt 0.123674 0.652035
vt 0.175270 0.652035
vt 0.123674 0.659656
vt 0.175270 0.659656
vt 0.072079 0.636793
vt 0.020483 0.644414
vt 0.020483 0.652035
vt 0.020483 0.659656
vt 0.123674 0.613929
vt 0.123674 0.613929
vt 0.072079 0.644414
vt 0.123674 0.667277
vt 0.123674 0.659656
vt 0.186140 0.644414
vt 0.186140 0.652035
vt 0.186140 0.659656
vt 0.246106 0.644414
vt 0.258099 0.644414
vt 0.246106 0.652035
vt 0.258099 0.652035
vt 0.246106 0.659656
vt 0.258099 0.659656
vt 0.123674 0.606308
vt 0.106476 0.606308
vt 0.072079 0.629172
vt 0.072079 0.636793
vt 0.123674 0.606308
vt 0.123674 0.652035
vt 0.089277 0.667277
vt 0.089277 0.606308
vt 0.123674 0.644414
vt 0.258099 0.606308
vt 0.246106 0.606308
vt 0.258099 0.613929
vt 0.246106 0.613929
vt 0.258099 0.621550
vt 0.246106 0.621550
vt 0.258099 0.629171
vt 0.186140 0.606308
vt 0.175270 0.606308
vt 0.186140 0.613929
vt 0.175270 0.613929
vt 0.186140 0.621550
vt 0.175270 0.621550
vt 0.186140 0.629171
vt 0.072079 0.621550
vt 0.106476 0.667277
vt 0.123674 0.636792
vt 0.020483 0.606308
vt 0.020483 0.613929
vt 0.072079 0.613929
vt 0.020483 0.621550
vt 0.072079 0.621550
vt 0.072079 0.613929
vt 0.072079 0.667277
vt 0.186140 0.179521
vt 0.175270 0.187143
vt 0.186140 0.187143
vt 0.175270 0.194764
vt 0.186140 0.194764
vt 0.175270 0.202385
vt 0.186140 0.202385
vt 0.246106 0.187143
vt 0.258099 0.187143
vt 0.246106 0.194764
vt 0.258099 0.194764
vt 0.246106 0.202385
vt 0.258099 0.202385
vt 0.198133 0.202385
vt 0.210126 0.202385
vt 0.198133 0.210006
vt 0.222120 0.202385
vt 0.210127 0.210006
vt 0.234113 0.202385
vt 0.222120 0.210006
vt 0.234113 0.210006
vt 0.198133 0.194764
vt 0.210127 0.194764
vt 0.222120 0.194764
vt 0.234113 0.194764
vt 0.198133 0.187143
vt 0.210127 0.187143
vt 0.222120 0.187143
vt 0.234113 0.187143
vt 0.198133 0.179521
vt 0.210127 0.179521
vt 0.222120 0.179521
vt 0.234113 0.179521
vt 0.198133 0.629171
vt 0.198133 0.621550
vt 0.210126 0.629171
vt 0.210126 0.621550
vt 0.222120 0.629171
vt 0.222120 0.621550
vt 0.234113 0.629171
vt 0.234113 0.621550
vt 0.198133 0.613929
vt 0.210126 0.613929
vt 0.222120 0.613929
vt 0.234113 0.613929
vt 0.198133 0.606308
vt 0.210126 0.606308
vt 0.222120 0.606308
vt 0.234113 0.606308
vt 0.198133 0.598687
vt 0.210126 0.598687
vt 0.222120 0.598687
vt 0.234113 0.598687
vt 0.198133 0.659656
vt 0.210126 0.659656
vt 0.198133 0.667277
vt 0.222120 0.659656
vt 0.210126 0.667277
vt 0.234113 0.659656
vt 0.222120 0.667277
vt 0.234113 0.667277
vt 0.198133 0.652035
vt 0.210126 0.652035
vt 0.222120 0.652035
vt 0.234113 0.652035
vt 0.198133 0.644414
vt 0.210126 0.644414
vt 0.222120 0.644414
vt 0.234113 0.644414
vt 0.198133 0.636793
vt 0.210126 0.636793
vt 0.222120 0.636792
vt 0.234113 0.636792
vt 0.198133 0.171900
vt 0.198133 0.164279
vt 0.210127 0.171900
vt 0.210126 0.164279
vt 0.222120 0.171900
vt 0.222120 0.164279
vt 0.234113 0.171900
vt 0.234113 0.164279
vt 0.198133 0.156658
vt 0.210127 0.156658
vt 0.222120 0.156658
vt 0.234113 0.156658
vt 0.198133 0.149037
vt 0.210126 0.149037
vt 0.222120 0.149037
vt 0.234113 0.149037
vt 0.198133 0.141415
vt 0.210126 0.141415
vt 0.222120 0.141415
vt 0.234113 0.141415
vt 0.198133 0.674898
vt 0.210126 0.674899
vt 0.222120 0.674899
vt 0.234113 0.674899
vt 0.198133 0.522475
vt 0.186140 0.522475
vt 0.210126 0.522475
vt 0.222120 0.522475
vt 0.234113 0.522475
vt 0.198133 0.217627
vt 0.210127 0.217627
vt 0.222120 0.217627
vt 0.234113 0.217627
vt 0.198133 0.065204
vt 0.186140 0.065204
vt 0.210126 0.065204
vt 0.222120 0.065204
vt 0.234113 0.065204
vt 0.198133 0.827322
vt 0.210127 0.827322
vt 0.198133 0.827322
vt 0.222120 0.827322
vt 0.210127 0.827322
vt 0.234113 0.827322
vt 0.222120 0.827322
vt 0.234113 0.827322
vt 0.246106 0.903534
vt 0.258099 0.903534
vt 0.234113 0.903534
vt 0.246106 0.903534
vt 0.222120 0.903534
vt 0.234113 0.903534
vt 0.210127 0.903534
vt 0.222120 0.903534
vt 0.210126 0.903534
vt 0.198133 0.395455
vt 0.210126 0.395455
vt 0.198133 0.420859
vt 0.222120 0.420859
vt 0.210126 0.420859
vt 0.234113 0.395455
vt 0.222120 0.395455
vt 0.234113 0.420859
vt 0.198133 0.370051
vt 0.210127 0.370051
vt 0.222120 0.370051
vt 0.234113 0.370051
vt 0.198133 0.293839
vt 0.186140 0.293839
vt 0.210126 0.293839
vt 0.222120 0.293839
vt 0.234113 0.293839
vt 0.210127 0.446263
vt 0.222120 0.446263
vt 0.234113 0.446263
vt 0.198133 0.751110
vt 0.186140 0.751110
vt 0.210126 0.751110
vt 0.222120 0.751110
vt 0.234113 0.751110
vt 0.186140 0.979746
vt 0.210127 0.903534
vt 0.198133 0.979746
vt 0.222120 0.903534
vt 0.210126 0.979746
vt 0.234113 0.903534
vt 0.222120 0.979746
vt 0.234113 0.979746
vt 0.198133 0.827322
vt 0.210127 0.827322
vt 0.222120 0.827322
vt 0.234113 0.827322
vt 0.198133 0.370051
vt 0.210127 0.370051
vt 0.222120 0.370051
vt 0.234113 0.370051
vt 0.210127 0.446263
vt 0.222120 0.446263
vt 0.234113 0.446263
vt 0.258099 0.446263
vt 0.270092 0.202385
vt 0.278615 0.202385
vt 0.270092 0.210006
vt 0.270092 0.194764
vt 0.278992 0.194764
vt 0.270092 0.187143
vt 0.279697 0.187143
vt 0.270092 0.179521
vt 0.280789 0.179521
vt 0.270092 0.629171
vt 0.270092 0.621550
vt 0.279697 0.629171
vt 0.270092 0.613929
vt 0.278992 0.621550
vt 0.270092 0.606308
vt 0.278615 0.613929
vt 0.258099 0.598687
vt 0.270092 0.598687
vt 0.278633 0.606308
vt 0.270092 0.659656
vt 0.278637 0.667277
vt 0.270092 0.667277
vt 0.270092 0.652035
vt 0.278627 0.659656
vt 0.270092 0.644414
vt 0.279691 0.644414
vt 0.270092 0.636792
vt 0.280789 0.636793
vt 0.270092 0.171900
vt 0.270092 0.164279
vt 0.279691 0.171900
vt 0.278627 0.156658
vt 0.270092 0.156658
vt 0.278637 0.149037
vt 0.270092 0.149037
vt 0.270092 0.141415
vt 0.258099 0.141415
vt 0.278944 0.141415
vt 0.258099 0.217627
vt 0.278633 0.210006
vt 0.270092 0.217627
vt 0.270092 0.065204
vt 0.282085 0.065204
vt 0.270092 0.674899
vt 0.258099 0.674899
vt 0.278944 0.674899
vt 0.270092 0.522475
vt 0.282085 0.522475
vt 0.275803 0.852726
vt 0.282711 0.852726
vt 0.275803 0.878130
vt 0.270092 0.827322
vt 0.282621 0.827322
vt 0.270092 0.395455
vt 0.282085 0.395455
vt 0.270092 0.420859
vt 0.270092 0.370051
vt 0.282621 0.903534
vt 0.282085 0.903534
vt 0.282085 0.446263
vt 0.282085 0.446263
vt 0.270092 0.827322
vt 0.270092 0.370051
vt 0.282085 0.370051
vt 0.282085 0.420859
vt 0.270092 0.293839
vt 0.282085 0.370051
vt 0.270092 0.751110
vt 0.282085 0.827322
vt 0.258099 0.979746
vt 0.270092 0.979746
vt 0.282085 0.751110
vt 0.282085 0.293839
vt 0.278939 0.598687
vt 0.278967 0.652035
vt 0.278967 0.164279
vt 0.278939 0.217627
vt 0.282753 0.878130
vt 0.282085 0.979746
vn 0.0000 -1.0000 -0.0022
vn 0.9674 -0.0442 0.2492
vn -0.9618 -0.0925 -0.2577
vn 0.0000 -0.4784 -0.8782
vn 0.0000 -0.4784 -0.8781
vn 0.0000 -0.2462 0.9692
vn 0.0000 -0.2610 0.9653
vn 0.9995 -0.0314 -0.0001
vn -0.9995 -0.0314 -0.0005
vn -0.0195 0.4448 0.8954
vn 0.0000 0.4702 -0.8826
vn -0.9643 0.0223 0.2640
vn 0.9647 0.0064 -0.2633
vn -0.0001 -0.0716 -0.9974
vn 0.5054 -0.5420 0.6714
vn -0.9648 0.0235 -0.2619
vn 0.0003 -0.0725 -0.9974
vn 0.9644 0.0289 0.2629
vn 0.0014 -0.0112 0.9999
vn -0.0014 -0.0112 0.9999
vn 0.9991 -0.0404 -0.0142
vn -0.0003 -0.0725 -0.9974
vn -0.9991 -0.0397 0.0122
vn 0.0158 0.6914 0.7223
vn 0.0000 0.7014 0.7128
vn 0.0001 -0.0716 -0.9974
vn 0.0000 -0.0716 -0.9974
vn -0.0001 0.4706 -0.8823
vn 0.0233 0.4576 0.8888
vn 0.0000 0.4475 0.8943
vn 0.0000 -1.0000 -0.0021
vn 0.8125 -0.1203 0.5705
vn -0.4949 -0.5060 0.7064
vn -0.0184 0.6954 0.7184
vn 0.0000 -0.7904 0.6126
vn -0.8022 0.0132 0.5970
vn 0.0000 -0.9998 -0.0174
vn 0.0000 -0.8703 -0.4924
vn -0.9991 -0.0404 -0.0142
vn -0.9992 -0.0406 -0.0014
vn 0.9991 -0.0397 0.0122
vn 0.9992 -0.0406 0.0019
vn -0.9995 -0.0314 -0.0001
vn -0.9993 -0.0342 0.0134
vn 0.9995 -0.0314 -0.0005
vn 0.9990 -0.0388 -0.0219
vn 0.0000 -0.9307 0.3658
vn -0.0000 -0.9988 0.0481
vn 0.7924 -0.6093 0.0293
vn -0.9838 -0.1788 -0.0098
vn 0.9991 -0.0404 -0.0110
vn -0.9991 -0.0407 0.0111
vn 1.0000 0.0000 0.0000
vn -0.9992 -0.0406 0.0019
vn -0.9992 -0.0406 0.0038
vn -0.9992 -0.0406 0.0061
vn -0.9991 -0.0407 0.0085
vn -0.9990 -0.0388 -0.0219
vn -0.9979 -0.0637 -0.0149
vn -0.9952 -0.0976 -0.0086
vn -0.9952 -0.0978 -0.0093
vn -1.0000 -0.0000 0.0000
vn 0.0000 0.0306 0.9995
vn 0.0000 -0.9985 -0.0548
vn 0.0000 -0.9955 -0.0948
vn 0.0000 -0.9961 -0.0880
vn 0.0000 -0.9738 -0.2276
vn 0.0000 -0.0306 -0.9995
vn 0.9838 -0.1788 -0.0098
vn 0.9952 -0.0978 -0.0093
vn 0.9952 -0.0976 -0.0086
vn 0.9979 -0.0637 -0.0149
vn 0.9991 -0.0407 0.0111
vn 0.9991 -0.0407 0.0085
vn 0.9992 -0.0406 0.0061
vn 0.9992 -0.0406 0.0038
vn 0.9992 -0.0406 -0.0014
vn 0.9992 -0.0406 -0.0032
vn 0.9992 -0.0406 -0.0056
vn 0.9991 -0.0406 -0.0081
vn 0.9993 -0.0342 0.0134
vn 0.9988 -0.0461 0.0163
vn 0.9973 -0.0724 0.0137
vn 0.9910 -0.1325 0.0184
vn 0.0000 -0.9424 0.3344
vn 0.0000 -0.9826 0.1857
vn 0.0000 -0.9905 0.1378
vn -0.9915 -0.1297 0.0062
vn -0.9910 -0.1325 0.0184
vn -0.9973 -0.0724 0.0137
vn -0.9988 -0.0461 0.0163
vn -0.9991 -0.0404 -0.0110
vn -0.9991 -0.0406 -0.0081
vn -0.9992 -0.0406 -0.0056
vn -0.9992 -0.0406 -0.0032
vn -0.9991 -0.0395 -0.0139
vn -0.9991 -0.0416 -0.0050
vn -0.9992 -0.0405 -0.0039
vn -0.9992 -0.0407 -0.0031
vn -0.9992 -0.0407 -0.0032
vn -0.9991 -0.0384 -0.0153
vn -0.9992 -0.0390 -0.0117
vn -0.9992 -0.0406 -0.0055
vn -0.9992 -0.0408 -0.0057
vn -0.9992 -0.0407 -0.0057
vn -0.9991 -0.0389 -0.0172
vn -0.9993 -0.0343 -0.0158
vn -0.9991 -0.0406 -0.0086
vn -0.9991 -0.0408 -0.0087
vn -0.9991 -0.0407 -0.0084
vn -0.9988 -0.0483 0.0067
vn -0.9994 -0.0327 -0.0140
vn -0.9991 -0.0403 -0.0123
vn -0.9991 -0.0406 -0.0119
vn -0.9991 -0.0405 -0.0114
vn 0.9991 -0.0389 -0.0172
vn 0.9993 -0.0343 -0.0158
vn 0.9991 -0.0406 -0.0086
vn 0.9991 -0.0408 -0.0087
vn 0.9991 -0.0407 -0.0084
vn 0.9991 -0.0384 -0.0153
vn 0.9992 -0.0390 -0.0117
vn 0.9992 -0.0406 -0.0055
vn 0.9992 -0.0408 -0.0057
vn 0.9992 -0.0407 -0.0057
vn 0.9991 -0.0395 -0.0139
vn 0.9991 -0.0416 -0.0050
vn 0.9992 -0.0405 -0.0039
vn 0.9992 -0.0407 -0.0031
vn 0.9992 -0.0407 -0.0032
vn 0.9991 -0.0412 -0.0074
vn 0.9991 -0.0413 -0.0023
vn 0.9992 -0.0408 -0.0021
vn 0.9992 -0.0406 -0.0016
vn 0.9992 -0.0406 -0.0013
vn 0.9992 -0.0376 0.0104
vn 0.9991 -0.0410 0.0041
vn 0.9992 -0.0409 0.0040
vn 0.9992 -0.0408 0.0038
vn 0.9992 -0.0407 0.0038
vn 0.9992 -0.0386 0.0105
vn 0.9992 -0.0386 0.0126
vn 0.9991 -0.0409 0.0066
vn 0.9991 -0.0409 0.0063
vn 0.9991 -0.0408 0.0061
vn 0.9991 -0.0393 0.0139
vn 0.9993 -0.0366 0.0125
vn 0.9991 -0.0409 0.0094
vn 0.9991 -0.0408 0.0090
vn 0.9991 -0.0408 0.0087
vn 0.9992 -0.0376 0.0159
vn 0.9993 -0.0362 0.0116
vn 0.9991 -0.0408 0.0124
vn 0.9991 -0.0406 0.0120
vn 0.9991 -0.0406 0.0116
vn -0.9991 -0.0393 0.0139
vn -0.9993 -0.0366 0.0125
vn -0.9991 -0.0409 0.0094
vn -0.9991 -0.0408 0.0090
vn -0.9991 -0.0408 0.0087
vn -0.9992 -0.0386 0.0105
vn -0.9992 -0.0386 0.0126
vn -0.9991 -0.0409 0.0066
vn -0.9991 -0.0409 0.0063
vn -0.9991 -0.0408 0.0061
vn -0.9992 -0.0376 0.0104
vn -0.9991 -0.0410 0.0041
vn -0.9992 -0.0409 0.0040
vn -0.9992 -0.0408 0.0038
vn -0.9992 -0.0407 0.0038
vn -0.9992 -0.0399 0.0061
vn -0.9992 -0.0408 0.0020
vn -0.9992 -0.0408 0.0019
vn -0.9992 -0.0407 0.0019
vn -0.9988 -0.0486 -0.0098
vn -0.9993 -0.0362 0.0116
vn -0.9991 -0.0408 0.0124
vn -0.9991 -0.0406 0.0120
vn -0.9991 -0.0406 0.0116
vn 0.9991 -0.0382 -0.0184
vn 0.9994 -0.0327 -0.0140
vn 0.9991 -0.0403 -0.0123
vn 0.9991 -0.0406 -0.0119
vn 0.9991 -0.0405 -0.0114
vn 0.9992 -0.0399 0.0061
vn 0.9992 -0.0408 0.0020
vn 0.9992 -0.0408 0.0019
vn 0.9992 -0.0407 0.0019
vn 0.9993 -0.0324 0.0175
vn 0.9993 -0.0343 0.0161
vn 0.9992 -0.0357 0.0157
vn 0.9992 -0.0370 0.0154
vn 0.9992 -0.0384 0.0141
vn -0.9991 -0.0412 -0.0074
vn -0.9991 -0.0413 -0.0023
vn -0.9992 -0.0408 -0.0021
vn -0.9992 -0.0406 -0.0016
vn -0.9992 -0.0406 -0.0013
vn -0.9993 -0.0351 -0.0157
vn -0.9992 -0.0382 -0.0145
vn -0.9991 -0.0390 -0.0143
vn -0.9991 -0.0396 -0.0142
vn -0.9991 -0.0400 -0.0142
vn -0.7711 -0.1524 0.6182
vn -0.8039 -0.0697 0.5907
vn -0.8060 -0.0374 0.5907
vn -0.8055 -0.0176 0.5923
vn -0.8040 -0.0014 0.5946
vn 0.7980 0.0150 0.6024
vn 0.7997 0.0004 0.6004
vn 0.8025 -0.0165 0.5964
vn 0.8054 -0.0378 0.5916
vn 0.8085 -0.0665 0.5848
vn 0.0000 -0.4156 -0.9095
vn 0.0000 -0.3562 -0.9344
vn 0.0000 -0.2910 -0.9567
vn 0.0000 -0.2212 -0.9752
vn 0.0000 -0.1477 -0.9890
vn 0.0001 -0.2910 -0.9567
vn 0.0001 -0.2212 -0.9752
vn 0.0002 -0.1477 -0.9890
vn -0.9993 -0.0324 0.0175
vn -0.9993 -0.0343 0.0161
vn -0.9992 -0.0357 0.0157
vn -0.9992 -0.0370 0.0154
vn -0.9992 -0.0384 0.0141
vn -0.0002 -0.4248 -0.9053
vn -0.0004 -0.3633 -0.9317
vn -0.0005 -0.2966 -0.9550
vn -0.0005 -0.2254 -0.9743
vn -0.0005 -0.1503 -0.9886
vn 0.9993 -0.0351 -0.0157
vn 0.9992 -0.0382 -0.0145
vn 0.9991 -0.0390 -0.0143
vn 0.9991 -0.0396 -0.0142
vn 0.9991 -0.0400 -0.0142
vn -0.0518 -0.3072 0.9502
vn -0.0216 -0.1598 0.9869
vn -0.0173 -0.1025 0.9946
vn -0.0105 -0.0649 0.9978
vn -0.0055 -0.0353 0.9994
vn 0.0518 -0.3072 0.9502
vn 0.0216 -0.1598 0.9869
vn 0.0173 -0.1025 0.9946
vn 0.0105 -0.0649 0.9978
vn 0.0055 -0.0353 0.9994
vn 0.0002 -0.4248 -0.9053
vn 0.0004 -0.3633 -0.9317
vn 0.0005 -0.2966 -0.9550
vn 0.0005 -0.2254 -0.9743
vn 0.0005 -0.1503 -0.9886
vn -0.0001 -0.2910 -0.9567
vn -0.0001 -0.2212 -0.9752
vn -0.0002 -0.1477 -0.9890
vn 0.9552 -0.1049 -0.2768
vn 0.9592 -0.0805 -0.2709
vn 0.9616 -0.0582 -0.2684
vn 0.9631 -0.0364 -0.2666
vn 0.9642 -0.0150 -0.2649
vn -0.9425 -0.0798 0.3246
vn -0.9622 -0.0186 0.2716
vn -0.9637 -0.0021 0.2671
vn -0.9641 0.0081 0.2655
vn -0.9642 0.0160 0.2646
vn -0.9651 0.0063 -0.2617
vn -0.9654 -0.0136 -0.2604
vn -0.9653 -0.0335 -0.2591
vn -0.9647 -0.0532 -0.2580
vn -0.9636 -0.0728 -0.2573
vn 0.9649 0.0227 0.2616
vn 0.9646 0.0163 0.2631
vn 0.9649 0.0088 0.2625
vn 0.9652 -0.0006 0.2615
vn 0.9657 -0.0145 0.2592
vn -0.9993 -0.0384 -0.0030
vn -0.9993 -0.0384 -0.0012
vn -0.9993 -0.0374 -0.0050
vn -0.9993 -0.0374 -0.0032
vn -0.9993 -0.0364 -0.0072
vn -0.9993 -0.0365 -0.0053
vn -0.9993 -0.0354 -0.0095
vn -0.9993 -0.0357 -0.0077
vn 0.9993 -0.0364 -0.0072
vn 0.9993 -0.0365 -0.0053
vn 0.9993 -0.0374 -0.0050
vn 0.9993 -0.0374 -0.0032
vn 0.9993 -0.0384 -0.0030
vn 0.9993 -0.0384 -0.0012
vn 0.9992 -0.0395 -0.0013
vn 0.9992 -0.0394 0.0002
vn 0.9993 -0.0382 0.0036
vn 0.9992 -0.0393 0.0015
vn 0.9993 -0.0371 0.0056
vn 0.9993 -0.0381 0.0037
vn 0.9993 -0.0361 0.0076
vn 0.9993 -0.0360 0.0057
vn 0.9993 -0.0351 0.0096
vn 0.9994 -0.0349 0.0078
vn -0.9993 -0.0361 0.0076
vn -0.9993 -0.0360 0.0057
vn -0.9993 -0.0371 0.0056
vn -0.9993 -0.0381 0.0037
vn -0.9993 -0.0382 0.0036
vn -0.9992 -0.0393 0.0015
vn -0.9992 -0.0405 0.0019
vn -0.9992 -0.0406 -0.0004
vn 0.9993 -0.0354 -0.0095
vn 0.9993 -0.0357 -0.0077
vn -0.9993 -0.0351 0.0096
vn -0.9994 -0.0349 0.0078
vn -0.9992 -0.0395 -0.0013
vn -0.9992 -0.0394 0.0002
vn -0.9991 -0.0408 -0.0142
vn -0.9990 -0.0412 -0.0143
vn 0.9992 -0.0405 0.0019
vn 0.9992 -0.0406 -0.0004
vn 0.9991 -0.0405 0.0120
vn 0.9991 -0.0406 0.0133
vn 0.0000 0.0173 0.9999
vn 0.0000 0.0422 0.9991
vn 0.0117 0.0125 0.9999
vn 0.0183 0.0299 0.9994
vn 0.0000 -0.0070 -1.0000
vn 0.0000 -0.0000 -1.0000
vn 0.9646 0.0331 0.2616
vn -0.9648 0.0253 -0.2616
vn -0.9648 0.0286 0.2616
vn -0.9644 0.0333 0.2623
vn 0.9649 0.0235 -0.2616
vn 0.9648 0.0253 -0.2616
vn -0.0117 0.0125 0.9999
vn -0.0183 0.0299 0.9994
vn 0.0001 -0.0069 -1.0000
vn 0.0000 0.0136 0.9999
vn 0.0046 0.0299 0.9995
vn -0.0046 0.0299 0.9995
vn 0.9991 -0.0408 -0.0142
vn 0.9990 -0.0412 -0.0143
vn -0.0001 -0.0069 -1.0000
vn -0.9991 -0.0405 0.0120
vn -0.9991 -0.0406 0.0133
vn -0.0025 1.0000 0.0010
vn 0.9425 -0.0798 0.3246
vn -0.9552 -0.1049 -0.2768
vn -0.0001 -0.4784 -0.8781
vn 0.0002 -0.4786 -0.8780
vn 0.0253 -0.2603 0.9652
vn 0.0532 -0.2147 0.9752
vn -0.0532 -0.2147 0.9752
vn 0.9992 -0.0370 -0.0165
vn -0.0002 -0.4786 -0.8780
vn -0.9994 -0.0314 0.0169
vn -0.0233 0.4576 0.8888
vn 0.0001 0.4706 -0.8823
vn -0.9649 0.0227 0.2616
vn 0.9651 0.0063 -0.2617
vn 0.4949 -0.5060 0.7064
vn -0.9649 0.0235 -0.2616
vn 0.0001 -0.0723 -0.9974
vn 0.9648 0.0286 0.2616
vn 0.0000 -0.0125 0.9999
vn 0.9991 -0.0405 -0.0141
vn -0.0001 -0.0723 -0.9974
vn -0.9991 -0.0401 0.0119
vn 0.0184 0.6954 0.7184
vn -0.0000 0.4702 -0.8825
vn 0.0196 0.4448 0.8954
vn 0.0000 0.4476 0.8942
vn -0.0253 -0.2603 0.9652
vn 0.0001 -0.4784 -0.8781
vn 0.7711 -0.1524 0.6182
vn -0.5054 -0.5420 0.6714
vn -0.0158 0.6914 0.7223
vn -0.7980 0.0150 0.6024
vn 0.0000 -0.9998 -0.0173
vn -0.9991 -0.0405 -0.0141
vn 0.9991 -0.0401 0.0119
vn -0.9992 -0.0370 -0.0165
vn -0.9994 -0.0328 -0.0059
vn 0.9994 -0.0314 0.0169
vn 0.9995 -0.0326 0.0050
vn 0.0000 -0.8704 -0.4924
vn 0.8992 -0.3942 -0.1897
vn -0.9862 -0.1625 -0.0328
vn 0.9991 -0.0405 -0.0109
vn -0.9991 -0.0407 0.0112
vn -0.9991 -0.0406 0.0086
vn -0.9995 -0.0326 0.0050
vn -0.9987 -0.0497 0.0138
vn -0.9976 -0.0671 0.0183
vn -0.9901 -0.1322 0.0467
vn 0.9587 -0.2619 0.1109
vn 0.9901 -0.1322 0.0467
vn 0.9976 -0.0671 0.0183
vn 0.9987 -0.0497 0.0138
vn 0.9991 -0.0407 0.0112
vn 0.9991 -0.0406 0.0086
vn 0.9992 -0.0407 -0.0055
vn 0.9991 -0.0406 -0.0080
vn 0.9994 -0.0328 -0.0059
vn 0.9981 -0.0581 -0.0204
vn 0.9958 -0.0846 -0.0338
vn 0.9883 -0.1397 -0.0617
vn 0.0000 -0.9904 0.1379
vn -0.9910 -0.1326 0.0184
vn -0.9883 -0.1397 -0.0617
vn -0.9958 -0.0846 -0.0338
vn -0.9981 -0.0581 -0.0204
vn -0.9991 -0.0405 -0.0109
vn -0.9991 -0.0406 -0.0080
vn -0.9992 -0.0407 -0.0055
vn -0.9992 -0.0404 -0.0048
vn -0.9991 -0.0418 -0.0040
vn -0.9992 -0.0410 -0.0031
vn -0.9991 -0.0417 -0.0056
vn -0.9992 -0.0404 -0.0057
vn -0.9992 -0.0408 -0.0056
vn -0.9991 -0.0388 -0.0178
vn -0.9992 -0.0390 -0.0082
vn -0.9991 -0.0405 -0.0086
vn -0.9991 -0.0409 -0.0085
vn -0.9991 -0.0408 -0.0082
vn -0.9991 -0.0389 -0.0166
vn -0.9993 -0.0350 -0.0107
vn -0.9991 -0.0409 -0.0115
vn -0.9991 -0.0407 -0.0111
vn 0.9991 -0.0388 -0.0178
vn 0.9992 -0.0390 -0.0082
vn 0.9991 -0.0405 -0.0086
vn 0.9991 -0.0409 -0.0085
vn 0.9991 -0.0408 -0.0082
vn 0.9991 -0.0417 -0.0056
vn 0.9992 -0.0404 -0.0057
vn 0.9992 -0.0408 -0.0056
vn 0.9992 -0.0404 -0.0048
vn 0.9991 -0.0418 -0.0040
vn 0.9992 -0.0410 -0.0031
vn 0.9991 -0.0415 -0.0023
vn 0.9991 -0.0413 -0.0022
vn 0.9992 -0.0410 -0.0016
vn 0.9992 -0.0408 -0.0013
vn 0.9992 -0.0394 0.0039
vn 0.9991 -0.0411 0.0040
vn 0.9992 -0.0409 0.0038
vn 0.9992 -0.0381 0.0125
vn 0.9991 -0.0413 0.0066
vn 0.9991 -0.0410 0.0063
vn 0.9991 -0.0409 0.0062
vn 0.9991 -0.0408 0.0062
vn 0.9991 -0.0394 0.0135
vn 0.9992 -0.0382 0.0088
vn 0.9991 -0.0411 0.0091
vn 0.9991 -0.0410 0.0087
vn 0.9991 -0.0409 0.0086
vn 0.9992 -0.0391 0.0125
vn 0.9993 -0.0365 0.0111
vn 0.9991 -0.0410 0.0122
vn 0.9991 -0.0408 0.0116
vn 0.9991 -0.0409 0.0112
vn -0.9991 -0.0394 0.0135
vn -0.9992 -0.0382 0.0088
vn -0.9991 -0.0411 0.0091
vn -0.9991 -0.0410 0.0087
vn -0.9991 -0.0409 0.0086
vn -0.9992 -0.0381 0.0125
vn -0.9991 -0.0413 0.0066
vn -0.9991 -0.0410 0.0063
vn -0.9991 -0.0409 0.0062
vn -0.9991 -0.0408 0.0062
vn -0.9992 -0.0394 0.0039
vn -0.9991 -0.0411 0.0040
vn -0.9992 -0.0409 0.0038
vn -0.9992 -0.0411 0.0020
vn -0.9992 -0.0391 0.0125
vn -0.9993 -0.0365 0.0111
vn -0.9991 -0.0410 0.0122
vn -0.9991 -0.0408 0.0116
vn -0.9991 -0.0409 0.0112
vn 0.9991 -0.0389 -0.0166
vn 0.9993 -0.0350 -0.0107
vn 0.9991 -0.0409 -0.0115
vn 0.9991 -0.0407 -0.0111
vn 0.9992 -0.0411 0.0020
vn 0.9993 -0.0342 0.0161
vn 0.9993 -0.0352 0.0154
vn 0.9992 -0.0364 0.0151
vn 0.9992 -0.0385 0.0142
vn 0.9991 -0.0404 0.0124
vn -0.9991 -0.0415 -0.0023
vn -0.9991 -0.0413 -0.0022
vn -0.9992 -0.0410 -0.0016
vn -0.9992 -0.0408 -0.0013
vn -0.9992 -0.0372 -0.0141
vn -0.9992 -0.0386 -0.0141
vn -0.9991 -0.0393 -0.0141
vn -0.9991 -0.0397 -0.0141
vn -0.9991 -0.0401 -0.0141
vn -0.8125 -0.1203 0.5705
vn -0.8085 -0.0665 0.5848
vn -0.8054 -0.0378 0.5916
vn -0.8025 -0.0165 0.5964
vn -0.7997 0.0004 0.6004
vn 0.8022 0.0132 0.5970
vn 0.8040 -0.0014 0.5946
vn 0.8055 -0.0176 0.5923
vn 0.8060 -0.0374 0.5907
vn 0.8039 -0.0697 0.5907
vn 0.0001 -0.3562 -0.9344
vn 0.0002 -0.2212 -0.9752
vn 0.0001 -0.1477 -0.9890
vn -0.9993 -0.0342 0.0161
vn -0.9993 -0.0352 0.0154
vn -0.9992 -0.0364 0.0151
vn -0.9992 -0.0385 0.0142
vn -0.9991 -0.0404 0.0124
vn -0.0004 -0.4249 -0.9052
vn -0.0005 -0.3634 -0.9317
vn -0.0005 -0.2253 -0.9743
vn -0.0003 -0.1501 -0.9887
vn 0.9992 -0.0372 -0.0141
vn 0.9992 -0.0386 -0.0141
vn 0.9991 -0.0393 -0.0141
vn 0.9991 -0.0397 -0.0141
vn 0.9991 -0.0401 -0.0141
vn -0.0206 -0.3310 0.9434
vn -0.0172 -0.1635 0.9864
vn -0.0105 -0.1083 0.9941
vn -0.0055 -0.0694 0.9976
vn -0.0014 -0.0390 0.9992
vn 0.0206 -0.3310 0.9434
vn 0.0172 -0.1635 0.9864
vn 0.0105 -0.1083 0.9941
vn 0.0055 -0.0694 0.9976
vn 0.0014 -0.0390 0.9992
vn 0.0004 -0.4249 -0.9052
vn 0.0005 -0.3634 -0.9316
vn 0.0005 -0.2253 -0.9743
vn 0.0003 -0.1501 -0.9887
vn -0.0001 -0.3562 -0.9344
vn -0.0002 -0.2212 -0.9752
vn -0.0001 -0.1477 -0.9890
vn 0.9618 -0.0925 -0.2577
vn 0.9636 -0.0728 -0.2573
vn 0.9647 -0.0532 -0.2580
vn 0.9653 -0.0335 -0.2591
vn 0.9654 -0.0136 -0.2604
vn -0.9674 -0.0442 0.2492
vn -0.9657 -0.0145 0.2592
vn -0.9652 -0.0006 0.2615
vn -0.9649 0.0088 0.2625
vn -0.9646 0.0163 0.2631
vn -0.9647 0.0064 -0.2633
vn -0.9642 -0.0150 -0.2649
vn -0.9631 -0.0364 -0.2666
vn -0.9616 -0.0582 -0.2684
vn -0.9592 -0.0805 -0.2709
vn 0.9643 0.0223 0.2640
vn 0.9642 0.0160 0.2646
vn 0.9641 0.0081 0.2655
vn 0.9637 -0.0021 0.2671
vn 0.9622 -0.0186 0.2716
vn -0.9992 -0.0395 -0.0012
vn -0.9992 -0.0394 -0.0000
vn -0.9993 -0.0384 -0.0033
vn -0.9993 -0.0384 -0.0019
vn -0.9993 -0.0374 -0.0054
vn -0.9993 -0.0375 -0.0039
vn -0.9993 -0.0364 -0.0078
vn -0.9993 -0.0366 -0.0062
vn 0.9993 -0.0374 -0.0054
vn 0.9993 -0.0375 -0.0039
vn 0.9993 -0.0384 -0.0033
vn 0.9993 -0.0384 -0.0019
vn 0.9992 -0.0395 -0.0012
vn 0.9992 -0.0394 -0.0000
vn 0.9992 -0.0406 0.0002
vn 0.9992 -0.0405 0.0014
vn 0.9992 -0.0394 0.0015
vn 0.9993 -0.0383 0.0000
vn 0.9993 -0.0382 0.0037
vn 0.9993 -0.0371 0.0022
vn 0.9993 -0.0371 0.0058
vn 0.9993 -0.0370 0.0042
vn 0.9993 -0.0361 0.0081
vn 0.9993 -0.0359 0.0063
vn -0.9993 -0.0371 0.0058
vn -0.9993 -0.0370 0.0042
vn -0.9993 -0.0382 0.0037
vn -0.9993 -0.0371 0.0022
vn -0.9992 -0.0394 0.0015
vn -0.9993 -0.0383 0.0000
vn -0.9992 -0.0394 -0.0003
vn -0.9992 -0.0395 -0.0019
vn 0.9993 -0.0364 -0.0078
vn 0.9993 -0.0366 -0.0062
vn -0.9993 -0.0361 0.0081
vn -0.9993 -0.0359 0.0063
vn -0.9992 -0.0406 0.0002
vn -0.9992 -0.0405 0.0014
vn -0.9991 -0.0409 -0.0142
vn -0.9990 -0.0413 -0.0143
vn 0.9992 -0.0394 -0.0003
vn 0.9992 -0.0395 -0.0019
vn 0.9991 -0.0394 0.0129
vn 0.9991 -0.0393 0.0145
vn 0.0086 0.0171 0.9998
vn 0.0078 0.0420 0.9991
vn 0.9644 0.0333 0.2623
vn -0.9644 0.0289 0.2629
vn -0.9646 0.0331 0.2616
vn 0.9648 0.0235 -0.2619
vn -0.0086 0.0171 0.9998
vn -0.0078 0.0420 0.9991
vn 0.0000 -0.0068 -1.0000
vn 0.0046 0.0179 0.9998
vn 0.0192 0.0437 0.9989
vn -0.0046 0.0179 0.9998
vn -0.0192 0.0437 0.9989
vn 0.9991 -0.0409 -0.0142
vn 0.9990 -0.0413 -0.0143
vn -0.9991 -0.0394 0.0129
vn -0.9991 -0.0393 0.0145
vn 0.0000 1.0000 -0.0018
vn -0.0000 1.0000 0.0027
vn 0.0000 1.0000 0.0016
vn -0.0000 1.0000 0.0015
vn -0.0013 1.0000 -0.0035
vn 0.0249 0.9997 -0.0021
vn -0.0249 0.9997 -0.0021
vn 0.0000 0.9549 0.2970
vn 0.0430 0.9991 -0.0047
vn 0.0000 0.9999 -0.0171
vn 0.0000 0.9994 -0.0349
vn 0.0453 0.9990 -0.0009
vn 0.0308 0.9995 0.0025
vn -0.0430 0.9991 -0.0047
vn -0.0453 0.9990 -0.0009
vn -0.0308 0.9995 0.0025
vn -0.0029 1.0000 -0.0020
vn 0.0000 1.0000 -0.0044
vn 0.0025 1.0000 0.0010
vn 0.0002 1.0000 0.0046
vn -0.0000 1.0000 0.0021
vn -0.0173 0.9997 0.0180
vn 0.0015 1.0000 -0.0018
vn -0.0008 1.0000 -0.0035
vn 0.0117 0.9998 0.0132
vn 0.0000 1.0000 0.0022
vn -0.0002 1.0000 0.0046
vn 0.0007 1.0000 -0.0020
s off
f 59/1/1 8/2/1 64/3/1
f 62/4/1 1/5/1 58/6/1
f 76/7/1 8/2/1 36/8/1
f 177/9/2 18/10/2 197/11/2
f 187/12/3 20/13/3 207/14/3
f 38/15/4 5/16/4 33/17/4
f 2/18/5 15/19/5 6/20/5
f 40/21/6 7/22/6 35/23/6
f 3/24/7 13/25/7 8/26/7
f 14/27/7 1/28/7 7/22/7
f 66/29/8 3/24/8 59/1/8
f 16/30/5 4/31/5 5/16/5
f 68/32/9 2/18/9 57/33/9
f 39/34/10 17/35/10 43/36/10
f 37/37/11 19/38/11 41/39/11
f 25/40/12 188/41/12 168/42/12
f 178/43/13 31/44/13 198/45/13
f 46/46/14 203/47/14 218/48/14
f 30/49/15 54/50/15 48/51/15
f 28/52/16 366/53/16 358/54/16
f 153/55/17 27/56/17 178/43/17
f 26/57/18 362/58/18 354/59/18
f 163/60/19 25/40/19 168/42/19
f 26/57/20 212/61/20 173/62/20
f 248/63/21 24/64/21 163/60/21
f 28/52/22 158/65/22 183/66/22
f 238/67/23 22/68/23 153/55/23
f 44/69/24 52/70/24 18/10/24
f 43/36/25 53/71/25 44/69/25
f 198/45/26 45/72/26 213/73/26
f 45/72/27 218/48/27 213/73/27
f 38/15/28 20/13/28 16/30/28
f 38/15/11 41/39/11 42/74/11
f 40/21/29 18/10/29 14/27/29
f 40/21/30 43/36/30 44/69/30
f 8/26/6 39/34/6 36/75/6
f 39/34/6 35/23/6 36/75/6
f 6/20/4 37/37/4 34/76/4
f 37/37/4 33/17/4 34/76/4
f 74/77/31 7/78/31 62/4/31
f 76/7/31 35/79/31 74/77/31
f 197/11/32 52/70/32 232/80/32
f 29/81/33 56/82/33 49/83/33
f 43/36/34 50/84/34 55/85/34
f 48/51/35 56/82/35 47/86/35
f 188/41/36 49/83/36 223/87/36
f 33/88/37 73/89/37 34/90/37
f 34/90/37 61/91/37 6/92/37
f 105/93/38 62/4/38 92/94/38
f 21/95/39 233/96/39 212/97/39
f 130/98/40 238/67/40 338/99/40
f 23/100/41 243/101/41 158/65/41
f 104/102/42 248/63/42 298/103/42
f 1/104/43 67/105/43 58/106/43
f 126/107/44 57/33/44 131/108/44
f 4/31/45 65/109/45 60/110/45
f 100/111/46 59/1/46 107/112/46
f 5/113/37 75/114/37 33/88/37
f 106/115/38 64/3/38 76/7/38
f 6/92/37 57/116/37 2/117/37
f 92/94/38 58/6/38 88/118/38
f 4/31/37 63/119/37 5/113/37
f 107/112/38 64/3/38 96/120/38
f 152/121/47 73/89/47 75/114/47
f 119/122/48 80/123/48 142/124/48
f 138/125/48 77/126/48 134/127/48
f 119/122/49 81/128/49 78/129/49
f 114/130/50 77/131/50 85/132/50
f 318/133/51 83/134/51 253/135/51
f 278/136/52 84/137/52 258/138/52
f 90/139/53 425/140/53 91/141/53
f 233/96/54 115/142/54 263/143/54
f 263/143/55 116/144/55 268/145/55
f 268/145/56 117/146/56 273/147/56
f 273/147/57 118/148/57 278/136/57
f 58/106/58 111/149/58 88/150/58
f 88/150/59 112/151/59 87/152/59
f 87/152/60 113/153/60 86/154/60
f 113/153/61 85/132/61 86/154/61
f 142/124/62 440/155/62 141/156/62
f 151/157/63 435/158/63 135/159/63
f 89/160/53 424/161/53 90/139/53
f 80/123/62 421/162/62 142/124/62
f 78/129/64 93/163/64 80/123/64
f 110/164/65 94/165/65 93/163/65
f 109/166/66 95/167/66 94/165/66
f 108/168/67 96/120/67 95/167/67
f 79/169/64 85/170/64 77/126/64
f 89/160/65 86/171/65 85/170/65
f 90/139/66 87/172/66 86/171/66
f 91/141/67 88/118/67 87/172/67
f 141/156/62 439/173/62 140/174/62
f 79/169/53 423/175/53 89/160/53
f 106/115/68 430/176/68 96/120/68
f 95/167/62 430/176/62 429/177/62
f 78/129/69 97/178/69 110/164/69
f 110/164/70 98/179/70 109/166/70
f 98/179/71 108/168/71 109/166/71
f 99/180/72 107/112/72 108/168/72
f 83/134/73 283/181/73 253/135/73
f 101/182/74 288/183/74 283/181/74
f 102/184/75 293/185/75 288/183/75
f 103/186/76 298/103/76 293/185/76
f 139/187/63 434/188/63 152/121/63
f 79/169/53 419/189/53 420/190/53
f 140/174/62 438/191/62 139/187/62
f 94/165/62 429/177/62 428/192/62
f 73/89/47 135/159/47 61/91/47
f 92/94/68 431/193/68 105/93/68
f 152/121/63 433/194/63 151/157/63
f 93/163/62 428/192/62 427/195/62
f 243/101/77 147/196/77 303/197/77
f 303/197/78 148/198/78 308/199/78
f 308/199/79 149/200/79 313/201/79
f 313/201/80 150/202/80 318/133/80
f 60/110/81 143/203/81 122/204/81
f 122/204/82 144/205/82 121/206/82
f 121/206/83 145/207/83 120/208/83
f 120/208/84 146/209/84 119/122/84
f 63/119/47 152/121/47 75/114/47
f 138/125/53 437/210/53 419/189/53
f 105/93/68 432/211/68 106/115/68
f 80/123/62 427/195/62 422/212/62
f 61/91/47 131/213/47 57/116/47
f 135/159/85 132/214/85 131/213/85
f 136/215/86 133/216/86 132/214/86
f 137/217/87 134/127/87 133/216/87
f 63/119/47 122/204/47 139/187/47
f 139/187/85 121/206/85 140/174/85
f 140/174/86 120/208/86 141/156/86
f 120/208/87 142/124/87 141/156/87
f 137/217/53 436/218/53 437/210/53
f 91/141/53 426/219/53 92/94/53
f 136/215/53 435/158/53 436/218/53
f 105/93/38 76/7/38 74/77/38
f 82/220/88 134/221/88 77/131/88
f 123/222/89 133/223/89 134/221/89
f 124/224/90 132/225/90 133/223/90
f 125/226/91 131/108/91 132/225/91
f 84/137/92 323/227/92 258/138/92
f 127/228/93 328/229/93 323/227/93
f 128/230/94 333/231/94 328/229/94
f 129/232/95 338/99/95 333/231/95
f 337/233/96 126/107/96 125/226/96
f 336/234/97 342/235/97 337/233/97
f 335/236/98 341/237/98 336/234/98
f 334/238/99 340/239/99 335/236/99
f 333/231/100 339/240/100 334/238/100
f 332/241/101 125/226/101 124/224/101
f 331/242/102 337/233/102 332/241/102
f 330/243/103 336/234/103 331/242/103
f 329/244/104 335/236/104 330/243/104
f 328/229/105 334/238/105 329/244/105
f 327/245/106 124/224/106 123/222/106
f 326/246/107 332/241/107 327/245/107
f 325/247/108 331/242/108 326/246/108
f 324/248/109 330/243/109 325/247/109
f 323/227/110 329/244/110 324/248/110
f 262/249/111 123/222/111 82/220/111
f 261/250/112 327/245/112 262/249/112
f 260/251/113 326/246/113 261/250/113
f 259/252/114 325/247/114 260/251/114
f 258/138/115 324/248/115 259/252/115
f 145/207/116 322/253/116 146/209/116
f 317/254/117 321/255/117 322/253/117
f 316/256/118 320/257/118 321/255/118
f 315/258/119 319/259/119 320/257/119
f 314/260/120 318/133/120 319/259/120
f 144/205/121 317/254/121 145/207/121
f 312/261/122 316/256/122 317/254/122
f 311/262/123 315/258/123 316/256/123
f 310/263/124 314/260/124 315/258/124
f 309/264/125 313/201/125 314/260/125
f 143/203/126 312/261/126 144/205/126
f 307/265/127 311/262/127 312/261/127
f 306/266/128 310/263/128 311/262/128
f 305/267/129 309/264/129 310/263/129
f 304/268/130 308/199/130 309/264/130
f 65/109/131 307/265/131 143/203/131
f 247/269/132 306/266/132 307/265/132
f 246/270/133 305/267/133 306/266/133
f 245/271/134 304/268/134 305/267/134
f 244/272/135 303/197/135 304/268/135
f 297/273/136 100/111/136 99/180/136
f 296/274/137 302/275/137 297/273/137
f 295/276/138 301/277/138 296/274/138
f 294/278/139 300/279/139 295/276/139
f 293/185/140 299/280/140 294/278/140
f 292/281/141 99/180/141 98/179/141
f 291/282/142 297/273/142 292/281/142
f 290/283/143 296/274/143 291/282/143
f 289/284/144 295/276/144 290/283/144
f 288/183/145 294/278/145 289/284/145
f 287/285/146 98/179/146 97/178/146
f 286/286/147 292/281/147 287/285/147
f 285/287/148 291/282/148 286/286/148
f 284/288/149 290/283/149 285/287/149
f 283/181/150 289/284/150 284/288/150
f 257/289/151 97/178/151 81/128/151
f 256/290/152 287/285/152 257/289/152
f 255/291/153 286/286/153 256/290/153
f 254/292/154 285/287/154 255/291/154
f 253/135/155 284/288/155 254/292/155
f 113/153/156 282/293/156 114/130/156
f 277/294/157 281/295/157 282/293/157
f 276/296/158 280/297/158 281/295/158
f 275/298/159 279/299/159 280/297/159
f 274/300/160 278/136/160 279/299/160
f 112/151/161 277/294/161 113/153/161
f 272/301/162 276/296/162 277/294/162
f 271/302/163 275/298/163 276/296/163
f 270/303/164 274/300/164 275/298/164
f 269/304/165 273/147/165 274/300/165
f 111/149/166 272/301/166 112/151/166
f 267/305/167 271/302/167 272/301/167
f 266/306/168 270/303/168 271/302/168
f 265/307/169 269/304/169 270/303/169
f 264/308/170 268/145/170 269/304/170
f 67/105/171 267/305/171 111/149/171
f 237/309/172 266/306/172 267/305/172
f 236/310/173 265/307/173 266/306/173
f 235/311/174 264/308/174 265/307/174
f 234/312/54 263/143/54 264/308/54
f 114/130/175 262/249/175 82/220/175
f 282/293/176 261/250/176 262/249/176
f 281/295/177 260/251/177 261/250/177
f 280/297/178 259/252/178 260/251/178
f 279/299/179 258/138/179 259/252/179
f 146/209/180 257/289/180 81/128/180
f 322/253/181 256/290/181 257/289/181
f 321/255/182 255/291/182 256/290/182
f 320/257/183 254/292/183 255/291/183
f 319/259/184 253/135/184 254/292/184
f 302/275/185 66/29/185 100/111/185
f 301/277/186 252/313/186 302/275/186
f 300/279/187 251/314/187 301/277/187
f 299/280/188 250/315/188 300/279/188
f 298/103/42 249/316/42 299/280/42
f 162/317/189 65/109/189 11/318/189
f 161/319/190 247/269/190 162/317/190
f 160/320/191 246/270/191 161/319/191
f 159/321/192 245/271/192 160/320/192
f 158/65/193 244/272/193 159/321/193
f 342/235/194 68/32/194 126/107/194
f 341/237/195 242/322/195 342/235/195
f 340/239/196 241/323/196 341/237/196
f 339/240/197 240/324/197 340/239/197
f 338/99/198 239/325/198 339/240/198
f 208/326/199 67/105/199 9/327/199
f 209/328/200 237/309/200 208/326/200
f 210/329/201 236/310/201 209/328/201
f 211/330/202 235/311/202 210/329/202
f 212/97/203 234/312/203 211/330/203
f 192/331/204 50/84/204 17/35/204
f 191/332/205 227/333/205 192/331/205
f 190/334/206 226/335/206 191/332/206
f 190/334/207 224/336/207 225/337/207
f 189/338/208 223/87/208 224/336/208
f 193/339/209 51/340/209 30/49/209
f 194/341/210 228/342/210 193/339/210
f 195/343/211 229/344/211 194/341/211
f 195/343/212 231/345/212 230/346/212
f 196/347/213 232/80/213 231/345/213
f 217/348/214 42/74/214 41/39/214
f 216/349/215 222/350/215 217/348/215
f 216/349/216 220/351/216 221/352/216
f 214/353/217 220/351/217 215/354/217
f 213/73/218 219/355/218 214/353/218
f 19/38/214 217/348/214 41/39/214
f 202/356/215 216/349/215 217/348/215
f 201/357/219 215/354/219 216/349/219
f 200/358/220 214/353/220 215/354/220
f 199/359/221 213/73/221 214/353/221
f 68/32/222 157/360/222 10/361/222
f 242/322/223 156/362/223 157/360/223
f 241/323/224 155/363/224 156/362/224
f 240/324/225 154/364/225 155/363/225
f 239/325/226 153/55/226 154/364/226
f 187/12/227 11/318/227 16/30/227
f 186/365/228 162/317/228 187/12/228
f 185/366/229 161/319/229 186/365/229
f 184/367/230 160/320/230 185/366/230
f 183/66/231 159/321/231 184/367/231
f 66/29/232 167/368/232 12/369/232
f 252/313/233 166/370/233 167/368/233
f 251/314/234 165/371/234 166/370/234
f 250/315/235 164/372/235 165/371/235
f 249/316/236 163/60/236 164/372/236
f 177/9/237 9/373/237 14/27/237
f 176/374/238 208/375/238 177/9/238
f 175/376/239 209/377/239 176/374/239
f 174/378/240 210/379/240 175/376/240
f 173/62/241 211/380/241 174/378/241
f 12/369/242 172/381/242 13/25/242
f 167/368/243 171/382/243 172/381/243
f 166/370/244 170/383/244 171/382/244
f 165/371/245 169/384/245 170/383/245
f 164/372/246 168/42/246 169/384/246
f 10/361/247 182/385/247 15/19/247
f 157/360/248 181/386/248 182/385/248
f 156/362/249 180/387/249 181/386/249
f 155/363/250 179/388/250 180/387/250
f 154/364/251 178/43/251 179/388/251
f 222/350/214 20/13/214 42/74/214
f 221/352/215 207/14/215 222/350/215
f 220/351/252 206/389/252 221/352/252
f 219/355/253 205/390/253 220/351/253
f 218/48/254 204/391/254 219/355/254
f 182/385/255 19/38/255 15/19/255
f 181/386/256 202/356/256 182/385/256
f 180/387/257 201/357/257 181/386/257
f 179/388/258 200/358/258 180/387/258
f 178/43/259 199/359/259 179/388/259
f 172/381/260 17/35/260 13/25/260
f 171/382/261 192/331/261 172/381/261
f 170/383/262 191/332/262 171/382/262
f 169/384/263 190/334/263 170/383/263
f 168/42/264 189/338/264 169/384/264
f 183/66/265 32/392/265 28/52/265
f 183/66/266 204/391/266 203/47/266
f 184/367/267 205/390/267 204/391/267
f 185/366/268 206/389/268 205/390/268
f 186/365/269 207/14/269 206/389/269
f 26/57/270 193/339/270 30/49/270
f 173/62/271 194/341/271 193/339/271
f 174/378/272 195/343/272 194/341/272
f 175/376/273 196/347/273 195/343/273
f 176/374/274 197/11/274 196/347/274
f 416/393/275 130/98/275 129/232/275
f 415/394/276 418/395/276 416/393/276
f 414/396/277 129/232/277 128/230/277
f 413/397/278 416/393/278 414/396/278
f 412/398/279 128/230/279 127/228/279
f 411/399/280 414/396/280 412/398/280
f 384/400/281 127/228/281 84/137/281
f 383/401/282 412/398/282 384/400/282
f 149/200/283 410/402/283 150/202/283
f 408/403/284 409/404/284 410/402/284
f 148/198/285 408/403/285 149/200/285
f 406/405/286 407/406/286 408/403/286
f 147/196/287 406/405/287 148/198/287
f 404/407/288 405/408/288 406/405/288
f 69/409/289 404/407/289 147/196/289
f 376/410/290 403/411/290 404/407/290
f 400/412/291 104/102/291 103/186/291
f 400/412/292 401/413/292 402/414/292
f 398/415/293 103/186/293 102/184/293
f 398/415/294 399/416/294 400/412/294
f 396/417/295 102/184/295 101/182/295
f 395/418/296 398/415/296 396/417/296
f 386/419/297 101/182/297 83/134/297
f 385/420/298 396/417/298 386/419/298
f 117/146/299 394/421/299 118/148/299
f 392/422/300 393/423/300 394/421/300
f 116/144/301 392/422/301 117/146/301
f 389/424/302 392/422/302 390/425/302
f 115/142/303 390/425/303 116/144/303
f 387/426/304 390/425/304 388/427/304
f 380/428/305 115/142/305 71/429/305
f 379/430/306 388/427/306 380/428/306
f 150/202/307 386/419/307 83/134/307
f 410/402/308 385/420/308 386/419/308
f 118/148/309 384/400/309 84/137/309
f 394/421/310 383/401/310 384/400/310
f 418/395/311 72/431/311 130/98/311
f 417/432/312 382/433/312 418/395/312
f 343/434/313 71/429/313 21/95/313
f 344/435/314 380/428/314 343/434/314
f 104/102/315 378/436/315 70/437/315
f 402/414/316 377/438/316 378/436/316
f 348/439/317 69/409/317 23/100/317
f 347/440/318 376/410/318 348/439/318
f 372/441/319 48/51/319 47/86/319
f 371/442/320 374/443/320 372/441/320
f 360/444/321 47/86/321 29/81/321
f 359/445/322 372/441/322 360/444/322
f 368/446/323 46/46/323 45/72/323
f 367/447/324 370/448/324 368/446/324
f 31/44/323 368/446/323 45/72/323
f 364/449/324 367/447/324 368/446/324
f 354/59/325 361/450/325 353/451/325
f 358/54/326 365/452/326 357/453/326
f 25/40/327 360/444/327 29/81/327
f 352/454/328 359/445/328 360/444/328
f 27/56/329 364/449/329 31/44/329
f 356/455/330 363/456/330 364/449/330
f 370/448/323 32/392/323 46/46/323
f 369/457/324 366/53/324 370/448/324
f 48/51/331 362/58/331 30/49/331
f 374/443/332 361/450/332 362/58/332
f 22/68/333 356/455/333 27/56/333
f 346/458/324 355/459/324 356/455/324
f 24/64/334 352/454/334 25/40/334
f 350/460/335 351/461/335 352/454/335
f 354/59/334 21/462/334 26/57/334
f 353/451/336 343/463/336 354/59/336
f 70/437/337 350/460/337 24/64/337
f 378/436/338 349/464/338 350/460/338
f 358/54/339 23/100/339 28/52/339
f 357/453/324 348/439/324 358/54/324
f 72/431/340 346/458/340 22/68/340
f 382/433/341 345/465/341 346/458/341
f 359/445/342 377/438/342 401/413/342
f 59/1/1 3/24/1 8/2/1
f 62/4/1 7/78/1 1/5/1
f 76/7/31 64/3/31 8/2/31
f 177/9/343 14/27/343 18/10/343
f 187/12/344 16/30/344 20/13/344
f 38/15/345 16/30/345 5/16/345
f 2/18/346 10/361/346 15/19/346
f 40/21/347 14/27/347 7/22/347
f 3/24/348 12/369/348 13/25/348
f 14/27/349 9/373/349 1/28/349
f 66/29/350 12/369/350 3/24/350
f 16/30/351 11/318/351 4/31/351
f 68/32/352 10/361/352 2/18/352
f 39/34/353 13/25/353 17/35/353
f 37/37/354 15/19/354 19/38/354
f 25/40/355 29/81/355 188/41/355
f 178/43/356 27/56/356 31/44/356
f 46/46/27 32/392/27 203/47/27
f 30/49/357 51/340/357 54/50/357
f 28/52/358 32/392/358 366/53/358
f 153/55/359 22/68/359 27/56/359
f 26/57/360 30/49/360 362/58/360
f 163/60/361 24/64/361 25/40/361
f 26/57/361 21/462/361 212/61/361
f 248/63/362 70/437/362 24/64/362
f 28/52/363 23/100/363 158/65/363
f 238/67/364 72/431/364 22/68/364
f 44/69/365 53/71/365 52/70/365
f 43/36/25 55/85/25 53/71/25
f 198/45/27 31/44/27 45/72/27
f 45/72/27 46/46/27 218/48/27
f 38/15/366 42/74/366 20/13/366
f 38/15/366 37/37/366 41/39/366
f 40/21/367 44/69/367 18/10/367
f 40/21/368 39/34/368 43/36/368
f 8/26/369 13/25/369 39/34/369
f 39/34/6 40/21/6 35/23/6
f 6/20/370 15/19/370 37/37/370
f 37/37/4 38/15/4 33/17/4
f 74/77/1 35/79/1 7/78/1
f 76/7/1 36/8/1 35/79/1
f 197/11/371 18/10/371 52/70/371
f 29/81/372 47/86/372 56/82/372
f 43/36/373 17/35/373 50/84/373
f 48/51/35 54/50/35 56/82/35
f 188/41/374 29/81/374 49/83/374
f 33/88/37 75/114/37 73/89/37
f 34/90/375 73/89/375 61/91/375
f 105/93/38 74/77/38 62/4/38
f 21/95/376 71/429/376 233/96/376
f 130/98/40 72/431/40 238/67/40
f 23/100/377 69/409/377 243/101/377
f 104/102/42 70/437/42 248/63/42
f 1/104/378 9/327/378 67/105/378
f 126/107/379 68/32/379 57/33/379
f 4/31/380 11/318/380 65/109/380
f 100/111/381 66/29/381 59/1/381
f 5/113/375 63/119/375 75/114/375
f 106/115/38 96/120/38 64/3/38
f 6/92/375 61/91/375 57/116/375
f 92/94/382 62/4/382 58/6/382
f 4/31/375 60/110/375 63/119/375
f 107/112/382 59/1/382 64/3/382
f 152/121/47 151/157/47 73/89/47
f 119/122/48 78/129/48 80/123/48
f 138/125/48 79/169/48 77/126/48
f 119/122/383 146/209/383 81/128/383
f 114/130/384 82/220/384 77/131/384
f 318/133/385 150/202/385 83/134/385
f 278/136/386 118/148/386 84/137/386
f 90/139/53 424/161/53 425/140/53
f 233/96/54 71/429/54 115/142/54
f 263/143/55 115/142/55 116/144/55
f 268/145/56 116/144/56 117/146/56
f 273/147/387 117/146/387 118/148/387
f 58/106/388 67/105/388 111/149/388
f 88/150/389 111/149/389 112/151/389
f 87/152/390 112/151/390 113/153/390
f 113/153/391 114/130/391 85/132/391
f 142/124/62 421/162/62 440/155/62
f 151/157/63 433/194/63 435/158/63
f 89/160/53 423/175/53 424/161/53
f 80/123/62 422/212/62 421/162/62
f 78/129/64 110/164/64 93/163/64
f 110/164/65 109/166/65 94/165/65
f 109/166/66 108/168/66 95/167/66
f 108/168/67 107/112/67 96/120/67
f 79/169/64 89/160/64 85/170/64
f 89/160/65 90/139/65 86/171/65
f 90/139/66 91/141/66 87/172/66
f 91/141/67 92/94/67 88/118/67
f 141/156/62 440/155/62 439/173/62
f 79/169/53 420/190/53 423/175/53
f 106/115/68 432/211/68 430/176/68
f 95/167/62 96/120/62 430/176/62
f 78/129/392 81/128/392 97/178/392
f 110/164/393 97/178/393 98/179/393
f 98/179/394 99/180/394 108/168/394
f 99/180/395 100/111/395 107/112/395
f 83/134/396 101/182/396 283/181/396
f 101/182/397 102/184/397 288/183/397
f 102/184/75 103/186/75 293/185/75
f 103/186/76 104/102/76 298/103/76
f 139/187/63 438/191/63 434/188/63
f 79/169/53 138/125/53 419/189/53
f 140/174/62 439/173/62 438/191/62
f 94/165/62 95/167/62 429/177/62
f 73/89/47 151/157/47 135/159/47
f 92/94/68 426/219/68 431/193/68
f 152/121/63 434/188/63 433/194/63
f 93/163/62 94/165/62 428/192/62
f 243/101/77 69/409/77 147/196/77
f 303/197/129 147/196/129 148/198/129
f 308/199/398 148/198/398 149/200/398
f 313/201/399 149/200/399 150/202/399
f 60/110/400 65/109/400 143/203/400
f 122/204/401 143/203/401 144/205/401
f 121/206/402 144/205/402 145/207/402
f 120/208/403 145/207/403 146/209/403
f 63/119/47 139/187/47 152/121/47
f 138/125/53 137/217/53 437/210/53
f 105/93/68 431/193/68 432/211/68
f 80/123/62 93/163/62 427/195/62
f 61/91/47 135/159/47 131/213/47
f 135/159/85 136/215/85 132/214/85
f 136/215/86 137/217/86 133/216/86
f 137/217/404 138/125/404 134/127/404
f 63/119/47 60/110/47 122/204/47
f 139/187/85 122/204/85 121/206/85
f 140/174/86 121/206/86 120/208/86
f 120/208/404 119/122/404 142/124/404
f 137/217/53 136/215/53 436/218/53
f 91/141/53 425/140/53 426/219/53
f 136/215/53 135/159/53 435/158/53
f 105/93/38 106/115/38 76/7/38
f 82/220/405 123/222/405 134/221/405
f 123/222/406 124/224/406 133/223/406
f 124/224/407 125/226/407 132/225/407
f 125/226/408 126/107/408 131/108/408
f 84/137/409 127/228/409 323/227/409
f 127/228/410 128/230/410 328/229/410
f 128/230/411 129/232/411 333/231/411
f 129/232/99 130/98/99 338/99/99
f 337/233/412 342/235/412 126/107/412
f 336/234/413 341/237/413 342/235/413
f 335/236/414 340/239/414 341/237/414
f 334/238/95 339/240/95 340/239/95
f 333/231/100 338/99/100 339/240/100
f 332/241/102 337/233/102 125/226/102
f 331/242/415 336/234/415 337/233/415
f 330/243/416 335/236/416 336/234/416
f 329/244/104 334/238/104 335/236/104
f 328/229/417 333/231/417 334/238/417
f 327/245/418 332/241/418 124/224/418
f 326/246/419 331/242/419 332/241/419
f 325/247/420 330/243/420 331/242/420
f 324/248/421 329/244/421 330/243/421
f 323/227/422 328/229/422 329/244/422
f 262/249/423 327/245/423 123/222/423
f 261/250/424 326/246/424 327/245/424
f 260/251/114 325/247/114 326/246/114
f 259/252/425 324/248/425 325/247/425
f 258/138/426 323/227/426 324/248/426
f 145/207/427 317/254/427 322/253/427
f 317/254/428 316/256/428 321/255/428
f 316/256/429 315/258/429 320/257/429
f 315/258/430 314/260/430 319/259/430
f 314/260/431 313/201/431 318/133/431
f 144/205/122 312/261/122 317/254/122
f 312/261/432 311/262/432 316/256/432
f 311/262/433 310/263/433 315/258/433
f 310/263/124 309/264/124 314/260/124
f 309/264/434 308/199/434 313/201/434
f 143/203/435 307/265/435 312/261/435
f 307/265/436 306/266/436 311/262/436
f 306/266/437 305/267/437 310/263/437
f 305/267/78 304/268/78 309/264/78
f 304/268/130 303/197/130 308/199/130
f 65/109/438 247/269/438 307/265/438
f 247/269/439 246/270/439 306/266/439
f 246/270/440 245/271/440 305/267/440
f 245/271/441 244/272/441 304/268/441
f 244/272/77 243/101/77 303/197/77
f 297/273/442 302/275/442 100/111/442
f 296/274/443 301/277/443 302/275/443
f 295/276/444 300/279/444 301/277/444
f 294/278/139 299/280/139 300/279/139
f 293/185/140 298/103/140 299/280/140
f 292/281/445 297/273/445 99/180/445
f 291/282/446 296/274/446 297/273/446
f 290/283/447 295/276/447 296/274/447
f 289/284/448 294/278/448 295/276/448
f 288/183/449 293/185/449 294/278/449
f 287/285/450 292/281/450 98/179/450
f 286/286/451 291/282/451 292/281/451
f 285/287/452 290/283/452 291/282/452
f 284/288/453 289/284/453 290/283/453
f 283/181/454 288/183/454 289/284/454
f 257/289/455 287/285/455 97/178/455
f 256/290/456 286/286/456 287/285/456
f 255/291/457 285/287/457 286/286/457
f 254/292/458 284/288/458 285/287/458
f 253/135/459 283/181/459 284/288/459
f 113/153/460 277/294/460 282/293/460
f 277/294/461 276/296/461 281/295/461
f 276/296/462 275/298/462 280/297/462
f 275/298/463 274/300/463 279/299/463
f 274/300/464 273/147/464 278/136/464
f 112/151/465 272/301/465 277/294/465
f 272/301/466 271/302/466 276/296/466
f 271/302/467 270/303/467 275/298/467
f 270/303/468 269/304/468 274/300/468
f 269/304/469 268/145/469 273/147/469
f 111/149/470 267/305/470 272/301/470
f 267/305/471 266/306/471 271/302/471
f 266/306/472 265/307/472 270/303/472
f 265/307/169 264/308/169 269/304/169
f 264/308/170 263/143/170 268/145/170
f 67/105/473 237/309/473 267/305/473
f 237/309/173 236/310/173 266/306/173
f 236/310/173 235/311/173 265/307/173
f 235/311/174 234/312/174 264/308/174
f 234/312/54 233/96/54 263/143/54
f 114/130/474 282/293/474 262/249/474
f 282/293/475 281/295/475 261/250/475
f 281/295/476 280/297/476 260/251/476
f 280/297/477 279/299/477 259/252/477
f 279/299/478 278/136/478 258/138/478
f 146/209/479 322/253/479 257/289/479
f 322/253/480 321/255/480 256/290/480
f 321/255/183 320/257/183 255/291/183
f 320/257/481 319/259/481 254/292/481
f 319/259/482 318/133/482 253/135/482
f 302/275/483 252/313/483 66/29/483
f 301/277/187 251/314/187 252/313/187
f 300/279/187 250/315/187 251/314/187
f 299/280/188 249/316/188 250/315/188
f 298/103/42 248/63/42 249/316/42
f 162/317/484 247/269/484 65/109/484
f 161/319/485 246/270/485 247/269/485
f 160/320/486 245/271/486 246/270/486
f 159/321/487 244/272/487 245/271/487
f 158/65/488 243/101/488 244/272/488
f 342/235/489 242/322/489 68/32/489
f 341/237/490 241/323/490 242/322/490
f 340/239/491 240/324/491 241/323/491
f 339/240/492 239/325/492 240/324/492
f 338/99/40 238/67/40 239/325/40
f 208/326/493 237/309/493 67/105/493
f 209/328/494 236/310/494 237/309/494
f 210/329/495 235/311/495 236/310/495
f 211/330/496 234/312/496 235/311/496
f 212/97/497 233/96/497 234/312/497
f 192/331/498 227/333/498 50/84/498
f 191/332/499 226/335/499 227/333/499
f 190/334/500 225/337/500 226/335/500
f 190/334/501 189/338/501 224/336/501
f 189/338/502 188/41/502 223/87/502
f 193/339/503 228/342/503 51/340/503
f 194/341/504 229/344/504 228/342/504
f 195/343/505 230/346/505 229/344/505
f 195/343/506 196/347/506 231/345/506
f 196/347/507 197/11/507 232/80/507
f 217/348/214 222/350/214 42/74/214
f 216/349/215 221/352/215 222/350/215
f 216/349/216 215/354/216 220/351/216
f 214/353/217 219/355/217 220/351/217
f 213/73/218 218/48/218 219/355/218
f 19/38/214 202/356/214 217/348/214
f 202/356/508 201/357/508 216/349/508
f 201/357/219 200/358/219 215/354/219
f 200/358/509 199/359/509 214/353/509
f 199/359/510 198/45/510 213/73/510
f 68/32/511 242/322/511 157/360/511
f 242/322/512 241/323/512 156/362/512
f 241/323/513 240/324/513 155/363/513
f 240/324/514 239/325/514 154/364/514
f 239/325/515 238/67/515 153/55/515
f 187/12/516 162/317/516 11/318/516
f 186/365/517 161/319/517 162/317/517
f 185/366/229 160/320/229 161/319/229
f 184/367/518 159/321/518 160/320/518
f 183/66/519 158/65/519 159/321/519
f 66/29/520 252/313/520 167/368/520
f 252/313/521 251/314/521 166/370/521
f 251/314/522 250/315/522 165/371/522
f 250/315/523 249/316/523 164/372/523
f 249/316/524 248/63/524 163/60/524
f 177/9/525 208/375/525 9/373/525
f 176/374/526 209/377/526 208/375/526
f 175/376/527 210/379/527 209/377/527
f 174/378/528 211/380/528 210/379/528
f 173/62/529 212/61/529 211/380/529
f 12/369/530 167/368/530 172/381/530
f 167/368/531 166/370/531 171/382/531
f 166/370/532 165/371/532 170/383/532
f 165/371/533 164/372/533 169/384/533
f 164/372/534 163/60/534 168/42/534
f 10/361/535 157/360/535 182/385/535
f 157/360/536 156/362/536 181/386/536
f 156/362/249 155/363/249 180/387/249
f 155/363/537 154/364/537 179/388/537
f 154/364/538 153/55/538 178/43/538
f 222/350/214 207/14/214 20/13/214
f 221/352/539 206/389/539 207/14/539
f 220/351/252 205/390/252 206/389/252
f 219/355/540 204/391/540 205/390/540
f 218/48/541 203/47/541 204/391/541
f 182/385/542 202/356/542 19/38/542
f 181/386/543 201/357/543 202/356/543
f 180/387/544 200/358/544 201/357/544
f 179/388/545 199/359/545 200/358/545
f 178/43/546 198/45/546 199/359/546
f 172/381/547 192/331/547 17/35/547
f 171/382/548 191/332/548 192/331/548
f 170/383/549 190/334/549 191/332/549
f 169/384/550 189/338/550 190/334/550
f 168/42/551 188/41/551 189/338/551
f 183/66/552 203/47/552 32/392/552
f 183/66/553 184/367/553 204/391/553
f 184/367/554 185/366/554 205/390/554
f 185/366/555 186/365/555 206/389/555
f 186/365/556 187/12/556 207/14/556
f 26/57/557 173/62/557 193/339/557
f 173/62/558 174/378/558 194/341/558
f 174/378/559 175/376/559 195/343/559
f 175/376/560 176/374/560 196/347/560
f 176/374/561 177/9/561 197/11/561
f 416/393/562 418/395/562 130/98/562
f 415/394/563 417/432/563 418/395/563
f 414/396/564 416/393/564 129/232/564
f 413/397/565 415/394/565 416/393/565
f 412/398/566 414/396/566 128/230/566
f 411/399/567 413/397/567 414/396/567
f 384/400/568 412/398/568 127/228/568
f 383/401/569 411/399/569 412/398/569
f 149/200/570 408/403/570 410/402/570
f 408/403/571 407/406/571 409/404/571
f 148/198/572 406/405/572 408/403/572
f 406/405/573 405/408/573 407/406/573
f 147/196/574 404/407/574 406/405/574
f 404/407/575 403/411/575 405/408/575
f 69/409/576 376/410/576 404/407/576
f 376/410/577 375/466/577 403/411/577
f 400/412/578 402/414/578 104/102/578
f 400/412/579 399/416/579 401/413/579
f 398/415/580 400/412/580 103/186/580
f 398/415/581 397/467/581 399/416/581
f 396/417/582 398/415/582 102/184/582
f 395/418/583 397/467/583 398/415/583
f 386/419/584 396/417/584 101/182/584
f 385/420/585 395/418/585 396/417/585
f 117/146/586 392/422/586 394/421/586
f 392/422/587 391/468/587 393/423/587
f 116/144/588 390/425/588 392/422/588
f 389/424/589 391/468/589 392/422/589
f 115/142/590 388/427/590 390/425/590
f 387/426/591 389/424/591 390/425/591
f 380/428/592 388/427/592 115/142/592
f 379/430/593 387/426/593 388/427/593
f 150/202/594 410/402/594 386/419/594
f 410/402/595 409/404/595 385/420/595
f 118/148/596 394/421/596 384/400/596
f 394/421/597 393/423/597 383/401/597
f 418/395/598 382/433/598 72/431/598
f 417/432/599 381/469/599 382/433/599
f 343/434/600 380/428/600 71/429/600
f 344/435/601 379/430/601 380/428/601
f 104/102/602 402/414/602 378/436/602
f 402/414/603 401/413/603 377/438/603
f 348/439/604 376/410/604 69/409/604
f 347/440/605 375/466/605 376/410/605
f 372/441/319 374/443/319 48/51/319
f 371/442/320 373/470/320 374/443/320
f 360/444/606 372/441/606 47/86/606
f 359/445/607 371/442/607 372/441/607
f 368/446/323 370/448/323 46/46/323
f 367/447/324 369/457/324 370/448/324
f 31/44/323 364/449/323 368/446/323
f 364/449/324 363/456/324 367/447/324
f 354/59/608 362/58/608 361/450/608
f 358/54/326 366/53/326 365/452/326
f 25/40/609 352/454/609 360/444/609
f 352/454/610 351/461/610 359/445/610
f 27/56/611 356/455/611 364/449/611
f 356/455/330 355/459/330 363/456/330
f 370/448/323 366/53/323 32/392/323
f 369/457/324 365/452/324 366/53/324
f 48/51/612 374/443/612 362/58/612
f 374/443/613 373/470/613 361/450/613
f 22/68/614 346/458/614 356/455/614
f 346/458/324 345/465/324 355/459/324
f 24/64/615 350/460/615 352/454/615
f 350/460/616 349/464/616 351/461/616
f 354/59/617 343/463/617 21/462/617
f 353/451/618 344/471/618 343/463/618
f 70/437/619 378/436/619 350/460/619
f 378/436/620 377/438/620 349/464/620
f 358/54/614 348/439/614 23/100/614
f 357/453/324 347/440/324 348/439/324
f 72/431/621 382/433/621 346/458/621
f 382/433/622 381/469/622 345/465/622
f 411/399/623 383/401/623 409/404/623
f 383/401/624 393/423/624 385/420/624
f 409/404/623 383/401/623 385/420/623
f 393/423/625 391/468/625 395/418/625
f 413/397/626 411/399/626 409/404/626
f 391/468/627 389/424/627 373/470/627
f 415/394/628 413/397/628 367/447/628
f 385/420/624 393/423/624 395/418/624
f 369/457/629 407/406/629 405/408/629
f 355/459/630 345/465/630 363/456/630
f 345/465/631 381/469/631 363/456/631
f 369/457/632 367/447/632 413/397/632
f 367/447/633 363/456/633 417/432/633
f 363/456/634 381/469/634 417/432/634
f 365/452/633 369/457/633 403/411/633
f 367/447/635 417/432/635 415/394/635
f 347/440/630 357/453/630 365/452/630
f 375/466/636 347/440/636 365/452/636
f 403/411/637 375/466/637 365/452/637
f 405/408/638 403/411/638 369/457/638
f 369/457/632 413/397/632 407/406/632
f 413/397/626 409/404/626 407/406/626
f 389/424/639 387/426/639 373/470/639
f 391/468/640 373/470/640 397/467/640
f 387/426/641 379/430/641 361/450/641
f 379/430/642 344/435/642 361/450/642
f 344/435/643 353/451/643 361/450/643
f 361/450/644 373/470/644 387/426/644
f 373/470/645 371/442/645 397/467/645
f 391/468/625 397/467/625 395/418/625
f 399/416/646 397/467/646 371/442/646
f 371/442/647 359/445/647 401/413/647
f 359/445/648 351/461/648 349/464/648
f 359/445/649 349/464/649 377/438/649
f 399/416/650 371/442/650 401/413/650
