# Blender v2.90.1 OBJ File: 'gateTollan_chevron.blend'
# www.blender.org
v -0.120388 3.919841 0.057313
v -0.120388 3.920954 0.080405
v 0.120388 3.919841 0.057313
v 0.120388 3.920954 0.080405
v -0.077396 3.919841 0.057313
v -0.077396 3.920954 0.080405
v 0.077396 3.919841 0.057313
v 0.077396 3.920954 0.080405
v -0.120388 3.919596 0.105142
v -0.120388 3.917110 0.131235
v -0.120388 3.914677 0.158783
v -0.120388 3.907893 0.187815
v 0.120388 3.919596 0.105142
v 0.120388 3.917110 0.131235
v 0.120388 3.914677 0.158783
v 0.120388 3.907893 0.187815
v -0.077396 3.919596 0.105142
v -0.077396 3.917110 0.131235
v -0.077396 3.914677 0.158783
v -0.077396 3.907893 0.187815
v 0.077396 3.919596 0.105142
v 0.077396 3.917110 0.131235
v 0.077396 3.914677 0.158783
v 0.077396 3.907893 0.187815
v -0.077396 3.906119 -0.004167
v 0.077396 3.906119 -0.004167
v -0.120388 3.906119 -0.004167
v -0.120388 3.912940 0.015056
v -0.120388 3.916810 0.035535
v 0.120388 3.906119 -0.004167
v 0.120388 3.912940 0.015056
v 0.120388 3.916810 0.035535
v -0.077396 3.912940 0.015056
v -0.077396 3.916810 0.035535
v 0.077396 3.912940 0.015056
v 0.077396 3.916810 0.035535
v -0.120388 3.971265 0.055741
v -0.120388 3.972378 0.078833
v 0.120388 3.971265 0.055741
v 0.120388 3.972378 0.078833
v -0.077396 3.971265 0.055741
v -0.077396 3.972378 0.078833
v 0.077396 3.971265 0.055741
v 0.077396 3.972378 0.078833
v -0.120388 3.971020 0.103570
v -0.120388 3.968534 0.129662
v -0.120388 3.966101 0.157211
v -0.120388 3.959316 0.186243
v 0.120388 3.971020 0.103570
v 0.120388 3.968534 0.129662
v 0.120388 3.966101 0.157211
v 0.120388 3.959316 0.186243
v -0.077396 3.971020 0.103570
v -0.077396 3.968534 0.129662
v -0.077396 3.966101 0.157211
v -0.077396 3.959316 0.186243
v 0.077396 3.971020 0.103570
v 0.077396 3.968534 0.129662
v 0.077396 3.966101 0.157211
v 0.077396 3.959316 0.186243
v -0.077396 3.957543 -0.005739
v 0.077396 3.957543 -0.005739
v -0.120388 3.957543 -0.005739
v -0.120388 3.964364 0.013484
v -0.120388 3.968234 0.033963
v 0.120388 3.957543 -0.005739
v 0.120388 3.964364 0.013484
v 0.120388 3.968234 0.033963
v -0.077396 3.964364 0.013484
v -0.077396 3.968234 0.033963
v 0.077396 3.964364 0.013484
v 0.077396 3.968234 0.033963
vt 0.793836 0.958182
vt 0.609215 0.981109
vt 0.793836 0.981109
vt 0.793836 0.907782
vt 0.845111 0.880241
vt 0.793836 0.880241
vt 0.609215 0.907782
vt 0.557940 0.880241
vt 0.557940 0.907782
vt 0.609215 0.958182
vt 0.793836 0.933757
vt 0.609215 0.933757
vt 0.609215 0.880241
vt 0.793836 0.850737
vt 0.609215 0.850737
vt 0.845111 0.850737
vt 0.845111 0.819617
vt 0.793836 0.819617
vt 0.845111 0.786760
vt 0.793836 0.786760
vt 0.845111 0.752134
vt 0.793836 0.752134
vt 0.557940 0.850737
vt 0.557940 0.819617
vt 0.609215 0.819617
vt 0.557940 0.786760
vt 0.609215 0.786760
vt 0.557940 0.752134
vt 0.557940 0.958182
vt 0.557940 0.981109
vt 0.557940 0.933757
vt 0.845111 0.981109
vt 0.845111 0.958182
vt 0.845111 0.907782
vt 0.609215 0.752134
vt 0.845111 0.933757
vt 0.793836 0.958182
vt 0.609215 0.981109
vt 0.793836 0.981109
vt 0.793836 0.907782
vt 0.845111 0.880241
vt 0.793836 0.880241
vt 0.609215 0.907782
vt 0.557940 0.880241
vt 0.557940 0.907782
vt 0.609215 0.958182
vt 0.793836 0.933757
vt 0.609215 0.933757
vt 0.609215 0.880241
vt 0.793836 0.850737
vt 0.609215 0.850737
vt 0.845111 0.850737
vt 0.845111 0.819617
vt 0.793836 0.819617
vt 0.845111 0.786760
vt 0.793836 0.786760
vt 0.845111 0.752134
vt 0.793836 0.752134
vt 0.557940 0.850737
vt 0.557940 0.819617
vt 0.609215 0.819617
vt 0.557940 0.786760
vt 0.609215 0.786760
vt 0.557940 0.752134
vt 0.557940 0.958182
vt 0.557940 0.981109
vt 0.557940 0.933757
vt 0.845111 0.981109
vt 0.845111 0.958182
vt 0.845111 0.907782
vt 0.609215 0.752134
vt 0.845111 0.933757
vn 0.0000 -0.9424 0.3344
vn 0.0000 -0.9988 0.0481
vn 0.0000 -0.9826 0.1857
vn 0.0000 -0.9905 0.1378
vn 0.0000 -0.9985 -0.0548
vn -0.0000 -0.9955 -0.0948
vn 0.0000 -0.9961 -0.0880
vn -0.0000 -0.9738 -0.2276
vn 0.0000 -0.9905 0.1379
vn 1.0000 0.0000 0.0000
vn 0.0000 0.0306 0.9995
vn -1.0000 0.0000 0.0000
vn -0.0000 -0.0306 -0.9995
s off
f 35/1/1 25/2/1 26/3/1
f 7/4/2 4/5/2 8/6/2
f 5/7/2 2/8/2 1/9/2
f 33/10/3 36/11/3 34/12/3
f 34/12/4 7/4/4 5/7/4
f 5/7/2 8/6/2 6/13/2
f 6/13/5 21/14/5 17/15/5
f 8/6/5 13/16/5 21/14/5
f 21/14/6 14/17/6 22/18/6
f 22/18/7 15/19/7 23/20/7
f 23/20/8 16/21/8 24/22/8
f 6/13/5 9/23/5 2/8/5
f 17/15/6 10/24/6 9/23/6
f 18/25/7 11/26/7 10/24/7
f 19/27/8 12/28/8 11/26/8
f 25/2/1 28/29/1 27/30/1
f 33/10/3 29/31/3 28/29/3
f 34/12/4 1/9/4 29/31/4
f 30/32/1 35/1/1 26/3/1
f 31/33/3 36/11/3 35/1/3
f 36/11/9 3/34/9 7/4/9
f 17/15/6 22/18/6 18/25/6
f 18/25/7 23/20/7 19/27/7
f 19/27/8 24/22/8 20/35/8
f 35/1/1 33/10/1 25/2/1
f 7/4/2 3/34/2 4/5/2
f 5/7/2 6/13/2 2/8/2
f 33/10/3 35/1/3 36/11/3
f 34/12/9 36/11/9 7/4/9
f 5/7/2 7/4/2 8/6/2
f 6/13/5 8/6/5 21/14/5
f 8/6/5 4/5/5 13/16/5
f 21/14/6 13/16/6 14/17/6
f 22/18/7 14/17/7 15/19/7
f 23/20/8 15/19/8 16/21/8
f 6/13/5 17/15/5 9/23/5
f 17/15/6 18/25/6 10/24/6
f 18/25/7 19/27/7 11/26/7
f 19/27/8 20/35/8 12/28/8
f 25/2/1 33/10/1 28/29/1
f 33/10/3 34/12/3 29/31/3
f 34/12/9 5/7/9 1/9/9
f 30/32/1 31/33/1 35/1/1
f 31/33/3 32/36/3 36/11/3
f 36/11/4 32/36/4 3/34/4
f 17/15/6 21/14/6 22/18/6
f 18/25/7 22/18/7 23/20/7
f 19/27/8 23/20/8 24/22/8
f 71/37/1 61/38/1 62/39/1
f 43/40/2 40/41/2 44/42/2
f 41/43/2 38/44/2 37/45/2
f 69/46/3 72/47/3 70/48/3
f 70/48/9 43/40/9 41/43/9
f 41/43/2 44/42/2 42/49/2
f 42/49/5 57/50/5 53/51/5
f 44/42/5 49/52/5 57/50/5
f 57/50/6 50/53/6 58/54/6
f 58/54/7 51/55/7 59/56/7
f 59/56/8 52/57/8 60/58/8
f 42/49/5 45/59/5 38/44/5
f 53/51/6 46/60/6 45/59/6
f 54/61/7 47/62/7 46/60/7
f 55/63/8 48/64/8 47/62/8
f 61/38/1 64/65/1 63/66/1
f 69/46/3 65/67/3 64/65/3
f 70/48/4 37/45/4 65/67/4
f 66/68/1 71/37/1 62/39/1
f 67/69/3 72/47/3 71/37/3
f 72/47/9 39/70/9 43/40/9
f 53/51/6 58/54/6 54/61/6
f 54/61/7 59/56/7 55/63/7
f 55/63/8 60/58/8 56/71/8
f 71/37/1 69/46/1 61/38/1
f 43/40/2 39/70/2 40/41/2
f 41/43/2 42/49/2 38/44/2
f 69/46/3 71/37/3 72/47/3
f 70/48/9 72/47/9 43/40/9
f 41/43/2 43/40/2 44/42/2
f 42/49/5 44/42/5 57/50/5
f 44/42/5 40/41/5 49/52/5
f 57/50/6 49/52/6 50/53/6
f 58/54/7 50/53/7 51/55/7
f 59/56/8 51/55/8 52/57/8
f 42/49/5 53/51/5 45/59/5
f 53/51/6 54/61/6 46/60/6
f 54/61/7 55/63/7 47/62/7
f 55/63/8 56/71/8 48/64/8
f 61/38/1 69/46/1 64/65/1
f 69/46/3 70/48/3 65/67/3
f 70/48/9 41/43/9 37/45/9
f 66/68/1 67/69/1 71/37/1
f 67/69/3 68/72/3 72/47/3
f 72/47/4 68/72/4 39/70/4
f 53/51/6 57/50/6 58/54/6
f 54/61/7 58/54/7 59/56/7
f 55/63/8 59/56/8 60/58/8
f 29/31/10 64/65/10 65/67/10
f 25/2/11 63/66/11 27/30/11
f 4/5/12 49/52/12 40/41/12
f 1/9/10 65/67/10 37/45/10
f 13/16/12 50/53/12 49/52/12
f 16/21/13 60/58/13 52/57/13
f 31/33/12 66/68/12 30/32/12
f 14/17/12 51/55/12 50/53/12
f 32/36/12 67/69/12 31/33/12
f 15/19/12 52/57/12 51/55/12
f 2/8/10 45/59/10 9/23/10
f 20/35/13 60/58/13 24/22/13
f 3/34/12 68/72/12 32/36/12
f 30/32/11 62/39/11 26/3/11
f 9/23/10 46/60/10 10/24/10
f 26/3/11 61/38/11 25/2/11
f 2/8/10 37/45/10 38/44/10
f 12/28/13 56/71/13 20/35/13
f 10/24/10 47/62/10 11/26/10
f 4/5/12 39/70/12 3/34/12
f 28/29/10 63/66/10 64/65/10
f 11/26/10 48/64/10 12/28/10
f 29/31/10 28/29/10 64/65/10
f 25/2/11 61/38/11 63/66/11
f 4/5/12 13/16/12 49/52/12
f 1/9/10 29/31/10 65/67/10
f 13/16/12 14/17/12 50/53/12
f 16/21/13 24/22/13 60/58/13
f 31/33/12 67/69/12 66/68/12
f 14/17/12 15/19/12 51/55/12
f 32/36/12 68/72/12 67/69/12
f 15/19/12 16/21/12 52/57/12
f 2/8/10 38/44/10 45/59/10
f 20/35/13 56/71/13 60/58/13
f 3/34/12 39/70/12 68/72/12
f 30/32/11 66/68/11 62/39/11
f 9/23/10 45/59/10 46/60/10
f 26/3/11 62/39/11 61/38/11
f 2/8/10 1/9/10 37/45/10
f 12/28/13 48/64/13 56/71/13
f 10/24/10 46/60/10 47/62/10
f 4/5/12 40/41/12 39/70/12
f 28/29/10 27/30/10 63/66/10
f 11/26/10 47/62/10 48/64/10
